%TF.GenerationSoftware,KiCad,Pcbnew,5.1.6-1.fc32*%
%TF.CreationDate,2020-08-22T09:30:13+02:00*%
%TF.ProjectId,pm_monitor_1,706d5f6d-6f6e-4697-946f-725f312e6b69,rev?*%
%TF.SameCoordinates,Original*%
%TF.FileFunction,Legend,Top*%
%TF.FilePolarity,Positive*%
%FSLAX46Y46*%
G04 Gerber Fmt 4.6, Leading zero omitted, Abs format (unit mm)*
G04 Created by KiCad (PCBNEW 5.1.6-1.fc32) date 2020-08-22 09:30:13*
%MOMM*%
%LPD*%
G01*
G04 APERTURE LIST*
%ADD10C,0.150000*%
%ADD11C,0.120000*%
%ADD12C,0.010000*%
%ADD13C,0.100000*%
G04 APERTURE END LIST*
D10*
X79823809Y-58560714D02*
X79823809Y-59560714D01*
X79823809Y-58608333D02*
X79919047Y-58560714D01*
X80109523Y-58560714D01*
X80204761Y-58608333D01*
X80252380Y-58655952D01*
X80300000Y-58751190D01*
X80300000Y-59036904D01*
X80252380Y-59132142D01*
X80204761Y-59179761D01*
X80109523Y-59227380D01*
X79919047Y-59227380D01*
X79823809Y-59179761D01*
X80728571Y-59227380D02*
X80728571Y-58560714D01*
X80728571Y-58655952D02*
X80776190Y-58608333D01*
X80871428Y-58560714D01*
X81014285Y-58560714D01*
X81109523Y-58608333D01*
X81157142Y-58703571D01*
X81157142Y-59227380D01*
X81157142Y-58703571D02*
X81204761Y-58608333D01*
X81300000Y-58560714D01*
X81442857Y-58560714D01*
X81538095Y-58608333D01*
X81585714Y-58703571D01*
X81585714Y-59227380D01*
X81823809Y-59322619D02*
X82585714Y-59322619D01*
X82823809Y-59227380D02*
X82823809Y-58560714D01*
X82823809Y-58655952D02*
X82871428Y-58608333D01*
X82966666Y-58560714D01*
X83109523Y-58560714D01*
X83204761Y-58608333D01*
X83252380Y-58703571D01*
X83252380Y-59227380D01*
X83252380Y-58703571D02*
X83300000Y-58608333D01*
X83395238Y-58560714D01*
X83538095Y-58560714D01*
X83633333Y-58608333D01*
X83680952Y-58703571D01*
X83680952Y-59227380D01*
X84300000Y-59227380D02*
X84204761Y-59179761D01*
X84157142Y-59132142D01*
X84109523Y-59036904D01*
X84109523Y-58751190D01*
X84157142Y-58655952D01*
X84204761Y-58608333D01*
X84300000Y-58560714D01*
X84442857Y-58560714D01*
X84538095Y-58608333D01*
X84585714Y-58655952D01*
X84633333Y-58751190D01*
X84633333Y-59036904D01*
X84585714Y-59132142D01*
X84538095Y-59179761D01*
X84442857Y-59227380D01*
X84300000Y-59227380D01*
X85061904Y-58560714D02*
X85061904Y-59227380D01*
X85061904Y-58655952D02*
X85109523Y-58608333D01*
X85204761Y-58560714D01*
X85347619Y-58560714D01*
X85442857Y-58608333D01*
X85490476Y-58703571D01*
X85490476Y-59227380D01*
X85966666Y-59227380D02*
X85966666Y-58560714D01*
X85966666Y-58227380D02*
X85919047Y-58275000D01*
X85966666Y-58322619D01*
X86014285Y-58275000D01*
X85966666Y-58227380D01*
X85966666Y-58322619D01*
X86300000Y-58560714D02*
X86680952Y-58560714D01*
X86442857Y-58227380D02*
X86442857Y-59084523D01*
X86490476Y-59179761D01*
X86585714Y-59227380D01*
X86680952Y-59227380D01*
X87157142Y-59227380D02*
X87061904Y-59179761D01*
X87014285Y-59132142D01*
X86966666Y-59036904D01*
X86966666Y-58751190D01*
X87014285Y-58655952D01*
X87061904Y-58608333D01*
X87157142Y-58560714D01*
X87300000Y-58560714D01*
X87395238Y-58608333D01*
X87442857Y-58655952D01*
X87490476Y-58751190D01*
X87490476Y-59036904D01*
X87442857Y-59132142D01*
X87395238Y-59179761D01*
X87300000Y-59227380D01*
X87157142Y-59227380D01*
X87919047Y-59227380D02*
X87919047Y-58560714D01*
X87919047Y-58751190D02*
X87966666Y-58655952D01*
X88014285Y-58608333D01*
X88109523Y-58560714D01*
X88204761Y-58560714D01*
X88300000Y-59322619D02*
X89061904Y-59322619D01*
X89823809Y-59227380D02*
X89252380Y-59227380D01*
X89538095Y-59227380D02*
X89538095Y-58227380D01*
X89442857Y-58370238D01*
X89347619Y-58465476D01*
X89252380Y-58513095D01*
X80347619Y-61258333D02*
X80300000Y-61210714D01*
X80204761Y-61067857D01*
X80157142Y-60972619D01*
X80109523Y-60829761D01*
X80061904Y-60591666D01*
X80061904Y-60401190D01*
X80109523Y-60163095D01*
X80157142Y-60020238D01*
X80204761Y-59925000D01*
X80300000Y-59782142D01*
X80347619Y-59734523D01*
X81157142Y-60829761D02*
X81061904Y-60877380D01*
X80871428Y-60877380D01*
X80776190Y-60829761D01*
X80728571Y-60782142D01*
X80680952Y-60686904D01*
X80680952Y-60401190D01*
X80728571Y-60305952D01*
X80776190Y-60258333D01*
X80871428Y-60210714D01*
X81061904Y-60210714D01*
X81157142Y-60258333D01*
X81490476Y-61258333D02*
X81538095Y-61210714D01*
X81633333Y-61067857D01*
X81680952Y-60972619D01*
X81728571Y-60829761D01*
X81776190Y-60591666D01*
X81776190Y-60401190D01*
X81728571Y-60163095D01*
X81680952Y-60020238D01*
X81633333Y-59925000D01*
X81538095Y-59782142D01*
X81490476Y-59734523D01*
X82966666Y-59972619D02*
X83014285Y-59925000D01*
X83109523Y-59877380D01*
X83347619Y-59877380D01*
X83442857Y-59925000D01*
X83490476Y-59972619D01*
X83538095Y-60067857D01*
X83538095Y-60163095D01*
X83490476Y-60305952D01*
X82919047Y-60877380D01*
X83538095Y-60877380D01*
X84157142Y-59877380D02*
X84252380Y-59877380D01*
X84347619Y-59925000D01*
X84395238Y-59972619D01*
X84442857Y-60067857D01*
X84490476Y-60258333D01*
X84490476Y-60496428D01*
X84442857Y-60686904D01*
X84395238Y-60782142D01*
X84347619Y-60829761D01*
X84252380Y-60877380D01*
X84157142Y-60877380D01*
X84061904Y-60829761D01*
X84014285Y-60782142D01*
X83966666Y-60686904D01*
X83919047Y-60496428D01*
X83919047Y-60258333D01*
X83966666Y-60067857D01*
X84014285Y-59972619D01*
X84061904Y-59925000D01*
X84157142Y-59877380D01*
X84871428Y-59972619D02*
X84919047Y-59925000D01*
X85014285Y-59877380D01*
X85252380Y-59877380D01*
X85347619Y-59925000D01*
X85395238Y-59972619D01*
X85442857Y-60067857D01*
X85442857Y-60163095D01*
X85395238Y-60305952D01*
X84823809Y-60877380D01*
X85442857Y-60877380D01*
X86061904Y-59877380D02*
X86157142Y-59877380D01*
X86252380Y-59925000D01*
X86300000Y-59972619D01*
X86347619Y-60067857D01*
X86395238Y-60258333D01*
X86395238Y-60496428D01*
X86347619Y-60686904D01*
X86300000Y-60782142D01*
X86252380Y-60829761D01*
X86157142Y-60877380D01*
X86061904Y-60877380D01*
X85966666Y-60829761D01*
X85919047Y-60782142D01*
X85871428Y-60686904D01*
X85823809Y-60496428D01*
X85823809Y-60258333D01*
X85871428Y-60067857D01*
X85919047Y-59972619D01*
X85966666Y-59925000D01*
X86061904Y-59877380D01*
X87585714Y-60210714D02*
X87585714Y-61210714D01*
X87585714Y-60258333D02*
X87680952Y-60210714D01*
X87871428Y-60210714D01*
X87966666Y-60258333D01*
X88014285Y-60305952D01*
X88061904Y-60401190D01*
X88061904Y-60686904D01*
X88014285Y-60782142D01*
X87966666Y-60829761D01*
X87871428Y-60877380D01*
X87680952Y-60877380D01*
X87585714Y-60829761D01*
X88395238Y-60210714D02*
X88585714Y-60877380D01*
X88776190Y-60401190D01*
X88966666Y-60877380D01*
X89157142Y-60210714D01*
X89538095Y-60877380D02*
X89538095Y-60210714D01*
X89538095Y-59877380D02*
X89490476Y-59925000D01*
X89538095Y-59972619D01*
X89585714Y-59925000D01*
X89538095Y-59877380D01*
X89538095Y-59972619D01*
X59357142Y-64452380D02*
X59357142Y-63452380D01*
X59928571Y-64452380D01*
X59928571Y-63452380D01*
X60976190Y-64452380D02*
X60642857Y-63976190D01*
X60404761Y-64452380D02*
X60404761Y-63452380D01*
X60785714Y-63452380D01*
X60880952Y-63500000D01*
X60928571Y-63547619D01*
X60976190Y-63642857D01*
X60976190Y-63785714D01*
X60928571Y-63880952D01*
X60880952Y-63928571D01*
X60785714Y-63976190D01*
X60404761Y-63976190D01*
X61357142Y-64404761D02*
X61500000Y-64452380D01*
X61738095Y-64452380D01*
X61833333Y-64404761D01*
X61880952Y-64357142D01*
X61928571Y-64261904D01*
X61928571Y-64166666D01*
X61880952Y-64071428D01*
X61833333Y-64023809D01*
X61738095Y-63976190D01*
X61547619Y-63928571D01*
X61452380Y-63880952D01*
X61404761Y-63833333D01*
X61357142Y-63738095D01*
X61357142Y-63642857D01*
X61404761Y-63547619D01*
X61452380Y-63500000D01*
X61547619Y-63452380D01*
X61785714Y-63452380D01*
X61928571Y-63500000D01*
X62214285Y-63452380D02*
X62785714Y-63452380D01*
X62500000Y-64452380D02*
X62500000Y-63452380D01*
X59380952Y-67154761D02*
X59523809Y-67202380D01*
X59761904Y-67202380D01*
X59857142Y-67154761D01*
X59904761Y-67107142D01*
X59952380Y-67011904D01*
X59952380Y-66916666D01*
X59904761Y-66821428D01*
X59857142Y-66773809D01*
X59761904Y-66726190D01*
X59571428Y-66678571D01*
X59476190Y-66630952D01*
X59428571Y-66583333D01*
X59380952Y-66488095D01*
X59380952Y-66392857D01*
X59428571Y-66297619D01*
X59476190Y-66250000D01*
X59571428Y-66202380D01*
X59809523Y-66202380D01*
X59952380Y-66250000D01*
X60285714Y-66202380D02*
X60523809Y-67202380D01*
X60714285Y-66488095D01*
X60904761Y-67202380D01*
X61142857Y-66202380D01*
X61523809Y-67202380D02*
X61523809Y-66202380D01*
X61761904Y-66202380D01*
X61904761Y-66250000D01*
X62000000Y-66345238D01*
X62047619Y-66440476D01*
X62095238Y-66630952D01*
X62095238Y-66773809D01*
X62047619Y-66964285D01*
X62000000Y-67059523D01*
X61904761Y-67154761D01*
X61761904Y-67202380D01*
X61523809Y-67202380D01*
X62523809Y-67202380D02*
X62523809Y-66202380D01*
X63190476Y-66202380D02*
X63380952Y-66202380D01*
X63476190Y-66250000D01*
X63571428Y-66345238D01*
X63619047Y-66535714D01*
X63619047Y-66869047D01*
X63571428Y-67059523D01*
X63476190Y-67154761D01*
X63380952Y-67202380D01*
X63190476Y-67202380D01*
X63095238Y-67154761D01*
X63000000Y-67059523D01*
X62952380Y-66869047D01*
X62952380Y-66535714D01*
X63000000Y-66345238D01*
X63095238Y-66250000D01*
X63190476Y-66202380D01*
X59988095Y-68750000D02*
X59892857Y-68702380D01*
X59750000Y-68702380D01*
X59607142Y-68750000D01*
X59511904Y-68845238D01*
X59464285Y-68940476D01*
X59416666Y-69130952D01*
X59416666Y-69273809D01*
X59464285Y-69464285D01*
X59511904Y-69559523D01*
X59607142Y-69654761D01*
X59750000Y-69702380D01*
X59845238Y-69702380D01*
X59988095Y-69654761D01*
X60035714Y-69607142D01*
X60035714Y-69273809D01*
X59845238Y-69273809D01*
X60464285Y-69702380D02*
X60464285Y-68702380D01*
X61035714Y-69702380D01*
X61035714Y-68702380D01*
X61511904Y-69702380D02*
X61511904Y-68702380D01*
X61750000Y-68702380D01*
X61892857Y-68750000D01*
X61988095Y-68845238D01*
X62035714Y-68940476D01*
X62083333Y-69130952D01*
X62083333Y-69273809D01*
X62035714Y-69464285D01*
X61988095Y-69559523D01*
X61892857Y-69654761D01*
X61750000Y-69702380D01*
X61511904Y-69702380D01*
X59238095Y-71654761D02*
X59380952Y-71702380D01*
X59619047Y-71702380D01*
X59714285Y-71654761D01*
X59761904Y-71607142D01*
X59809523Y-71511904D01*
X59809523Y-71416666D01*
X59761904Y-71321428D01*
X59714285Y-71273809D01*
X59619047Y-71226190D01*
X59428571Y-71178571D01*
X59333333Y-71130952D01*
X59285714Y-71083333D01*
X59238095Y-70988095D01*
X59238095Y-70892857D01*
X59285714Y-70797619D01*
X59333333Y-70750000D01*
X59428571Y-70702380D01*
X59666666Y-70702380D01*
X59809523Y-70750000D01*
X60142857Y-70702380D02*
X60380952Y-71702380D01*
X60571428Y-70988095D01*
X60761904Y-71702380D01*
X61000000Y-70702380D01*
X61952380Y-71607142D02*
X61904761Y-71654761D01*
X61761904Y-71702380D01*
X61666666Y-71702380D01*
X61523809Y-71654761D01*
X61428571Y-71559523D01*
X61380952Y-71464285D01*
X61333333Y-71273809D01*
X61333333Y-71130952D01*
X61380952Y-70940476D01*
X61428571Y-70845238D01*
X61523809Y-70750000D01*
X61666666Y-70702380D01*
X61761904Y-70702380D01*
X61904761Y-70750000D01*
X61952380Y-70797619D01*
X62857142Y-71702380D02*
X62380952Y-71702380D01*
X62380952Y-70702380D01*
X63190476Y-71702380D02*
X63190476Y-70702380D01*
X63761904Y-71702380D02*
X63333333Y-71130952D01*
X63761904Y-70702380D02*
X63190476Y-71273809D01*
X59261904Y-73702380D02*
X59880952Y-73702380D01*
X59547619Y-74083333D01*
X59690476Y-74083333D01*
X59785714Y-74130952D01*
X59833333Y-74178571D01*
X59880952Y-74273809D01*
X59880952Y-74511904D01*
X59833333Y-74607142D01*
X59785714Y-74654761D01*
X59690476Y-74702380D01*
X59404761Y-74702380D01*
X59309523Y-74654761D01*
X59261904Y-74607142D01*
X60166666Y-73702380D02*
X60500000Y-74702380D01*
X60833333Y-73702380D01*
X61071428Y-73702380D02*
X61690476Y-73702380D01*
X61357142Y-74083333D01*
X61500000Y-74083333D01*
X61595238Y-74130952D01*
X61642857Y-74178571D01*
X61690476Y-74273809D01*
X61690476Y-74511904D01*
X61642857Y-74607142D01*
X61595238Y-74654761D01*
X61500000Y-74702380D01*
X61214285Y-74702380D01*
X61119047Y-74654761D01*
X61071428Y-74607142D01*
D11*
X74250000Y-69750000D02*
X74000000Y-70000000D01*
X75000000Y-69750000D02*
X74250000Y-69750000D01*
X74250000Y-69750000D02*
X75000000Y-69750000D01*
D12*
%TO.C,REF\u002A\u002A*%
G36*
X81755814Y-63668931D02*
G01*
X81839635Y-64113555D01*
X82148920Y-64241053D01*
X82458206Y-64368551D01*
X82829246Y-64116246D01*
X82933157Y-64045996D01*
X83027087Y-63983272D01*
X83106652Y-63930938D01*
X83167470Y-63891857D01*
X83205157Y-63868893D01*
X83215421Y-63863942D01*
X83233910Y-63876676D01*
X83273420Y-63911882D01*
X83329522Y-63965062D01*
X83397787Y-64031718D01*
X83473786Y-64107354D01*
X83553092Y-64187472D01*
X83631275Y-64267574D01*
X83703907Y-64343164D01*
X83766559Y-64409745D01*
X83814803Y-64462818D01*
X83844210Y-64497887D01*
X83851241Y-64509623D01*
X83841123Y-64531260D01*
X83812759Y-64578662D01*
X83769129Y-64647193D01*
X83713218Y-64732215D01*
X83648006Y-64829093D01*
X83610219Y-64884350D01*
X83541343Y-64985248D01*
X83480140Y-65076299D01*
X83429578Y-65152970D01*
X83392628Y-65210728D01*
X83372258Y-65245043D01*
X83369197Y-65252254D01*
X83376136Y-65272748D01*
X83395051Y-65320513D01*
X83423087Y-65388832D01*
X83457391Y-65470989D01*
X83495109Y-65560270D01*
X83533387Y-65649958D01*
X83569370Y-65733338D01*
X83600206Y-65803694D01*
X83623039Y-65854310D01*
X83635017Y-65878471D01*
X83635724Y-65879422D01*
X83654531Y-65884036D01*
X83704618Y-65894328D01*
X83780793Y-65909287D01*
X83877865Y-65927901D01*
X83990643Y-65949159D01*
X84056442Y-65961418D01*
X84176950Y-65984362D01*
X84285797Y-66006195D01*
X84377476Y-66025722D01*
X84446481Y-66041748D01*
X84487304Y-66053079D01*
X84495511Y-66056674D01*
X84503548Y-66081006D01*
X84510033Y-66135959D01*
X84514970Y-66215108D01*
X84518364Y-66312026D01*
X84520218Y-66420287D01*
X84520538Y-66533465D01*
X84519327Y-66645135D01*
X84516590Y-66748868D01*
X84512331Y-66838241D01*
X84506555Y-66906826D01*
X84499267Y-66948197D01*
X84494895Y-66956810D01*
X84468764Y-66967133D01*
X84413393Y-66981892D01*
X84336107Y-66999352D01*
X84244230Y-67017780D01*
X84212158Y-67023741D01*
X84057524Y-67052066D01*
X83935375Y-67074876D01*
X83841673Y-67093080D01*
X83772384Y-67107583D01*
X83723471Y-67119292D01*
X83690897Y-67129115D01*
X83670628Y-67137956D01*
X83658626Y-67146724D01*
X83656947Y-67148457D01*
X83640184Y-67176371D01*
X83614614Y-67230695D01*
X83582788Y-67304777D01*
X83547260Y-67391965D01*
X83510583Y-67485608D01*
X83475311Y-67579052D01*
X83443996Y-67665647D01*
X83419193Y-67738740D01*
X83403454Y-67791678D01*
X83399332Y-67817811D01*
X83399676Y-67818726D01*
X83413641Y-67840086D01*
X83445322Y-67887084D01*
X83491391Y-67954827D01*
X83548518Y-68038423D01*
X83613373Y-68132982D01*
X83631843Y-68159854D01*
X83697699Y-68257275D01*
X83755650Y-68346163D01*
X83802538Y-68421412D01*
X83835207Y-68477920D01*
X83850500Y-68510581D01*
X83851241Y-68514593D01*
X83838392Y-68535684D01*
X83802888Y-68577464D01*
X83749293Y-68635445D01*
X83682171Y-68705135D01*
X83606087Y-68782045D01*
X83525604Y-68861683D01*
X83445287Y-68939561D01*
X83369699Y-69011186D01*
X83303405Y-69072070D01*
X83250969Y-69117721D01*
X83216955Y-69143650D01*
X83207545Y-69147883D01*
X83185643Y-69137912D01*
X83140800Y-69111020D01*
X83080321Y-69071736D01*
X83033789Y-69040117D01*
X82949475Y-68982098D01*
X82849626Y-68913784D01*
X82749473Y-68845579D01*
X82695627Y-68809075D01*
X82513371Y-68685800D01*
X82360381Y-68768520D01*
X82290682Y-68804759D01*
X82231414Y-68832926D01*
X82191311Y-68848991D01*
X82181103Y-68851226D01*
X82168829Y-68834722D01*
X82144613Y-68788082D01*
X82110263Y-68715609D01*
X82067588Y-68621606D01*
X82018394Y-68510374D01*
X81964490Y-68386215D01*
X81907684Y-68253432D01*
X81849782Y-68116327D01*
X81792593Y-67979202D01*
X81737924Y-67846358D01*
X81687584Y-67722098D01*
X81643380Y-67610725D01*
X81607119Y-67516539D01*
X81580609Y-67443844D01*
X81565658Y-67396941D01*
X81563254Y-67380833D01*
X81582311Y-67360286D01*
X81624036Y-67326933D01*
X81679706Y-67287702D01*
X81684378Y-67284599D01*
X81828264Y-67169423D01*
X81944283Y-67035053D01*
X82031430Y-66885784D01*
X82088699Y-66725913D01*
X82115086Y-66559737D01*
X82109585Y-66391552D01*
X82071190Y-66225655D01*
X81998895Y-66066342D01*
X81977626Y-66031487D01*
X81866996Y-65890737D01*
X81736302Y-65777714D01*
X81590064Y-65693003D01*
X81432808Y-65637194D01*
X81269057Y-65610874D01*
X81103333Y-65614630D01*
X80940162Y-65649050D01*
X80784065Y-65714723D01*
X80639567Y-65812235D01*
X80594869Y-65851813D01*
X80481112Y-65975703D01*
X80398218Y-66106124D01*
X80341356Y-66252315D01*
X80309687Y-66397088D01*
X80301869Y-66559860D01*
X80327938Y-66723440D01*
X80385245Y-66882298D01*
X80471144Y-67030906D01*
X80582986Y-67163735D01*
X80718123Y-67275256D01*
X80735883Y-67287011D01*
X80792150Y-67325508D01*
X80834923Y-67358863D01*
X80855372Y-67380160D01*
X80855669Y-67380833D01*
X80851279Y-67403871D01*
X80833876Y-67456157D01*
X80805268Y-67533390D01*
X80767265Y-67631268D01*
X80721674Y-67745491D01*
X80670303Y-67871758D01*
X80614962Y-68005767D01*
X80557458Y-68143218D01*
X80499601Y-68279808D01*
X80443198Y-68411237D01*
X80390058Y-68533205D01*
X80341990Y-68641409D01*
X80300801Y-68731549D01*
X80268301Y-68799323D01*
X80246297Y-68840430D01*
X80237436Y-68851226D01*
X80210360Y-68842819D01*
X80159697Y-68820272D01*
X80094183Y-68787613D01*
X80058159Y-68768520D01*
X79905168Y-68685800D01*
X79722912Y-68809075D01*
X79629875Y-68872228D01*
X79528015Y-68941727D01*
X79432562Y-69007165D01*
X79384750Y-69040117D01*
X79317505Y-69085273D01*
X79260564Y-69121057D01*
X79221354Y-69142938D01*
X79208619Y-69147563D01*
X79190083Y-69135085D01*
X79149059Y-69100252D01*
X79089525Y-69046678D01*
X79015458Y-68977983D01*
X78930835Y-68897781D01*
X78877315Y-68846286D01*
X78783681Y-68754286D01*
X78702759Y-68671999D01*
X78637823Y-68602945D01*
X78592142Y-68550644D01*
X78568989Y-68518616D01*
X78566768Y-68512116D01*
X78577076Y-68487394D01*
X78605561Y-68437405D01*
X78649063Y-68367212D01*
X78704423Y-68281875D01*
X78768480Y-68186456D01*
X78786697Y-68159854D01*
X78853073Y-68063167D01*
X78912622Y-67976117D01*
X78962016Y-67903595D01*
X78997925Y-67850493D01*
X79017019Y-67821703D01*
X79018864Y-67818726D01*
X79016105Y-67795782D01*
X79001462Y-67745336D01*
X78977487Y-67674041D01*
X78946734Y-67588547D01*
X78911756Y-67495507D01*
X78875107Y-67401574D01*
X78839339Y-67313399D01*
X78807006Y-67237634D01*
X78780662Y-67180931D01*
X78762858Y-67149943D01*
X78761593Y-67148457D01*
X78750706Y-67139601D01*
X78732318Y-67130843D01*
X78702394Y-67121277D01*
X78656897Y-67109996D01*
X78591791Y-67096093D01*
X78503039Y-67078663D01*
X78386607Y-67056798D01*
X78238458Y-67029591D01*
X78206382Y-67023741D01*
X78111314Y-67005374D01*
X78028435Y-66987405D01*
X77965070Y-66971569D01*
X77928542Y-66959600D01*
X77923644Y-66956810D01*
X77915573Y-66932072D01*
X77909013Y-66876790D01*
X77903967Y-66797389D01*
X77900441Y-66700296D01*
X77898439Y-66591938D01*
X77897964Y-66478740D01*
X77899023Y-66367128D01*
X77901618Y-66263529D01*
X77905754Y-66174368D01*
X77911437Y-66106072D01*
X77918669Y-66065066D01*
X77923029Y-66056674D01*
X77947302Y-66048208D01*
X78002574Y-66034435D01*
X78083338Y-66016550D01*
X78184088Y-65995748D01*
X78299317Y-65973223D01*
X78362098Y-65961418D01*
X78481213Y-65939151D01*
X78587435Y-65918979D01*
X78675573Y-65901915D01*
X78740434Y-65888969D01*
X78776826Y-65881155D01*
X78782816Y-65879422D01*
X78792939Y-65859890D01*
X78814338Y-65812843D01*
X78844161Y-65745003D01*
X78879555Y-65663091D01*
X78917668Y-65573828D01*
X78955647Y-65483935D01*
X78990640Y-65400135D01*
X79019794Y-65329147D01*
X79040257Y-65277694D01*
X79049177Y-65252497D01*
X79049343Y-65251396D01*
X79039231Y-65231519D01*
X79010883Y-65185777D01*
X78967277Y-65118717D01*
X78911394Y-65034884D01*
X78846213Y-64938826D01*
X78808321Y-64883650D01*
X78739275Y-64782481D01*
X78677950Y-64690630D01*
X78627337Y-64612744D01*
X78590429Y-64553469D01*
X78570218Y-64517451D01*
X78567299Y-64509377D01*
X78579847Y-64490584D01*
X78614537Y-64450457D01*
X78666937Y-64393493D01*
X78732616Y-64324185D01*
X78807144Y-64247031D01*
X78886087Y-64166525D01*
X78965017Y-64087163D01*
X79039500Y-64013440D01*
X79105106Y-63949852D01*
X79157404Y-63900894D01*
X79191961Y-63871061D01*
X79203522Y-63863942D01*
X79222346Y-63873953D01*
X79267369Y-63902078D01*
X79334213Y-63945454D01*
X79418501Y-64001218D01*
X79515856Y-64066506D01*
X79589293Y-64116246D01*
X79960333Y-64368551D01*
X80578905Y-64113555D01*
X80662725Y-63668931D01*
X80746546Y-63224307D01*
X81671994Y-63224307D01*
X81755814Y-63668931D01*
G37*
X81755814Y-63668931D02*
X81839635Y-64113555D01*
X82148920Y-64241053D01*
X82458206Y-64368551D01*
X82829246Y-64116246D01*
X82933157Y-64045996D01*
X83027087Y-63983272D01*
X83106652Y-63930938D01*
X83167470Y-63891857D01*
X83205157Y-63868893D01*
X83215421Y-63863942D01*
X83233910Y-63876676D01*
X83273420Y-63911882D01*
X83329522Y-63965062D01*
X83397787Y-64031718D01*
X83473786Y-64107354D01*
X83553092Y-64187472D01*
X83631275Y-64267574D01*
X83703907Y-64343164D01*
X83766559Y-64409745D01*
X83814803Y-64462818D01*
X83844210Y-64497887D01*
X83851241Y-64509623D01*
X83841123Y-64531260D01*
X83812759Y-64578662D01*
X83769129Y-64647193D01*
X83713218Y-64732215D01*
X83648006Y-64829093D01*
X83610219Y-64884350D01*
X83541343Y-64985248D01*
X83480140Y-65076299D01*
X83429578Y-65152970D01*
X83392628Y-65210728D01*
X83372258Y-65245043D01*
X83369197Y-65252254D01*
X83376136Y-65272748D01*
X83395051Y-65320513D01*
X83423087Y-65388832D01*
X83457391Y-65470989D01*
X83495109Y-65560270D01*
X83533387Y-65649958D01*
X83569370Y-65733338D01*
X83600206Y-65803694D01*
X83623039Y-65854310D01*
X83635017Y-65878471D01*
X83635724Y-65879422D01*
X83654531Y-65884036D01*
X83704618Y-65894328D01*
X83780793Y-65909287D01*
X83877865Y-65927901D01*
X83990643Y-65949159D01*
X84056442Y-65961418D01*
X84176950Y-65984362D01*
X84285797Y-66006195D01*
X84377476Y-66025722D01*
X84446481Y-66041748D01*
X84487304Y-66053079D01*
X84495511Y-66056674D01*
X84503548Y-66081006D01*
X84510033Y-66135959D01*
X84514970Y-66215108D01*
X84518364Y-66312026D01*
X84520218Y-66420287D01*
X84520538Y-66533465D01*
X84519327Y-66645135D01*
X84516590Y-66748868D01*
X84512331Y-66838241D01*
X84506555Y-66906826D01*
X84499267Y-66948197D01*
X84494895Y-66956810D01*
X84468764Y-66967133D01*
X84413393Y-66981892D01*
X84336107Y-66999352D01*
X84244230Y-67017780D01*
X84212158Y-67023741D01*
X84057524Y-67052066D01*
X83935375Y-67074876D01*
X83841673Y-67093080D01*
X83772384Y-67107583D01*
X83723471Y-67119292D01*
X83690897Y-67129115D01*
X83670628Y-67137956D01*
X83658626Y-67146724D01*
X83656947Y-67148457D01*
X83640184Y-67176371D01*
X83614614Y-67230695D01*
X83582788Y-67304777D01*
X83547260Y-67391965D01*
X83510583Y-67485608D01*
X83475311Y-67579052D01*
X83443996Y-67665647D01*
X83419193Y-67738740D01*
X83403454Y-67791678D01*
X83399332Y-67817811D01*
X83399676Y-67818726D01*
X83413641Y-67840086D01*
X83445322Y-67887084D01*
X83491391Y-67954827D01*
X83548518Y-68038423D01*
X83613373Y-68132982D01*
X83631843Y-68159854D01*
X83697699Y-68257275D01*
X83755650Y-68346163D01*
X83802538Y-68421412D01*
X83835207Y-68477920D01*
X83850500Y-68510581D01*
X83851241Y-68514593D01*
X83838392Y-68535684D01*
X83802888Y-68577464D01*
X83749293Y-68635445D01*
X83682171Y-68705135D01*
X83606087Y-68782045D01*
X83525604Y-68861683D01*
X83445287Y-68939561D01*
X83369699Y-69011186D01*
X83303405Y-69072070D01*
X83250969Y-69117721D01*
X83216955Y-69143650D01*
X83207545Y-69147883D01*
X83185643Y-69137912D01*
X83140800Y-69111020D01*
X83080321Y-69071736D01*
X83033789Y-69040117D01*
X82949475Y-68982098D01*
X82849626Y-68913784D01*
X82749473Y-68845579D01*
X82695627Y-68809075D01*
X82513371Y-68685800D01*
X82360381Y-68768520D01*
X82290682Y-68804759D01*
X82231414Y-68832926D01*
X82191311Y-68848991D01*
X82181103Y-68851226D01*
X82168829Y-68834722D01*
X82144613Y-68788082D01*
X82110263Y-68715609D01*
X82067588Y-68621606D01*
X82018394Y-68510374D01*
X81964490Y-68386215D01*
X81907684Y-68253432D01*
X81849782Y-68116327D01*
X81792593Y-67979202D01*
X81737924Y-67846358D01*
X81687584Y-67722098D01*
X81643380Y-67610725D01*
X81607119Y-67516539D01*
X81580609Y-67443844D01*
X81565658Y-67396941D01*
X81563254Y-67380833D01*
X81582311Y-67360286D01*
X81624036Y-67326933D01*
X81679706Y-67287702D01*
X81684378Y-67284599D01*
X81828264Y-67169423D01*
X81944283Y-67035053D01*
X82031430Y-66885784D01*
X82088699Y-66725913D01*
X82115086Y-66559737D01*
X82109585Y-66391552D01*
X82071190Y-66225655D01*
X81998895Y-66066342D01*
X81977626Y-66031487D01*
X81866996Y-65890737D01*
X81736302Y-65777714D01*
X81590064Y-65693003D01*
X81432808Y-65637194D01*
X81269057Y-65610874D01*
X81103333Y-65614630D01*
X80940162Y-65649050D01*
X80784065Y-65714723D01*
X80639567Y-65812235D01*
X80594869Y-65851813D01*
X80481112Y-65975703D01*
X80398218Y-66106124D01*
X80341356Y-66252315D01*
X80309687Y-66397088D01*
X80301869Y-66559860D01*
X80327938Y-66723440D01*
X80385245Y-66882298D01*
X80471144Y-67030906D01*
X80582986Y-67163735D01*
X80718123Y-67275256D01*
X80735883Y-67287011D01*
X80792150Y-67325508D01*
X80834923Y-67358863D01*
X80855372Y-67380160D01*
X80855669Y-67380833D01*
X80851279Y-67403871D01*
X80833876Y-67456157D01*
X80805268Y-67533390D01*
X80767265Y-67631268D01*
X80721674Y-67745491D01*
X80670303Y-67871758D01*
X80614962Y-68005767D01*
X80557458Y-68143218D01*
X80499601Y-68279808D01*
X80443198Y-68411237D01*
X80390058Y-68533205D01*
X80341990Y-68641409D01*
X80300801Y-68731549D01*
X80268301Y-68799323D01*
X80246297Y-68840430D01*
X80237436Y-68851226D01*
X80210360Y-68842819D01*
X80159697Y-68820272D01*
X80094183Y-68787613D01*
X80058159Y-68768520D01*
X79905168Y-68685800D01*
X79722912Y-68809075D01*
X79629875Y-68872228D01*
X79528015Y-68941727D01*
X79432562Y-69007165D01*
X79384750Y-69040117D01*
X79317505Y-69085273D01*
X79260564Y-69121057D01*
X79221354Y-69142938D01*
X79208619Y-69147563D01*
X79190083Y-69135085D01*
X79149059Y-69100252D01*
X79089525Y-69046678D01*
X79015458Y-68977983D01*
X78930835Y-68897781D01*
X78877315Y-68846286D01*
X78783681Y-68754286D01*
X78702759Y-68671999D01*
X78637823Y-68602945D01*
X78592142Y-68550644D01*
X78568989Y-68518616D01*
X78566768Y-68512116D01*
X78577076Y-68487394D01*
X78605561Y-68437405D01*
X78649063Y-68367212D01*
X78704423Y-68281875D01*
X78768480Y-68186456D01*
X78786697Y-68159854D01*
X78853073Y-68063167D01*
X78912622Y-67976117D01*
X78962016Y-67903595D01*
X78997925Y-67850493D01*
X79017019Y-67821703D01*
X79018864Y-67818726D01*
X79016105Y-67795782D01*
X79001462Y-67745336D01*
X78977487Y-67674041D01*
X78946734Y-67588547D01*
X78911756Y-67495507D01*
X78875107Y-67401574D01*
X78839339Y-67313399D01*
X78807006Y-67237634D01*
X78780662Y-67180931D01*
X78762858Y-67149943D01*
X78761593Y-67148457D01*
X78750706Y-67139601D01*
X78732318Y-67130843D01*
X78702394Y-67121277D01*
X78656897Y-67109996D01*
X78591791Y-67096093D01*
X78503039Y-67078663D01*
X78386607Y-67056798D01*
X78238458Y-67029591D01*
X78206382Y-67023741D01*
X78111314Y-67005374D01*
X78028435Y-66987405D01*
X77965070Y-66971569D01*
X77928542Y-66959600D01*
X77923644Y-66956810D01*
X77915573Y-66932072D01*
X77909013Y-66876790D01*
X77903967Y-66797389D01*
X77900441Y-66700296D01*
X77898439Y-66591938D01*
X77897964Y-66478740D01*
X77899023Y-66367128D01*
X77901618Y-66263529D01*
X77905754Y-66174368D01*
X77911437Y-66106072D01*
X77918669Y-66065066D01*
X77923029Y-66056674D01*
X77947302Y-66048208D01*
X78002574Y-66034435D01*
X78083338Y-66016550D01*
X78184088Y-65995748D01*
X78299317Y-65973223D01*
X78362098Y-65961418D01*
X78481213Y-65939151D01*
X78587435Y-65918979D01*
X78675573Y-65901915D01*
X78740434Y-65888969D01*
X78776826Y-65881155D01*
X78782816Y-65879422D01*
X78792939Y-65859890D01*
X78814338Y-65812843D01*
X78844161Y-65745003D01*
X78879555Y-65663091D01*
X78917668Y-65573828D01*
X78955647Y-65483935D01*
X78990640Y-65400135D01*
X79019794Y-65329147D01*
X79040257Y-65277694D01*
X79049177Y-65252497D01*
X79049343Y-65251396D01*
X79039231Y-65231519D01*
X79010883Y-65185777D01*
X78967277Y-65118717D01*
X78911394Y-65034884D01*
X78846213Y-64938826D01*
X78808321Y-64883650D01*
X78739275Y-64782481D01*
X78677950Y-64690630D01*
X78627337Y-64612744D01*
X78590429Y-64553469D01*
X78570218Y-64517451D01*
X78567299Y-64509377D01*
X78579847Y-64490584D01*
X78614537Y-64450457D01*
X78666937Y-64393493D01*
X78732616Y-64324185D01*
X78807144Y-64247031D01*
X78886087Y-64166525D01*
X78965017Y-64087163D01*
X79039500Y-64013440D01*
X79105106Y-63949852D01*
X79157404Y-63900894D01*
X79191961Y-63871061D01*
X79203522Y-63863942D01*
X79222346Y-63873953D01*
X79267369Y-63902078D01*
X79334213Y-63945454D01*
X79418501Y-64001218D01*
X79515856Y-64066506D01*
X79589293Y-64116246D01*
X79960333Y-64368551D01*
X80578905Y-64113555D01*
X80662725Y-63668931D01*
X80746546Y-63224307D01*
X81671994Y-63224307D01*
X81755814Y-63668931D01*
D11*
%TO.C,R8*%
X83040000Y-52736252D02*
X83040000Y-52213748D01*
X84460000Y-52736252D02*
X84460000Y-52213748D01*
%TO.C,D6*%
X80540000Y-51475000D02*
X80540000Y-54335000D01*
X80540000Y-54335000D02*
X82460000Y-54335000D01*
X82460000Y-54335000D02*
X82460000Y-51475000D01*
%TO.C,C14*%
X84286252Y-93040000D02*
X83763748Y-93040000D01*
X84286252Y-94460000D02*
X83763748Y-94460000D01*
%TO.C,C13*%
X67860000Y-99850000D02*
X67860000Y-91615000D01*
X67860000Y-91615000D02*
X63340000Y-91615000D01*
X63340000Y-91615000D02*
X63340000Y-99850000D01*
D10*
%TO.C,U4*%
X76027500Y-86425000D02*
X76027500Y-91700000D01*
X70627500Y-87700000D02*
X70627500Y-91700000D01*
D11*
%TO.C,R14*%
X90963748Y-93710000D02*
X91486252Y-93710000D01*
X90963748Y-92290000D02*
X91486252Y-92290000D01*
%TO.C,R13*%
X90963748Y-89210000D02*
X91486252Y-89210000D01*
X90963748Y-87790000D02*
X91486252Y-87790000D01*
%TO.C,R12*%
X72963748Y-78910000D02*
X73486252Y-78910000D01*
X72963748Y-77490000D02*
X73486252Y-77490000D01*
%TO.C,R11*%
X72963748Y-76710000D02*
X73486252Y-76710000D01*
X72963748Y-75290000D02*
X73486252Y-75290000D01*
%TO.C,R10*%
X72963748Y-81110000D02*
X73486252Y-81110000D01*
X72963748Y-79690000D02*
X73486252Y-79690000D01*
%TO.C,R9*%
X72963748Y-83310000D02*
X73486252Y-83310000D01*
X72963748Y-81890000D02*
X73486252Y-81890000D01*
%TO.C,D5*%
X89365000Y-91710000D02*
X92225000Y-91710000D01*
X89365000Y-89790000D02*
X89365000Y-91710000D01*
X92225000Y-89790000D02*
X89365000Y-89790000D01*
%TO.C,D4*%
X89365000Y-87210000D02*
X92225000Y-87210000D01*
X89365000Y-85290000D02*
X89365000Y-87210000D01*
X92225000Y-85290000D02*
X89365000Y-85290000D01*
%TO.C,C12*%
X73486252Y-84040000D02*
X72963748Y-84040000D01*
X73486252Y-85460000D02*
X72963748Y-85460000D01*
%TO.C,C11*%
X58890000Y-88763748D02*
X58890000Y-89286252D01*
X60310000Y-88763748D02*
X60310000Y-89286252D01*
%TO.C,C10*%
X60990000Y-88763748D02*
X60990000Y-89286252D01*
X62410000Y-88763748D02*
X62410000Y-89286252D01*
%TO.C,C9*%
X58210000Y-83736252D02*
X58210000Y-83213748D01*
X56790000Y-83736252D02*
X56790000Y-83213748D01*
%TO.C,C8*%
X68036252Y-70090000D02*
X67513748Y-70090000D01*
X68036252Y-71510000D02*
X67513748Y-71510000D01*
%TO.C,C7*%
X68036252Y-78490000D02*
X67513748Y-78490000D01*
X68036252Y-79910000D02*
X67513748Y-79910000D01*
%TO.C,C5*%
X91760000Y-75490000D02*
X87375000Y-75490000D01*
X91760000Y-78510000D02*
X91760000Y-75490000D01*
X87375000Y-78510000D02*
X91760000Y-78510000D01*
%TO.C,C4*%
X89986252Y-73290000D02*
X89463748Y-73290000D01*
X89986252Y-74710000D02*
X89463748Y-74710000D01*
%TO.C,Y1*%
X67850000Y-77010000D02*
X64250000Y-77010000D01*
X67850000Y-72990000D02*
X64250000Y-72990000D01*
X70150000Y-77010000D02*
X70150000Y-72990000D01*
X70150000Y-72990000D02*
X69750000Y-72990000D01*
X61950000Y-77010000D02*
X61950000Y-72990000D01*
X69750000Y-72400000D02*
X69750000Y-72990000D01*
X67850000Y-72990000D02*
X67850000Y-72400000D01*
X70150000Y-77010000D02*
X69750000Y-77010000D01*
X61950000Y-77010000D02*
X62350000Y-77010000D01*
X61950000Y-72990000D02*
X62350000Y-72990000D01*
%TO.C,SW1*%
X61780000Y-50890000D02*
X67900000Y-50890000D01*
X67900000Y-50890000D02*
X67900000Y-54510000D01*
X67900000Y-54510000D02*
X61780000Y-54510000D01*
X61780000Y-54510000D02*
X61780000Y-50890000D01*
%TO.C,R7*%
X74040000Y-52736252D02*
X74040000Y-52213748D01*
X75460000Y-52736252D02*
X75460000Y-52213748D01*
%TO.C,J2*%
X71690000Y-97540000D02*
X71690000Y-97090000D01*
X71690000Y-97090000D02*
X72640000Y-97090000D01*
X72640000Y-97090000D02*
X72640000Y-95600000D01*
X83660000Y-97540000D02*
X83660000Y-97090000D01*
X83660000Y-97090000D02*
X82710000Y-97090000D01*
X71690000Y-101060000D02*
X71690000Y-101510000D01*
X71690000Y-101510000D02*
X83660000Y-101510000D01*
X83660000Y-101510000D02*
X83660000Y-101060000D01*
%TO.C,J1*%
X54310000Y-88810000D02*
X54310000Y-88430000D01*
X50260000Y-88810000D02*
X50000000Y-88810000D01*
X54310000Y-88810000D02*
X52540000Y-88810000D01*
X54310000Y-81190000D02*
X54310000Y-81570000D01*
X52540000Y-81190000D02*
X54310000Y-81190000D01*
X50000000Y-81190000D02*
X50260000Y-81190000D01*
%TO.C,C6*%
X61013748Y-55790000D02*
X61536252Y-55790000D01*
X61013748Y-57210000D02*
X61536252Y-57210000D01*
%TO.C,C1*%
X60840000Y-83335436D02*
X60840000Y-84539564D01*
X62660000Y-83335436D02*
X62660000Y-84539564D01*
%TO.C,C2*%
X69910000Y-84635436D02*
X69910000Y-85839564D01*
X68090000Y-84635436D02*
X68090000Y-85839564D01*
%TO.C,C3*%
X71863748Y-70090000D02*
X72386252Y-70090000D01*
X71863748Y-71510000D02*
X72386252Y-71510000D01*
%TO.C,D1*%
X80210000Y-53475000D02*
X80210000Y-50615000D01*
X80210000Y-50615000D02*
X78290000Y-50615000D01*
X78290000Y-50615000D02*
X78290000Y-53475000D01*
%TO.C,D2*%
X71540000Y-51475000D02*
X71540000Y-54335000D01*
X71540000Y-54335000D02*
X73460000Y-54335000D01*
X73460000Y-54335000D02*
X73460000Y-51475000D01*
%TO.C,D3*%
X89365000Y-84960000D02*
X92225000Y-84960000D01*
X89365000Y-83040000D02*
X89365000Y-84960000D01*
X92225000Y-83040000D02*
X89365000Y-83040000D01*
%TO.C,J3*%
X56490000Y-61120000D02*
X50490000Y-61120000D01*
X56490000Y-61880000D02*
X50490000Y-61880000D01*
X50490000Y-61880000D02*
X50490000Y-61120000D01*
X59110000Y-60190000D02*
X56490000Y-60190000D01*
X56490000Y-62770000D02*
X56490000Y-60190000D01*
X59110000Y-62770000D02*
X59110000Y-60190000D01*
X56490000Y-63660000D02*
X50490000Y-63660000D01*
X56490000Y-64420000D02*
X50490000Y-64420000D01*
X50490000Y-64420000D02*
X50490000Y-63660000D01*
X59110000Y-62770000D02*
X56490000Y-62770000D01*
X56490000Y-65310000D02*
X56490000Y-62770000D01*
X59110000Y-65310000D02*
X59110000Y-62770000D01*
X56490000Y-66200000D02*
X50490000Y-66200000D01*
X56490000Y-66960000D02*
X50490000Y-66960000D01*
X50490000Y-66960000D02*
X50490000Y-66200000D01*
X59110000Y-65310000D02*
X56490000Y-65310000D01*
X56490000Y-67850000D02*
X56490000Y-65310000D01*
X59110000Y-67850000D02*
X59110000Y-65310000D01*
X56490000Y-68740000D02*
X50490000Y-68740000D01*
X56490000Y-69500000D02*
X50490000Y-69500000D01*
X50490000Y-69500000D02*
X50490000Y-68740000D01*
X59110000Y-67850000D02*
X56490000Y-67850000D01*
X56490000Y-70390000D02*
X56490000Y-67850000D01*
X59110000Y-70390000D02*
X59110000Y-67850000D01*
X56490000Y-71280000D02*
X50490000Y-71280000D01*
X56490000Y-72040000D02*
X50490000Y-72040000D01*
X50490000Y-72040000D02*
X50490000Y-71280000D01*
X59110000Y-70390000D02*
X56490000Y-70390000D01*
X56490000Y-72930000D02*
X56490000Y-70390000D01*
X59110000Y-72930000D02*
X59110000Y-70390000D01*
X56490000Y-73860000D02*
X50490000Y-73860000D01*
X56490000Y-73980000D02*
X50490000Y-73980000D01*
X56490000Y-74100000D02*
X50490000Y-74100000D01*
X56490000Y-74220000D02*
X50490000Y-74220000D01*
X56490000Y-74340000D02*
X50490000Y-74340000D01*
X56490000Y-74460000D02*
X50490000Y-74460000D01*
X56490000Y-73820000D02*
X50490000Y-73820000D01*
X56490000Y-74580000D02*
X50490000Y-74580000D01*
X50490000Y-74580000D02*
X50490000Y-73820000D01*
X59110000Y-72930000D02*
X56490000Y-72930000D01*
X59170000Y-75570000D02*
X57800000Y-75570000D01*
X56690000Y-75510000D02*
X56490000Y-75510000D01*
X56490000Y-75510000D02*
X56490000Y-72930000D01*
X59170000Y-75570000D02*
X59170000Y-74200000D01*
X59110000Y-72930000D02*
X59110000Y-73130000D01*
%TO.C,L1*%
X58790000Y-83736252D02*
X58790000Y-83213748D01*
X60210000Y-83736252D02*
X60210000Y-83213748D01*
%TO.C,R1*%
X54763748Y-92110000D02*
X55286252Y-92110000D01*
X54763748Y-90690000D02*
X55286252Y-90690000D01*
%TO.C,R3*%
X58310000Y-88236252D02*
X58310000Y-87713748D01*
X56890000Y-88236252D02*
X56890000Y-87713748D01*
%TO.C,R4*%
X63090000Y-89286252D02*
X63090000Y-88763748D01*
X64510000Y-89286252D02*
X64510000Y-88763748D01*
%TO.C,R5*%
X76290000Y-52213748D02*
X76290000Y-52736252D01*
X77710000Y-52213748D02*
X77710000Y-52736252D01*
%TO.C,R6*%
X90963748Y-82460000D02*
X91486252Y-82460000D01*
X90963748Y-81040000D02*
X91486252Y-81040000D01*
%TO.C,U1*%
X67530000Y-83665000D02*
X66600000Y-83665000D01*
X64370000Y-83665000D02*
X65300000Y-83665000D01*
X64370000Y-83665000D02*
X64370000Y-85825000D01*
X67530000Y-83665000D02*
X67530000Y-85125000D01*
%TO.C,U2*%
X75110000Y-60690000D02*
X75110000Y-60390000D01*
X75110000Y-60390000D02*
X74810000Y-60390000D01*
X75110000Y-67310000D02*
X75110000Y-67610000D01*
X75110000Y-67610000D02*
X74810000Y-67610000D01*
X67890000Y-60690000D02*
X67890000Y-60390000D01*
X67890000Y-60390000D02*
X68190000Y-60390000D01*
X67890000Y-67310000D02*
X67890000Y-67610000D01*
X67890000Y-67610000D02*
X68190000Y-67610000D01*
X68190000Y-67610000D02*
X68190000Y-68925000D01*
D13*
%TO.C,U3*%
X93850000Y-62000000D02*
X93850000Y-62400000D01*
X93850000Y-62400000D02*
X94150000Y-62400000D01*
%TO.C,R8*%
D10*
X83633333Y-55452380D02*
X83300000Y-54976190D01*
X83061904Y-55452380D02*
X83061904Y-54452380D01*
X83442857Y-54452380D01*
X83538095Y-54500000D01*
X83585714Y-54547619D01*
X83633333Y-54642857D01*
X83633333Y-54785714D01*
X83585714Y-54880952D01*
X83538095Y-54928571D01*
X83442857Y-54976190D01*
X83061904Y-54976190D01*
X84204761Y-54880952D02*
X84109523Y-54833333D01*
X84061904Y-54785714D01*
X84014285Y-54690476D01*
X84014285Y-54642857D01*
X84061904Y-54547619D01*
X84109523Y-54500000D01*
X84204761Y-54452380D01*
X84395238Y-54452380D01*
X84490476Y-54500000D01*
X84538095Y-54547619D01*
X84585714Y-54642857D01*
X84585714Y-54690476D01*
X84538095Y-54785714D01*
X84490476Y-54833333D01*
X84395238Y-54880952D01*
X84204761Y-54880952D01*
X84109523Y-54928571D01*
X84061904Y-54976190D01*
X84014285Y-55071428D01*
X84014285Y-55261904D01*
X84061904Y-55357142D01*
X84109523Y-55404761D01*
X84204761Y-55452380D01*
X84395238Y-55452380D01*
X84490476Y-55404761D01*
X84538095Y-55357142D01*
X84585714Y-55261904D01*
X84585714Y-55071428D01*
X84538095Y-54976190D01*
X84490476Y-54928571D01*
X84395238Y-54880952D01*
%TO.C,D6*%
X80761904Y-56652380D02*
X80761904Y-55652380D01*
X81000000Y-55652380D01*
X81142857Y-55700000D01*
X81238095Y-55795238D01*
X81285714Y-55890476D01*
X81333333Y-56080952D01*
X81333333Y-56223809D01*
X81285714Y-56414285D01*
X81238095Y-56509523D01*
X81142857Y-56604761D01*
X81000000Y-56652380D01*
X80761904Y-56652380D01*
X82190476Y-55652380D02*
X82000000Y-55652380D01*
X81904761Y-55700000D01*
X81857142Y-55747619D01*
X81761904Y-55890476D01*
X81714285Y-56080952D01*
X81714285Y-56461904D01*
X81761904Y-56557142D01*
X81809523Y-56604761D01*
X81904761Y-56652380D01*
X82095238Y-56652380D01*
X82190476Y-56604761D01*
X82238095Y-56557142D01*
X82285714Y-56461904D01*
X82285714Y-56223809D01*
X82238095Y-56128571D01*
X82190476Y-56080952D01*
X82095238Y-56033333D01*
X81904761Y-56033333D01*
X81809523Y-56080952D01*
X81761904Y-56128571D01*
X81714285Y-56223809D01*
%TO.C,R2*%
X69648333Y-94452380D02*
X69315000Y-93976190D01*
X69076904Y-94452380D02*
X69076904Y-93452380D01*
X69457857Y-93452380D01*
X69553095Y-93500000D01*
X69600714Y-93547619D01*
X69648333Y-93642857D01*
X69648333Y-93785714D01*
X69600714Y-93880952D01*
X69553095Y-93928571D01*
X69457857Y-93976190D01*
X69076904Y-93976190D01*
X70029285Y-93547619D02*
X70076904Y-93500000D01*
X70172142Y-93452380D01*
X70410238Y-93452380D01*
X70505476Y-93500000D01*
X70553095Y-93547619D01*
X70600714Y-93642857D01*
X70600714Y-93738095D01*
X70553095Y-93880952D01*
X69981666Y-94452380D01*
X70600714Y-94452380D01*
%TO.C,C14*%
X83757142Y-92557142D02*
X83709523Y-92604761D01*
X83566666Y-92652380D01*
X83471428Y-92652380D01*
X83328571Y-92604761D01*
X83233333Y-92509523D01*
X83185714Y-92414285D01*
X83138095Y-92223809D01*
X83138095Y-92080952D01*
X83185714Y-91890476D01*
X83233333Y-91795238D01*
X83328571Y-91700000D01*
X83471428Y-91652380D01*
X83566666Y-91652380D01*
X83709523Y-91700000D01*
X83757142Y-91747619D01*
X84709523Y-92652380D02*
X84138095Y-92652380D01*
X84423809Y-92652380D02*
X84423809Y-91652380D01*
X84328571Y-91795238D01*
X84233333Y-91890476D01*
X84138095Y-91938095D01*
X85566666Y-91985714D02*
X85566666Y-92652380D01*
X85328571Y-91604761D02*
X85090476Y-92319047D01*
X85709523Y-92319047D01*
%TO.C,C13*%
X62757142Y-99242857D02*
X62804761Y-99290476D01*
X62852380Y-99433333D01*
X62852380Y-99528571D01*
X62804761Y-99671428D01*
X62709523Y-99766666D01*
X62614285Y-99814285D01*
X62423809Y-99861904D01*
X62280952Y-99861904D01*
X62090476Y-99814285D01*
X61995238Y-99766666D01*
X61900000Y-99671428D01*
X61852380Y-99528571D01*
X61852380Y-99433333D01*
X61900000Y-99290476D01*
X61947619Y-99242857D01*
X62852380Y-98290476D02*
X62852380Y-98861904D01*
X62852380Y-98576190D02*
X61852380Y-98576190D01*
X61995238Y-98671428D01*
X62090476Y-98766666D01*
X62138095Y-98861904D01*
X61852380Y-97957142D02*
X61852380Y-97338095D01*
X62233333Y-97671428D01*
X62233333Y-97528571D01*
X62280952Y-97433333D01*
X62328571Y-97385714D01*
X62423809Y-97338095D01*
X62661904Y-97338095D01*
X62757142Y-97385714D01*
X62804761Y-97433333D01*
X62852380Y-97528571D01*
X62852380Y-97814285D01*
X62804761Y-97909523D01*
X62757142Y-97957142D01*
%TO.C,U4*%
X76438095Y-86452380D02*
X76438095Y-87261904D01*
X76485714Y-87357142D01*
X76533333Y-87404761D01*
X76628571Y-87452380D01*
X76819047Y-87452380D01*
X76914285Y-87404761D01*
X76961904Y-87357142D01*
X77009523Y-87261904D01*
X77009523Y-86452380D01*
X77914285Y-86785714D02*
X77914285Y-87452380D01*
X77676190Y-86404761D02*
X77438095Y-87119047D01*
X78057142Y-87119047D01*
%TO.C,R14*%
X87307142Y-93452380D02*
X86973809Y-92976190D01*
X86735714Y-93452380D02*
X86735714Y-92452380D01*
X87116666Y-92452380D01*
X87211904Y-92500000D01*
X87259523Y-92547619D01*
X87307142Y-92642857D01*
X87307142Y-92785714D01*
X87259523Y-92880952D01*
X87211904Y-92928571D01*
X87116666Y-92976190D01*
X86735714Y-92976190D01*
X88259523Y-93452380D02*
X87688095Y-93452380D01*
X87973809Y-93452380D02*
X87973809Y-92452380D01*
X87878571Y-92595238D01*
X87783333Y-92690476D01*
X87688095Y-92738095D01*
X89116666Y-92785714D02*
X89116666Y-93452380D01*
X88878571Y-92404761D02*
X88640476Y-93119047D01*
X89259523Y-93119047D01*
%TO.C,R13*%
X87207142Y-88952380D02*
X86873809Y-88476190D01*
X86635714Y-88952380D02*
X86635714Y-87952380D01*
X87016666Y-87952380D01*
X87111904Y-88000000D01*
X87159523Y-88047619D01*
X87207142Y-88142857D01*
X87207142Y-88285714D01*
X87159523Y-88380952D01*
X87111904Y-88428571D01*
X87016666Y-88476190D01*
X86635714Y-88476190D01*
X88159523Y-88952380D02*
X87588095Y-88952380D01*
X87873809Y-88952380D02*
X87873809Y-87952380D01*
X87778571Y-88095238D01*
X87683333Y-88190476D01*
X87588095Y-88238095D01*
X88492857Y-87952380D02*
X89111904Y-87952380D01*
X88778571Y-88333333D01*
X88921428Y-88333333D01*
X89016666Y-88380952D01*
X89064285Y-88428571D01*
X89111904Y-88523809D01*
X89111904Y-88761904D01*
X89064285Y-88857142D01*
X89016666Y-88904761D01*
X88921428Y-88952380D01*
X88635714Y-88952380D01*
X88540476Y-88904761D01*
X88492857Y-88857142D01*
%TO.C,R12*%
X76957142Y-78702380D02*
X76623809Y-78226190D01*
X76385714Y-78702380D02*
X76385714Y-77702380D01*
X76766666Y-77702380D01*
X76861904Y-77750000D01*
X76909523Y-77797619D01*
X76957142Y-77892857D01*
X76957142Y-78035714D01*
X76909523Y-78130952D01*
X76861904Y-78178571D01*
X76766666Y-78226190D01*
X76385714Y-78226190D01*
X77909523Y-78702380D02*
X77338095Y-78702380D01*
X77623809Y-78702380D02*
X77623809Y-77702380D01*
X77528571Y-77845238D01*
X77433333Y-77940476D01*
X77338095Y-77988095D01*
X78290476Y-77797619D02*
X78338095Y-77750000D01*
X78433333Y-77702380D01*
X78671428Y-77702380D01*
X78766666Y-77750000D01*
X78814285Y-77797619D01*
X78861904Y-77892857D01*
X78861904Y-77988095D01*
X78814285Y-78130952D01*
X78242857Y-78702380D01*
X78861904Y-78702380D01*
%TO.C,R11*%
X75957142Y-76452380D02*
X75623809Y-75976190D01*
X75385714Y-76452380D02*
X75385714Y-75452380D01*
X75766666Y-75452380D01*
X75861904Y-75500000D01*
X75909523Y-75547619D01*
X75957142Y-75642857D01*
X75957142Y-75785714D01*
X75909523Y-75880952D01*
X75861904Y-75928571D01*
X75766666Y-75976190D01*
X75385714Y-75976190D01*
X76909523Y-76452380D02*
X76338095Y-76452380D01*
X76623809Y-76452380D02*
X76623809Y-75452380D01*
X76528571Y-75595238D01*
X76433333Y-75690476D01*
X76338095Y-75738095D01*
X77861904Y-76452380D02*
X77290476Y-76452380D01*
X77576190Y-76452380D02*
X77576190Y-75452380D01*
X77480952Y-75595238D01*
X77385714Y-75690476D01*
X77290476Y-75738095D01*
%TO.C,R10*%
X76957142Y-80852380D02*
X76623809Y-80376190D01*
X76385714Y-80852380D02*
X76385714Y-79852380D01*
X76766666Y-79852380D01*
X76861904Y-79900000D01*
X76909523Y-79947619D01*
X76957142Y-80042857D01*
X76957142Y-80185714D01*
X76909523Y-80280952D01*
X76861904Y-80328571D01*
X76766666Y-80376190D01*
X76385714Y-80376190D01*
X77909523Y-80852380D02*
X77338095Y-80852380D01*
X77623809Y-80852380D02*
X77623809Y-79852380D01*
X77528571Y-79995238D01*
X77433333Y-80090476D01*
X77338095Y-80138095D01*
X78528571Y-79852380D02*
X78623809Y-79852380D01*
X78719047Y-79900000D01*
X78766666Y-79947619D01*
X78814285Y-80042857D01*
X78861904Y-80233333D01*
X78861904Y-80471428D01*
X78814285Y-80661904D01*
X78766666Y-80757142D01*
X78719047Y-80804761D01*
X78623809Y-80852380D01*
X78528571Y-80852380D01*
X78433333Y-80804761D01*
X78385714Y-80757142D01*
X78338095Y-80661904D01*
X78290476Y-80471428D01*
X78290476Y-80233333D01*
X78338095Y-80042857D01*
X78385714Y-79947619D01*
X78433333Y-79900000D01*
X78528571Y-79852380D01*
%TO.C,R9*%
X76833333Y-83052380D02*
X76500000Y-82576190D01*
X76261904Y-83052380D02*
X76261904Y-82052380D01*
X76642857Y-82052380D01*
X76738095Y-82100000D01*
X76785714Y-82147619D01*
X76833333Y-82242857D01*
X76833333Y-82385714D01*
X76785714Y-82480952D01*
X76738095Y-82528571D01*
X76642857Y-82576190D01*
X76261904Y-82576190D01*
X77309523Y-83052380D02*
X77500000Y-83052380D01*
X77595238Y-83004761D01*
X77642857Y-82957142D01*
X77738095Y-82814285D01*
X77785714Y-82623809D01*
X77785714Y-82242857D01*
X77738095Y-82147619D01*
X77690476Y-82100000D01*
X77595238Y-82052380D01*
X77404761Y-82052380D01*
X77309523Y-82100000D01*
X77261904Y-82147619D01*
X77214285Y-82242857D01*
X77214285Y-82480952D01*
X77261904Y-82576190D01*
X77309523Y-82623809D01*
X77404761Y-82671428D01*
X77595238Y-82671428D01*
X77690476Y-82623809D01*
X77738095Y-82576190D01*
X77785714Y-82480952D01*
%TO.C,D5*%
X87561904Y-91102380D02*
X87561904Y-90102380D01*
X87800000Y-90102380D01*
X87942857Y-90150000D01*
X88038095Y-90245238D01*
X88085714Y-90340476D01*
X88133333Y-90530952D01*
X88133333Y-90673809D01*
X88085714Y-90864285D01*
X88038095Y-90959523D01*
X87942857Y-91054761D01*
X87800000Y-91102380D01*
X87561904Y-91102380D01*
X89038095Y-90102380D02*
X88561904Y-90102380D01*
X88514285Y-90578571D01*
X88561904Y-90530952D01*
X88657142Y-90483333D01*
X88895238Y-90483333D01*
X88990476Y-90530952D01*
X89038095Y-90578571D01*
X89085714Y-90673809D01*
X89085714Y-90911904D01*
X89038095Y-91007142D01*
X88990476Y-91054761D01*
X88895238Y-91102380D01*
X88657142Y-91102380D01*
X88561904Y-91054761D01*
X88514285Y-91007142D01*
%TO.C,D4*%
X87661904Y-86552380D02*
X87661904Y-85552380D01*
X87900000Y-85552380D01*
X88042857Y-85600000D01*
X88138095Y-85695238D01*
X88185714Y-85790476D01*
X88233333Y-85980952D01*
X88233333Y-86123809D01*
X88185714Y-86314285D01*
X88138095Y-86409523D01*
X88042857Y-86504761D01*
X87900000Y-86552380D01*
X87661904Y-86552380D01*
X89090476Y-85885714D02*
X89090476Y-86552380D01*
X88852380Y-85504761D02*
X88614285Y-86219047D01*
X89233333Y-86219047D01*
%TO.C,C12*%
X75857142Y-85107142D02*
X75809523Y-85154761D01*
X75666666Y-85202380D01*
X75571428Y-85202380D01*
X75428571Y-85154761D01*
X75333333Y-85059523D01*
X75285714Y-84964285D01*
X75238095Y-84773809D01*
X75238095Y-84630952D01*
X75285714Y-84440476D01*
X75333333Y-84345238D01*
X75428571Y-84250000D01*
X75571428Y-84202380D01*
X75666666Y-84202380D01*
X75809523Y-84250000D01*
X75857142Y-84297619D01*
X76809523Y-85202380D02*
X76238095Y-85202380D01*
X76523809Y-85202380D02*
X76523809Y-84202380D01*
X76428571Y-84345238D01*
X76333333Y-84440476D01*
X76238095Y-84488095D01*
X77190476Y-84297619D02*
X77238095Y-84250000D01*
X77333333Y-84202380D01*
X77571428Y-84202380D01*
X77666666Y-84250000D01*
X77714285Y-84297619D01*
X77761904Y-84392857D01*
X77761904Y-84488095D01*
X77714285Y-84630952D01*
X77142857Y-85202380D01*
X77761904Y-85202380D01*
%TO.C,C11*%
X59957142Y-93142857D02*
X60004761Y-93190476D01*
X60052380Y-93333333D01*
X60052380Y-93428571D01*
X60004761Y-93571428D01*
X59909523Y-93666666D01*
X59814285Y-93714285D01*
X59623809Y-93761904D01*
X59480952Y-93761904D01*
X59290476Y-93714285D01*
X59195238Y-93666666D01*
X59100000Y-93571428D01*
X59052380Y-93428571D01*
X59052380Y-93333333D01*
X59100000Y-93190476D01*
X59147619Y-93142857D01*
X60052380Y-92190476D02*
X60052380Y-92761904D01*
X60052380Y-92476190D02*
X59052380Y-92476190D01*
X59195238Y-92571428D01*
X59290476Y-92666666D01*
X59338095Y-92761904D01*
X60052380Y-91238095D02*
X60052380Y-91809523D01*
X60052380Y-91523809D02*
X59052380Y-91523809D01*
X59195238Y-91619047D01*
X59290476Y-91714285D01*
X59338095Y-91809523D01*
%TO.C,C10*%
X62157142Y-94442857D02*
X62204761Y-94490476D01*
X62252380Y-94633333D01*
X62252380Y-94728571D01*
X62204761Y-94871428D01*
X62109523Y-94966666D01*
X62014285Y-95014285D01*
X61823809Y-95061904D01*
X61680952Y-95061904D01*
X61490476Y-95014285D01*
X61395238Y-94966666D01*
X61300000Y-94871428D01*
X61252380Y-94728571D01*
X61252380Y-94633333D01*
X61300000Y-94490476D01*
X61347619Y-94442857D01*
X62252380Y-93490476D02*
X62252380Y-94061904D01*
X62252380Y-93776190D02*
X61252380Y-93776190D01*
X61395238Y-93871428D01*
X61490476Y-93966666D01*
X61538095Y-94061904D01*
X61252380Y-92871428D02*
X61252380Y-92776190D01*
X61300000Y-92680952D01*
X61347619Y-92633333D01*
X61442857Y-92585714D01*
X61633333Y-92538095D01*
X61871428Y-92538095D01*
X62061904Y-92585714D01*
X62157142Y-92633333D01*
X62204761Y-92680952D01*
X62252380Y-92776190D01*
X62252380Y-92871428D01*
X62204761Y-92966666D01*
X62157142Y-93014285D01*
X62061904Y-93061904D01*
X61871428Y-93109523D01*
X61633333Y-93109523D01*
X61442857Y-93061904D01*
X61347619Y-93014285D01*
X61300000Y-92966666D01*
X61252380Y-92871428D01*
%TO.C,C9*%
X57857142Y-80766666D02*
X57904761Y-80814285D01*
X57952380Y-80957142D01*
X57952380Y-81052380D01*
X57904761Y-81195238D01*
X57809523Y-81290476D01*
X57714285Y-81338095D01*
X57523809Y-81385714D01*
X57380952Y-81385714D01*
X57190476Y-81338095D01*
X57095238Y-81290476D01*
X57000000Y-81195238D01*
X56952380Y-81052380D01*
X56952380Y-80957142D01*
X57000000Y-80814285D01*
X57047619Y-80766666D01*
X57952380Y-80290476D02*
X57952380Y-80100000D01*
X57904761Y-80004761D01*
X57857142Y-79957142D01*
X57714285Y-79861904D01*
X57523809Y-79814285D01*
X57142857Y-79814285D01*
X57047619Y-79861904D01*
X57000000Y-79909523D01*
X56952380Y-80004761D01*
X56952380Y-80195238D01*
X57000000Y-80290476D01*
X57047619Y-80338095D01*
X57142857Y-80385714D01*
X57380952Y-80385714D01*
X57476190Y-80338095D01*
X57523809Y-80290476D01*
X57571428Y-80195238D01*
X57571428Y-80004761D01*
X57523809Y-79909523D01*
X57476190Y-79861904D01*
X57380952Y-79814285D01*
%TO.C,C8*%
X64833333Y-71157142D02*
X64785714Y-71204761D01*
X64642857Y-71252380D01*
X64547619Y-71252380D01*
X64404761Y-71204761D01*
X64309523Y-71109523D01*
X64261904Y-71014285D01*
X64214285Y-70823809D01*
X64214285Y-70680952D01*
X64261904Y-70490476D01*
X64309523Y-70395238D01*
X64404761Y-70300000D01*
X64547619Y-70252380D01*
X64642857Y-70252380D01*
X64785714Y-70300000D01*
X64833333Y-70347619D01*
X65404761Y-70680952D02*
X65309523Y-70633333D01*
X65261904Y-70585714D01*
X65214285Y-70490476D01*
X65214285Y-70442857D01*
X65261904Y-70347619D01*
X65309523Y-70300000D01*
X65404761Y-70252380D01*
X65595238Y-70252380D01*
X65690476Y-70300000D01*
X65738095Y-70347619D01*
X65785714Y-70442857D01*
X65785714Y-70490476D01*
X65738095Y-70585714D01*
X65690476Y-70633333D01*
X65595238Y-70680952D01*
X65404761Y-70680952D01*
X65309523Y-70728571D01*
X65261904Y-70776190D01*
X65214285Y-70871428D01*
X65214285Y-71061904D01*
X65261904Y-71157142D01*
X65309523Y-71204761D01*
X65404761Y-71252380D01*
X65595238Y-71252380D01*
X65690476Y-71204761D01*
X65738095Y-71157142D01*
X65785714Y-71061904D01*
X65785714Y-70871428D01*
X65738095Y-70776190D01*
X65690476Y-70728571D01*
X65595238Y-70680952D01*
%TO.C,C7*%
X63433333Y-79607142D02*
X63385714Y-79654761D01*
X63242857Y-79702380D01*
X63147619Y-79702380D01*
X63004761Y-79654761D01*
X62909523Y-79559523D01*
X62861904Y-79464285D01*
X62814285Y-79273809D01*
X62814285Y-79130952D01*
X62861904Y-78940476D01*
X62909523Y-78845238D01*
X63004761Y-78750000D01*
X63147619Y-78702380D01*
X63242857Y-78702380D01*
X63385714Y-78750000D01*
X63433333Y-78797619D01*
X63766666Y-78702380D02*
X64433333Y-78702380D01*
X64004761Y-79702380D01*
%TO.C,C5*%
X88833333Y-79757142D02*
X88785714Y-79804761D01*
X88642857Y-79852380D01*
X88547619Y-79852380D01*
X88404761Y-79804761D01*
X88309523Y-79709523D01*
X88261904Y-79614285D01*
X88214285Y-79423809D01*
X88214285Y-79280952D01*
X88261904Y-79090476D01*
X88309523Y-78995238D01*
X88404761Y-78900000D01*
X88547619Y-78852380D01*
X88642857Y-78852380D01*
X88785714Y-78900000D01*
X88833333Y-78947619D01*
X89738095Y-78852380D02*
X89261904Y-78852380D01*
X89214285Y-79328571D01*
X89261904Y-79280952D01*
X89357142Y-79233333D01*
X89595238Y-79233333D01*
X89690476Y-79280952D01*
X89738095Y-79328571D01*
X89785714Y-79423809D01*
X89785714Y-79661904D01*
X89738095Y-79757142D01*
X89690476Y-79804761D01*
X89595238Y-79852380D01*
X89357142Y-79852380D01*
X89261904Y-79804761D01*
X89214285Y-79757142D01*
%TO.C,C4*%
X85433333Y-74357142D02*
X85385714Y-74404761D01*
X85242857Y-74452380D01*
X85147619Y-74452380D01*
X85004761Y-74404761D01*
X84909523Y-74309523D01*
X84861904Y-74214285D01*
X84814285Y-74023809D01*
X84814285Y-73880952D01*
X84861904Y-73690476D01*
X84909523Y-73595238D01*
X85004761Y-73500000D01*
X85147619Y-73452380D01*
X85242857Y-73452380D01*
X85385714Y-73500000D01*
X85433333Y-73547619D01*
X86290476Y-73785714D02*
X86290476Y-74452380D01*
X86052380Y-73404761D02*
X85814285Y-74119047D01*
X86433333Y-74119047D01*
%TO.C,Y1*%
X60273809Y-77476190D02*
X60273809Y-77952380D01*
X59940476Y-76952380D02*
X60273809Y-77476190D01*
X60607142Y-76952380D01*
X61464285Y-77952380D02*
X60892857Y-77952380D01*
X61178571Y-77952380D02*
X61178571Y-76952380D01*
X61083333Y-77095238D01*
X60988095Y-77190476D01*
X60892857Y-77238095D01*
%TO.C,R7*%
X74683333Y-55702380D02*
X74350000Y-55226190D01*
X74111904Y-55702380D02*
X74111904Y-54702380D01*
X74492857Y-54702380D01*
X74588095Y-54750000D01*
X74635714Y-54797619D01*
X74683333Y-54892857D01*
X74683333Y-55035714D01*
X74635714Y-55130952D01*
X74588095Y-55178571D01*
X74492857Y-55226190D01*
X74111904Y-55226190D01*
X75016666Y-54702380D02*
X75683333Y-54702380D01*
X75254761Y-55702380D01*
%TO.C,C6*%
X60433333Y-58557142D02*
X60385714Y-58604761D01*
X60242857Y-58652380D01*
X60147619Y-58652380D01*
X60004761Y-58604761D01*
X59909523Y-58509523D01*
X59861904Y-58414285D01*
X59814285Y-58223809D01*
X59814285Y-58080952D01*
X59861904Y-57890476D01*
X59909523Y-57795238D01*
X60004761Y-57700000D01*
X60147619Y-57652380D01*
X60242857Y-57652380D01*
X60385714Y-57700000D01*
X60433333Y-57747619D01*
X61290476Y-57652380D02*
X61100000Y-57652380D01*
X61004761Y-57700000D01*
X60957142Y-57747619D01*
X60861904Y-57890476D01*
X60814285Y-58080952D01*
X60814285Y-58461904D01*
X60861904Y-58557142D01*
X60909523Y-58604761D01*
X61004761Y-58652380D01*
X61195238Y-58652380D01*
X61290476Y-58604761D01*
X61338095Y-58557142D01*
X61385714Y-58461904D01*
X61385714Y-58223809D01*
X61338095Y-58128571D01*
X61290476Y-58080952D01*
X61195238Y-58033333D01*
X61004761Y-58033333D01*
X60909523Y-58080952D01*
X60861904Y-58128571D01*
X60814285Y-58223809D01*
%TO.C,C1*%
X62107142Y-80616666D02*
X62154761Y-80664285D01*
X62202380Y-80807142D01*
X62202380Y-80902380D01*
X62154761Y-81045238D01*
X62059523Y-81140476D01*
X61964285Y-81188095D01*
X61773809Y-81235714D01*
X61630952Y-81235714D01*
X61440476Y-81188095D01*
X61345238Y-81140476D01*
X61250000Y-81045238D01*
X61202380Y-80902380D01*
X61202380Y-80807142D01*
X61250000Y-80664285D01*
X61297619Y-80616666D01*
X62202380Y-79664285D02*
X62202380Y-80235714D01*
X62202380Y-79950000D02*
X61202380Y-79950000D01*
X61345238Y-80045238D01*
X61440476Y-80140476D01*
X61488095Y-80235714D01*
%TO.C,C2*%
X68833333Y-82357142D02*
X68785714Y-82404761D01*
X68642857Y-82452380D01*
X68547619Y-82452380D01*
X68404761Y-82404761D01*
X68309523Y-82309523D01*
X68261904Y-82214285D01*
X68214285Y-82023809D01*
X68214285Y-81880952D01*
X68261904Y-81690476D01*
X68309523Y-81595238D01*
X68404761Y-81500000D01*
X68547619Y-81452380D01*
X68642857Y-81452380D01*
X68785714Y-81500000D01*
X68833333Y-81547619D01*
X69214285Y-81547619D02*
X69261904Y-81500000D01*
X69357142Y-81452380D01*
X69595238Y-81452380D01*
X69690476Y-81500000D01*
X69738095Y-81547619D01*
X69785714Y-81642857D01*
X69785714Y-81738095D01*
X69738095Y-81880952D01*
X69166666Y-82452380D01*
X69785714Y-82452380D01*
%TO.C,C3*%
X73433333Y-72757142D02*
X73385714Y-72804761D01*
X73242857Y-72852380D01*
X73147619Y-72852380D01*
X73004761Y-72804761D01*
X72909523Y-72709523D01*
X72861904Y-72614285D01*
X72814285Y-72423809D01*
X72814285Y-72280952D01*
X72861904Y-72090476D01*
X72909523Y-71995238D01*
X73004761Y-71900000D01*
X73147619Y-71852380D01*
X73242857Y-71852380D01*
X73385714Y-71900000D01*
X73433333Y-71947619D01*
X73766666Y-71852380D02*
X74385714Y-71852380D01*
X74052380Y-72233333D01*
X74195238Y-72233333D01*
X74290476Y-72280952D01*
X74338095Y-72328571D01*
X74385714Y-72423809D01*
X74385714Y-72661904D01*
X74338095Y-72757142D01*
X74290476Y-72804761D01*
X74195238Y-72852380D01*
X73909523Y-72852380D01*
X73814285Y-72804761D01*
X73766666Y-72757142D01*
%TO.C,D1*%
X78611904Y-55702380D02*
X78611904Y-54702380D01*
X78850000Y-54702380D01*
X78992857Y-54750000D01*
X79088095Y-54845238D01*
X79135714Y-54940476D01*
X79183333Y-55130952D01*
X79183333Y-55273809D01*
X79135714Y-55464285D01*
X79088095Y-55559523D01*
X78992857Y-55654761D01*
X78850000Y-55702380D01*
X78611904Y-55702380D01*
X80135714Y-55702380D02*
X79564285Y-55702380D01*
X79850000Y-55702380D02*
X79850000Y-54702380D01*
X79754761Y-54845238D01*
X79659523Y-54940476D01*
X79564285Y-54988095D01*
%TO.C,D2*%
X71761904Y-55702380D02*
X71761904Y-54702380D01*
X72000000Y-54702380D01*
X72142857Y-54750000D01*
X72238095Y-54845238D01*
X72285714Y-54940476D01*
X72333333Y-55130952D01*
X72333333Y-55273809D01*
X72285714Y-55464285D01*
X72238095Y-55559523D01*
X72142857Y-55654761D01*
X72000000Y-55702380D01*
X71761904Y-55702380D01*
X72714285Y-54797619D02*
X72761904Y-54750000D01*
X72857142Y-54702380D01*
X73095238Y-54702380D01*
X73190476Y-54750000D01*
X73238095Y-54797619D01*
X73285714Y-54892857D01*
X73285714Y-54988095D01*
X73238095Y-55130952D01*
X72666666Y-55702380D01*
X73285714Y-55702380D01*
%TO.C,D3*%
X87511904Y-84452380D02*
X87511904Y-83452380D01*
X87750000Y-83452380D01*
X87892857Y-83500000D01*
X87988095Y-83595238D01*
X88035714Y-83690476D01*
X88083333Y-83880952D01*
X88083333Y-84023809D01*
X88035714Y-84214285D01*
X87988095Y-84309523D01*
X87892857Y-84404761D01*
X87750000Y-84452380D01*
X87511904Y-84452380D01*
X88416666Y-83452380D02*
X89035714Y-83452380D01*
X88702380Y-83833333D01*
X88845238Y-83833333D01*
X88940476Y-83880952D01*
X88988095Y-83928571D01*
X89035714Y-84023809D01*
X89035714Y-84261904D01*
X88988095Y-84357142D01*
X88940476Y-84404761D01*
X88845238Y-84452380D01*
X88559523Y-84452380D01*
X88464285Y-84404761D01*
X88416666Y-84357142D01*
%TO.C,L1*%
X59952380Y-80916666D02*
X59952380Y-81392857D01*
X58952380Y-81392857D01*
X59952380Y-80059523D02*
X59952380Y-80630952D01*
X59952380Y-80345238D02*
X58952380Y-80345238D01*
X59095238Y-80440476D01*
X59190476Y-80535714D01*
X59238095Y-80630952D01*
%TO.C,R1*%
X51883333Y-91852380D02*
X51550000Y-91376190D01*
X51311904Y-91852380D02*
X51311904Y-90852380D01*
X51692857Y-90852380D01*
X51788095Y-90900000D01*
X51835714Y-90947619D01*
X51883333Y-91042857D01*
X51883333Y-91185714D01*
X51835714Y-91280952D01*
X51788095Y-91328571D01*
X51692857Y-91376190D01*
X51311904Y-91376190D01*
X52835714Y-91852380D02*
X52264285Y-91852380D01*
X52550000Y-91852380D02*
X52550000Y-90852380D01*
X52454761Y-90995238D01*
X52359523Y-91090476D01*
X52264285Y-91138095D01*
%TO.C,R3*%
X58252380Y-91166666D02*
X57776190Y-91500000D01*
X58252380Y-91738095D02*
X57252380Y-91738095D01*
X57252380Y-91357142D01*
X57300000Y-91261904D01*
X57347619Y-91214285D01*
X57442857Y-91166666D01*
X57585714Y-91166666D01*
X57680952Y-91214285D01*
X57728571Y-91261904D01*
X57776190Y-91357142D01*
X57776190Y-91738095D01*
X57252380Y-90833333D02*
X57252380Y-90214285D01*
X57633333Y-90547619D01*
X57633333Y-90404761D01*
X57680952Y-90309523D01*
X57728571Y-90261904D01*
X57823809Y-90214285D01*
X58061904Y-90214285D01*
X58157142Y-90261904D01*
X58204761Y-90309523D01*
X58252380Y-90404761D01*
X58252380Y-90690476D01*
X58204761Y-90785714D01*
X58157142Y-90833333D01*
%TO.C,R4*%
X66052380Y-89166666D02*
X65576190Y-89500000D01*
X66052380Y-89738095D02*
X65052380Y-89738095D01*
X65052380Y-89357142D01*
X65100000Y-89261904D01*
X65147619Y-89214285D01*
X65242857Y-89166666D01*
X65385714Y-89166666D01*
X65480952Y-89214285D01*
X65528571Y-89261904D01*
X65576190Y-89357142D01*
X65576190Y-89738095D01*
X65385714Y-88309523D02*
X66052380Y-88309523D01*
X65004761Y-88547619D02*
X65719047Y-88785714D01*
X65719047Y-88166666D01*
%TO.C,R5*%
X76833333Y-56852380D02*
X76500000Y-56376190D01*
X76261904Y-56852380D02*
X76261904Y-55852380D01*
X76642857Y-55852380D01*
X76738095Y-55900000D01*
X76785714Y-55947619D01*
X76833333Y-56042857D01*
X76833333Y-56185714D01*
X76785714Y-56280952D01*
X76738095Y-56328571D01*
X76642857Y-56376190D01*
X76261904Y-56376190D01*
X77738095Y-55852380D02*
X77261904Y-55852380D01*
X77214285Y-56328571D01*
X77261904Y-56280952D01*
X77357142Y-56233333D01*
X77595238Y-56233333D01*
X77690476Y-56280952D01*
X77738095Y-56328571D01*
X77785714Y-56423809D01*
X77785714Y-56661904D01*
X77738095Y-56757142D01*
X77690476Y-56804761D01*
X77595238Y-56852380D01*
X77357142Y-56852380D01*
X77261904Y-56804761D01*
X77214285Y-56757142D01*
%TO.C,R6*%
X88083333Y-82202380D02*
X87750000Y-81726190D01*
X87511904Y-82202380D02*
X87511904Y-81202380D01*
X87892857Y-81202380D01*
X87988095Y-81250000D01*
X88035714Y-81297619D01*
X88083333Y-81392857D01*
X88083333Y-81535714D01*
X88035714Y-81630952D01*
X87988095Y-81678571D01*
X87892857Y-81726190D01*
X87511904Y-81726190D01*
X88940476Y-81202380D02*
X88750000Y-81202380D01*
X88654761Y-81250000D01*
X88607142Y-81297619D01*
X88511904Y-81440476D01*
X88464285Y-81630952D01*
X88464285Y-82011904D01*
X88511904Y-82107142D01*
X88559523Y-82154761D01*
X88654761Y-82202380D01*
X88845238Y-82202380D01*
X88940476Y-82154761D01*
X88988095Y-82107142D01*
X89035714Y-82011904D01*
X89035714Y-81773809D01*
X88988095Y-81678571D01*
X88940476Y-81630952D01*
X88845238Y-81583333D01*
X88654761Y-81583333D01*
X88559523Y-81630952D01*
X88511904Y-81678571D01*
X88464285Y-81773809D01*
%TO.C,U1*%
X64238095Y-81452380D02*
X64238095Y-82261904D01*
X64285714Y-82357142D01*
X64333333Y-82404761D01*
X64428571Y-82452380D01*
X64619047Y-82452380D01*
X64714285Y-82404761D01*
X64761904Y-82357142D01*
X64809523Y-82261904D01*
X64809523Y-81452380D01*
X65809523Y-82452380D02*
X65238095Y-82452380D01*
X65523809Y-82452380D02*
X65523809Y-81452380D01*
X65428571Y-81595238D01*
X65333333Y-81690476D01*
X65238095Y-81738095D01*
%TO.C,U2*%
X66138095Y-67952380D02*
X66138095Y-68761904D01*
X66185714Y-68857142D01*
X66233333Y-68904761D01*
X66328571Y-68952380D01*
X66519047Y-68952380D01*
X66614285Y-68904761D01*
X66661904Y-68857142D01*
X66709523Y-68761904D01*
X66709523Y-67952380D01*
X67138095Y-68047619D02*
X67185714Y-68000000D01*
X67280952Y-67952380D01*
X67519047Y-67952380D01*
X67614285Y-68000000D01*
X67661904Y-68047619D01*
X67709523Y-68142857D01*
X67709523Y-68238095D01*
X67661904Y-68380952D01*
X67090476Y-68952380D01*
X67709523Y-68952380D01*
%TO.C,U3*%
X83838095Y-70852380D02*
X83838095Y-71661904D01*
X83885714Y-71757142D01*
X83933333Y-71804761D01*
X84028571Y-71852380D01*
X84219047Y-71852380D01*
X84314285Y-71804761D01*
X84361904Y-71757142D01*
X84409523Y-71661904D01*
X84409523Y-70852380D01*
X84790476Y-70852380D02*
X85409523Y-70852380D01*
X85076190Y-71233333D01*
X85219047Y-71233333D01*
X85314285Y-71280952D01*
X85361904Y-71328571D01*
X85409523Y-71423809D01*
X85409523Y-71661904D01*
X85361904Y-71757142D01*
X85314285Y-71804761D01*
X85219047Y-71852380D01*
X84933333Y-71852380D01*
X84838095Y-71804761D01*
X84790476Y-71757142D01*
%TD*%
M02*
