%TF.GenerationSoftware,KiCad,Pcbnew,5.1.6-1.fc32*%
%TF.CreationDate,2020-08-22T09:30:13+02:00*%
%TF.ProjectId,pm_monitor_1,706d5f6d-6f6e-4697-946f-725f312e6b69,rev?*%
%TF.SameCoordinates,Original*%
%TF.FileFunction,Copper,L2,Bot*%
%TF.FilePolarity,Positive*%
%FSLAX46Y46*%
G04 Gerber Fmt 4.6, Leading zero omitted, Abs format (unit mm)*
G04 Created by KiCad (PCBNEW 5.1.6-1.fc32) date 2020-08-22 09:30:13*
%MOMM*%
%LPD*%
G01*
G04 APERTURE LIST*
%TA.AperFunction,ComponentPad*%
%ADD10C,6.400000*%
%TD*%
%TA.AperFunction,ComponentPad*%
%ADD11O,1.700000X1.700000*%
%TD*%
%TA.AperFunction,ComponentPad*%
%ADD12R,1.700000X1.700000*%
%TD*%
%TA.AperFunction,ViaPad*%
%ADD13C,1.300000*%
%TD*%
%TA.AperFunction,ViaPad*%
%ADD14C,0.900000*%
%TD*%
%TA.AperFunction,Conductor*%
%ADD15C,0.800000*%
%TD*%
%TA.AperFunction,Conductor*%
%ADD16C,0.256000*%
%TD*%
%TA.AperFunction,Conductor*%
%ADD17C,0.254000*%
%TD*%
G04 APERTURE END LIST*
D10*
%TO.P,H4,1*%
%TO.N,N/C*%
X90000000Y-98000000D03*
%TD*%
%TO.P,H3,1*%
%TO.N,N/C*%
X90000000Y-54000000D03*
%TD*%
%TO.P,H2,1*%
%TO.N,N/C*%
X54000000Y-98000000D03*
%TD*%
%TO.P,H1,1*%
%TO.N,N/C*%
X54000000Y-54000000D03*
%TD*%
D11*
%TO.P,J3,6*%
%TO.N,Net-(J3-Pad6)*%
X57800000Y-61500000D03*
%TO.P,J3,5*%
%TO.N,/NRST*%
X57800000Y-64040000D03*
%TO.P,J3,4*%
%TO.N,/SWDIO*%
X57800000Y-66580000D03*
%TO.P,J3,3*%
%TO.N,GND*%
X57800000Y-69120000D03*
%TO.P,J3,2*%
%TO.N,/SWCLK*%
X57800000Y-71660000D03*
D12*
%TO.P,J3,1*%
%TO.N,+3V3*%
X57800000Y-74200000D03*
%TD*%
D13*
%TO.N,GND*%
X53975000Y-89250000D03*
X53975000Y-80500000D03*
X61700000Y-91750000D03*
X87250000Y-74000000D03*
X77000000Y-55000000D03*
X69430000Y-54500000D03*
X62300000Y-58000000D03*
X66750000Y-72250000D03*
X92000000Y-61250000D03*
X74500000Y-70800000D03*
X63500000Y-85425000D03*
X67250000Y-87250000D03*
D14*
X73618466Y-91215635D03*
X57500000Y-94000000D03*
X52600000Y-93400000D03*
X86500000Y-84500000D03*
X84500000Y-79750000D03*
X83000000Y-70500000D03*
X85000000Y-72750000D03*
X85750000Y-52750000D03*
X83500000Y-56500000D03*
X86800000Y-62500000D03*
X65250000Y-53000000D03*
X68750000Y-56500000D03*
X58500000Y-58750000D03*
X52500000Y-58750000D03*
X52500000Y-62750000D03*
X52500000Y-67750000D03*
X52500000Y-70500000D03*
X52500000Y-76500000D03*
X57500000Y-79000000D03*
X60750000Y-75750000D03*
X63500000Y-69750000D03*
X63250000Y-65000000D03*
X61750000Y-60750000D03*
X65250000Y-58250000D03*
D13*
X80800000Y-94800000D03*
X68000000Y-99400000D03*
X85050000Y-95200000D03*
D14*
X59800000Y-99000000D03*
X75000000Y-100200000D03*
X80600000Y-100200000D03*
X86000000Y-89600000D03*
X88200000Y-80600000D03*
X70000000Y-65800000D03*
X73800000Y-64800000D03*
X68400000Y-93600000D03*
X74600000Y-94600000D03*
D13*
X65200000Y-79200000D03*
%TO.N,+5V*%
X68800000Y-91250000D03*
X67000000Y-82250000D03*
%TO.N,+3V3*%
X89250000Y-76000000D03*
X85200000Y-76000000D03*
X82800000Y-73600000D03*
X72200000Y-73600000D03*
D14*
%TO.N,/NRST*%
X67500000Y-58750000D03*
X69000000Y-62000000D03*
%TO.N,/BLE_TX*%
X78000000Y-57400000D03*
X71100000Y-57900000D03*
%TO.N,/BLE_RTS#*%
X74200000Y-61400000D03*
X75600000Y-60000000D03*
%TO.N,/BLE_RST#*%
X75750000Y-58250000D03*
X78500000Y-59250000D03*
%TO.N,/BLE_CTS#*%
X77000000Y-60200000D03*
X73250000Y-62250000D03*
%TO.N,/BLE_MODE*%
X85400000Y-78000000D03*
X92400000Y-78000000D03*
%TO.N,/SENSOR_SET*%
X85200000Y-87200000D03*
X83400000Y-87200000D03*
%TO.N,Net-(D4-Pad1)*%
X81600000Y-86095000D03*
X85905000Y-86095000D03*
%TO.N,Net-(D5-Pad1)*%
X71800000Y-90200000D03*
X82600000Y-91800000D03*
%TO.N,/FTH_RTS#*%
X75600000Y-78200000D03*
X72400000Y-89200000D03*
X77600000Y-90800000D03*
X79600000Y-78200000D03*
%TO.N,/FTH_RXD*%
X75525000Y-82600000D03*
%TO.N,/FTH_TXD*%
X75600000Y-80400000D03*
X73200000Y-88400000D03*
X78400000Y-89600000D03*
X79600000Y-80400000D03*
%TO.N,/FTH_CTS#*%
X74250000Y-74750000D03*
X78000000Y-74750000D03*
%TO.N,Net-(D6-Pad1)*%
X79600000Y-56600000D03*
X81200000Y-55000000D03*
%TD*%
D15*
%TO.N,+5V*%
X67000000Y-82250000D02*
X68800000Y-84050000D01*
X68800000Y-84050000D02*
X68800000Y-91250000D01*
%TO.N,+3V3*%
X85200000Y-76000000D02*
X85600000Y-76000000D01*
X85600000Y-76000000D02*
X89250000Y-76000000D01*
X72200000Y-73600000D02*
X82800000Y-73600000D01*
D16*
%TO.N,/NRST*%
X67500000Y-60000000D02*
X67500000Y-58750000D01*
X67500000Y-60500000D02*
X67500000Y-60000000D01*
X69000000Y-62000000D02*
X67500000Y-60500000D01*
%TO.N,/BLE_TX*%
X71600000Y-57400000D02*
X71100000Y-57900000D01*
X78000000Y-57400000D02*
X71600000Y-57400000D01*
%TO.N,/BLE_RTS#*%
X75600000Y-60000000D02*
X74200000Y-61400000D01*
%TO.N,/BLE_RST#*%
X78500000Y-59250000D02*
X77500000Y-58250000D01*
X77500000Y-58250000D02*
X75750000Y-58250000D01*
%TO.N,/BLE_CTS#*%
X74950000Y-62250000D02*
X77000000Y-60200000D01*
X73250000Y-62250000D02*
X74950000Y-62250000D01*
%TO.N,/BLE_MODE*%
X92400000Y-78000000D02*
X85400000Y-78000000D01*
%TO.N,/SENSOR_SET*%
X85200000Y-87200000D02*
X83400000Y-87200000D01*
%TO.N,Net-(D4-Pad1)*%
X81600000Y-86095000D02*
X85905000Y-86095000D01*
%TO.N,Net-(D5-Pad1)*%
X74400000Y-90200000D02*
X71800000Y-90200000D01*
X76000000Y-91800000D02*
X74400000Y-90200000D01*
X78450000Y-91800000D02*
X76000000Y-91800000D01*
X78450000Y-91800000D02*
X82600000Y-91800000D01*
%TO.N,/FTH_RTS#*%
X74600000Y-89200000D02*
X72400000Y-89200000D01*
X77600000Y-90800000D02*
X76200000Y-90800000D01*
X76200000Y-90800000D02*
X74600000Y-89200000D01*
X79600000Y-78200000D02*
X75600000Y-78200000D01*
%TO.N,/FTH_TXD*%
X74800000Y-88400000D02*
X73200000Y-88400000D01*
X78400000Y-89600000D02*
X76000000Y-89600000D01*
X76000000Y-89600000D02*
X74800000Y-88400000D01*
X79600000Y-80400000D02*
X75600000Y-80400000D01*
%TO.N,/FTH_CTS#*%
X78000000Y-74750000D02*
X74250000Y-74750000D01*
%TO.N,Net-(D6-Pad1)*%
X79600000Y-56600000D02*
X81200000Y-55000000D01*
%TD*%
D17*
%TO.N,GND*%
G36*
X87021161Y-51555330D02*
G01*
X86601467Y-52183446D01*
X86312377Y-52881372D01*
X86165000Y-53622285D01*
X86165000Y-54377715D01*
X86312377Y-55118628D01*
X86601467Y-55816554D01*
X87021161Y-56444670D01*
X87555330Y-56978839D01*
X88183446Y-57398533D01*
X88881372Y-57687623D01*
X89622285Y-57835000D01*
X90377715Y-57835000D01*
X91118628Y-57687623D01*
X91816554Y-57398533D01*
X92444670Y-56978839D01*
X92873000Y-56550509D01*
X92873000Y-63373000D01*
X90250000Y-63373000D01*
X90225224Y-63375440D01*
X90201399Y-63382667D01*
X90179443Y-63394403D01*
X90160197Y-63410197D01*
X90144403Y-63429443D01*
X90132667Y-63451399D01*
X90125440Y-63475224D01*
X90123000Y-63500000D01*
X90123000Y-66623000D01*
X88000000Y-66623000D01*
X87975224Y-66625440D01*
X87951399Y-66632667D01*
X87929443Y-66644403D01*
X87910197Y-66660197D01*
X87894403Y-66679443D01*
X87882667Y-66701399D01*
X87875440Y-66725224D01*
X87873000Y-66750000D01*
X87873000Y-70750000D01*
X87875440Y-70774776D01*
X87882667Y-70798601D01*
X87894403Y-70820557D01*
X87910197Y-70839803D01*
X87929443Y-70855597D01*
X87951399Y-70867333D01*
X87975224Y-70874560D01*
X88000000Y-70877000D01*
X92873000Y-70877000D01*
X92873000Y-77021527D01*
X92716483Y-76956696D01*
X92506863Y-76915000D01*
X92293137Y-76915000D01*
X92083517Y-76956696D01*
X91886060Y-77038485D01*
X91708353Y-77157225D01*
X91628578Y-77237000D01*
X89617878Y-77237000D01*
X89624821Y-77235619D01*
X89858676Y-77138753D01*
X90069140Y-76998125D01*
X90248125Y-76819140D01*
X90388753Y-76608676D01*
X90485619Y-76374821D01*
X90535000Y-76126561D01*
X90535000Y-75873439D01*
X90485619Y-75625179D01*
X90388753Y-75391324D01*
X90248125Y-75180860D01*
X90069140Y-75001875D01*
X89858676Y-74861247D01*
X89624821Y-74764381D01*
X89376561Y-74715000D01*
X89123439Y-74715000D01*
X88875179Y-74764381D01*
X88641324Y-74861247D01*
X88486047Y-74965000D01*
X85963953Y-74965000D01*
X85808676Y-74861247D01*
X85574821Y-74764381D01*
X85326561Y-74715000D01*
X85073439Y-74715000D01*
X84825179Y-74764381D01*
X84591324Y-74861247D01*
X84380860Y-75001875D01*
X84201875Y-75180860D01*
X84061247Y-75391324D01*
X83964381Y-75625179D01*
X83915000Y-75873439D01*
X83915000Y-76126561D01*
X83964381Y-76374821D01*
X84061247Y-76608676D01*
X84201875Y-76819140D01*
X84380860Y-76998125D01*
X84591324Y-77138753D01*
X84687138Y-77178440D01*
X84557225Y-77308353D01*
X84438485Y-77486060D01*
X84356696Y-77683517D01*
X84315000Y-77893137D01*
X84315000Y-78106863D01*
X84356696Y-78316483D01*
X84438485Y-78513940D01*
X84557225Y-78691647D01*
X84708353Y-78842775D01*
X84886060Y-78961515D01*
X85083517Y-79043304D01*
X85293137Y-79085000D01*
X85506863Y-79085000D01*
X85716483Y-79043304D01*
X85913940Y-78961515D01*
X86091647Y-78842775D01*
X86171422Y-78763000D01*
X91628578Y-78763000D01*
X91708353Y-78842775D01*
X91886060Y-78961515D01*
X92083517Y-79043304D01*
X92293137Y-79085000D01*
X92506863Y-79085000D01*
X92716483Y-79043304D01*
X92873000Y-78978473D01*
X92873000Y-95449491D01*
X92444670Y-95021161D01*
X91816554Y-94601467D01*
X91118628Y-94312377D01*
X90377715Y-94165000D01*
X89622285Y-94165000D01*
X88881372Y-94312377D01*
X88183446Y-94601467D01*
X87555330Y-95021161D01*
X87021161Y-95555330D01*
X86601467Y-96183446D01*
X86312377Y-96881372D01*
X86165000Y-97622285D01*
X86165000Y-98377715D01*
X86312377Y-99118628D01*
X86601467Y-99816554D01*
X87021161Y-100444670D01*
X87449491Y-100873000D01*
X56550509Y-100873000D01*
X56978839Y-100444670D01*
X57398533Y-99816554D01*
X57687623Y-99118628D01*
X57835000Y-98377715D01*
X57835000Y-97622285D01*
X57687623Y-96881372D01*
X57398533Y-96183446D01*
X56978839Y-95555330D01*
X56444670Y-95021161D01*
X55816554Y-94601467D01*
X55118628Y-94312377D01*
X54377715Y-94165000D01*
X53622285Y-94165000D01*
X52881372Y-94312377D01*
X52183446Y-94601467D01*
X51555330Y-95021161D01*
X51127000Y-95449491D01*
X51127000Y-82123439D01*
X65715000Y-82123439D01*
X65715000Y-82376561D01*
X65764381Y-82624821D01*
X65861247Y-82858676D01*
X66001875Y-83069140D01*
X66180860Y-83248125D01*
X66391324Y-83388753D01*
X66625179Y-83485619D01*
X66808341Y-83522051D01*
X67765000Y-84478711D01*
X67765001Y-90486046D01*
X67661247Y-90641324D01*
X67564381Y-90875179D01*
X67515000Y-91123439D01*
X67515000Y-91376561D01*
X67564381Y-91624821D01*
X67661247Y-91858676D01*
X67801875Y-92069140D01*
X67980860Y-92248125D01*
X68191324Y-92388753D01*
X68425179Y-92485619D01*
X68673439Y-92535000D01*
X68926561Y-92535000D01*
X69174821Y-92485619D01*
X69408676Y-92388753D01*
X69619140Y-92248125D01*
X69798125Y-92069140D01*
X69938753Y-91858676D01*
X70035619Y-91624821D01*
X70085000Y-91376561D01*
X70085000Y-91123439D01*
X70035619Y-90875179D01*
X69938753Y-90641324D01*
X69835000Y-90486047D01*
X69835000Y-90093137D01*
X70715000Y-90093137D01*
X70715000Y-90306863D01*
X70756696Y-90516483D01*
X70838485Y-90713940D01*
X70957225Y-90891647D01*
X71108353Y-91042775D01*
X71286060Y-91161515D01*
X71483517Y-91243304D01*
X71693137Y-91285000D01*
X71906863Y-91285000D01*
X72116483Y-91243304D01*
X72313940Y-91161515D01*
X72491647Y-91042775D01*
X72571422Y-90963000D01*
X74083956Y-90963000D01*
X75433982Y-92313027D01*
X75457868Y-92342132D01*
X75486973Y-92366018D01*
X75486976Y-92366021D01*
X75514675Y-92388753D01*
X75574049Y-92437480D01*
X75706600Y-92508330D01*
X75850426Y-92551959D01*
X75962525Y-92563000D01*
X75962533Y-92563000D01*
X76000000Y-92566690D01*
X76037467Y-92563000D01*
X81828578Y-92563000D01*
X81908353Y-92642775D01*
X82086060Y-92761515D01*
X82283517Y-92843304D01*
X82493137Y-92885000D01*
X82706863Y-92885000D01*
X82916483Y-92843304D01*
X83113940Y-92761515D01*
X83291647Y-92642775D01*
X83442775Y-92491647D01*
X83561515Y-92313940D01*
X83643304Y-92116483D01*
X83685000Y-91906863D01*
X83685000Y-91693137D01*
X83643304Y-91483517D01*
X83561515Y-91286060D01*
X83442775Y-91108353D01*
X83291647Y-90957225D01*
X83113940Y-90838485D01*
X82916483Y-90756696D01*
X82706863Y-90715000D01*
X82493137Y-90715000D01*
X82283517Y-90756696D01*
X82086060Y-90838485D01*
X81908353Y-90957225D01*
X81828578Y-91037000D01*
X78659114Y-91037000D01*
X78685000Y-90906863D01*
X78685000Y-90693137D01*
X78676663Y-90651225D01*
X78716483Y-90643304D01*
X78913940Y-90561515D01*
X79091647Y-90442775D01*
X79242775Y-90291647D01*
X79361515Y-90113940D01*
X79443304Y-89916483D01*
X79485000Y-89706863D01*
X79485000Y-89493137D01*
X79443304Y-89283517D01*
X79361515Y-89086060D01*
X79242775Y-88908353D01*
X79091647Y-88757225D01*
X78913940Y-88638485D01*
X78716483Y-88556696D01*
X78506863Y-88515000D01*
X78293137Y-88515000D01*
X78083517Y-88556696D01*
X77886060Y-88638485D01*
X77708353Y-88757225D01*
X77628578Y-88837000D01*
X76316045Y-88837000D01*
X75366023Y-87886979D01*
X75342132Y-87857868D01*
X75225951Y-87762520D01*
X75093400Y-87691670D01*
X74949574Y-87648041D01*
X74837475Y-87637000D01*
X74837467Y-87637000D01*
X74800000Y-87633310D01*
X74762533Y-87637000D01*
X73971422Y-87637000D01*
X73891647Y-87557225D01*
X73713940Y-87438485D01*
X73516483Y-87356696D01*
X73306863Y-87315000D01*
X73093137Y-87315000D01*
X72883517Y-87356696D01*
X72686060Y-87438485D01*
X72508353Y-87557225D01*
X72357225Y-87708353D01*
X72238485Y-87886060D01*
X72156696Y-88083517D01*
X72144555Y-88144555D01*
X72083517Y-88156696D01*
X71886060Y-88238485D01*
X71708353Y-88357225D01*
X71557225Y-88508353D01*
X71438485Y-88686060D01*
X71356696Y-88883517D01*
X71315000Y-89093137D01*
X71315000Y-89226498D01*
X71286060Y-89238485D01*
X71108353Y-89357225D01*
X70957225Y-89508353D01*
X70838485Y-89686060D01*
X70756696Y-89883517D01*
X70715000Y-90093137D01*
X69835000Y-90093137D01*
X69835000Y-85988137D01*
X80515000Y-85988137D01*
X80515000Y-86201863D01*
X80556696Y-86411483D01*
X80638485Y-86608940D01*
X80757225Y-86786647D01*
X80908353Y-86937775D01*
X81086060Y-87056515D01*
X81283517Y-87138304D01*
X81493137Y-87180000D01*
X81706863Y-87180000D01*
X81916483Y-87138304D01*
X82113940Y-87056515D01*
X82291647Y-86937775D01*
X82364326Y-86865096D01*
X82356696Y-86883517D01*
X82315000Y-87093137D01*
X82315000Y-87306863D01*
X82356696Y-87516483D01*
X82438485Y-87713940D01*
X82557225Y-87891647D01*
X82708353Y-88042775D01*
X82886060Y-88161515D01*
X83083517Y-88243304D01*
X83293137Y-88285000D01*
X83506863Y-88285000D01*
X83716483Y-88243304D01*
X83913940Y-88161515D01*
X84091647Y-88042775D01*
X84171422Y-87963000D01*
X84428578Y-87963000D01*
X84508353Y-88042775D01*
X84686060Y-88161515D01*
X84883517Y-88243304D01*
X85093137Y-88285000D01*
X85306863Y-88285000D01*
X85516483Y-88243304D01*
X85713940Y-88161515D01*
X85891647Y-88042775D01*
X86042775Y-87891647D01*
X86161515Y-87713940D01*
X86243304Y-87516483D01*
X86285000Y-87306863D01*
X86285000Y-87111995D01*
X86418940Y-87056515D01*
X86596647Y-86937775D01*
X86747775Y-86786647D01*
X86866515Y-86608940D01*
X86948304Y-86411483D01*
X86990000Y-86201863D01*
X86990000Y-85988137D01*
X86948304Y-85778517D01*
X86866515Y-85581060D01*
X86747775Y-85403353D01*
X86596647Y-85252225D01*
X86418940Y-85133485D01*
X86221483Y-85051696D01*
X86011863Y-85010000D01*
X85798137Y-85010000D01*
X85588517Y-85051696D01*
X85391060Y-85133485D01*
X85213353Y-85252225D01*
X85133578Y-85332000D01*
X82371422Y-85332000D01*
X82291647Y-85252225D01*
X82113940Y-85133485D01*
X81916483Y-85051696D01*
X81706863Y-85010000D01*
X81493137Y-85010000D01*
X81283517Y-85051696D01*
X81086060Y-85133485D01*
X80908353Y-85252225D01*
X80757225Y-85403353D01*
X80638485Y-85581060D01*
X80556696Y-85778517D01*
X80515000Y-85988137D01*
X69835000Y-85988137D01*
X69835000Y-84100827D01*
X69840006Y-84049999D01*
X69835000Y-83999171D01*
X69835000Y-83999162D01*
X69820024Y-83847105D01*
X69760841Y-83652007D01*
X69671905Y-83485619D01*
X69664734Y-83472202D01*
X69567803Y-83354092D01*
X69535396Y-83314604D01*
X69495908Y-83282197D01*
X68706848Y-82493137D01*
X74440000Y-82493137D01*
X74440000Y-82706863D01*
X74481696Y-82916483D01*
X74563485Y-83113940D01*
X74682225Y-83291647D01*
X74833353Y-83442775D01*
X75011060Y-83561515D01*
X75208517Y-83643304D01*
X75418137Y-83685000D01*
X75631863Y-83685000D01*
X75841483Y-83643304D01*
X76038940Y-83561515D01*
X76216647Y-83442775D01*
X76367775Y-83291647D01*
X76486515Y-83113940D01*
X76568304Y-82916483D01*
X76610000Y-82706863D01*
X76610000Y-82493137D01*
X76568304Y-82283517D01*
X76486515Y-82086060D01*
X76367775Y-81908353D01*
X76216647Y-81757225D01*
X76038940Y-81638485D01*
X75841483Y-81556696D01*
X75631863Y-81515000D01*
X75418137Y-81515000D01*
X75208517Y-81556696D01*
X75011060Y-81638485D01*
X74833353Y-81757225D01*
X74682225Y-81908353D01*
X74563485Y-82086060D01*
X74481696Y-82283517D01*
X74440000Y-82493137D01*
X68706848Y-82493137D01*
X68272051Y-82058341D01*
X68235619Y-81875179D01*
X68138753Y-81641324D01*
X67998125Y-81430860D01*
X67819140Y-81251875D01*
X67608676Y-81111247D01*
X67374821Y-81014381D01*
X67126561Y-80965000D01*
X66873439Y-80965000D01*
X66625179Y-81014381D01*
X66391324Y-81111247D01*
X66180860Y-81251875D01*
X66001875Y-81430860D01*
X65861247Y-81641324D01*
X65764381Y-81875179D01*
X65715000Y-82123439D01*
X51127000Y-82123439D01*
X51127000Y-80293137D01*
X74515000Y-80293137D01*
X74515000Y-80506863D01*
X74556696Y-80716483D01*
X74638485Y-80913940D01*
X74757225Y-81091647D01*
X74908353Y-81242775D01*
X75086060Y-81361515D01*
X75283517Y-81443304D01*
X75493137Y-81485000D01*
X75706863Y-81485000D01*
X75916483Y-81443304D01*
X76113940Y-81361515D01*
X76291647Y-81242775D01*
X76371422Y-81163000D01*
X78828578Y-81163000D01*
X78908353Y-81242775D01*
X79086060Y-81361515D01*
X79283517Y-81443304D01*
X79493137Y-81485000D01*
X79706863Y-81485000D01*
X79916483Y-81443304D01*
X80113940Y-81361515D01*
X80291647Y-81242775D01*
X80442775Y-81091647D01*
X80561515Y-80913940D01*
X80643304Y-80716483D01*
X80685000Y-80506863D01*
X80685000Y-80293137D01*
X80643304Y-80083517D01*
X80561515Y-79886060D01*
X80442775Y-79708353D01*
X80291647Y-79557225D01*
X80113940Y-79438485D01*
X79916483Y-79356696D01*
X79706863Y-79315000D01*
X79493137Y-79315000D01*
X79283517Y-79356696D01*
X79086060Y-79438485D01*
X78908353Y-79557225D01*
X78828578Y-79637000D01*
X76371422Y-79637000D01*
X76291647Y-79557225D01*
X76113940Y-79438485D01*
X75916483Y-79356696D01*
X75706863Y-79315000D01*
X75493137Y-79315000D01*
X75283517Y-79356696D01*
X75086060Y-79438485D01*
X74908353Y-79557225D01*
X74757225Y-79708353D01*
X74638485Y-79886060D01*
X74556696Y-80083517D01*
X74515000Y-80293137D01*
X51127000Y-80293137D01*
X51127000Y-78093137D01*
X74515000Y-78093137D01*
X74515000Y-78306863D01*
X74556696Y-78516483D01*
X74638485Y-78713940D01*
X74757225Y-78891647D01*
X74908353Y-79042775D01*
X75086060Y-79161515D01*
X75283517Y-79243304D01*
X75493137Y-79285000D01*
X75706863Y-79285000D01*
X75916483Y-79243304D01*
X76113940Y-79161515D01*
X76291647Y-79042775D01*
X76371422Y-78963000D01*
X78828578Y-78963000D01*
X78908353Y-79042775D01*
X79086060Y-79161515D01*
X79283517Y-79243304D01*
X79493137Y-79285000D01*
X79706863Y-79285000D01*
X79916483Y-79243304D01*
X80113940Y-79161515D01*
X80291647Y-79042775D01*
X80442775Y-78891647D01*
X80561515Y-78713940D01*
X80643304Y-78516483D01*
X80685000Y-78306863D01*
X80685000Y-78093137D01*
X80643304Y-77883517D01*
X80561515Y-77686060D01*
X80442775Y-77508353D01*
X80291647Y-77357225D01*
X80113940Y-77238485D01*
X79916483Y-77156696D01*
X79706863Y-77115000D01*
X79493137Y-77115000D01*
X79283517Y-77156696D01*
X79086060Y-77238485D01*
X78908353Y-77357225D01*
X78828578Y-77437000D01*
X76371422Y-77437000D01*
X76291647Y-77357225D01*
X76113940Y-77238485D01*
X75916483Y-77156696D01*
X75706863Y-77115000D01*
X75493137Y-77115000D01*
X75283517Y-77156696D01*
X75086060Y-77238485D01*
X74908353Y-77357225D01*
X74757225Y-77508353D01*
X74638485Y-77686060D01*
X74556696Y-77883517D01*
X74515000Y-78093137D01*
X51127000Y-78093137D01*
X51127000Y-73350000D01*
X56311928Y-73350000D01*
X56311928Y-75050000D01*
X56324188Y-75174482D01*
X56360498Y-75294180D01*
X56419463Y-75404494D01*
X56498815Y-75501185D01*
X56595506Y-75580537D01*
X56705820Y-75639502D01*
X56825518Y-75675812D01*
X56950000Y-75688072D01*
X58650000Y-75688072D01*
X58774482Y-75675812D01*
X58894180Y-75639502D01*
X59004494Y-75580537D01*
X59101185Y-75501185D01*
X59180537Y-75404494D01*
X59239502Y-75294180D01*
X59275812Y-75174482D01*
X59288072Y-75050000D01*
X59288072Y-73473439D01*
X70915000Y-73473439D01*
X70915000Y-73726561D01*
X70964381Y-73974821D01*
X71061247Y-74208676D01*
X71201875Y-74419140D01*
X71380860Y-74598125D01*
X71591324Y-74738753D01*
X71825179Y-74835619D01*
X72073439Y-74885000D01*
X72326561Y-74885000D01*
X72574821Y-74835619D01*
X72808676Y-74738753D01*
X72963953Y-74635000D01*
X73166619Y-74635000D01*
X73165000Y-74643137D01*
X73165000Y-74856863D01*
X73206696Y-75066483D01*
X73288485Y-75263940D01*
X73407225Y-75441647D01*
X73558353Y-75592775D01*
X73736060Y-75711515D01*
X73933517Y-75793304D01*
X74143137Y-75835000D01*
X74356863Y-75835000D01*
X74566483Y-75793304D01*
X74763940Y-75711515D01*
X74941647Y-75592775D01*
X75021422Y-75513000D01*
X77228578Y-75513000D01*
X77308353Y-75592775D01*
X77486060Y-75711515D01*
X77683517Y-75793304D01*
X77893137Y-75835000D01*
X78106863Y-75835000D01*
X78316483Y-75793304D01*
X78513940Y-75711515D01*
X78691647Y-75592775D01*
X78842775Y-75441647D01*
X78961515Y-75263940D01*
X79043304Y-75066483D01*
X79085000Y-74856863D01*
X79085000Y-74643137D01*
X79083381Y-74635000D01*
X82036047Y-74635000D01*
X82191324Y-74738753D01*
X82425179Y-74835619D01*
X82673439Y-74885000D01*
X82926561Y-74885000D01*
X83174821Y-74835619D01*
X83408676Y-74738753D01*
X83619140Y-74598125D01*
X83798125Y-74419140D01*
X83938753Y-74208676D01*
X84035619Y-73974821D01*
X84085000Y-73726561D01*
X84085000Y-73473439D01*
X84035619Y-73225179D01*
X83938753Y-72991324D01*
X83798125Y-72780860D01*
X83619140Y-72601875D01*
X83408676Y-72461247D01*
X83174821Y-72364381D01*
X82926561Y-72315000D01*
X82673439Y-72315000D01*
X82425179Y-72364381D01*
X82191324Y-72461247D01*
X82036047Y-72565000D01*
X72963953Y-72565000D01*
X72808676Y-72461247D01*
X72574821Y-72364381D01*
X72326561Y-72315000D01*
X72073439Y-72315000D01*
X71825179Y-72364381D01*
X71591324Y-72461247D01*
X71380860Y-72601875D01*
X71201875Y-72780860D01*
X71061247Y-72991324D01*
X70964381Y-73225179D01*
X70915000Y-73473439D01*
X59288072Y-73473439D01*
X59288072Y-73350000D01*
X59275812Y-73225518D01*
X59239502Y-73105820D01*
X59180537Y-72995506D01*
X59101185Y-72898815D01*
X59004494Y-72819463D01*
X58894180Y-72760498D01*
X58821620Y-72738487D01*
X58953475Y-72606632D01*
X59115990Y-72363411D01*
X59227932Y-72093158D01*
X59285000Y-71806260D01*
X59285000Y-71513740D01*
X59227932Y-71226842D01*
X59115990Y-70956589D01*
X58953475Y-70713368D01*
X58746632Y-70506525D01*
X58564466Y-70384805D01*
X58681355Y-70315178D01*
X58897588Y-70120269D01*
X59071641Y-69886920D01*
X59196825Y-69624099D01*
X59241476Y-69476890D01*
X59120155Y-69247000D01*
X57927000Y-69247000D01*
X57927000Y-69267000D01*
X57673000Y-69267000D01*
X57673000Y-69247000D01*
X56479845Y-69247000D01*
X56358524Y-69476890D01*
X56403175Y-69624099D01*
X56528359Y-69886920D01*
X56702412Y-70120269D01*
X56918645Y-70315178D01*
X57035534Y-70384805D01*
X56853368Y-70506525D01*
X56646525Y-70713368D01*
X56484010Y-70956589D01*
X56372068Y-71226842D01*
X56315000Y-71513740D01*
X56315000Y-71806260D01*
X56372068Y-72093158D01*
X56484010Y-72363411D01*
X56646525Y-72606632D01*
X56778380Y-72738487D01*
X56705820Y-72760498D01*
X56595506Y-72819463D01*
X56498815Y-72898815D01*
X56419463Y-72995506D01*
X56360498Y-73105820D01*
X56324188Y-73225518D01*
X56311928Y-73350000D01*
X51127000Y-73350000D01*
X51127000Y-61353740D01*
X56315000Y-61353740D01*
X56315000Y-61646260D01*
X56372068Y-61933158D01*
X56484010Y-62203411D01*
X56646525Y-62446632D01*
X56853368Y-62653475D01*
X57027760Y-62770000D01*
X56853368Y-62886525D01*
X56646525Y-63093368D01*
X56484010Y-63336589D01*
X56372068Y-63606842D01*
X56315000Y-63893740D01*
X56315000Y-64186260D01*
X56372068Y-64473158D01*
X56484010Y-64743411D01*
X56646525Y-64986632D01*
X56853368Y-65193475D01*
X57027760Y-65310000D01*
X56853368Y-65426525D01*
X56646525Y-65633368D01*
X56484010Y-65876589D01*
X56372068Y-66146842D01*
X56315000Y-66433740D01*
X56315000Y-66726260D01*
X56372068Y-67013158D01*
X56484010Y-67283411D01*
X56646525Y-67526632D01*
X56853368Y-67733475D01*
X57035534Y-67855195D01*
X56918645Y-67924822D01*
X56702412Y-68119731D01*
X56528359Y-68353080D01*
X56403175Y-68615901D01*
X56358524Y-68763110D01*
X56479845Y-68993000D01*
X57673000Y-68993000D01*
X57673000Y-68973000D01*
X57927000Y-68973000D01*
X57927000Y-68993000D01*
X59120155Y-68993000D01*
X59241476Y-68763110D01*
X59196825Y-68615901D01*
X59071641Y-68353080D01*
X58897588Y-68119731D01*
X58681355Y-67924822D01*
X58564466Y-67855195D01*
X58746632Y-67733475D01*
X58953475Y-67526632D01*
X59115990Y-67283411D01*
X59227932Y-67013158D01*
X59285000Y-66726260D01*
X59285000Y-66433740D01*
X59227932Y-66146842D01*
X59115990Y-65876589D01*
X58953475Y-65633368D01*
X58746632Y-65426525D01*
X58572240Y-65310000D01*
X58746632Y-65193475D01*
X58953475Y-64986632D01*
X59115990Y-64743411D01*
X59227932Y-64473158D01*
X59285000Y-64186260D01*
X59285000Y-63893740D01*
X59227932Y-63606842D01*
X59115990Y-63336589D01*
X58953475Y-63093368D01*
X58746632Y-62886525D01*
X58572240Y-62770000D01*
X58746632Y-62653475D01*
X58953475Y-62446632D01*
X59115990Y-62203411D01*
X59227932Y-61933158D01*
X59285000Y-61646260D01*
X59285000Y-61353740D01*
X59227932Y-61066842D01*
X59115990Y-60796589D01*
X58953475Y-60553368D01*
X58746632Y-60346525D01*
X58503411Y-60184010D01*
X58233158Y-60072068D01*
X57946260Y-60015000D01*
X57653740Y-60015000D01*
X57366842Y-60072068D01*
X57096589Y-60184010D01*
X56853368Y-60346525D01*
X56646525Y-60553368D01*
X56484010Y-60796589D01*
X56372068Y-61066842D01*
X56315000Y-61353740D01*
X51127000Y-61353740D01*
X51127000Y-58643137D01*
X66415000Y-58643137D01*
X66415000Y-58856863D01*
X66456696Y-59066483D01*
X66538485Y-59263940D01*
X66657225Y-59441647D01*
X66737000Y-59521422D01*
X66737000Y-60462533D01*
X66733310Y-60500000D01*
X66737000Y-60537467D01*
X66737000Y-60537474D01*
X66748041Y-60649573D01*
X66791670Y-60793399D01*
X66862520Y-60925950D01*
X66957868Y-61042132D01*
X66986979Y-61066023D01*
X67915000Y-61994045D01*
X67915000Y-62106863D01*
X67956696Y-62316483D01*
X68038485Y-62513940D01*
X68157225Y-62691647D01*
X68308353Y-62842775D01*
X68486060Y-62961515D01*
X68683517Y-63043304D01*
X68893137Y-63085000D01*
X69106863Y-63085000D01*
X69316483Y-63043304D01*
X69513940Y-62961515D01*
X69691647Y-62842775D01*
X69842775Y-62691647D01*
X69961515Y-62513940D01*
X70043304Y-62316483D01*
X70085000Y-62106863D01*
X70085000Y-61893137D01*
X70043304Y-61683517D01*
X69961515Y-61486060D01*
X69842775Y-61308353D01*
X69691647Y-61157225D01*
X69513940Y-61038485D01*
X69316483Y-60956696D01*
X69106863Y-60915000D01*
X68994045Y-60915000D01*
X68263000Y-60183956D01*
X68263000Y-59521422D01*
X68342775Y-59441647D01*
X68461515Y-59263940D01*
X68543304Y-59066483D01*
X68585000Y-58856863D01*
X68585000Y-58643137D01*
X68543304Y-58433517D01*
X68461515Y-58236060D01*
X68342775Y-58058353D01*
X68191647Y-57907225D01*
X68020903Y-57793137D01*
X70015000Y-57793137D01*
X70015000Y-58006863D01*
X70056696Y-58216483D01*
X70138485Y-58413940D01*
X70257225Y-58591647D01*
X70408353Y-58742775D01*
X70586060Y-58861515D01*
X70783517Y-58943304D01*
X70993137Y-58985000D01*
X71206863Y-58985000D01*
X71416483Y-58943304D01*
X71613940Y-58861515D01*
X71791647Y-58742775D01*
X71942775Y-58591647D01*
X72061515Y-58413940D01*
X72143304Y-58216483D01*
X72153942Y-58163000D01*
X74665000Y-58163000D01*
X74665000Y-58356863D01*
X74706696Y-58566483D01*
X74788485Y-58763940D01*
X74907225Y-58941647D01*
X75036906Y-59071328D01*
X74908353Y-59157225D01*
X74757225Y-59308353D01*
X74638485Y-59486060D01*
X74556696Y-59683517D01*
X74515000Y-59893137D01*
X74515000Y-60005955D01*
X74205956Y-60315000D01*
X74093137Y-60315000D01*
X73883517Y-60356696D01*
X73686060Y-60438485D01*
X73508353Y-60557225D01*
X73357225Y-60708353D01*
X73238485Y-60886060D01*
X73156696Y-61083517D01*
X73140379Y-61165549D01*
X72933517Y-61206696D01*
X72736060Y-61288485D01*
X72558353Y-61407225D01*
X72407225Y-61558353D01*
X72288485Y-61736060D01*
X72206696Y-61933517D01*
X72165000Y-62143137D01*
X72165000Y-62356863D01*
X72206696Y-62566483D01*
X72288485Y-62763940D01*
X72407225Y-62941647D01*
X72558353Y-63092775D01*
X72736060Y-63211515D01*
X72933517Y-63293304D01*
X73143137Y-63335000D01*
X73356863Y-63335000D01*
X73566483Y-63293304D01*
X73763940Y-63211515D01*
X73941647Y-63092775D01*
X74021422Y-63013000D01*
X74912533Y-63013000D01*
X74950000Y-63016690D01*
X74987467Y-63013000D01*
X74987475Y-63013000D01*
X75099574Y-63001959D01*
X75243400Y-62958330D01*
X75375951Y-62887480D01*
X75492132Y-62792132D01*
X75516023Y-62763021D01*
X76994045Y-61285000D01*
X77106863Y-61285000D01*
X77316483Y-61243304D01*
X77513940Y-61161515D01*
X77691647Y-61042775D01*
X77842775Y-60891647D01*
X77961515Y-60713940D01*
X78043304Y-60516483D01*
X78085000Y-60306863D01*
X78085000Y-60252497D01*
X78183517Y-60293304D01*
X78393137Y-60335000D01*
X78606863Y-60335000D01*
X78816483Y-60293304D01*
X79013940Y-60211515D01*
X79191647Y-60092775D01*
X79342775Y-59941647D01*
X79461515Y-59763940D01*
X79543304Y-59566483D01*
X79585000Y-59356863D01*
X79585000Y-59143137D01*
X79543304Y-58933517D01*
X79461515Y-58736060D01*
X79342775Y-58558353D01*
X79191647Y-58407225D01*
X79013940Y-58288485D01*
X78816483Y-58206696D01*
X78742452Y-58191970D01*
X78842775Y-58091647D01*
X78961515Y-57913940D01*
X79043304Y-57716483D01*
X79075529Y-57554478D01*
X79086060Y-57561515D01*
X79283517Y-57643304D01*
X79493137Y-57685000D01*
X79706863Y-57685000D01*
X79916483Y-57643304D01*
X80113940Y-57561515D01*
X80291647Y-57442775D01*
X80442775Y-57291647D01*
X80561515Y-57113940D01*
X80643304Y-56916483D01*
X80685000Y-56706863D01*
X80685000Y-56594044D01*
X81194045Y-56085000D01*
X81306863Y-56085000D01*
X81516483Y-56043304D01*
X81713940Y-55961515D01*
X81891647Y-55842775D01*
X82042775Y-55691647D01*
X82161515Y-55513940D01*
X82243304Y-55316483D01*
X82285000Y-55106863D01*
X82285000Y-54893137D01*
X82243304Y-54683517D01*
X82161515Y-54486060D01*
X82042775Y-54308353D01*
X81891647Y-54157225D01*
X81713940Y-54038485D01*
X81516483Y-53956696D01*
X81306863Y-53915000D01*
X81093137Y-53915000D01*
X80883517Y-53956696D01*
X80686060Y-54038485D01*
X80508353Y-54157225D01*
X80357225Y-54308353D01*
X80238485Y-54486060D01*
X80156696Y-54683517D01*
X80115000Y-54893137D01*
X80115000Y-55005955D01*
X79605956Y-55515000D01*
X79493137Y-55515000D01*
X79283517Y-55556696D01*
X79086060Y-55638485D01*
X78908353Y-55757225D01*
X78757225Y-55908353D01*
X78638485Y-56086060D01*
X78556696Y-56283517D01*
X78524471Y-56445522D01*
X78513940Y-56438485D01*
X78316483Y-56356696D01*
X78106863Y-56315000D01*
X77893137Y-56315000D01*
X77683517Y-56356696D01*
X77486060Y-56438485D01*
X77308353Y-56557225D01*
X77228578Y-56637000D01*
X71637467Y-56637000D01*
X71600000Y-56633310D01*
X71562533Y-56637000D01*
X71562525Y-56637000D01*
X71450426Y-56648041D01*
X71306600Y-56691670D01*
X71174049Y-56762520D01*
X71110102Y-56815000D01*
X70993137Y-56815000D01*
X70783517Y-56856696D01*
X70586060Y-56938485D01*
X70408353Y-57057225D01*
X70257225Y-57208353D01*
X70138485Y-57386060D01*
X70056696Y-57583517D01*
X70015000Y-57793137D01*
X68020903Y-57793137D01*
X68013940Y-57788485D01*
X67816483Y-57706696D01*
X67606863Y-57665000D01*
X67393137Y-57665000D01*
X67183517Y-57706696D01*
X66986060Y-57788485D01*
X66808353Y-57907225D01*
X66657225Y-58058353D01*
X66538485Y-58236060D01*
X66456696Y-58433517D01*
X66415000Y-58643137D01*
X51127000Y-58643137D01*
X51127000Y-56550509D01*
X51555330Y-56978839D01*
X52183446Y-57398533D01*
X52881372Y-57687623D01*
X53622285Y-57835000D01*
X54377715Y-57835000D01*
X55118628Y-57687623D01*
X55816554Y-57398533D01*
X56444670Y-56978839D01*
X56978839Y-56444670D01*
X57398533Y-55816554D01*
X57687623Y-55118628D01*
X57835000Y-54377715D01*
X57835000Y-53622285D01*
X57687623Y-52881372D01*
X57398533Y-52183446D01*
X56978839Y-51555330D01*
X56550509Y-51127000D01*
X87449491Y-51127000D01*
X87021161Y-51555330D01*
G37*
X87021161Y-51555330D02*
X86601467Y-52183446D01*
X86312377Y-52881372D01*
X86165000Y-53622285D01*
X86165000Y-54377715D01*
X86312377Y-55118628D01*
X86601467Y-55816554D01*
X87021161Y-56444670D01*
X87555330Y-56978839D01*
X88183446Y-57398533D01*
X88881372Y-57687623D01*
X89622285Y-57835000D01*
X90377715Y-57835000D01*
X91118628Y-57687623D01*
X91816554Y-57398533D01*
X92444670Y-56978839D01*
X92873000Y-56550509D01*
X92873000Y-63373000D01*
X90250000Y-63373000D01*
X90225224Y-63375440D01*
X90201399Y-63382667D01*
X90179443Y-63394403D01*
X90160197Y-63410197D01*
X90144403Y-63429443D01*
X90132667Y-63451399D01*
X90125440Y-63475224D01*
X90123000Y-63500000D01*
X90123000Y-66623000D01*
X88000000Y-66623000D01*
X87975224Y-66625440D01*
X87951399Y-66632667D01*
X87929443Y-66644403D01*
X87910197Y-66660197D01*
X87894403Y-66679443D01*
X87882667Y-66701399D01*
X87875440Y-66725224D01*
X87873000Y-66750000D01*
X87873000Y-70750000D01*
X87875440Y-70774776D01*
X87882667Y-70798601D01*
X87894403Y-70820557D01*
X87910197Y-70839803D01*
X87929443Y-70855597D01*
X87951399Y-70867333D01*
X87975224Y-70874560D01*
X88000000Y-70877000D01*
X92873000Y-70877000D01*
X92873000Y-77021527D01*
X92716483Y-76956696D01*
X92506863Y-76915000D01*
X92293137Y-76915000D01*
X92083517Y-76956696D01*
X91886060Y-77038485D01*
X91708353Y-77157225D01*
X91628578Y-77237000D01*
X89617878Y-77237000D01*
X89624821Y-77235619D01*
X89858676Y-77138753D01*
X90069140Y-76998125D01*
X90248125Y-76819140D01*
X90388753Y-76608676D01*
X90485619Y-76374821D01*
X90535000Y-76126561D01*
X90535000Y-75873439D01*
X90485619Y-75625179D01*
X90388753Y-75391324D01*
X90248125Y-75180860D01*
X90069140Y-75001875D01*
X89858676Y-74861247D01*
X89624821Y-74764381D01*
X89376561Y-74715000D01*
X89123439Y-74715000D01*
X88875179Y-74764381D01*
X88641324Y-74861247D01*
X88486047Y-74965000D01*
X85963953Y-74965000D01*
X85808676Y-74861247D01*
X85574821Y-74764381D01*
X85326561Y-74715000D01*
X85073439Y-74715000D01*
X84825179Y-74764381D01*
X84591324Y-74861247D01*
X84380860Y-75001875D01*
X84201875Y-75180860D01*
X84061247Y-75391324D01*
X83964381Y-75625179D01*
X83915000Y-75873439D01*
X83915000Y-76126561D01*
X83964381Y-76374821D01*
X84061247Y-76608676D01*
X84201875Y-76819140D01*
X84380860Y-76998125D01*
X84591324Y-77138753D01*
X84687138Y-77178440D01*
X84557225Y-77308353D01*
X84438485Y-77486060D01*
X84356696Y-77683517D01*
X84315000Y-77893137D01*
X84315000Y-78106863D01*
X84356696Y-78316483D01*
X84438485Y-78513940D01*
X84557225Y-78691647D01*
X84708353Y-78842775D01*
X84886060Y-78961515D01*
X85083517Y-79043304D01*
X85293137Y-79085000D01*
X85506863Y-79085000D01*
X85716483Y-79043304D01*
X85913940Y-78961515D01*
X86091647Y-78842775D01*
X86171422Y-78763000D01*
X91628578Y-78763000D01*
X91708353Y-78842775D01*
X91886060Y-78961515D01*
X92083517Y-79043304D01*
X92293137Y-79085000D01*
X92506863Y-79085000D01*
X92716483Y-79043304D01*
X92873000Y-78978473D01*
X92873000Y-95449491D01*
X92444670Y-95021161D01*
X91816554Y-94601467D01*
X91118628Y-94312377D01*
X90377715Y-94165000D01*
X89622285Y-94165000D01*
X88881372Y-94312377D01*
X88183446Y-94601467D01*
X87555330Y-95021161D01*
X87021161Y-95555330D01*
X86601467Y-96183446D01*
X86312377Y-96881372D01*
X86165000Y-97622285D01*
X86165000Y-98377715D01*
X86312377Y-99118628D01*
X86601467Y-99816554D01*
X87021161Y-100444670D01*
X87449491Y-100873000D01*
X56550509Y-100873000D01*
X56978839Y-100444670D01*
X57398533Y-99816554D01*
X57687623Y-99118628D01*
X57835000Y-98377715D01*
X57835000Y-97622285D01*
X57687623Y-96881372D01*
X57398533Y-96183446D01*
X56978839Y-95555330D01*
X56444670Y-95021161D01*
X55816554Y-94601467D01*
X55118628Y-94312377D01*
X54377715Y-94165000D01*
X53622285Y-94165000D01*
X52881372Y-94312377D01*
X52183446Y-94601467D01*
X51555330Y-95021161D01*
X51127000Y-95449491D01*
X51127000Y-82123439D01*
X65715000Y-82123439D01*
X65715000Y-82376561D01*
X65764381Y-82624821D01*
X65861247Y-82858676D01*
X66001875Y-83069140D01*
X66180860Y-83248125D01*
X66391324Y-83388753D01*
X66625179Y-83485619D01*
X66808341Y-83522051D01*
X67765000Y-84478711D01*
X67765001Y-90486046D01*
X67661247Y-90641324D01*
X67564381Y-90875179D01*
X67515000Y-91123439D01*
X67515000Y-91376561D01*
X67564381Y-91624821D01*
X67661247Y-91858676D01*
X67801875Y-92069140D01*
X67980860Y-92248125D01*
X68191324Y-92388753D01*
X68425179Y-92485619D01*
X68673439Y-92535000D01*
X68926561Y-92535000D01*
X69174821Y-92485619D01*
X69408676Y-92388753D01*
X69619140Y-92248125D01*
X69798125Y-92069140D01*
X69938753Y-91858676D01*
X70035619Y-91624821D01*
X70085000Y-91376561D01*
X70085000Y-91123439D01*
X70035619Y-90875179D01*
X69938753Y-90641324D01*
X69835000Y-90486047D01*
X69835000Y-90093137D01*
X70715000Y-90093137D01*
X70715000Y-90306863D01*
X70756696Y-90516483D01*
X70838485Y-90713940D01*
X70957225Y-90891647D01*
X71108353Y-91042775D01*
X71286060Y-91161515D01*
X71483517Y-91243304D01*
X71693137Y-91285000D01*
X71906863Y-91285000D01*
X72116483Y-91243304D01*
X72313940Y-91161515D01*
X72491647Y-91042775D01*
X72571422Y-90963000D01*
X74083956Y-90963000D01*
X75433982Y-92313027D01*
X75457868Y-92342132D01*
X75486973Y-92366018D01*
X75486976Y-92366021D01*
X75514675Y-92388753D01*
X75574049Y-92437480D01*
X75706600Y-92508330D01*
X75850426Y-92551959D01*
X75962525Y-92563000D01*
X75962533Y-92563000D01*
X76000000Y-92566690D01*
X76037467Y-92563000D01*
X81828578Y-92563000D01*
X81908353Y-92642775D01*
X82086060Y-92761515D01*
X82283517Y-92843304D01*
X82493137Y-92885000D01*
X82706863Y-92885000D01*
X82916483Y-92843304D01*
X83113940Y-92761515D01*
X83291647Y-92642775D01*
X83442775Y-92491647D01*
X83561515Y-92313940D01*
X83643304Y-92116483D01*
X83685000Y-91906863D01*
X83685000Y-91693137D01*
X83643304Y-91483517D01*
X83561515Y-91286060D01*
X83442775Y-91108353D01*
X83291647Y-90957225D01*
X83113940Y-90838485D01*
X82916483Y-90756696D01*
X82706863Y-90715000D01*
X82493137Y-90715000D01*
X82283517Y-90756696D01*
X82086060Y-90838485D01*
X81908353Y-90957225D01*
X81828578Y-91037000D01*
X78659114Y-91037000D01*
X78685000Y-90906863D01*
X78685000Y-90693137D01*
X78676663Y-90651225D01*
X78716483Y-90643304D01*
X78913940Y-90561515D01*
X79091647Y-90442775D01*
X79242775Y-90291647D01*
X79361515Y-90113940D01*
X79443304Y-89916483D01*
X79485000Y-89706863D01*
X79485000Y-89493137D01*
X79443304Y-89283517D01*
X79361515Y-89086060D01*
X79242775Y-88908353D01*
X79091647Y-88757225D01*
X78913940Y-88638485D01*
X78716483Y-88556696D01*
X78506863Y-88515000D01*
X78293137Y-88515000D01*
X78083517Y-88556696D01*
X77886060Y-88638485D01*
X77708353Y-88757225D01*
X77628578Y-88837000D01*
X76316045Y-88837000D01*
X75366023Y-87886979D01*
X75342132Y-87857868D01*
X75225951Y-87762520D01*
X75093400Y-87691670D01*
X74949574Y-87648041D01*
X74837475Y-87637000D01*
X74837467Y-87637000D01*
X74800000Y-87633310D01*
X74762533Y-87637000D01*
X73971422Y-87637000D01*
X73891647Y-87557225D01*
X73713940Y-87438485D01*
X73516483Y-87356696D01*
X73306863Y-87315000D01*
X73093137Y-87315000D01*
X72883517Y-87356696D01*
X72686060Y-87438485D01*
X72508353Y-87557225D01*
X72357225Y-87708353D01*
X72238485Y-87886060D01*
X72156696Y-88083517D01*
X72144555Y-88144555D01*
X72083517Y-88156696D01*
X71886060Y-88238485D01*
X71708353Y-88357225D01*
X71557225Y-88508353D01*
X71438485Y-88686060D01*
X71356696Y-88883517D01*
X71315000Y-89093137D01*
X71315000Y-89226498D01*
X71286060Y-89238485D01*
X71108353Y-89357225D01*
X70957225Y-89508353D01*
X70838485Y-89686060D01*
X70756696Y-89883517D01*
X70715000Y-90093137D01*
X69835000Y-90093137D01*
X69835000Y-85988137D01*
X80515000Y-85988137D01*
X80515000Y-86201863D01*
X80556696Y-86411483D01*
X80638485Y-86608940D01*
X80757225Y-86786647D01*
X80908353Y-86937775D01*
X81086060Y-87056515D01*
X81283517Y-87138304D01*
X81493137Y-87180000D01*
X81706863Y-87180000D01*
X81916483Y-87138304D01*
X82113940Y-87056515D01*
X82291647Y-86937775D01*
X82364326Y-86865096D01*
X82356696Y-86883517D01*
X82315000Y-87093137D01*
X82315000Y-87306863D01*
X82356696Y-87516483D01*
X82438485Y-87713940D01*
X82557225Y-87891647D01*
X82708353Y-88042775D01*
X82886060Y-88161515D01*
X83083517Y-88243304D01*
X83293137Y-88285000D01*
X83506863Y-88285000D01*
X83716483Y-88243304D01*
X83913940Y-88161515D01*
X84091647Y-88042775D01*
X84171422Y-87963000D01*
X84428578Y-87963000D01*
X84508353Y-88042775D01*
X84686060Y-88161515D01*
X84883517Y-88243304D01*
X85093137Y-88285000D01*
X85306863Y-88285000D01*
X85516483Y-88243304D01*
X85713940Y-88161515D01*
X85891647Y-88042775D01*
X86042775Y-87891647D01*
X86161515Y-87713940D01*
X86243304Y-87516483D01*
X86285000Y-87306863D01*
X86285000Y-87111995D01*
X86418940Y-87056515D01*
X86596647Y-86937775D01*
X86747775Y-86786647D01*
X86866515Y-86608940D01*
X86948304Y-86411483D01*
X86990000Y-86201863D01*
X86990000Y-85988137D01*
X86948304Y-85778517D01*
X86866515Y-85581060D01*
X86747775Y-85403353D01*
X86596647Y-85252225D01*
X86418940Y-85133485D01*
X86221483Y-85051696D01*
X86011863Y-85010000D01*
X85798137Y-85010000D01*
X85588517Y-85051696D01*
X85391060Y-85133485D01*
X85213353Y-85252225D01*
X85133578Y-85332000D01*
X82371422Y-85332000D01*
X82291647Y-85252225D01*
X82113940Y-85133485D01*
X81916483Y-85051696D01*
X81706863Y-85010000D01*
X81493137Y-85010000D01*
X81283517Y-85051696D01*
X81086060Y-85133485D01*
X80908353Y-85252225D01*
X80757225Y-85403353D01*
X80638485Y-85581060D01*
X80556696Y-85778517D01*
X80515000Y-85988137D01*
X69835000Y-85988137D01*
X69835000Y-84100827D01*
X69840006Y-84049999D01*
X69835000Y-83999171D01*
X69835000Y-83999162D01*
X69820024Y-83847105D01*
X69760841Y-83652007D01*
X69671905Y-83485619D01*
X69664734Y-83472202D01*
X69567803Y-83354092D01*
X69535396Y-83314604D01*
X69495908Y-83282197D01*
X68706848Y-82493137D01*
X74440000Y-82493137D01*
X74440000Y-82706863D01*
X74481696Y-82916483D01*
X74563485Y-83113940D01*
X74682225Y-83291647D01*
X74833353Y-83442775D01*
X75011060Y-83561515D01*
X75208517Y-83643304D01*
X75418137Y-83685000D01*
X75631863Y-83685000D01*
X75841483Y-83643304D01*
X76038940Y-83561515D01*
X76216647Y-83442775D01*
X76367775Y-83291647D01*
X76486515Y-83113940D01*
X76568304Y-82916483D01*
X76610000Y-82706863D01*
X76610000Y-82493137D01*
X76568304Y-82283517D01*
X76486515Y-82086060D01*
X76367775Y-81908353D01*
X76216647Y-81757225D01*
X76038940Y-81638485D01*
X75841483Y-81556696D01*
X75631863Y-81515000D01*
X75418137Y-81515000D01*
X75208517Y-81556696D01*
X75011060Y-81638485D01*
X74833353Y-81757225D01*
X74682225Y-81908353D01*
X74563485Y-82086060D01*
X74481696Y-82283517D01*
X74440000Y-82493137D01*
X68706848Y-82493137D01*
X68272051Y-82058341D01*
X68235619Y-81875179D01*
X68138753Y-81641324D01*
X67998125Y-81430860D01*
X67819140Y-81251875D01*
X67608676Y-81111247D01*
X67374821Y-81014381D01*
X67126561Y-80965000D01*
X66873439Y-80965000D01*
X66625179Y-81014381D01*
X66391324Y-81111247D01*
X66180860Y-81251875D01*
X66001875Y-81430860D01*
X65861247Y-81641324D01*
X65764381Y-81875179D01*
X65715000Y-82123439D01*
X51127000Y-82123439D01*
X51127000Y-80293137D01*
X74515000Y-80293137D01*
X74515000Y-80506863D01*
X74556696Y-80716483D01*
X74638485Y-80913940D01*
X74757225Y-81091647D01*
X74908353Y-81242775D01*
X75086060Y-81361515D01*
X75283517Y-81443304D01*
X75493137Y-81485000D01*
X75706863Y-81485000D01*
X75916483Y-81443304D01*
X76113940Y-81361515D01*
X76291647Y-81242775D01*
X76371422Y-81163000D01*
X78828578Y-81163000D01*
X78908353Y-81242775D01*
X79086060Y-81361515D01*
X79283517Y-81443304D01*
X79493137Y-81485000D01*
X79706863Y-81485000D01*
X79916483Y-81443304D01*
X80113940Y-81361515D01*
X80291647Y-81242775D01*
X80442775Y-81091647D01*
X80561515Y-80913940D01*
X80643304Y-80716483D01*
X80685000Y-80506863D01*
X80685000Y-80293137D01*
X80643304Y-80083517D01*
X80561515Y-79886060D01*
X80442775Y-79708353D01*
X80291647Y-79557225D01*
X80113940Y-79438485D01*
X79916483Y-79356696D01*
X79706863Y-79315000D01*
X79493137Y-79315000D01*
X79283517Y-79356696D01*
X79086060Y-79438485D01*
X78908353Y-79557225D01*
X78828578Y-79637000D01*
X76371422Y-79637000D01*
X76291647Y-79557225D01*
X76113940Y-79438485D01*
X75916483Y-79356696D01*
X75706863Y-79315000D01*
X75493137Y-79315000D01*
X75283517Y-79356696D01*
X75086060Y-79438485D01*
X74908353Y-79557225D01*
X74757225Y-79708353D01*
X74638485Y-79886060D01*
X74556696Y-80083517D01*
X74515000Y-80293137D01*
X51127000Y-80293137D01*
X51127000Y-78093137D01*
X74515000Y-78093137D01*
X74515000Y-78306863D01*
X74556696Y-78516483D01*
X74638485Y-78713940D01*
X74757225Y-78891647D01*
X74908353Y-79042775D01*
X75086060Y-79161515D01*
X75283517Y-79243304D01*
X75493137Y-79285000D01*
X75706863Y-79285000D01*
X75916483Y-79243304D01*
X76113940Y-79161515D01*
X76291647Y-79042775D01*
X76371422Y-78963000D01*
X78828578Y-78963000D01*
X78908353Y-79042775D01*
X79086060Y-79161515D01*
X79283517Y-79243304D01*
X79493137Y-79285000D01*
X79706863Y-79285000D01*
X79916483Y-79243304D01*
X80113940Y-79161515D01*
X80291647Y-79042775D01*
X80442775Y-78891647D01*
X80561515Y-78713940D01*
X80643304Y-78516483D01*
X80685000Y-78306863D01*
X80685000Y-78093137D01*
X80643304Y-77883517D01*
X80561515Y-77686060D01*
X80442775Y-77508353D01*
X80291647Y-77357225D01*
X80113940Y-77238485D01*
X79916483Y-77156696D01*
X79706863Y-77115000D01*
X79493137Y-77115000D01*
X79283517Y-77156696D01*
X79086060Y-77238485D01*
X78908353Y-77357225D01*
X78828578Y-77437000D01*
X76371422Y-77437000D01*
X76291647Y-77357225D01*
X76113940Y-77238485D01*
X75916483Y-77156696D01*
X75706863Y-77115000D01*
X75493137Y-77115000D01*
X75283517Y-77156696D01*
X75086060Y-77238485D01*
X74908353Y-77357225D01*
X74757225Y-77508353D01*
X74638485Y-77686060D01*
X74556696Y-77883517D01*
X74515000Y-78093137D01*
X51127000Y-78093137D01*
X51127000Y-73350000D01*
X56311928Y-73350000D01*
X56311928Y-75050000D01*
X56324188Y-75174482D01*
X56360498Y-75294180D01*
X56419463Y-75404494D01*
X56498815Y-75501185D01*
X56595506Y-75580537D01*
X56705820Y-75639502D01*
X56825518Y-75675812D01*
X56950000Y-75688072D01*
X58650000Y-75688072D01*
X58774482Y-75675812D01*
X58894180Y-75639502D01*
X59004494Y-75580537D01*
X59101185Y-75501185D01*
X59180537Y-75404494D01*
X59239502Y-75294180D01*
X59275812Y-75174482D01*
X59288072Y-75050000D01*
X59288072Y-73473439D01*
X70915000Y-73473439D01*
X70915000Y-73726561D01*
X70964381Y-73974821D01*
X71061247Y-74208676D01*
X71201875Y-74419140D01*
X71380860Y-74598125D01*
X71591324Y-74738753D01*
X71825179Y-74835619D01*
X72073439Y-74885000D01*
X72326561Y-74885000D01*
X72574821Y-74835619D01*
X72808676Y-74738753D01*
X72963953Y-74635000D01*
X73166619Y-74635000D01*
X73165000Y-74643137D01*
X73165000Y-74856863D01*
X73206696Y-75066483D01*
X73288485Y-75263940D01*
X73407225Y-75441647D01*
X73558353Y-75592775D01*
X73736060Y-75711515D01*
X73933517Y-75793304D01*
X74143137Y-75835000D01*
X74356863Y-75835000D01*
X74566483Y-75793304D01*
X74763940Y-75711515D01*
X74941647Y-75592775D01*
X75021422Y-75513000D01*
X77228578Y-75513000D01*
X77308353Y-75592775D01*
X77486060Y-75711515D01*
X77683517Y-75793304D01*
X77893137Y-75835000D01*
X78106863Y-75835000D01*
X78316483Y-75793304D01*
X78513940Y-75711515D01*
X78691647Y-75592775D01*
X78842775Y-75441647D01*
X78961515Y-75263940D01*
X79043304Y-75066483D01*
X79085000Y-74856863D01*
X79085000Y-74643137D01*
X79083381Y-74635000D01*
X82036047Y-74635000D01*
X82191324Y-74738753D01*
X82425179Y-74835619D01*
X82673439Y-74885000D01*
X82926561Y-74885000D01*
X83174821Y-74835619D01*
X83408676Y-74738753D01*
X83619140Y-74598125D01*
X83798125Y-74419140D01*
X83938753Y-74208676D01*
X84035619Y-73974821D01*
X84085000Y-73726561D01*
X84085000Y-73473439D01*
X84035619Y-73225179D01*
X83938753Y-72991324D01*
X83798125Y-72780860D01*
X83619140Y-72601875D01*
X83408676Y-72461247D01*
X83174821Y-72364381D01*
X82926561Y-72315000D01*
X82673439Y-72315000D01*
X82425179Y-72364381D01*
X82191324Y-72461247D01*
X82036047Y-72565000D01*
X72963953Y-72565000D01*
X72808676Y-72461247D01*
X72574821Y-72364381D01*
X72326561Y-72315000D01*
X72073439Y-72315000D01*
X71825179Y-72364381D01*
X71591324Y-72461247D01*
X71380860Y-72601875D01*
X71201875Y-72780860D01*
X71061247Y-72991324D01*
X70964381Y-73225179D01*
X70915000Y-73473439D01*
X59288072Y-73473439D01*
X59288072Y-73350000D01*
X59275812Y-73225518D01*
X59239502Y-73105820D01*
X59180537Y-72995506D01*
X59101185Y-72898815D01*
X59004494Y-72819463D01*
X58894180Y-72760498D01*
X58821620Y-72738487D01*
X58953475Y-72606632D01*
X59115990Y-72363411D01*
X59227932Y-72093158D01*
X59285000Y-71806260D01*
X59285000Y-71513740D01*
X59227932Y-71226842D01*
X59115990Y-70956589D01*
X58953475Y-70713368D01*
X58746632Y-70506525D01*
X58564466Y-70384805D01*
X58681355Y-70315178D01*
X58897588Y-70120269D01*
X59071641Y-69886920D01*
X59196825Y-69624099D01*
X59241476Y-69476890D01*
X59120155Y-69247000D01*
X57927000Y-69247000D01*
X57927000Y-69267000D01*
X57673000Y-69267000D01*
X57673000Y-69247000D01*
X56479845Y-69247000D01*
X56358524Y-69476890D01*
X56403175Y-69624099D01*
X56528359Y-69886920D01*
X56702412Y-70120269D01*
X56918645Y-70315178D01*
X57035534Y-70384805D01*
X56853368Y-70506525D01*
X56646525Y-70713368D01*
X56484010Y-70956589D01*
X56372068Y-71226842D01*
X56315000Y-71513740D01*
X56315000Y-71806260D01*
X56372068Y-72093158D01*
X56484010Y-72363411D01*
X56646525Y-72606632D01*
X56778380Y-72738487D01*
X56705820Y-72760498D01*
X56595506Y-72819463D01*
X56498815Y-72898815D01*
X56419463Y-72995506D01*
X56360498Y-73105820D01*
X56324188Y-73225518D01*
X56311928Y-73350000D01*
X51127000Y-73350000D01*
X51127000Y-61353740D01*
X56315000Y-61353740D01*
X56315000Y-61646260D01*
X56372068Y-61933158D01*
X56484010Y-62203411D01*
X56646525Y-62446632D01*
X56853368Y-62653475D01*
X57027760Y-62770000D01*
X56853368Y-62886525D01*
X56646525Y-63093368D01*
X56484010Y-63336589D01*
X56372068Y-63606842D01*
X56315000Y-63893740D01*
X56315000Y-64186260D01*
X56372068Y-64473158D01*
X56484010Y-64743411D01*
X56646525Y-64986632D01*
X56853368Y-65193475D01*
X57027760Y-65310000D01*
X56853368Y-65426525D01*
X56646525Y-65633368D01*
X56484010Y-65876589D01*
X56372068Y-66146842D01*
X56315000Y-66433740D01*
X56315000Y-66726260D01*
X56372068Y-67013158D01*
X56484010Y-67283411D01*
X56646525Y-67526632D01*
X56853368Y-67733475D01*
X57035534Y-67855195D01*
X56918645Y-67924822D01*
X56702412Y-68119731D01*
X56528359Y-68353080D01*
X56403175Y-68615901D01*
X56358524Y-68763110D01*
X56479845Y-68993000D01*
X57673000Y-68993000D01*
X57673000Y-68973000D01*
X57927000Y-68973000D01*
X57927000Y-68993000D01*
X59120155Y-68993000D01*
X59241476Y-68763110D01*
X59196825Y-68615901D01*
X59071641Y-68353080D01*
X58897588Y-68119731D01*
X58681355Y-67924822D01*
X58564466Y-67855195D01*
X58746632Y-67733475D01*
X58953475Y-67526632D01*
X59115990Y-67283411D01*
X59227932Y-67013158D01*
X59285000Y-66726260D01*
X59285000Y-66433740D01*
X59227932Y-66146842D01*
X59115990Y-65876589D01*
X58953475Y-65633368D01*
X58746632Y-65426525D01*
X58572240Y-65310000D01*
X58746632Y-65193475D01*
X58953475Y-64986632D01*
X59115990Y-64743411D01*
X59227932Y-64473158D01*
X59285000Y-64186260D01*
X59285000Y-63893740D01*
X59227932Y-63606842D01*
X59115990Y-63336589D01*
X58953475Y-63093368D01*
X58746632Y-62886525D01*
X58572240Y-62770000D01*
X58746632Y-62653475D01*
X58953475Y-62446632D01*
X59115990Y-62203411D01*
X59227932Y-61933158D01*
X59285000Y-61646260D01*
X59285000Y-61353740D01*
X59227932Y-61066842D01*
X59115990Y-60796589D01*
X58953475Y-60553368D01*
X58746632Y-60346525D01*
X58503411Y-60184010D01*
X58233158Y-60072068D01*
X57946260Y-60015000D01*
X57653740Y-60015000D01*
X57366842Y-60072068D01*
X57096589Y-60184010D01*
X56853368Y-60346525D01*
X56646525Y-60553368D01*
X56484010Y-60796589D01*
X56372068Y-61066842D01*
X56315000Y-61353740D01*
X51127000Y-61353740D01*
X51127000Y-58643137D01*
X66415000Y-58643137D01*
X66415000Y-58856863D01*
X66456696Y-59066483D01*
X66538485Y-59263940D01*
X66657225Y-59441647D01*
X66737000Y-59521422D01*
X66737000Y-60462533D01*
X66733310Y-60500000D01*
X66737000Y-60537467D01*
X66737000Y-60537474D01*
X66748041Y-60649573D01*
X66791670Y-60793399D01*
X66862520Y-60925950D01*
X66957868Y-61042132D01*
X66986979Y-61066023D01*
X67915000Y-61994045D01*
X67915000Y-62106863D01*
X67956696Y-62316483D01*
X68038485Y-62513940D01*
X68157225Y-62691647D01*
X68308353Y-62842775D01*
X68486060Y-62961515D01*
X68683517Y-63043304D01*
X68893137Y-63085000D01*
X69106863Y-63085000D01*
X69316483Y-63043304D01*
X69513940Y-62961515D01*
X69691647Y-62842775D01*
X69842775Y-62691647D01*
X69961515Y-62513940D01*
X70043304Y-62316483D01*
X70085000Y-62106863D01*
X70085000Y-61893137D01*
X70043304Y-61683517D01*
X69961515Y-61486060D01*
X69842775Y-61308353D01*
X69691647Y-61157225D01*
X69513940Y-61038485D01*
X69316483Y-60956696D01*
X69106863Y-60915000D01*
X68994045Y-60915000D01*
X68263000Y-60183956D01*
X68263000Y-59521422D01*
X68342775Y-59441647D01*
X68461515Y-59263940D01*
X68543304Y-59066483D01*
X68585000Y-58856863D01*
X68585000Y-58643137D01*
X68543304Y-58433517D01*
X68461515Y-58236060D01*
X68342775Y-58058353D01*
X68191647Y-57907225D01*
X68020903Y-57793137D01*
X70015000Y-57793137D01*
X70015000Y-58006863D01*
X70056696Y-58216483D01*
X70138485Y-58413940D01*
X70257225Y-58591647D01*
X70408353Y-58742775D01*
X70586060Y-58861515D01*
X70783517Y-58943304D01*
X70993137Y-58985000D01*
X71206863Y-58985000D01*
X71416483Y-58943304D01*
X71613940Y-58861515D01*
X71791647Y-58742775D01*
X71942775Y-58591647D01*
X72061515Y-58413940D01*
X72143304Y-58216483D01*
X72153942Y-58163000D01*
X74665000Y-58163000D01*
X74665000Y-58356863D01*
X74706696Y-58566483D01*
X74788485Y-58763940D01*
X74907225Y-58941647D01*
X75036906Y-59071328D01*
X74908353Y-59157225D01*
X74757225Y-59308353D01*
X74638485Y-59486060D01*
X74556696Y-59683517D01*
X74515000Y-59893137D01*
X74515000Y-60005955D01*
X74205956Y-60315000D01*
X74093137Y-60315000D01*
X73883517Y-60356696D01*
X73686060Y-60438485D01*
X73508353Y-60557225D01*
X73357225Y-60708353D01*
X73238485Y-60886060D01*
X73156696Y-61083517D01*
X73140379Y-61165549D01*
X72933517Y-61206696D01*
X72736060Y-61288485D01*
X72558353Y-61407225D01*
X72407225Y-61558353D01*
X72288485Y-61736060D01*
X72206696Y-61933517D01*
X72165000Y-62143137D01*
X72165000Y-62356863D01*
X72206696Y-62566483D01*
X72288485Y-62763940D01*
X72407225Y-62941647D01*
X72558353Y-63092775D01*
X72736060Y-63211515D01*
X72933517Y-63293304D01*
X73143137Y-63335000D01*
X73356863Y-63335000D01*
X73566483Y-63293304D01*
X73763940Y-63211515D01*
X73941647Y-63092775D01*
X74021422Y-63013000D01*
X74912533Y-63013000D01*
X74950000Y-63016690D01*
X74987467Y-63013000D01*
X74987475Y-63013000D01*
X75099574Y-63001959D01*
X75243400Y-62958330D01*
X75375951Y-62887480D01*
X75492132Y-62792132D01*
X75516023Y-62763021D01*
X76994045Y-61285000D01*
X77106863Y-61285000D01*
X77316483Y-61243304D01*
X77513940Y-61161515D01*
X77691647Y-61042775D01*
X77842775Y-60891647D01*
X77961515Y-60713940D01*
X78043304Y-60516483D01*
X78085000Y-60306863D01*
X78085000Y-60252497D01*
X78183517Y-60293304D01*
X78393137Y-60335000D01*
X78606863Y-60335000D01*
X78816483Y-60293304D01*
X79013940Y-60211515D01*
X79191647Y-60092775D01*
X79342775Y-59941647D01*
X79461515Y-59763940D01*
X79543304Y-59566483D01*
X79585000Y-59356863D01*
X79585000Y-59143137D01*
X79543304Y-58933517D01*
X79461515Y-58736060D01*
X79342775Y-58558353D01*
X79191647Y-58407225D01*
X79013940Y-58288485D01*
X78816483Y-58206696D01*
X78742452Y-58191970D01*
X78842775Y-58091647D01*
X78961515Y-57913940D01*
X79043304Y-57716483D01*
X79075529Y-57554478D01*
X79086060Y-57561515D01*
X79283517Y-57643304D01*
X79493137Y-57685000D01*
X79706863Y-57685000D01*
X79916483Y-57643304D01*
X80113940Y-57561515D01*
X80291647Y-57442775D01*
X80442775Y-57291647D01*
X80561515Y-57113940D01*
X80643304Y-56916483D01*
X80685000Y-56706863D01*
X80685000Y-56594044D01*
X81194045Y-56085000D01*
X81306863Y-56085000D01*
X81516483Y-56043304D01*
X81713940Y-55961515D01*
X81891647Y-55842775D01*
X82042775Y-55691647D01*
X82161515Y-55513940D01*
X82243304Y-55316483D01*
X82285000Y-55106863D01*
X82285000Y-54893137D01*
X82243304Y-54683517D01*
X82161515Y-54486060D01*
X82042775Y-54308353D01*
X81891647Y-54157225D01*
X81713940Y-54038485D01*
X81516483Y-53956696D01*
X81306863Y-53915000D01*
X81093137Y-53915000D01*
X80883517Y-53956696D01*
X80686060Y-54038485D01*
X80508353Y-54157225D01*
X80357225Y-54308353D01*
X80238485Y-54486060D01*
X80156696Y-54683517D01*
X80115000Y-54893137D01*
X80115000Y-55005955D01*
X79605956Y-55515000D01*
X79493137Y-55515000D01*
X79283517Y-55556696D01*
X79086060Y-55638485D01*
X78908353Y-55757225D01*
X78757225Y-55908353D01*
X78638485Y-56086060D01*
X78556696Y-56283517D01*
X78524471Y-56445522D01*
X78513940Y-56438485D01*
X78316483Y-56356696D01*
X78106863Y-56315000D01*
X77893137Y-56315000D01*
X77683517Y-56356696D01*
X77486060Y-56438485D01*
X77308353Y-56557225D01*
X77228578Y-56637000D01*
X71637467Y-56637000D01*
X71600000Y-56633310D01*
X71562533Y-56637000D01*
X71562525Y-56637000D01*
X71450426Y-56648041D01*
X71306600Y-56691670D01*
X71174049Y-56762520D01*
X71110102Y-56815000D01*
X70993137Y-56815000D01*
X70783517Y-56856696D01*
X70586060Y-56938485D01*
X70408353Y-57057225D01*
X70257225Y-57208353D01*
X70138485Y-57386060D01*
X70056696Y-57583517D01*
X70015000Y-57793137D01*
X68020903Y-57793137D01*
X68013940Y-57788485D01*
X67816483Y-57706696D01*
X67606863Y-57665000D01*
X67393137Y-57665000D01*
X67183517Y-57706696D01*
X66986060Y-57788485D01*
X66808353Y-57907225D01*
X66657225Y-58058353D01*
X66538485Y-58236060D01*
X66456696Y-58433517D01*
X66415000Y-58643137D01*
X51127000Y-58643137D01*
X51127000Y-56550509D01*
X51555330Y-56978839D01*
X52183446Y-57398533D01*
X52881372Y-57687623D01*
X53622285Y-57835000D01*
X54377715Y-57835000D01*
X55118628Y-57687623D01*
X55816554Y-57398533D01*
X56444670Y-56978839D01*
X56978839Y-56444670D01*
X57398533Y-55816554D01*
X57687623Y-55118628D01*
X57835000Y-54377715D01*
X57835000Y-53622285D01*
X57687623Y-52881372D01*
X57398533Y-52183446D01*
X56978839Y-51555330D01*
X56550509Y-51127000D01*
X87449491Y-51127000D01*
X87021161Y-51555330D01*
%TD*%
M02*
