%TF.GenerationSoftware,KiCad,Pcbnew,5.1.6-1.fc32*%
%TF.CreationDate,2020-08-22T09:30:13+02:00*%
%TF.ProjectId,pm_monitor_1,706d5f6d-6f6e-4697-946f-725f312e6b69,rev?*%
%TF.SameCoordinates,Original*%
%TF.FileFunction,Soldermask,Top*%
%TF.FilePolarity,Negative*%
%FSLAX46Y46*%
G04 Gerber Fmt 4.6, Leading zero omitted, Abs format (unit mm)*
G04 Created by KiCad (PCBNEW 5.1.6-1.fc32) date 2020-08-22 09:30:13*
%MOMM*%
%LPD*%
G01*
G04 APERTURE LIST*
%ADD10R,0.500000X1.300000*%
%ADD11C,6.500000*%
%ADD12R,1.400000X2.000000*%
%ADD13R,2.280000X1.700000*%
%ADD14R,2.000000X1.100000*%
%ADD15R,2.000000X1.900000*%
%ADD16R,1.400000X1.750000*%
%ADD17R,1.650000X1.525000*%
%ADD18R,1.480000X0.550000*%
%ADD19O,1.800000X1.800000*%
%ADD20R,1.800000X1.800000*%
%ADD21R,0.900000X1.000000*%
%ADD22R,1.600000X0.800000*%
%ADD23R,0.800000X1.600000*%
G04 APERTURE END LIST*
%TO.C,R8*%
G36*
G01*
X84228262Y-52075000D02*
X83271738Y-52075000D01*
G75*
G02*
X83000000Y-51803262I0J271738D01*
G01*
X83000000Y-51096738D01*
G75*
G02*
X83271738Y-50825000I271738J0D01*
G01*
X84228262Y-50825000D01*
G75*
G02*
X84500000Y-51096738I0J-271738D01*
G01*
X84500000Y-51803262D01*
G75*
G02*
X84228262Y-52075000I-271738J0D01*
G01*
G37*
G36*
G01*
X84228262Y-54125000D02*
X83271738Y-54125000D01*
G75*
G02*
X83000000Y-53853262I0J271738D01*
G01*
X83000000Y-53146738D01*
G75*
G02*
X83271738Y-52875000I271738J0D01*
G01*
X84228262Y-52875000D01*
G75*
G02*
X84500000Y-53146738I0J-271738D01*
G01*
X84500000Y-53853262D01*
G75*
G02*
X84228262Y-54125000I-271738J0D01*
G01*
G37*
%TD*%
%TO.C,D6*%
G36*
G01*
X81978262Y-52075000D02*
X81021738Y-52075000D01*
G75*
G02*
X80750000Y-51803262I0J271738D01*
G01*
X80750000Y-51096738D01*
G75*
G02*
X81021738Y-50825000I271738J0D01*
G01*
X81978262Y-50825000D01*
G75*
G02*
X82250000Y-51096738I0J-271738D01*
G01*
X82250000Y-51803262D01*
G75*
G02*
X81978262Y-52075000I-271738J0D01*
G01*
G37*
G36*
G01*
X81978262Y-54125000D02*
X81021738Y-54125000D01*
G75*
G02*
X80750000Y-53853262I0J271738D01*
G01*
X80750000Y-53146738D01*
G75*
G02*
X81021738Y-52875000I271738J0D01*
G01*
X81978262Y-52875000D01*
G75*
G02*
X82250000Y-53146738I0J-271738D01*
G01*
X82250000Y-53853262D01*
G75*
G02*
X81978262Y-54125000I-271738J0D01*
G01*
G37*
%TD*%
%TO.C,R2*%
G36*
G01*
X71955000Y-93997500D02*
X71955000Y-93602500D01*
G75*
G02*
X72127500Y-93430000I172500J0D01*
G01*
X72472500Y-93430000D01*
G75*
G02*
X72645000Y-93602500I0J-172500D01*
G01*
X72645000Y-93997500D01*
G75*
G02*
X72472500Y-94170000I-172500J0D01*
G01*
X72127500Y-94170000D01*
G75*
G02*
X71955000Y-93997500I0J172500D01*
G01*
G37*
G36*
G01*
X70985000Y-93997500D02*
X70985000Y-93602500D01*
G75*
G02*
X71157500Y-93430000I172500J0D01*
G01*
X71502500Y-93430000D01*
G75*
G02*
X71675000Y-93602500I0J-172500D01*
G01*
X71675000Y-93997500D01*
G75*
G02*
X71502500Y-94170000I-172500J0D01*
G01*
X71157500Y-94170000D01*
G75*
G02*
X70985000Y-93997500I0J172500D01*
G01*
G37*
%TD*%
%TO.C,C14*%
G36*
G01*
X83625000Y-93271738D02*
X83625000Y-94228262D01*
G75*
G02*
X83353262Y-94500000I-271738J0D01*
G01*
X82646738Y-94500000D01*
G75*
G02*
X82375000Y-94228262I0J271738D01*
G01*
X82375000Y-93271738D01*
G75*
G02*
X82646738Y-93000000I271738J0D01*
G01*
X83353262Y-93000000D01*
G75*
G02*
X83625000Y-93271738I0J-271738D01*
G01*
G37*
G36*
G01*
X85675000Y-93271738D02*
X85675000Y-94228262D01*
G75*
G02*
X85403262Y-94500000I-271738J0D01*
G01*
X84696738Y-94500000D01*
G75*
G02*
X84425000Y-94228262I0J271738D01*
G01*
X84425000Y-93271738D01*
G75*
G02*
X84696738Y-93000000I271738J0D01*
G01*
X85403262Y-93000000D01*
G75*
G02*
X85675000Y-93271738I0J-271738D01*
G01*
G37*
%TD*%
%TO.C,C13*%
G36*
G01*
X64536110Y-98225000D02*
X66663890Y-98225000D01*
G75*
G02*
X66925000Y-98486110I0J-261110D01*
G01*
X66925000Y-100313890D01*
G75*
G02*
X66663890Y-100575000I-261110J0D01*
G01*
X64536110Y-100575000D01*
G75*
G02*
X64275000Y-100313890I0J261110D01*
G01*
X64275000Y-98486110D01*
G75*
G02*
X64536110Y-98225000I261110J0D01*
G01*
G37*
G36*
G01*
X64536110Y-91825000D02*
X66663890Y-91825000D01*
G75*
G02*
X66925000Y-92086110I0J-261110D01*
G01*
X66925000Y-93913890D01*
G75*
G02*
X66663890Y-94175000I-261110J0D01*
G01*
X64536110Y-94175000D01*
G75*
G02*
X64275000Y-93913890I0J261110D01*
G01*
X64275000Y-92086110D01*
G75*
G02*
X64536110Y-91825000I261110J0D01*
G01*
G37*
%TD*%
D10*
%TO.C,U4*%
X75525000Y-92300000D03*
X74890000Y-92300000D03*
X74255000Y-92300000D03*
X73620000Y-92300000D03*
X72985000Y-92300000D03*
X72350000Y-92300000D03*
X71715000Y-92300000D03*
X71080000Y-92300000D03*
X71080000Y-87100000D03*
X71715000Y-87100000D03*
X72350000Y-87100000D03*
X72985000Y-87100000D03*
X73620000Y-87100000D03*
X74255000Y-87100000D03*
X74890000Y-87100000D03*
X75525000Y-87100000D03*
%TD*%
%TO.C,R14*%
G36*
G01*
X91625000Y-93478262D02*
X91625000Y-92521738D01*
G75*
G02*
X91896738Y-92250000I271738J0D01*
G01*
X92603262Y-92250000D01*
G75*
G02*
X92875000Y-92521738I0J-271738D01*
G01*
X92875000Y-93478262D01*
G75*
G02*
X92603262Y-93750000I-271738J0D01*
G01*
X91896738Y-93750000D01*
G75*
G02*
X91625000Y-93478262I0J271738D01*
G01*
G37*
G36*
G01*
X89575000Y-93478262D02*
X89575000Y-92521738D01*
G75*
G02*
X89846738Y-92250000I271738J0D01*
G01*
X90553262Y-92250000D01*
G75*
G02*
X90825000Y-92521738I0J-271738D01*
G01*
X90825000Y-93478262D01*
G75*
G02*
X90553262Y-93750000I-271738J0D01*
G01*
X89846738Y-93750000D01*
G75*
G02*
X89575000Y-93478262I0J271738D01*
G01*
G37*
%TD*%
%TO.C,R13*%
G36*
G01*
X91625000Y-88978262D02*
X91625000Y-88021738D01*
G75*
G02*
X91896738Y-87750000I271738J0D01*
G01*
X92603262Y-87750000D01*
G75*
G02*
X92875000Y-88021738I0J-271738D01*
G01*
X92875000Y-88978262D01*
G75*
G02*
X92603262Y-89250000I-271738J0D01*
G01*
X91896738Y-89250000D01*
G75*
G02*
X91625000Y-88978262I0J271738D01*
G01*
G37*
G36*
G01*
X89575000Y-88978262D02*
X89575000Y-88021738D01*
G75*
G02*
X89846738Y-87750000I271738J0D01*
G01*
X90553262Y-87750000D01*
G75*
G02*
X90825000Y-88021738I0J-271738D01*
G01*
X90825000Y-88978262D01*
G75*
G02*
X90553262Y-89250000I-271738J0D01*
G01*
X89846738Y-89250000D01*
G75*
G02*
X89575000Y-88978262I0J271738D01*
G01*
G37*
%TD*%
%TO.C,R12*%
G36*
G01*
X73625000Y-78678262D02*
X73625000Y-77721738D01*
G75*
G02*
X73896738Y-77450000I271738J0D01*
G01*
X74603262Y-77450000D01*
G75*
G02*
X74875000Y-77721738I0J-271738D01*
G01*
X74875000Y-78678262D01*
G75*
G02*
X74603262Y-78950000I-271738J0D01*
G01*
X73896738Y-78950000D01*
G75*
G02*
X73625000Y-78678262I0J271738D01*
G01*
G37*
G36*
G01*
X71575000Y-78678262D02*
X71575000Y-77721738D01*
G75*
G02*
X71846738Y-77450000I271738J0D01*
G01*
X72553262Y-77450000D01*
G75*
G02*
X72825000Y-77721738I0J-271738D01*
G01*
X72825000Y-78678262D01*
G75*
G02*
X72553262Y-78950000I-271738J0D01*
G01*
X71846738Y-78950000D01*
G75*
G02*
X71575000Y-78678262I0J271738D01*
G01*
G37*
%TD*%
%TO.C,R11*%
G36*
G01*
X73625000Y-76478262D02*
X73625000Y-75521738D01*
G75*
G02*
X73896738Y-75250000I271738J0D01*
G01*
X74603262Y-75250000D01*
G75*
G02*
X74875000Y-75521738I0J-271738D01*
G01*
X74875000Y-76478262D01*
G75*
G02*
X74603262Y-76750000I-271738J0D01*
G01*
X73896738Y-76750000D01*
G75*
G02*
X73625000Y-76478262I0J271738D01*
G01*
G37*
G36*
G01*
X71575000Y-76478262D02*
X71575000Y-75521738D01*
G75*
G02*
X71846738Y-75250000I271738J0D01*
G01*
X72553262Y-75250000D01*
G75*
G02*
X72825000Y-75521738I0J-271738D01*
G01*
X72825000Y-76478262D01*
G75*
G02*
X72553262Y-76750000I-271738J0D01*
G01*
X71846738Y-76750000D01*
G75*
G02*
X71575000Y-76478262I0J271738D01*
G01*
G37*
%TD*%
%TO.C,R10*%
G36*
G01*
X73625000Y-80878262D02*
X73625000Y-79921738D01*
G75*
G02*
X73896738Y-79650000I271738J0D01*
G01*
X74603262Y-79650000D01*
G75*
G02*
X74875000Y-79921738I0J-271738D01*
G01*
X74875000Y-80878262D01*
G75*
G02*
X74603262Y-81150000I-271738J0D01*
G01*
X73896738Y-81150000D01*
G75*
G02*
X73625000Y-80878262I0J271738D01*
G01*
G37*
G36*
G01*
X71575000Y-80878262D02*
X71575000Y-79921738D01*
G75*
G02*
X71846738Y-79650000I271738J0D01*
G01*
X72553262Y-79650000D01*
G75*
G02*
X72825000Y-79921738I0J-271738D01*
G01*
X72825000Y-80878262D01*
G75*
G02*
X72553262Y-81150000I-271738J0D01*
G01*
X71846738Y-81150000D01*
G75*
G02*
X71575000Y-80878262I0J271738D01*
G01*
G37*
%TD*%
%TO.C,R9*%
G36*
G01*
X73625000Y-83078262D02*
X73625000Y-82121738D01*
G75*
G02*
X73896738Y-81850000I271738J0D01*
G01*
X74603262Y-81850000D01*
G75*
G02*
X74875000Y-82121738I0J-271738D01*
G01*
X74875000Y-83078262D01*
G75*
G02*
X74603262Y-83350000I-271738J0D01*
G01*
X73896738Y-83350000D01*
G75*
G02*
X73625000Y-83078262I0J271738D01*
G01*
G37*
G36*
G01*
X71575000Y-83078262D02*
X71575000Y-82121738D01*
G75*
G02*
X71846738Y-81850000I271738J0D01*
G01*
X72553262Y-81850000D01*
G75*
G02*
X72825000Y-82121738I0J-271738D01*
G01*
X72825000Y-83078262D01*
G75*
G02*
X72553262Y-83350000I-271738J0D01*
G01*
X71846738Y-83350000D01*
G75*
G02*
X71575000Y-83078262I0J271738D01*
G01*
G37*
%TD*%
%TO.C,D5*%
G36*
G01*
X91625000Y-91228262D02*
X91625000Y-90271738D01*
G75*
G02*
X91896738Y-90000000I271738J0D01*
G01*
X92603262Y-90000000D01*
G75*
G02*
X92875000Y-90271738I0J-271738D01*
G01*
X92875000Y-91228262D01*
G75*
G02*
X92603262Y-91500000I-271738J0D01*
G01*
X91896738Y-91500000D01*
G75*
G02*
X91625000Y-91228262I0J271738D01*
G01*
G37*
G36*
G01*
X89575000Y-91228262D02*
X89575000Y-90271738D01*
G75*
G02*
X89846738Y-90000000I271738J0D01*
G01*
X90553262Y-90000000D01*
G75*
G02*
X90825000Y-90271738I0J-271738D01*
G01*
X90825000Y-91228262D01*
G75*
G02*
X90553262Y-91500000I-271738J0D01*
G01*
X89846738Y-91500000D01*
G75*
G02*
X89575000Y-91228262I0J271738D01*
G01*
G37*
%TD*%
%TO.C,D4*%
G36*
G01*
X91625000Y-86728262D02*
X91625000Y-85771738D01*
G75*
G02*
X91896738Y-85500000I271738J0D01*
G01*
X92603262Y-85500000D01*
G75*
G02*
X92875000Y-85771738I0J-271738D01*
G01*
X92875000Y-86728262D01*
G75*
G02*
X92603262Y-87000000I-271738J0D01*
G01*
X91896738Y-87000000D01*
G75*
G02*
X91625000Y-86728262I0J271738D01*
G01*
G37*
G36*
G01*
X89575000Y-86728262D02*
X89575000Y-85771738D01*
G75*
G02*
X89846738Y-85500000I271738J0D01*
G01*
X90553262Y-85500000D01*
G75*
G02*
X90825000Y-85771738I0J-271738D01*
G01*
X90825000Y-86728262D01*
G75*
G02*
X90553262Y-87000000I-271738J0D01*
G01*
X89846738Y-87000000D01*
G75*
G02*
X89575000Y-86728262I0J271738D01*
G01*
G37*
%TD*%
%TO.C,C12*%
G36*
G01*
X72825000Y-84271738D02*
X72825000Y-85228262D01*
G75*
G02*
X72553262Y-85500000I-271738J0D01*
G01*
X71846738Y-85500000D01*
G75*
G02*
X71575000Y-85228262I0J271738D01*
G01*
X71575000Y-84271738D01*
G75*
G02*
X71846738Y-84000000I271738J0D01*
G01*
X72553262Y-84000000D01*
G75*
G02*
X72825000Y-84271738I0J-271738D01*
G01*
G37*
G36*
G01*
X74875000Y-84271738D02*
X74875000Y-85228262D01*
G75*
G02*
X74603262Y-85500000I-271738J0D01*
G01*
X73896738Y-85500000D01*
G75*
G02*
X73625000Y-85228262I0J271738D01*
G01*
X73625000Y-84271738D01*
G75*
G02*
X73896738Y-84000000I271738J0D01*
G01*
X74603262Y-84000000D01*
G75*
G02*
X74875000Y-84271738I0J-271738D01*
G01*
G37*
%TD*%
%TO.C,C11*%
G36*
G01*
X59121738Y-89425000D02*
X60078262Y-89425000D01*
G75*
G02*
X60350000Y-89696738I0J-271738D01*
G01*
X60350000Y-90403262D01*
G75*
G02*
X60078262Y-90675000I-271738J0D01*
G01*
X59121738Y-90675000D01*
G75*
G02*
X58850000Y-90403262I0J271738D01*
G01*
X58850000Y-89696738D01*
G75*
G02*
X59121738Y-89425000I271738J0D01*
G01*
G37*
G36*
G01*
X59121738Y-87375000D02*
X60078262Y-87375000D01*
G75*
G02*
X60350000Y-87646738I0J-271738D01*
G01*
X60350000Y-88353262D01*
G75*
G02*
X60078262Y-88625000I-271738J0D01*
G01*
X59121738Y-88625000D01*
G75*
G02*
X58850000Y-88353262I0J271738D01*
G01*
X58850000Y-87646738D01*
G75*
G02*
X59121738Y-87375000I271738J0D01*
G01*
G37*
%TD*%
%TO.C,C10*%
G36*
G01*
X61221738Y-89425000D02*
X62178262Y-89425000D01*
G75*
G02*
X62450000Y-89696738I0J-271738D01*
G01*
X62450000Y-90403262D01*
G75*
G02*
X62178262Y-90675000I-271738J0D01*
G01*
X61221738Y-90675000D01*
G75*
G02*
X60950000Y-90403262I0J271738D01*
G01*
X60950000Y-89696738D01*
G75*
G02*
X61221738Y-89425000I271738J0D01*
G01*
G37*
G36*
G01*
X61221738Y-87375000D02*
X62178262Y-87375000D01*
G75*
G02*
X62450000Y-87646738I0J-271738D01*
G01*
X62450000Y-88353262D01*
G75*
G02*
X62178262Y-88625000I-271738J0D01*
G01*
X61221738Y-88625000D01*
G75*
G02*
X60950000Y-88353262I0J271738D01*
G01*
X60950000Y-87646738D01*
G75*
G02*
X61221738Y-87375000I271738J0D01*
G01*
G37*
%TD*%
%TO.C,C9*%
G36*
G01*
X57978262Y-83075000D02*
X57021738Y-83075000D01*
G75*
G02*
X56750000Y-82803262I0J271738D01*
G01*
X56750000Y-82096738D01*
G75*
G02*
X57021738Y-81825000I271738J0D01*
G01*
X57978262Y-81825000D01*
G75*
G02*
X58250000Y-82096738I0J-271738D01*
G01*
X58250000Y-82803262D01*
G75*
G02*
X57978262Y-83075000I-271738J0D01*
G01*
G37*
G36*
G01*
X57978262Y-85125000D02*
X57021738Y-85125000D01*
G75*
G02*
X56750000Y-84853262I0J271738D01*
G01*
X56750000Y-84146738D01*
G75*
G02*
X57021738Y-83875000I271738J0D01*
G01*
X57978262Y-83875000D01*
G75*
G02*
X58250000Y-84146738I0J-271738D01*
G01*
X58250000Y-84853262D01*
G75*
G02*
X57978262Y-85125000I-271738J0D01*
G01*
G37*
%TD*%
%TO.C,C8*%
G36*
G01*
X67375000Y-70321738D02*
X67375000Y-71278262D01*
G75*
G02*
X67103262Y-71550000I-271738J0D01*
G01*
X66396738Y-71550000D01*
G75*
G02*
X66125000Y-71278262I0J271738D01*
G01*
X66125000Y-70321738D01*
G75*
G02*
X66396738Y-70050000I271738J0D01*
G01*
X67103262Y-70050000D01*
G75*
G02*
X67375000Y-70321738I0J-271738D01*
G01*
G37*
G36*
G01*
X69425000Y-70321738D02*
X69425000Y-71278262D01*
G75*
G02*
X69153262Y-71550000I-271738J0D01*
G01*
X68446738Y-71550000D01*
G75*
G02*
X68175000Y-71278262I0J271738D01*
G01*
X68175000Y-70321738D01*
G75*
G02*
X68446738Y-70050000I271738J0D01*
G01*
X69153262Y-70050000D01*
G75*
G02*
X69425000Y-70321738I0J-271738D01*
G01*
G37*
%TD*%
%TO.C,C7*%
G36*
G01*
X67375000Y-78721738D02*
X67375000Y-79678262D01*
G75*
G02*
X67103262Y-79950000I-271738J0D01*
G01*
X66396738Y-79950000D01*
G75*
G02*
X66125000Y-79678262I0J271738D01*
G01*
X66125000Y-78721738D01*
G75*
G02*
X66396738Y-78450000I271738J0D01*
G01*
X67103262Y-78450000D01*
G75*
G02*
X67375000Y-78721738I0J-271738D01*
G01*
G37*
G36*
G01*
X69425000Y-78721738D02*
X69425000Y-79678262D01*
G75*
G02*
X69153262Y-79950000I-271738J0D01*
G01*
X68446738Y-79950000D01*
G75*
G02*
X68175000Y-79678262I0J271738D01*
G01*
X68175000Y-78721738D01*
G75*
G02*
X68446738Y-78450000I271738J0D01*
G01*
X69153262Y-78450000D01*
G75*
G02*
X69425000Y-78721738I0J-271738D01*
G01*
G37*
%TD*%
%TO.C,C5*%
G36*
G01*
X88300000Y-76041667D02*
X88300000Y-77958333D01*
G75*
G02*
X88033333Y-78225000I-266667J0D01*
G01*
X86966667Y-78225000D01*
G75*
G02*
X86700000Y-77958333I0J266667D01*
G01*
X86700000Y-76041667D01*
G75*
G02*
X86966667Y-75775000I266667J0D01*
G01*
X88033333Y-75775000D01*
G75*
G02*
X88300000Y-76041667I0J-266667D01*
G01*
G37*
G36*
G01*
X91550000Y-76041667D02*
X91550000Y-77958333D01*
G75*
G02*
X91283333Y-78225000I-266667J0D01*
G01*
X90216667Y-78225000D01*
G75*
G02*
X89950000Y-77958333I0J266667D01*
G01*
X89950000Y-76041667D01*
G75*
G02*
X90216667Y-75775000I266667J0D01*
G01*
X91283333Y-75775000D01*
G75*
G02*
X91550000Y-76041667I0J-266667D01*
G01*
G37*
%TD*%
%TO.C,C4*%
G36*
G01*
X89325000Y-73521738D02*
X89325000Y-74478262D01*
G75*
G02*
X89053262Y-74750000I-271738J0D01*
G01*
X88346738Y-74750000D01*
G75*
G02*
X88075000Y-74478262I0J271738D01*
G01*
X88075000Y-73521738D01*
G75*
G02*
X88346738Y-73250000I271738J0D01*
G01*
X89053262Y-73250000D01*
G75*
G02*
X89325000Y-73521738I0J-271738D01*
G01*
G37*
G36*
G01*
X91375000Y-73521738D02*
X91375000Y-74478262D01*
G75*
G02*
X91103262Y-74750000I-271738J0D01*
G01*
X90396738Y-74750000D01*
G75*
G02*
X90125000Y-74478262I0J271738D01*
G01*
X90125000Y-73521738D01*
G75*
G02*
X90396738Y-73250000I271738J0D01*
G01*
X91103262Y-73250000D01*
G75*
G02*
X91375000Y-73521738I0J-271738D01*
G01*
G37*
%TD*%
D11*
%TO.C,H4*%
X90000000Y-98000000D03*
%TD*%
%TO.C,H3*%
X90000000Y-54000000D03*
%TD*%
%TO.C,H2*%
X54000000Y-98000000D03*
%TD*%
%TO.C,H1*%
X54000000Y-54000000D03*
%TD*%
D12*
%TO.C,Y1*%
X68800000Y-76600000D03*
X63300000Y-76600000D03*
X63300000Y-73400000D03*
X68800000Y-73400000D03*
%TD*%
D13*
%TO.C,SW1*%
X69430000Y-52700000D03*
X60250000Y-52700000D03*
%TD*%
%TO.C,R7*%
G36*
G01*
X75228262Y-52075000D02*
X74271738Y-52075000D01*
G75*
G02*
X74000000Y-51803262I0J271738D01*
G01*
X74000000Y-51096738D01*
G75*
G02*
X74271738Y-50825000I271738J0D01*
G01*
X75228262Y-50825000D01*
G75*
G02*
X75500000Y-51096738I0J-271738D01*
G01*
X75500000Y-51803262D01*
G75*
G02*
X75228262Y-52075000I-271738J0D01*
G01*
G37*
G36*
G01*
X75228262Y-54125000D02*
X74271738Y-54125000D01*
G75*
G02*
X74000000Y-53853262I0J271738D01*
G01*
X74000000Y-53146738D01*
G75*
G02*
X74271738Y-52875000I271738J0D01*
G01*
X75228262Y-52875000D01*
G75*
G02*
X75500000Y-53146738I0J-271738D01*
G01*
X75500000Y-53853262D01*
G75*
G02*
X75228262Y-54125000I-271738J0D01*
G01*
G37*
%TD*%
%TO.C,J2*%
G36*
G01*
X83500000Y-100588095D02*
X83500000Y-98011905D01*
G75*
G02*
X83761905Y-97750000I261905J0D01*
G01*
X85438095Y-97750000D01*
G75*
G02*
X85700000Y-98011905I0J-261905D01*
G01*
X85700000Y-100588095D01*
G75*
G02*
X85438095Y-100850000I-261905J0D01*
G01*
X83761905Y-100850000D01*
G75*
G02*
X83500000Y-100588095I0J261905D01*
G01*
G37*
G36*
G01*
X69650000Y-100588095D02*
X69650000Y-98011905D01*
G75*
G02*
X69911905Y-97750000I261905J0D01*
G01*
X71588095Y-97750000D01*
G75*
G02*
X71850000Y-98011905I0J-261905D01*
G01*
X71850000Y-100588095D01*
G75*
G02*
X71588095Y-100850000I-261905J0D01*
G01*
X69911905Y-100850000D01*
G75*
G02*
X69650000Y-100588095I0J261905D01*
G01*
G37*
G36*
G01*
X81600000Y-97025000D02*
X81600000Y-95775000D01*
G75*
G02*
X81825000Y-95550000I225000J0D01*
G01*
X82275000Y-95550000D01*
G75*
G02*
X82500000Y-95775000I0J-225000D01*
G01*
X82500000Y-97025000D01*
G75*
G02*
X82275000Y-97250000I-225000J0D01*
G01*
X81825000Y-97250000D01*
G75*
G02*
X81600000Y-97025000I0J225000D01*
G01*
G37*
G36*
G01*
X80350000Y-97025000D02*
X80350000Y-95775000D01*
G75*
G02*
X80575000Y-95550000I225000J0D01*
G01*
X81025000Y-95550000D01*
G75*
G02*
X81250000Y-95775000I0J-225000D01*
G01*
X81250000Y-97025000D01*
G75*
G02*
X81025000Y-97250000I-225000J0D01*
G01*
X80575000Y-97250000D01*
G75*
G02*
X80350000Y-97025000I0J225000D01*
G01*
G37*
G36*
G01*
X79100000Y-97025000D02*
X79100000Y-95775000D01*
G75*
G02*
X79325000Y-95550000I225000J0D01*
G01*
X79775000Y-95550000D01*
G75*
G02*
X80000000Y-95775000I0J-225000D01*
G01*
X80000000Y-97025000D01*
G75*
G02*
X79775000Y-97250000I-225000J0D01*
G01*
X79325000Y-97250000D01*
G75*
G02*
X79100000Y-97025000I0J225000D01*
G01*
G37*
G36*
G01*
X77850000Y-97025000D02*
X77850000Y-95775000D01*
G75*
G02*
X78075000Y-95550000I225000J0D01*
G01*
X78525000Y-95550000D01*
G75*
G02*
X78750000Y-95775000I0J-225000D01*
G01*
X78750000Y-97025000D01*
G75*
G02*
X78525000Y-97250000I-225000J0D01*
G01*
X78075000Y-97250000D01*
G75*
G02*
X77850000Y-97025000I0J225000D01*
G01*
G37*
G36*
G01*
X76600000Y-97025000D02*
X76600000Y-95775000D01*
G75*
G02*
X76825000Y-95550000I225000J0D01*
G01*
X77275000Y-95550000D01*
G75*
G02*
X77500000Y-95775000I0J-225000D01*
G01*
X77500000Y-97025000D01*
G75*
G02*
X77275000Y-97250000I-225000J0D01*
G01*
X76825000Y-97250000D01*
G75*
G02*
X76600000Y-97025000I0J225000D01*
G01*
G37*
G36*
G01*
X75350000Y-97025000D02*
X75350000Y-95775000D01*
G75*
G02*
X75575000Y-95550000I225000J0D01*
G01*
X76025000Y-95550000D01*
G75*
G02*
X76250000Y-95775000I0J-225000D01*
G01*
X76250000Y-97025000D01*
G75*
G02*
X76025000Y-97250000I-225000J0D01*
G01*
X75575000Y-97250000D01*
G75*
G02*
X75350000Y-97025000I0J225000D01*
G01*
G37*
G36*
G01*
X74100000Y-97025000D02*
X74100000Y-95775000D01*
G75*
G02*
X74325000Y-95550000I225000J0D01*
G01*
X74775000Y-95550000D01*
G75*
G02*
X75000000Y-95775000I0J-225000D01*
G01*
X75000000Y-97025000D01*
G75*
G02*
X74775000Y-97250000I-225000J0D01*
G01*
X74325000Y-97250000D01*
G75*
G02*
X74100000Y-97025000I0J225000D01*
G01*
G37*
G36*
G01*
X72850000Y-97025000D02*
X72850000Y-95775000D01*
G75*
G02*
X73075000Y-95550000I225000J0D01*
G01*
X73525000Y-95550000D01*
G75*
G02*
X73750000Y-95775000I0J-225000D01*
G01*
X73750000Y-97025000D01*
G75*
G02*
X73525000Y-97250000I-225000J0D01*
G01*
X73075000Y-97250000D01*
G75*
G02*
X72850000Y-97025000I0J225000D01*
G01*
G37*
%TD*%
D14*
%TO.C,J1*%
X51400000Y-86550000D03*
D15*
X51400000Y-83850000D03*
D16*
X51400000Y-88375000D03*
X51400000Y-81625000D03*
D17*
X53975000Y-87487500D03*
X53975000Y-82512500D03*
D18*
X54060000Y-86300000D03*
X54060000Y-85650000D03*
X54060000Y-85000000D03*
X54060000Y-84350000D03*
X54060000Y-83700000D03*
%TD*%
%TO.C,C6*%
G36*
G01*
X61675000Y-56978262D02*
X61675000Y-56021738D01*
G75*
G02*
X61946738Y-55750000I271738J0D01*
G01*
X62653262Y-55750000D01*
G75*
G02*
X62925000Y-56021738I0J-271738D01*
G01*
X62925000Y-56978262D01*
G75*
G02*
X62653262Y-57250000I-271738J0D01*
G01*
X61946738Y-57250000D01*
G75*
G02*
X61675000Y-56978262I0J271738D01*
G01*
G37*
G36*
G01*
X59625000Y-56978262D02*
X59625000Y-56021738D01*
G75*
G02*
X59896738Y-55750000I271738J0D01*
G01*
X60603262Y-55750000D01*
G75*
G02*
X60875000Y-56021738I0J-271738D01*
G01*
X60875000Y-56978262D01*
G75*
G02*
X60603262Y-57250000I-271738J0D01*
G01*
X59896738Y-57250000D01*
G75*
G02*
X59625000Y-56978262I0J271738D01*
G01*
G37*
%TD*%
%TO.C,C1*%
G36*
G01*
X61092544Y-84662500D02*
X62407456Y-84662500D01*
G75*
G02*
X62675000Y-84930044I0J-267544D01*
G01*
X62675000Y-85919956D01*
G75*
G02*
X62407456Y-86187500I-267544J0D01*
G01*
X61092544Y-86187500D01*
G75*
G02*
X60825000Y-85919956I0J267544D01*
G01*
X60825000Y-84930044D01*
G75*
G02*
X61092544Y-84662500I267544J0D01*
G01*
G37*
G36*
G01*
X61092544Y-81687500D02*
X62407456Y-81687500D01*
G75*
G02*
X62675000Y-81955044I0J-267544D01*
G01*
X62675000Y-82944956D01*
G75*
G02*
X62407456Y-83212500I-267544J0D01*
G01*
X61092544Y-83212500D01*
G75*
G02*
X60825000Y-82944956I0J267544D01*
G01*
X60825000Y-81955044D01*
G75*
G02*
X61092544Y-81687500I267544J0D01*
G01*
G37*
%TD*%
%TO.C,C2*%
G36*
G01*
X68342544Y-82987500D02*
X69657456Y-82987500D01*
G75*
G02*
X69925000Y-83255044I0J-267544D01*
G01*
X69925000Y-84244956D01*
G75*
G02*
X69657456Y-84512500I-267544J0D01*
G01*
X68342544Y-84512500D01*
G75*
G02*
X68075000Y-84244956I0J267544D01*
G01*
X68075000Y-83255044D01*
G75*
G02*
X68342544Y-82987500I267544J0D01*
G01*
G37*
G36*
G01*
X68342544Y-85962500D02*
X69657456Y-85962500D01*
G75*
G02*
X69925000Y-86230044I0J-267544D01*
G01*
X69925000Y-87219956D01*
G75*
G02*
X69657456Y-87487500I-267544J0D01*
G01*
X68342544Y-87487500D01*
G75*
G02*
X68075000Y-87219956I0J267544D01*
G01*
X68075000Y-86230044D01*
G75*
G02*
X68342544Y-85962500I267544J0D01*
G01*
G37*
%TD*%
%TO.C,C3*%
G36*
G01*
X70475000Y-71278262D02*
X70475000Y-70321738D01*
G75*
G02*
X70746738Y-70050000I271738J0D01*
G01*
X71453262Y-70050000D01*
G75*
G02*
X71725000Y-70321738I0J-271738D01*
G01*
X71725000Y-71278262D01*
G75*
G02*
X71453262Y-71550000I-271738J0D01*
G01*
X70746738Y-71550000D01*
G75*
G02*
X70475000Y-71278262I0J271738D01*
G01*
G37*
G36*
G01*
X72525000Y-71278262D02*
X72525000Y-70321738D01*
G75*
G02*
X72796738Y-70050000I271738J0D01*
G01*
X73503262Y-70050000D01*
G75*
G02*
X73775000Y-70321738I0J-271738D01*
G01*
X73775000Y-71278262D01*
G75*
G02*
X73503262Y-71550000I-271738J0D01*
G01*
X72796738Y-71550000D01*
G75*
G02*
X72525000Y-71278262I0J271738D01*
G01*
G37*
%TD*%
%TO.C,D1*%
G36*
G01*
X78771738Y-50825000D02*
X79728262Y-50825000D01*
G75*
G02*
X80000000Y-51096738I0J-271738D01*
G01*
X80000000Y-51803262D01*
G75*
G02*
X79728262Y-52075000I-271738J0D01*
G01*
X78771738Y-52075000D01*
G75*
G02*
X78500000Y-51803262I0J271738D01*
G01*
X78500000Y-51096738D01*
G75*
G02*
X78771738Y-50825000I271738J0D01*
G01*
G37*
G36*
G01*
X78771738Y-52875000D02*
X79728262Y-52875000D01*
G75*
G02*
X80000000Y-53146738I0J-271738D01*
G01*
X80000000Y-53853262D01*
G75*
G02*
X79728262Y-54125000I-271738J0D01*
G01*
X78771738Y-54125000D01*
G75*
G02*
X78500000Y-53853262I0J271738D01*
G01*
X78500000Y-53146738D01*
G75*
G02*
X78771738Y-52875000I271738J0D01*
G01*
G37*
%TD*%
%TO.C,D2*%
G36*
G01*
X72978262Y-54125000D02*
X72021738Y-54125000D01*
G75*
G02*
X71750000Y-53853262I0J271738D01*
G01*
X71750000Y-53146738D01*
G75*
G02*
X72021738Y-52875000I271738J0D01*
G01*
X72978262Y-52875000D01*
G75*
G02*
X73250000Y-53146738I0J-271738D01*
G01*
X73250000Y-53853262D01*
G75*
G02*
X72978262Y-54125000I-271738J0D01*
G01*
G37*
G36*
G01*
X72978262Y-52075000D02*
X72021738Y-52075000D01*
G75*
G02*
X71750000Y-51803262I0J271738D01*
G01*
X71750000Y-51096738D01*
G75*
G02*
X72021738Y-50825000I271738J0D01*
G01*
X72978262Y-50825000D01*
G75*
G02*
X73250000Y-51096738I0J-271738D01*
G01*
X73250000Y-51803262D01*
G75*
G02*
X72978262Y-52075000I-271738J0D01*
G01*
G37*
%TD*%
%TO.C,D3*%
G36*
G01*
X91625000Y-84478262D02*
X91625000Y-83521738D01*
G75*
G02*
X91896738Y-83250000I271738J0D01*
G01*
X92603262Y-83250000D01*
G75*
G02*
X92875000Y-83521738I0J-271738D01*
G01*
X92875000Y-84478262D01*
G75*
G02*
X92603262Y-84750000I-271738J0D01*
G01*
X91896738Y-84750000D01*
G75*
G02*
X91625000Y-84478262I0J271738D01*
G01*
G37*
G36*
G01*
X89575000Y-84478262D02*
X89575000Y-83521738D01*
G75*
G02*
X89846738Y-83250000I271738J0D01*
G01*
X90553262Y-83250000D01*
G75*
G02*
X90825000Y-83521738I0J-271738D01*
G01*
X90825000Y-84478262D01*
G75*
G02*
X90553262Y-84750000I-271738J0D01*
G01*
X89846738Y-84750000D01*
G75*
G02*
X89575000Y-84478262I0J271738D01*
G01*
G37*
%TD*%
D19*
%TO.C,J3*%
X57800000Y-61500000D03*
X57800000Y-64040000D03*
X57800000Y-66580000D03*
X57800000Y-69120000D03*
X57800000Y-71660000D03*
D20*
X57800000Y-74200000D03*
%TD*%
%TO.C,L1*%
G36*
G01*
X59978262Y-85125000D02*
X59021738Y-85125000D01*
G75*
G02*
X58750000Y-84853262I0J271738D01*
G01*
X58750000Y-84146738D01*
G75*
G02*
X59021738Y-83875000I271738J0D01*
G01*
X59978262Y-83875000D01*
G75*
G02*
X60250000Y-84146738I0J-271738D01*
G01*
X60250000Y-84853262D01*
G75*
G02*
X59978262Y-85125000I-271738J0D01*
G01*
G37*
G36*
G01*
X59978262Y-83075000D02*
X59021738Y-83075000D01*
G75*
G02*
X58750000Y-82803262I0J271738D01*
G01*
X58750000Y-82096738D01*
G75*
G02*
X59021738Y-81825000I271738J0D01*
G01*
X59978262Y-81825000D01*
G75*
G02*
X60250000Y-82096738I0J-271738D01*
G01*
X60250000Y-82803262D01*
G75*
G02*
X59978262Y-83075000I-271738J0D01*
G01*
G37*
%TD*%
%TO.C,R1*%
G36*
G01*
X55425000Y-91878262D02*
X55425000Y-90921738D01*
G75*
G02*
X55696738Y-90650000I271738J0D01*
G01*
X56403262Y-90650000D01*
G75*
G02*
X56675000Y-90921738I0J-271738D01*
G01*
X56675000Y-91878262D01*
G75*
G02*
X56403262Y-92150000I-271738J0D01*
G01*
X55696738Y-92150000D01*
G75*
G02*
X55425000Y-91878262I0J271738D01*
G01*
G37*
G36*
G01*
X53375000Y-91878262D02*
X53375000Y-90921738D01*
G75*
G02*
X53646738Y-90650000I271738J0D01*
G01*
X54353262Y-90650000D01*
G75*
G02*
X54625000Y-90921738I0J-271738D01*
G01*
X54625000Y-91878262D01*
G75*
G02*
X54353262Y-92150000I-271738J0D01*
G01*
X53646738Y-92150000D01*
G75*
G02*
X53375000Y-91878262I0J271738D01*
G01*
G37*
%TD*%
%TO.C,R3*%
G36*
G01*
X58078262Y-87575000D02*
X57121738Y-87575000D01*
G75*
G02*
X56850000Y-87303262I0J271738D01*
G01*
X56850000Y-86596738D01*
G75*
G02*
X57121738Y-86325000I271738J0D01*
G01*
X58078262Y-86325000D01*
G75*
G02*
X58350000Y-86596738I0J-271738D01*
G01*
X58350000Y-87303262D01*
G75*
G02*
X58078262Y-87575000I-271738J0D01*
G01*
G37*
G36*
G01*
X58078262Y-89625000D02*
X57121738Y-89625000D01*
G75*
G02*
X56850000Y-89353262I0J271738D01*
G01*
X56850000Y-88646738D01*
G75*
G02*
X57121738Y-88375000I271738J0D01*
G01*
X58078262Y-88375000D01*
G75*
G02*
X58350000Y-88646738I0J-271738D01*
G01*
X58350000Y-89353262D01*
G75*
G02*
X58078262Y-89625000I-271738J0D01*
G01*
G37*
%TD*%
%TO.C,R4*%
G36*
G01*
X64278262Y-90675000D02*
X63321738Y-90675000D01*
G75*
G02*
X63050000Y-90403262I0J271738D01*
G01*
X63050000Y-89696738D01*
G75*
G02*
X63321738Y-89425000I271738J0D01*
G01*
X64278262Y-89425000D01*
G75*
G02*
X64550000Y-89696738I0J-271738D01*
G01*
X64550000Y-90403262D01*
G75*
G02*
X64278262Y-90675000I-271738J0D01*
G01*
G37*
G36*
G01*
X64278262Y-88625000D02*
X63321738Y-88625000D01*
G75*
G02*
X63050000Y-88353262I0J271738D01*
G01*
X63050000Y-87646738D01*
G75*
G02*
X63321738Y-87375000I271738J0D01*
G01*
X64278262Y-87375000D01*
G75*
G02*
X64550000Y-87646738I0J-271738D01*
G01*
X64550000Y-88353262D01*
G75*
G02*
X64278262Y-88625000I-271738J0D01*
G01*
G37*
%TD*%
%TO.C,R5*%
G36*
G01*
X76521738Y-52875000D02*
X77478262Y-52875000D01*
G75*
G02*
X77750000Y-53146738I0J-271738D01*
G01*
X77750000Y-53853262D01*
G75*
G02*
X77478262Y-54125000I-271738J0D01*
G01*
X76521738Y-54125000D01*
G75*
G02*
X76250000Y-53853262I0J271738D01*
G01*
X76250000Y-53146738D01*
G75*
G02*
X76521738Y-52875000I271738J0D01*
G01*
G37*
G36*
G01*
X76521738Y-50825000D02*
X77478262Y-50825000D01*
G75*
G02*
X77750000Y-51096738I0J-271738D01*
G01*
X77750000Y-51803262D01*
G75*
G02*
X77478262Y-52075000I-271738J0D01*
G01*
X76521738Y-52075000D01*
G75*
G02*
X76250000Y-51803262I0J271738D01*
G01*
X76250000Y-51096738D01*
G75*
G02*
X76521738Y-50825000I271738J0D01*
G01*
G37*
%TD*%
%TO.C,R6*%
G36*
G01*
X91625000Y-82228262D02*
X91625000Y-81271738D01*
G75*
G02*
X91896738Y-81000000I271738J0D01*
G01*
X92603262Y-81000000D01*
G75*
G02*
X92875000Y-81271738I0J-271738D01*
G01*
X92875000Y-82228262D01*
G75*
G02*
X92603262Y-82500000I-271738J0D01*
G01*
X91896738Y-82500000D01*
G75*
G02*
X91625000Y-82228262I0J271738D01*
G01*
G37*
G36*
G01*
X89575000Y-82228262D02*
X89575000Y-81271738D01*
G75*
G02*
X89846738Y-81000000I271738J0D01*
G01*
X90553262Y-81000000D01*
G75*
G02*
X90825000Y-81271738I0J-271738D01*
G01*
X90825000Y-82228262D01*
G75*
G02*
X90553262Y-82500000I-271738J0D01*
G01*
X89846738Y-82500000D01*
G75*
G02*
X89575000Y-82228262I0J271738D01*
G01*
G37*
%TD*%
D21*
%TO.C,U1*%
X65000000Y-85425000D03*
X66900000Y-85425000D03*
X65950000Y-83425000D03*
%TD*%
%TO.C,U2*%
G36*
G01*
X68850000Y-68975000D02*
X68550000Y-68975000D01*
G75*
G02*
X68400000Y-68825000I0J150000D01*
G01*
X68400000Y-67525000D01*
G75*
G02*
X68550000Y-67375000I150000J0D01*
G01*
X68850000Y-67375000D01*
G75*
G02*
X69000000Y-67525000I0J-150000D01*
G01*
X69000000Y-68825000D01*
G75*
G02*
X68850000Y-68975000I-150000J0D01*
G01*
G37*
G36*
G01*
X69650000Y-68975000D02*
X69350000Y-68975000D01*
G75*
G02*
X69200000Y-68825000I0J150000D01*
G01*
X69200000Y-67525000D01*
G75*
G02*
X69350000Y-67375000I150000J0D01*
G01*
X69650000Y-67375000D01*
G75*
G02*
X69800000Y-67525000I0J-150000D01*
G01*
X69800000Y-68825000D01*
G75*
G02*
X69650000Y-68975000I-150000J0D01*
G01*
G37*
G36*
G01*
X70450000Y-68975000D02*
X70150000Y-68975000D01*
G75*
G02*
X70000000Y-68825000I0J150000D01*
G01*
X70000000Y-67525000D01*
G75*
G02*
X70150000Y-67375000I150000J0D01*
G01*
X70450000Y-67375000D01*
G75*
G02*
X70600000Y-67525000I0J-150000D01*
G01*
X70600000Y-68825000D01*
G75*
G02*
X70450000Y-68975000I-150000J0D01*
G01*
G37*
G36*
G01*
X71250000Y-68975000D02*
X70950000Y-68975000D01*
G75*
G02*
X70800000Y-68825000I0J150000D01*
G01*
X70800000Y-67525000D01*
G75*
G02*
X70950000Y-67375000I150000J0D01*
G01*
X71250000Y-67375000D01*
G75*
G02*
X71400000Y-67525000I0J-150000D01*
G01*
X71400000Y-68825000D01*
G75*
G02*
X71250000Y-68975000I-150000J0D01*
G01*
G37*
G36*
G01*
X72050000Y-68975000D02*
X71750000Y-68975000D01*
G75*
G02*
X71600000Y-68825000I0J150000D01*
G01*
X71600000Y-67525000D01*
G75*
G02*
X71750000Y-67375000I150000J0D01*
G01*
X72050000Y-67375000D01*
G75*
G02*
X72200000Y-67525000I0J-150000D01*
G01*
X72200000Y-68825000D01*
G75*
G02*
X72050000Y-68975000I-150000J0D01*
G01*
G37*
G36*
G01*
X72850000Y-68975000D02*
X72550000Y-68975000D01*
G75*
G02*
X72400000Y-68825000I0J150000D01*
G01*
X72400000Y-67525000D01*
G75*
G02*
X72550000Y-67375000I150000J0D01*
G01*
X72850000Y-67375000D01*
G75*
G02*
X73000000Y-67525000I0J-150000D01*
G01*
X73000000Y-68825000D01*
G75*
G02*
X72850000Y-68975000I-150000J0D01*
G01*
G37*
G36*
G01*
X73650000Y-68975000D02*
X73350000Y-68975000D01*
G75*
G02*
X73200000Y-68825000I0J150000D01*
G01*
X73200000Y-67525000D01*
G75*
G02*
X73350000Y-67375000I150000J0D01*
G01*
X73650000Y-67375000D01*
G75*
G02*
X73800000Y-67525000I0J-150000D01*
G01*
X73800000Y-68825000D01*
G75*
G02*
X73650000Y-68975000I-150000J0D01*
G01*
G37*
G36*
G01*
X74450000Y-68975000D02*
X74150000Y-68975000D01*
G75*
G02*
X74000000Y-68825000I0J150000D01*
G01*
X74000000Y-67525000D01*
G75*
G02*
X74150000Y-67375000I150000J0D01*
G01*
X74450000Y-67375000D01*
G75*
G02*
X74600000Y-67525000I0J-150000D01*
G01*
X74600000Y-68825000D01*
G75*
G02*
X74450000Y-68975000I-150000J0D01*
G01*
G37*
G36*
G01*
X76325000Y-67100000D02*
X75025000Y-67100000D01*
G75*
G02*
X74875000Y-66950000I0J150000D01*
G01*
X74875000Y-66650000D01*
G75*
G02*
X75025000Y-66500000I150000J0D01*
G01*
X76325000Y-66500000D01*
G75*
G02*
X76475000Y-66650000I0J-150000D01*
G01*
X76475000Y-66950000D01*
G75*
G02*
X76325000Y-67100000I-150000J0D01*
G01*
G37*
G36*
G01*
X76325000Y-66300000D02*
X75025000Y-66300000D01*
G75*
G02*
X74875000Y-66150000I0J150000D01*
G01*
X74875000Y-65850000D01*
G75*
G02*
X75025000Y-65700000I150000J0D01*
G01*
X76325000Y-65700000D01*
G75*
G02*
X76475000Y-65850000I0J-150000D01*
G01*
X76475000Y-66150000D01*
G75*
G02*
X76325000Y-66300000I-150000J0D01*
G01*
G37*
G36*
G01*
X76325000Y-65500000D02*
X75025000Y-65500000D01*
G75*
G02*
X74875000Y-65350000I0J150000D01*
G01*
X74875000Y-65050000D01*
G75*
G02*
X75025000Y-64900000I150000J0D01*
G01*
X76325000Y-64900000D01*
G75*
G02*
X76475000Y-65050000I0J-150000D01*
G01*
X76475000Y-65350000D01*
G75*
G02*
X76325000Y-65500000I-150000J0D01*
G01*
G37*
G36*
G01*
X76325000Y-64700000D02*
X75025000Y-64700000D01*
G75*
G02*
X74875000Y-64550000I0J150000D01*
G01*
X74875000Y-64250000D01*
G75*
G02*
X75025000Y-64100000I150000J0D01*
G01*
X76325000Y-64100000D01*
G75*
G02*
X76475000Y-64250000I0J-150000D01*
G01*
X76475000Y-64550000D01*
G75*
G02*
X76325000Y-64700000I-150000J0D01*
G01*
G37*
G36*
G01*
X76325000Y-63900000D02*
X75025000Y-63900000D01*
G75*
G02*
X74875000Y-63750000I0J150000D01*
G01*
X74875000Y-63450000D01*
G75*
G02*
X75025000Y-63300000I150000J0D01*
G01*
X76325000Y-63300000D01*
G75*
G02*
X76475000Y-63450000I0J-150000D01*
G01*
X76475000Y-63750000D01*
G75*
G02*
X76325000Y-63900000I-150000J0D01*
G01*
G37*
G36*
G01*
X76325000Y-63100000D02*
X75025000Y-63100000D01*
G75*
G02*
X74875000Y-62950000I0J150000D01*
G01*
X74875000Y-62650000D01*
G75*
G02*
X75025000Y-62500000I150000J0D01*
G01*
X76325000Y-62500000D01*
G75*
G02*
X76475000Y-62650000I0J-150000D01*
G01*
X76475000Y-62950000D01*
G75*
G02*
X76325000Y-63100000I-150000J0D01*
G01*
G37*
G36*
G01*
X76325000Y-62300000D02*
X75025000Y-62300000D01*
G75*
G02*
X74875000Y-62150000I0J150000D01*
G01*
X74875000Y-61850000D01*
G75*
G02*
X75025000Y-61700000I150000J0D01*
G01*
X76325000Y-61700000D01*
G75*
G02*
X76475000Y-61850000I0J-150000D01*
G01*
X76475000Y-62150000D01*
G75*
G02*
X76325000Y-62300000I-150000J0D01*
G01*
G37*
G36*
G01*
X76325000Y-61500000D02*
X75025000Y-61500000D01*
G75*
G02*
X74875000Y-61350000I0J150000D01*
G01*
X74875000Y-61050000D01*
G75*
G02*
X75025000Y-60900000I150000J0D01*
G01*
X76325000Y-60900000D01*
G75*
G02*
X76475000Y-61050000I0J-150000D01*
G01*
X76475000Y-61350000D01*
G75*
G02*
X76325000Y-61500000I-150000J0D01*
G01*
G37*
G36*
G01*
X74450000Y-60625000D02*
X74150000Y-60625000D01*
G75*
G02*
X74000000Y-60475000I0J150000D01*
G01*
X74000000Y-59175000D01*
G75*
G02*
X74150000Y-59025000I150000J0D01*
G01*
X74450000Y-59025000D01*
G75*
G02*
X74600000Y-59175000I0J-150000D01*
G01*
X74600000Y-60475000D01*
G75*
G02*
X74450000Y-60625000I-150000J0D01*
G01*
G37*
G36*
G01*
X73650000Y-60625000D02*
X73350000Y-60625000D01*
G75*
G02*
X73200000Y-60475000I0J150000D01*
G01*
X73200000Y-59175000D01*
G75*
G02*
X73350000Y-59025000I150000J0D01*
G01*
X73650000Y-59025000D01*
G75*
G02*
X73800000Y-59175000I0J-150000D01*
G01*
X73800000Y-60475000D01*
G75*
G02*
X73650000Y-60625000I-150000J0D01*
G01*
G37*
G36*
G01*
X72850000Y-60625000D02*
X72550000Y-60625000D01*
G75*
G02*
X72400000Y-60475000I0J150000D01*
G01*
X72400000Y-59175000D01*
G75*
G02*
X72550000Y-59025000I150000J0D01*
G01*
X72850000Y-59025000D01*
G75*
G02*
X73000000Y-59175000I0J-150000D01*
G01*
X73000000Y-60475000D01*
G75*
G02*
X72850000Y-60625000I-150000J0D01*
G01*
G37*
G36*
G01*
X72050000Y-60625000D02*
X71750000Y-60625000D01*
G75*
G02*
X71600000Y-60475000I0J150000D01*
G01*
X71600000Y-59175000D01*
G75*
G02*
X71750000Y-59025000I150000J0D01*
G01*
X72050000Y-59025000D01*
G75*
G02*
X72200000Y-59175000I0J-150000D01*
G01*
X72200000Y-60475000D01*
G75*
G02*
X72050000Y-60625000I-150000J0D01*
G01*
G37*
G36*
G01*
X71250000Y-60625000D02*
X70950000Y-60625000D01*
G75*
G02*
X70800000Y-60475000I0J150000D01*
G01*
X70800000Y-59175000D01*
G75*
G02*
X70950000Y-59025000I150000J0D01*
G01*
X71250000Y-59025000D01*
G75*
G02*
X71400000Y-59175000I0J-150000D01*
G01*
X71400000Y-60475000D01*
G75*
G02*
X71250000Y-60625000I-150000J0D01*
G01*
G37*
G36*
G01*
X70450000Y-60625000D02*
X70150000Y-60625000D01*
G75*
G02*
X70000000Y-60475000I0J150000D01*
G01*
X70000000Y-59175000D01*
G75*
G02*
X70150000Y-59025000I150000J0D01*
G01*
X70450000Y-59025000D01*
G75*
G02*
X70600000Y-59175000I0J-150000D01*
G01*
X70600000Y-60475000D01*
G75*
G02*
X70450000Y-60625000I-150000J0D01*
G01*
G37*
G36*
G01*
X69650000Y-60625000D02*
X69350000Y-60625000D01*
G75*
G02*
X69200000Y-60475000I0J150000D01*
G01*
X69200000Y-59175000D01*
G75*
G02*
X69350000Y-59025000I150000J0D01*
G01*
X69650000Y-59025000D01*
G75*
G02*
X69800000Y-59175000I0J-150000D01*
G01*
X69800000Y-60475000D01*
G75*
G02*
X69650000Y-60625000I-150000J0D01*
G01*
G37*
G36*
G01*
X68850000Y-60625000D02*
X68550000Y-60625000D01*
G75*
G02*
X68400000Y-60475000I0J150000D01*
G01*
X68400000Y-59175000D01*
G75*
G02*
X68550000Y-59025000I150000J0D01*
G01*
X68850000Y-59025000D01*
G75*
G02*
X69000000Y-59175000I0J-150000D01*
G01*
X69000000Y-60475000D01*
G75*
G02*
X68850000Y-60625000I-150000J0D01*
G01*
G37*
G36*
G01*
X67975000Y-61500000D02*
X66675000Y-61500000D01*
G75*
G02*
X66525000Y-61350000I0J150000D01*
G01*
X66525000Y-61050000D01*
G75*
G02*
X66675000Y-60900000I150000J0D01*
G01*
X67975000Y-60900000D01*
G75*
G02*
X68125000Y-61050000I0J-150000D01*
G01*
X68125000Y-61350000D01*
G75*
G02*
X67975000Y-61500000I-150000J0D01*
G01*
G37*
G36*
G01*
X67975000Y-62300000D02*
X66675000Y-62300000D01*
G75*
G02*
X66525000Y-62150000I0J150000D01*
G01*
X66525000Y-61850000D01*
G75*
G02*
X66675000Y-61700000I150000J0D01*
G01*
X67975000Y-61700000D01*
G75*
G02*
X68125000Y-61850000I0J-150000D01*
G01*
X68125000Y-62150000D01*
G75*
G02*
X67975000Y-62300000I-150000J0D01*
G01*
G37*
G36*
G01*
X67975000Y-63100000D02*
X66675000Y-63100000D01*
G75*
G02*
X66525000Y-62950000I0J150000D01*
G01*
X66525000Y-62650000D01*
G75*
G02*
X66675000Y-62500000I150000J0D01*
G01*
X67975000Y-62500000D01*
G75*
G02*
X68125000Y-62650000I0J-150000D01*
G01*
X68125000Y-62950000D01*
G75*
G02*
X67975000Y-63100000I-150000J0D01*
G01*
G37*
G36*
G01*
X67975000Y-63900000D02*
X66675000Y-63900000D01*
G75*
G02*
X66525000Y-63750000I0J150000D01*
G01*
X66525000Y-63450000D01*
G75*
G02*
X66675000Y-63300000I150000J0D01*
G01*
X67975000Y-63300000D01*
G75*
G02*
X68125000Y-63450000I0J-150000D01*
G01*
X68125000Y-63750000D01*
G75*
G02*
X67975000Y-63900000I-150000J0D01*
G01*
G37*
G36*
G01*
X67975000Y-64700000D02*
X66675000Y-64700000D01*
G75*
G02*
X66525000Y-64550000I0J150000D01*
G01*
X66525000Y-64250000D01*
G75*
G02*
X66675000Y-64100000I150000J0D01*
G01*
X67975000Y-64100000D01*
G75*
G02*
X68125000Y-64250000I0J-150000D01*
G01*
X68125000Y-64550000D01*
G75*
G02*
X67975000Y-64700000I-150000J0D01*
G01*
G37*
G36*
G01*
X67975000Y-65500000D02*
X66675000Y-65500000D01*
G75*
G02*
X66525000Y-65350000I0J150000D01*
G01*
X66525000Y-65050000D01*
G75*
G02*
X66675000Y-64900000I150000J0D01*
G01*
X67975000Y-64900000D01*
G75*
G02*
X68125000Y-65050000I0J-150000D01*
G01*
X68125000Y-65350000D01*
G75*
G02*
X67975000Y-65500000I-150000J0D01*
G01*
G37*
G36*
G01*
X67975000Y-66300000D02*
X66675000Y-66300000D01*
G75*
G02*
X66525000Y-66150000I0J150000D01*
G01*
X66525000Y-65850000D01*
G75*
G02*
X66675000Y-65700000I150000J0D01*
G01*
X67975000Y-65700000D01*
G75*
G02*
X68125000Y-65850000I0J-150000D01*
G01*
X68125000Y-66150000D01*
G75*
G02*
X67975000Y-66300000I-150000J0D01*
G01*
G37*
G36*
G01*
X67975000Y-67100000D02*
X66675000Y-67100000D01*
G75*
G02*
X66525000Y-66950000I0J150000D01*
G01*
X66525000Y-66650000D01*
G75*
G02*
X66675000Y-66500000I150000J0D01*
G01*
X67975000Y-66500000D01*
G75*
G02*
X68125000Y-66650000I0J-150000D01*
G01*
X68125000Y-66950000D01*
G75*
G02*
X67975000Y-67100000I-150000J0D01*
G01*
G37*
%TD*%
D22*
%TO.C,U3*%
X86700000Y-64100000D03*
X86700000Y-65300000D03*
X86700000Y-66500000D03*
X86700000Y-67700000D03*
X86700000Y-68900000D03*
X86700000Y-70100000D03*
D23*
X88400000Y-62750000D03*
X89600000Y-62750000D03*
X90800000Y-62750000D03*
X92000000Y-62750000D03*
X93200000Y-62750000D03*
X88400000Y-71450000D03*
X89600000Y-71450000D03*
X90800000Y-71450000D03*
X92050000Y-71450000D03*
X93200000Y-71450000D03*
%TD*%
M02*
