M48
; DRILL file {KiCad 5.1.6-1.fc32} date Sat Aug 22 09:30:10 2020
; FORMAT={-:-/ absolute / inch / decimal}
; #@! TF.CreationDate,2020-08-22T09:30:10+02:00
; #@! TF.GenerationSoftware,Kicad,Pcbnew,5.1.6-1.fc32
; #@! TF.FileFunction,Plated,1,2,PTH
FMAT,2
INCH
T1C0.0197
T2C0.0315
T3C0.0394
T4C0.1260
%
G90
G05
T1
X2.0669Y-2.313
X2.0669Y-2.4705
X2.0669Y-2.6673
X2.0669Y-2.7756
X2.0669Y-3.0118
X2.0709Y-3.6772
X2.2638Y-3.1102
X2.2638Y-3.7008
X2.3031Y-2.313
X2.3543Y-3.8976
X2.3917Y-2.9823
X2.4311Y-2.3917
X2.4902Y-2.5591
X2.5Y-2.7461
X2.5689Y-2.0866
X2.5689Y-2.2933
X2.6575Y-2.313
X2.6929Y-3.685
X2.7067Y-2.2244
X2.7165Y-2.4409
X2.7559Y-2.5906
X2.7992Y-2.2795
X2.8268Y-3.5512
X2.8504Y-3.5118
X2.8819Y-3.4803
X2.8839Y-2.4508
X2.8984Y-3.5912
X2.9055Y-2.5512
X2.9213Y-2.4173
X2.9232Y-2.9429
X2.937Y-3.7244
X2.9528Y-3.9449
X2.9734Y-3.252
X2.9764Y-2.3622
X2.9764Y-3.0787
X2.9764Y-3.1654
X2.9823Y-2.2933
X3.0315Y-2.3701
X3.0551Y-3.5748
X3.0709Y-2.2598
X3.0709Y-2.9429
X3.0866Y-3.5276
X3.0906Y-2.3327
X3.1339Y-2.2283
X3.1339Y-3.0787
X3.1339Y-3.1654
X3.1732Y-3.9449
X3.1969Y-2.1654
X3.2126Y-3.3896
X3.252Y-3.6142
X3.2677Y-2.7756
X3.2835Y-3.4331
X3.2874Y-2.2244
X3.3268Y-3.1398
X3.3465Y-2.8642
X3.3543Y-3.4331
X3.3622Y-3.0709
X3.376Y-2.0768
X3.3821Y-3.3896
X3.3858Y-3.5276
X3.4055Y-3.3268
X3.4173Y-2.4606
X3.4724Y-3.1732
X3.6378Y-3.0709
T2
X2.125Y-3.1693
X2.125Y-3.5138
X2.4291Y-3.6122
X2.4528Y-2.2835
X2.5Y-3.3632
X2.5669Y-3.1181
X2.628Y-2.8445
X2.6378Y-3.2382
X2.6476Y-3.435
X2.6772Y-3.9134
X2.7087Y-3.5925
X2.7335Y-2.1457
X2.8425Y-2.8976
X2.9331Y-2.7874
X3.0315Y-2.1654
X3.1811Y-3.7323
X3.2598Y-2.8976
X3.3484Y-3.748
X3.3543Y-2.9921
X3.435Y-2.9134
X3.5138Y-2.9921
X3.622Y-2.4114
T3
X2.2756Y-2.4213
X2.2756Y-2.5213
X2.2756Y-2.6213
X2.2756Y-2.7213
X2.2756Y-2.8213
X2.2756Y-2.9213
T4
X2.126Y-3.8583
X2.126Y-2.126
X3.5433Y-3.8583
X3.5433Y-2.126
T0
M30
