%TF.GenerationSoftware,KiCad,Pcbnew,5.1.6-1.fc32*%
%TF.CreationDate,2020-08-22T09:30:13+02:00*%
%TF.ProjectId,pm_monitor_1,706d5f6d-6f6e-4697-946f-725f312e6b69,rev?*%
%TF.SameCoordinates,Original*%
%TF.FileFunction,Copper,L1,Top*%
%TF.FilePolarity,Positive*%
%FSLAX46Y46*%
G04 Gerber Fmt 4.6, Leading zero omitted, Abs format (unit mm)*
G04 Created by KiCad (PCBNEW 5.1.6-1.fc32) date 2020-08-22 09:30:13*
%MOMM*%
%LPD*%
G01*
G04 APERTURE LIST*
%TA.AperFunction,SMDPad,CuDef*%
%ADD10R,0.400000X1.200000*%
%TD*%
%TA.AperFunction,ComponentPad*%
%ADD11C,6.400000*%
%TD*%
%TA.AperFunction,SMDPad,CuDef*%
%ADD12R,1.300000X1.900000*%
%TD*%
%TA.AperFunction,SMDPad,CuDef*%
%ADD13R,2.180000X1.600000*%
%TD*%
%TA.AperFunction,SMDPad,CuDef*%
%ADD14R,1.900000X1.000000*%
%TD*%
%TA.AperFunction,SMDPad,CuDef*%
%ADD15R,1.900000X1.800000*%
%TD*%
%TA.AperFunction,SMDPad,CuDef*%
%ADD16R,1.300000X1.650000*%
%TD*%
%TA.AperFunction,SMDPad,CuDef*%
%ADD17R,1.550000X1.425000*%
%TD*%
%TA.AperFunction,SMDPad,CuDef*%
%ADD18R,1.380000X0.450000*%
%TD*%
%TA.AperFunction,ComponentPad*%
%ADD19O,1.700000X1.700000*%
%TD*%
%TA.AperFunction,ComponentPad*%
%ADD20R,1.700000X1.700000*%
%TD*%
%TA.AperFunction,SMDPad,CuDef*%
%ADD21R,0.800000X0.900000*%
%TD*%
%TA.AperFunction,SMDPad,CuDef*%
%ADD22R,1.500000X0.700000*%
%TD*%
%TA.AperFunction,SMDPad,CuDef*%
%ADD23R,0.700000X1.500000*%
%TD*%
%TA.AperFunction,ViaPad*%
%ADD24C,1.300000*%
%TD*%
%TA.AperFunction,ViaPad*%
%ADD25C,0.900000*%
%TD*%
%TA.AperFunction,Conductor*%
%ADD26C,0.800000*%
%TD*%
%TA.AperFunction,Conductor*%
%ADD27C,0.500000*%
%TD*%
%TA.AperFunction,Conductor*%
%ADD28C,0.350000*%
%TD*%
%TA.AperFunction,Conductor*%
%ADD29C,0.256000*%
%TD*%
%TA.AperFunction,Conductor*%
%ADD30C,0.400000*%
%TD*%
%TA.AperFunction,Conductor*%
%ADD31C,0.254000*%
%TD*%
G04 APERTURE END LIST*
%TO.P,R8,2*%
%TO.N,Net-(D6-Pad2)*%
%TA.AperFunction,SMDPad,CuDef*%
G36*
G01*
X84200001Y-52025000D02*
X83299999Y-52025000D01*
G75*
G02*
X83050000Y-51775001I0J249999D01*
G01*
X83050000Y-51124999D01*
G75*
G02*
X83299999Y-50875000I249999J0D01*
G01*
X84200001Y-50875000D01*
G75*
G02*
X84450000Y-51124999I0J-249999D01*
G01*
X84450000Y-51775001D01*
G75*
G02*
X84200001Y-52025000I-249999J0D01*
G01*
G37*
%TD.AperFunction*%
%TO.P,R8,1*%
%TO.N,+3V3*%
%TA.AperFunction,SMDPad,CuDef*%
G36*
G01*
X84200001Y-54075000D02*
X83299999Y-54075000D01*
G75*
G02*
X83050000Y-53825001I0J249999D01*
G01*
X83050000Y-53174999D01*
G75*
G02*
X83299999Y-52925000I249999J0D01*
G01*
X84200001Y-52925000D01*
G75*
G02*
X84450000Y-53174999I0J-249999D01*
G01*
X84450000Y-53825001D01*
G75*
G02*
X84200001Y-54075000I-249999J0D01*
G01*
G37*
%TD.AperFunction*%
%TD*%
%TO.P,D6,2*%
%TO.N,Net-(D6-Pad2)*%
%TA.AperFunction,SMDPad,CuDef*%
G36*
G01*
X81950001Y-52025000D02*
X81049999Y-52025000D01*
G75*
G02*
X80800000Y-51775001I0J249999D01*
G01*
X80800000Y-51124999D01*
G75*
G02*
X81049999Y-50875000I249999J0D01*
G01*
X81950001Y-50875000D01*
G75*
G02*
X82200000Y-51124999I0J-249999D01*
G01*
X82200000Y-51775001D01*
G75*
G02*
X81950001Y-52025000I-249999J0D01*
G01*
G37*
%TD.AperFunction*%
%TO.P,D6,1*%
%TO.N,Net-(D6-Pad1)*%
%TA.AperFunction,SMDPad,CuDef*%
G36*
G01*
X81950001Y-54075000D02*
X81049999Y-54075000D01*
G75*
G02*
X80800000Y-53825001I0J249999D01*
G01*
X80800000Y-53174999D01*
G75*
G02*
X81049999Y-52925000I249999J0D01*
G01*
X81950001Y-52925000D01*
G75*
G02*
X82200000Y-53174999I0J-249999D01*
G01*
X82200000Y-53825001D01*
G75*
G02*
X81950001Y-54075000I-249999J0D01*
G01*
G37*
%TD.AperFunction*%
%TD*%
%TO.P,R2,2*%
%TO.N,+3V3*%
%TA.AperFunction,SMDPad,CuDef*%
G36*
G01*
X72005000Y-93972500D02*
X72005000Y-93627500D01*
G75*
G02*
X72152500Y-93480000I147500J0D01*
G01*
X72447500Y-93480000D01*
G75*
G02*
X72595000Y-93627500I0J-147500D01*
G01*
X72595000Y-93972500D01*
G75*
G02*
X72447500Y-94120000I-147500J0D01*
G01*
X72152500Y-94120000D01*
G75*
G02*
X72005000Y-93972500I0J147500D01*
G01*
G37*
%TD.AperFunction*%
%TO.P,R2,1*%
%TO.N,Net-(R2-Pad1)*%
%TA.AperFunction,SMDPad,CuDef*%
G36*
G01*
X71035000Y-93972500D02*
X71035000Y-93627500D01*
G75*
G02*
X71182500Y-93480000I147500J0D01*
G01*
X71477500Y-93480000D01*
G75*
G02*
X71625000Y-93627500I0J-147500D01*
G01*
X71625000Y-93972500D01*
G75*
G02*
X71477500Y-94120000I-147500J0D01*
G01*
X71182500Y-94120000D01*
G75*
G02*
X71035000Y-93972500I0J147500D01*
G01*
G37*
%TD.AperFunction*%
%TD*%
%TO.P,C14,2*%
%TO.N,+5V*%
%TA.AperFunction,SMDPad,CuDef*%
G36*
G01*
X83575000Y-93299999D02*
X83575000Y-94200001D01*
G75*
G02*
X83325001Y-94450000I-249999J0D01*
G01*
X82674999Y-94450000D01*
G75*
G02*
X82425000Y-94200001I0J249999D01*
G01*
X82425000Y-93299999D01*
G75*
G02*
X82674999Y-93050000I249999J0D01*
G01*
X83325001Y-93050000D01*
G75*
G02*
X83575000Y-93299999I0J-249999D01*
G01*
G37*
%TD.AperFunction*%
%TO.P,C14,1*%
%TO.N,GND*%
%TA.AperFunction,SMDPad,CuDef*%
G36*
G01*
X85625000Y-93299999D02*
X85625000Y-94200001D01*
G75*
G02*
X85375001Y-94450000I-249999J0D01*
G01*
X84724999Y-94450000D01*
G75*
G02*
X84475000Y-94200001I0J249999D01*
G01*
X84475000Y-93299999D01*
G75*
G02*
X84724999Y-93050000I249999J0D01*
G01*
X85375001Y-93050000D01*
G75*
G02*
X85625000Y-93299999I0J-249999D01*
G01*
G37*
%TD.AperFunction*%
%TD*%
%TO.P,C13,2*%
%TO.N,GND*%
%TA.AperFunction,SMDPad,CuDef*%
G36*
G01*
X64574999Y-98275000D02*
X66625001Y-98275000D01*
G75*
G02*
X66875000Y-98524999I0J-249999D01*
G01*
X66875000Y-100275001D01*
G75*
G02*
X66625001Y-100525000I-249999J0D01*
G01*
X64574999Y-100525000D01*
G75*
G02*
X64325000Y-100275001I0J249999D01*
G01*
X64325000Y-98524999D01*
G75*
G02*
X64574999Y-98275000I249999J0D01*
G01*
G37*
%TD.AperFunction*%
%TO.P,C13,1*%
%TO.N,+5V*%
%TA.AperFunction,SMDPad,CuDef*%
G36*
G01*
X64574999Y-91875000D02*
X66625001Y-91875000D01*
G75*
G02*
X66875000Y-92124999I0J-249999D01*
G01*
X66875000Y-93875001D01*
G75*
G02*
X66625001Y-94125000I-249999J0D01*
G01*
X64574999Y-94125000D01*
G75*
G02*
X64325000Y-93875001I0J249999D01*
G01*
X64325000Y-92124999D01*
G75*
G02*
X64574999Y-91875000I249999J0D01*
G01*
G37*
%TD.AperFunction*%
%TD*%
D10*
%TO.P,U4,16*%
%TO.N,/USB_PWREN#*%
X75525000Y-92300000D03*
%TO.P,U4,15*%
%TO.N,Net-(U4-Pad15)*%
X74890000Y-92300000D03*
%TO.P,U4,14*%
%TO.N,Net-(D4-Pad1)*%
X74255000Y-92300000D03*
%TO.P,U4,13*%
%TO.N,GND*%
X73620000Y-92300000D03*
%TO.P,U4,12*%
%TO.N,+5V*%
X72985000Y-92300000D03*
%TO.P,U4,11*%
%TO.N,+3V3*%
X72350000Y-92300000D03*
%TO.P,U4,10*%
%TO.N,Net-(R2-Pad1)*%
X71715000Y-92300000D03*
%TO.P,U4,9*%
%TO.N,/USBDM*%
X71080000Y-92300000D03*
%TO.P,U4,8*%
%TO.N,/USBDP*%
X71080000Y-87100000D03*
%TO.P,U4,7*%
%TO.N,Net-(D5-Pad1)*%
X71715000Y-87100000D03*
%TO.P,U4,6*%
%TO.N,/FTH_RTS#*%
X72350000Y-87100000D03*
%TO.P,U4,5*%
%TO.N,GND*%
X72985000Y-87100000D03*
%TO.P,U4,4*%
%TO.N,/FTH_TXD*%
X73620000Y-87100000D03*
%TO.P,U4,3*%
%TO.N,+3V3*%
X74255000Y-87100000D03*
%TO.P,U4,2*%
%TO.N,/FTH_CTS#*%
X74890000Y-87100000D03*
%TO.P,U4,1*%
%TO.N,/FTH_RXD*%
X75525000Y-87100000D03*
%TD*%
%TO.P,R14,2*%
%TO.N,Net-(D5-Pad2)*%
%TA.AperFunction,SMDPad,CuDef*%
G36*
G01*
X91675000Y-93450001D02*
X91675000Y-92549999D01*
G75*
G02*
X91924999Y-92300000I249999J0D01*
G01*
X92575001Y-92300000D01*
G75*
G02*
X92825000Y-92549999I0J-249999D01*
G01*
X92825000Y-93450001D01*
G75*
G02*
X92575001Y-93700000I-249999J0D01*
G01*
X91924999Y-93700000D01*
G75*
G02*
X91675000Y-93450001I0J249999D01*
G01*
G37*
%TD.AperFunction*%
%TO.P,R14,1*%
%TO.N,+3V3*%
%TA.AperFunction,SMDPad,CuDef*%
G36*
G01*
X89625000Y-93450001D02*
X89625000Y-92549999D01*
G75*
G02*
X89874999Y-92300000I249999J0D01*
G01*
X90525001Y-92300000D01*
G75*
G02*
X90775000Y-92549999I0J-249999D01*
G01*
X90775000Y-93450001D01*
G75*
G02*
X90525001Y-93700000I-249999J0D01*
G01*
X89874999Y-93700000D01*
G75*
G02*
X89625000Y-93450001I0J249999D01*
G01*
G37*
%TD.AperFunction*%
%TD*%
%TO.P,R13,2*%
%TO.N,Net-(D4-Pad2)*%
%TA.AperFunction,SMDPad,CuDef*%
G36*
G01*
X91675000Y-88950001D02*
X91675000Y-88049999D01*
G75*
G02*
X91924999Y-87800000I249999J0D01*
G01*
X92575001Y-87800000D01*
G75*
G02*
X92825000Y-88049999I0J-249999D01*
G01*
X92825000Y-88950001D01*
G75*
G02*
X92575001Y-89200000I-249999J0D01*
G01*
X91924999Y-89200000D01*
G75*
G02*
X91675000Y-88950001I0J249999D01*
G01*
G37*
%TD.AperFunction*%
%TO.P,R13,1*%
%TO.N,+3V3*%
%TA.AperFunction,SMDPad,CuDef*%
G36*
G01*
X89625000Y-88950001D02*
X89625000Y-88049999D01*
G75*
G02*
X89874999Y-87800000I249999J0D01*
G01*
X90525001Y-87800000D01*
G75*
G02*
X90775000Y-88049999I0J-249999D01*
G01*
X90775000Y-88950001D01*
G75*
G02*
X90525001Y-89200000I-249999J0D01*
G01*
X89874999Y-89200000D01*
G75*
G02*
X89625000Y-88950001I0J249999D01*
G01*
G37*
%TD.AperFunction*%
%TD*%
%TO.P,R12,2*%
%TO.N,/FTH_RTS#*%
%TA.AperFunction,SMDPad,CuDef*%
G36*
G01*
X73675000Y-78650001D02*
X73675000Y-77749999D01*
G75*
G02*
X73924999Y-77500000I249999J0D01*
G01*
X74575001Y-77500000D01*
G75*
G02*
X74825000Y-77749999I0J-249999D01*
G01*
X74825000Y-78650001D01*
G75*
G02*
X74575001Y-78900000I-249999J0D01*
G01*
X73924999Y-78900000D01*
G75*
G02*
X73675000Y-78650001I0J249999D01*
G01*
G37*
%TD.AperFunction*%
%TO.P,R12,1*%
%TO.N,+3V3*%
%TA.AperFunction,SMDPad,CuDef*%
G36*
G01*
X71625000Y-78650001D02*
X71625000Y-77749999D01*
G75*
G02*
X71874999Y-77500000I249999J0D01*
G01*
X72525001Y-77500000D01*
G75*
G02*
X72775000Y-77749999I0J-249999D01*
G01*
X72775000Y-78650001D01*
G75*
G02*
X72525001Y-78900000I-249999J0D01*
G01*
X71874999Y-78900000D01*
G75*
G02*
X71625000Y-78650001I0J249999D01*
G01*
G37*
%TD.AperFunction*%
%TD*%
%TO.P,R11,2*%
%TO.N,/FTH_CTS#*%
%TA.AperFunction,SMDPad,CuDef*%
G36*
G01*
X73675000Y-76450001D02*
X73675000Y-75549999D01*
G75*
G02*
X73924999Y-75300000I249999J0D01*
G01*
X74575001Y-75300000D01*
G75*
G02*
X74825000Y-75549999I0J-249999D01*
G01*
X74825000Y-76450001D01*
G75*
G02*
X74575001Y-76700000I-249999J0D01*
G01*
X73924999Y-76700000D01*
G75*
G02*
X73675000Y-76450001I0J249999D01*
G01*
G37*
%TD.AperFunction*%
%TO.P,R11,1*%
%TO.N,+3V3*%
%TA.AperFunction,SMDPad,CuDef*%
G36*
G01*
X71625000Y-76450001D02*
X71625000Y-75549999D01*
G75*
G02*
X71874999Y-75300000I249999J0D01*
G01*
X72525001Y-75300000D01*
G75*
G02*
X72775000Y-75549999I0J-249999D01*
G01*
X72775000Y-76450001D01*
G75*
G02*
X72525001Y-76700000I-249999J0D01*
G01*
X71874999Y-76700000D01*
G75*
G02*
X71625000Y-76450001I0J249999D01*
G01*
G37*
%TD.AperFunction*%
%TD*%
%TO.P,R10,2*%
%TO.N,/FTH_TXD*%
%TA.AperFunction,SMDPad,CuDef*%
G36*
G01*
X73675000Y-80850001D02*
X73675000Y-79949999D01*
G75*
G02*
X73924999Y-79700000I249999J0D01*
G01*
X74575001Y-79700000D01*
G75*
G02*
X74825000Y-79949999I0J-249999D01*
G01*
X74825000Y-80850001D01*
G75*
G02*
X74575001Y-81100000I-249999J0D01*
G01*
X73924999Y-81100000D01*
G75*
G02*
X73675000Y-80850001I0J249999D01*
G01*
G37*
%TD.AperFunction*%
%TO.P,R10,1*%
%TO.N,+3V3*%
%TA.AperFunction,SMDPad,CuDef*%
G36*
G01*
X71625000Y-80850001D02*
X71625000Y-79949999D01*
G75*
G02*
X71874999Y-79700000I249999J0D01*
G01*
X72525001Y-79700000D01*
G75*
G02*
X72775000Y-79949999I0J-249999D01*
G01*
X72775000Y-80850001D01*
G75*
G02*
X72525001Y-81100000I-249999J0D01*
G01*
X71874999Y-81100000D01*
G75*
G02*
X71625000Y-80850001I0J249999D01*
G01*
G37*
%TD.AperFunction*%
%TD*%
%TO.P,R9,2*%
%TO.N,/FTH_RXD*%
%TA.AperFunction,SMDPad,CuDef*%
G36*
G01*
X73675000Y-83050001D02*
X73675000Y-82149999D01*
G75*
G02*
X73924999Y-81900000I249999J0D01*
G01*
X74575001Y-81900000D01*
G75*
G02*
X74825000Y-82149999I0J-249999D01*
G01*
X74825000Y-83050001D01*
G75*
G02*
X74575001Y-83300000I-249999J0D01*
G01*
X73924999Y-83300000D01*
G75*
G02*
X73675000Y-83050001I0J249999D01*
G01*
G37*
%TD.AperFunction*%
%TO.P,R9,1*%
%TO.N,+3V3*%
%TA.AperFunction,SMDPad,CuDef*%
G36*
G01*
X71625000Y-83050001D02*
X71625000Y-82149999D01*
G75*
G02*
X71874999Y-81900000I249999J0D01*
G01*
X72525001Y-81900000D01*
G75*
G02*
X72775000Y-82149999I0J-249999D01*
G01*
X72775000Y-83050001D01*
G75*
G02*
X72525001Y-83300000I-249999J0D01*
G01*
X71874999Y-83300000D01*
G75*
G02*
X71625000Y-83050001I0J249999D01*
G01*
G37*
%TD.AperFunction*%
%TD*%
%TO.P,D5,2*%
%TO.N,Net-(D5-Pad2)*%
%TA.AperFunction,SMDPad,CuDef*%
G36*
G01*
X91675000Y-91200001D02*
X91675000Y-90299999D01*
G75*
G02*
X91924999Y-90050000I249999J0D01*
G01*
X92575001Y-90050000D01*
G75*
G02*
X92825000Y-90299999I0J-249999D01*
G01*
X92825000Y-91200001D01*
G75*
G02*
X92575001Y-91450000I-249999J0D01*
G01*
X91924999Y-91450000D01*
G75*
G02*
X91675000Y-91200001I0J249999D01*
G01*
G37*
%TD.AperFunction*%
%TO.P,D5,1*%
%TO.N,Net-(D5-Pad1)*%
%TA.AperFunction,SMDPad,CuDef*%
G36*
G01*
X89625000Y-91200001D02*
X89625000Y-90299999D01*
G75*
G02*
X89874999Y-90050000I249999J0D01*
G01*
X90525001Y-90050000D01*
G75*
G02*
X90775000Y-90299999I0J-249999D01*
G01*
X90775000Y-91200001D01*
G75*
G02*
X90525001Y-91450000I-249999J0D01*
G01*
X89874999Y-91450000D01*
G75*
G02*
X89625000Y-91200001I0J249999D01*
G01*
G37*
%TD.AperFunction*%
%TD*%
%TO.P,D4,2*%
%TO.N,Net-(D4-Pad2)*%
%TA.AperFunction,SMDPad,CuDef*%
G36*
G01*
X91675000Y-86700001D02*
X91675000Y-85799999D01*
G75*
G02*
X91924999Y-85550000I249999J0D01*
G01*
X92575001Y-85550000D01*
G75*
G02*
X92825000Y-85799999I0J-249999D01*
G01*
X92825000Y-86700001D01*
G75*
G02*
X92575001Y-86950000I-249999J0D01*
G01*
X91924999Y-86950000D01*
G75*
G02*
X91675000Y-86700001I0J249999D01*
G01*
G37*
%TD.AperFunction*%
%TO.P,D4,1*%
%TO.N,Net-(D4-Pad1)*%
%TA.AperFunction,SMDPad,CuDef*%
G36*
G01*
X89625000Y-86700001D02*
X89625000Y-85799999D01*
G75*
G02*
X89874999Y-85550000I249999J0D01*
G01*
X90525001Y-85550000D01*
G75*
G02*
X90775000Y-85799999I0J-249999D01*
G01*
X90775000Y-86700001D01*
G75*
G02*
X90525001Y-86950000I-249999J0D01*
G01*
X89874999Y-86950000D01*
G75*
G02*
X89625000Y-86700001I0J249999D01*
G01*
G37*
%TD.AperFunction*%
%TD*%
%TO.P,C12,2*%
%TO.N,GND*%
%TA.AperFunction,SMDPad,CuDef*%
G36*
G01*
X72775000Y-84299999D02*
X72775000Y-85200001D01*
G75*
G02*
X72525001Y-85450000I-249999J0D01*
G01*
X71874999Y-85450000D01*
G75*
G02*
X71625000Y-85200001I0J249999D01*
G01*
X71625000Y-84299999D01*
G75*
G02*
X71874999Y-84050000I249999J0D01*
G01*
X72525001Y-84050000D01*
G75*
G02*
X72775000Y-84299999I0J-249999D01*
G01*
G37*
%TD.AperFunction*%
%TO.P,C12,1*%
%TO.N,+3V3*%
%TA.AperFunction,SMDPad,CuDef*%
G36*
G01*
X74825000Y-84299999D02*
X74825000Y-85200001D01*
G75*
G02*
X74575001Y-85450000I-249999J0D01*
G01*
X73924999Y-85450000D01*
G75*
G02*
X73675000Y-85200001I0J249999D01*
G01*
X73675000Y-84299999D01*
G75*
G02*
X73924999Y-84050000I249999J0D01*
G01*
X74575001Y-84050000D01*
G75*
G02*
X74825000Y-84299999I0J-249999D01*
G01*
G37*
%TD.AperFunction*%
%TD*%
%TO.P,C11,2*%
%TO.N,GND*%
%TA.AperFunction,SMDPad,CuDef*%
G36*
G01*
X59149999Y-89475000D02*
X60050001Y-89475000D01*
G75*
G02*
X60300000Y-89724999I0J-249999D01*
G01*
X60300000Y-90375001D01*
G75*
G02*
X60050001Y-90625000I-249999J0D01*
G01*
X59149999Y-90625000D01*
G75*
G02*
X58900000Y-90375001I0J249999D01*
G01*
X58900000Y-89724999D01*
G75*
G02*
X59149999Y-89475000I249999J0D01*
G01*
G37*
%TD.AperFunction*%
%TO.P,C11,1*%
%TO.N,/USB_P*%
%TA.AperFunction,SMDPad,CuDef*%
G36*
G01*
X59149999Y-87425000D02*
X60050001Y-87425000D01*
G75*
G02*
X60300000Y-87674999I0J-249999D01*
G01*
X60300000Y-88325001D01*
G75*
G02*
X60050001Y-88575000I-249999J0D01*
G01*
X59149999Y-88575000D01*
G75*
G02*
X58900000Y-88325001I0J249999D01*
G01*
X58900000Y-87674999D01*
G75*
G02*
X59149999Y-87425000I249999J0D01*
G01*
G37*
%TD.AperFunction*%
%TD*%
%TO.P,C10,2*%
%TO.N,GND*%
%TA.AperFunction,SMDPad,CuDef*%
G36*
G01*
X61249999Y-89475000D02*
X62150001Y-89475000D01*
G75*
G02*
X62400000Y-89724999I0J-249999D01*
G01*
X62400000Y-90375001D01*
G75*
G02*
X62150001Y-90625000I-249999J0D01*
G01*
X61249999Y-90625000D01*
G75*
G02*
X61000000Y-90375001I0J249999D01*
G01*
X61000000Y-89724999D01*
G75*
G02*
X61249999Y-89475000I249999J0D01*
G01*
G37*
%TD.AperFunction*%
%TO.P,C10,1*%
%TO.N,/USB_N*%
%TA.AperFunction,SMDPad,CuDef*%
G36*
G01*
X61249999Y-87425000D02*
X62150001Y-87425000D01*
G75*
G02*
X62400000Y-87674999I0J-249999D01*
G01*
X62400000Y-88325001D01*
G75*
G02*
X62150001Y-88575000I-249999J0D01*
G01*
X61249999Y-88575000D01*
G75*
G02*
X61000000Y-88325001I0J249999D01*
G01*
X61000000Y-87674999D01*
G75*
G02*
X61249999Y-87425000I249999J0D01*
G01*
G37*
%TD.AperFunction*%
%TD*%
%TO.P,C9,2*%
%TO.N,GND*%
%TA.AperFunction,SMDPad,CuDef*%
G36*
G01*
X57950001Y-83025000D02*
X57049999Y-83025000D01*
G75*
G02*
X56800000Y-82775001I0J249999D01*
G01*
X56800000Y-82124999D01*
G75*
G02*
X57049999Y-81875000I249999J0D01*
G01*
X57950001Y-81875000D01*
G75*
G02*
X58200000Y-82124999I0J-249999D01*
G01*
X58200000Y-82775001D01*
G75*
G02*
X57950001Y-83025000I-249999J0D01*
G01*
G37*
%TD.AperFunction*%
%TO.P,C9,1*%
%TO.N,Net-(C9-Pad1)*%
%TA.AperFunction,SMDPad,CuDef*%
G36*
G01*
X57950001Y-85075000D02*
X57049999Y-85075000D01*
G75*
G02*
X56800000Y-84825001I0J249999D01*
G01*
X56800000Y-84174999D01*
G75*
G02*
X57049999Y-83925000I249999J0D01*
G01*
X57950001Y-83925000D01*
G75*
G02*
X58200000Y-84174999I0J-249999D01*
G01*
X58200000Y-84825001D01*
G75*
G02*
X57950001Y-85075000I-249999J0D01*
G01*
G37*
%TD.AperFunction*%
%TD*%
%TO.P,C8,2*%
%TO.N,GND*%
%TA.AperFunction,SMDPad,CuDef*%
G36*
G01*
X67325000Y-70349999D02*
X67325000Y-71250001D01*
G75*
G02*
X67075001Y-71500000I-249999J0D01*
G01*
X66424999Y-71500000D01*
G75*
G02*
X66175000Y-71250001I0J249999D01*
G01*
X66175000Y-70349999D01*
G75*
G02*
X66424999Y-70100000I249999J0D01*
G01*
X67075001Y-70100000D01*
G75*
G02*
X67325000Y-70349999I0J-249999D01*
G01*
G37*
%TD.AperFunction*%
%TO.P,C8,1*%
%TO.N,Net-(C8-Pad1)*%
%TA.AperFunction,SMDPad,CuDef*%
G36*
G01*
X69375000Y-70349999D02*
X69375000Y-71250001D01*
G75*
G02*
X69125001Y-71500000I-249999J0D01*
G01*
X68474999Y-71500000D01*
G75*
G02*
X68225000Y-71250001I0J249999D01*
G01*
X68225000Y-70349999D01*
G75*
G02*
X68474999Y-70100000I249999J0D01*
G01*
X69125001Y-70100000D01*
G75*
G02*
X69375000Y-70349999I0J-249999D01*
G01*
G37*
%TD.AperFunction*%
%TD*%
%TO.P,C7,2*%
%TO.N,GND*%
%TA.AperFunction,SMDPad,CuDef*%
G36*
G01*
X67325000Y-78749999D02*
X67325000Y-79650001D01*
G75*
G02*
X67075001Y-79900000I-249999J0D01*
G01*
X66424999Y-79900000D01*
G75*
G02*
X66175000Y-79650001I0J249999D01*
G01*
X66175000Y-78749999D01*
G75*
G02*
X66424999Y-78500000I249999J0D01*
G01*
X67075001Y-78500000D01*
G75*
G02*
X67325000Y-78749999I0J-249999D01*
G01*
G37*
%TD.AperFunction*%
%TO.P,C7,1*%
%TO.N,Net-(C7-Pad1)*%
%TA.AperFunction,SMDPad,CuDef*%
G36*
G01*
X69375000Y-78749999D02*
X69375000Y-79650001D01*
G75*
G02*
X69125001Y-79900000I-249999J0D01*
G01*
X68474999Y-79900000D01*
G75*
G02*
X68225000Y-79650001I0J249999D01*
G01*
X68225000Y-78749999D01*
G75*
G02*
X68474999Y-78500000I249999J0D01*
G01*
X69125001Y-78500000D01*
G75*
G02*
X69375000Y-78749999I0J-249999D01*
G01*
G37*
%TD.AperFunction*%
%TD*%
%TO.P,C5,2*%
%TO.N,GND*%
%TA.AperFunction,SMDPad,CuDef*%
G36*
G01*
X88250000Y-76075000D02*
X88250000Y-77925000D01*
G75*
G02*
X88000000Y-78175000I-250000J0D01*
G01*
X87000000Y-78175000D01*
G75*
G02*
X86750000Y-77925000I0J250000D01*
G01*
X86750000Y-76075000D01*
G75*
G02*
X87000000Y-75825000I250000J0D01*
G01*
X88000000Y-75825000D01*
G75*
G02*
X88250000Y-76075000I0J-250000D01*
G01*
G37*
%TD.AperFunction*%
%TO.P,C5,1*%
%TO.N,+3V3*%
%TA.AperFunction,SMDPad,CuDef*%
G36*
G01*
X91500000Y-76075000D02*
X91500000Y-77925000D01*
G75*
G02*
X91250000Y-78175000I-250000J0D01*
G01*
X90250000Y-78175000D01*
G75*
G02*
X90000000Y-77925000I0J250000D01*
G01*
X90000000Y-76075000D01*
G75*
G02*
X90250000Y-75825000I250000J0D01*
G01*
X91250000Y-75825000D01*
G75*
G02*
X91500000Y-76075000I0J-250000D01*
G01*
G37*
%TD.AperFunction*%
%TD*%
%TO.P,C4,2*%
%TO.N,GND*%
%TA.AperFunction,SMDPad,CuDef*%
G36*
G01*
X89275000Y-73549999D02*
X89275000Y-74450001D01*
G75*
G02*
X89025001Y-74700000I-249999J0D01*
G01*
X88374999Y-74700000D01*
G75*
G02*
X88125000Y-74450001I0J249999D01*
G01*
X88125000Y-73549999D01*
G75*
G02*
X88374999Y-73300000I249999J0D01*
G01*
X89025001Y-73300000D01*
G75*
G02*
X89275000Y-73549999I0J-249999D01*
G01*
G37*
%TD.AperFunction*%
%TO.P,C4,1*%
%TO.N,+3V3*%
%TA.AperFunction,SMDPad,CuDef*%
G36*
G01*
X91325000Y-73549999D02*
X91325000Y-74450001D01*
G75*
G02*
X91075001Y-74700000I-249999J0D01*
G01*
X90424999Y-74700000D01*
G75*
G02*
X90175000Y-74450001I0J249999D01*
G01*
X90175000Y-73549999D01*
G75*
G02*
X90424999Y-73300000I249999J0D01*
G01*
X91075001Y-73300000D01*
G75*
G02*
X91325000Y-73549999I0J-249999D01*
G01*
G37*
%TD.AperFunction*%
%TD*%
D11*
%TO.P,H4,1*%
%TO.N,N/C*%
X90000000Y-98000000D03*
%TD*%
%TO.P,H3,1*%
%TO.N,N/C*%
X90000000Y-54000000D03*
%TD*%
%TO.P,H2,1*%
%TO.N,N/C*%
X54000000Y-98000000D03*
%TD*%
%TO.P,H1,1*%
%TO.N,N/C*%
X54000000Y-54000000D03*
%TD*%
D12*
%TO.P,Y1,4*%
%TO.N,Net-(C7-Pad1)*%
X68800000Y-76600000D03*
%TO.P,Y1,3*%
%TO.N,Net-(Y1-Pad3)*%
X63300000Y-76600000D03*
%TO.P,Y1,2*%
%TO.N,Net-(Y1-Pad2)*%
X63300000Y-73400000D03*
%TO.P,Y1,1*%
%TO.N,Net-(C8-Pad1)*%
X68800000Y-73400000D03*
%TD*%
D13*
%TO.P,SW1,2*%
%TO.N,GND*%
X69430000Y-52700000D03*
%TO.P,SW1,1*%
%TO.N,/NRST*%
X60250000Y-52700000D03*
%TD*%
%TO.P,R7,2*%
%TO.N,Net-(D2-Pad2)*%
%TA.AperFunction,SMDPad,CuDef*%
G36*
G01*
X75200001Y-52025000D02*
X74299999Y-52025000D01*
G75*
G02*
X74050000Y-51775001I0J249999D01*
G01*
X74050000Y-51124999D01*
G75*
G02*
X74299999Y-50875000I249999J0D01*
G01*
X75200001Y-50875000D01*
G75*
G02*
X75450000Y-51124999I0J-249999D01*
G01*
X75450000Y-51775001D01*
G75*
G02*
X75200001Y-52025000I-249999J0D01*
G01*
G37*
%TD.AperFunction*%
%TO.P,R7,1*%
%TO.N,+3V3*%
%TA.AperFunction,SMDPad,CuDef*%
G36*
G01*
X75200001Y-54075000D02*
X74299999Y-54075000D01*
G75*
G02*
X74050000Y-53825001I0J249999D01*
G01*
X74050000Y-53174999D01*
G75*
G02*
X74299999Y-52925000I249999J0D01*
G01*
X75200001Y-52925000D01*
G75*
G02*
X75450000Y-53174999I0J-249999D01*
G01*
X75450000Y-53825001D01*
G75*
G02*
X75200001Y-54075000I-249999J0D01*
G01*
G37*
%TD.AperFunction*%
%TD*%
%TO.P,J2,MP*%
%TO.N,N/C*%
%TA.AperFunction,SMDPad,CuDef*%
G36*
G01*
X83550000Y-100550000D02*
X83550000Y-98050000D01*
G75*
G02*
X83800000Y-97800000I250000J0D01*
G01*
X85400000Y-97800000D01*
G75*
G02*
X85650000Y-98050000I0J-250000D01*
G01*
X85650000Y-100550000D01*
G75*
G02*
X85400000Y-100800000I-250000J0D01*
G01*
X83800000Y-100800000D01*
G75*
G02*
X83550000Y-100550000I0J250000D01*
G01*
G37*
%TD.AperFunction*%
%TA.AperFunction,SMDPad,CuDef*%
G36*
G01*
X69700000Y-100550000D02*
X69700000Y-98050000D01*
G75*
G02*
X69950000Y-97800000I250000J0D01*
G01*
X71550000Y-97800000D01*
G75*
G02*
X71800000Y-98050000I0J-250000D01*
G01*
X71800000Y-100550000D01*
G75*
G02*
X71550000Y-100800000I-250000J0D01*
G01*
X69950000Y-100800000D01*
G75*
G02*
X69700000Y-100550000I0J250000D01*
G01*
G37*
%TD.AperFunction*%
%TO.P,J2,8*%
%TO.N,+5V*%
%TA.AperFunction,SMDPad,CuDef*%
G36*
G01*
X81650000Y-97000000D02*
X81650000Y-95800000D01*
G75*
G02*
X81850000Y-95600000I200000J0D01*
G01*
X82250000Y-95600000D01*
G75*
G02*
X82450000Y-95800000I0J-200000D01*
G01*
X82450000Y-97000000D01*
G75*
G02*
X82250000Y-97200000I-200000J0D01*
G01*
X81850000Y-97200000D01*
G75*
G02*
X81650000Y-97000000I0J200000D01*
G01*
G37*
%TD.AperFunction*%
%TO.P,J2,7*%
%TO.N,GND*%
%TA.AperFunction,SMDPad,CuDef*%
G36*
G01*
X80400000Y-97000000D02*
X80400000Y-95800000D01*
G75*
G02*
X80600000Y-95600000I200000J0D01*
G01*
X81000000Y-95600000D01*
G75*
G02*
X81200000Y-95800000I0J-200000D01*
G01*
X81200000Y-97000000D01*
G75*
G02*
X81000000Y-97200000I-200000J0D01*
G01*
X80600000Y-97200000D01*
G75*
G02*
X80400000Y-97000000I0J200000D01*
G01*
G37*
%TD.AperFunction*%
%TO.P,J2,6*%
%TO.N,/SENSOR_SET*%
%TA.AperFunction,SMDPad,CuDef*%
G36*
G01*
X79150000Y-97000000D02*
X79150000Y-95800000D01*
G75*
G02*
X79350000Y-95600000I200000J0D01*
G01*
X79750000Y-95600000D01*
G75*
G02*
X79950000Y-95800000I0J-200000D01*
G01*
X79950000Y-97000000D01*
G75*
G02*
X79750000Y-97200000I-200000J0D01*
G01*
X79350000Y-97200000D01*
G75*
G02*
X79150000Y-97000000I0J200000D01*
G01*
G37*
%TD.AperFunction*%
%TO.P,J2,5*%
%TO.N,/SENSOR_RXD*%
%TA.AperFunction,SMDPad,CuDef*%
G36*
G01*
X77900000Y-97000000D02*
X77900000Y-95800000D01*
G75*
G02*
X78100000Y-95600000I200000J0D01*
G01*
X78500000Y-95600000D01*
G75*
G02*
X78700000Y-95800000I0J-200000D01*
G01*
X78700000Y-97000000D01*
G75*
G02*
X78500000Y-97200000I-200000J0D01*
G01*
X78100000Y-97200000D01*
G75*
G02*
X77900000Y-97000000I0J200000D01*
G01*
G37*
%TD.AperFunction*%
%TO.P,J2,4*%
%TO.N,/SENSOR_TXD*%
%TA.AperFunction,SMDPad,CuDef*%
G36*
G01*
X76650000Y-97000000D02*
X76650000Y-95800000D01*
G75*
G02*
X76850000Y-95600000I200000J0D01*
G01*
X77250000Y-95600000D01*
G75*
G02*
X77450000Y-95800000I0J-200000D01*
G01*
X77450000Y-97000000D01*
G75*
G02*
X77250000Y-97200000I-200000J0D01*
G01*
X76850000Y-97200000D01*
G75*
G02*
X76650000Y-97000000I0J200000D01*
G01*
G37*
%TD.AperFunction*%
%TO.P,J2,3*%
%TO.N,/SENSOR_RESET*%
%TA.AperFunction,SMDPad,CuDef*%
G36*
G01*
X75400000Y-97000000D02*
X75400000Y-95800000D01*
G75*
G02*
X75600000Y-95600000I200000J0D01*
G01*
X76000000Y-95600000D01*
G75*
G02*
X76200000Y-95800000I0J-200000D01*
G01*
X76200000Y-97000000D01*
G75*
G02*
X76000000Y-97200000I-200000J0D01*
G01*
X75600000Y-97200000D01*
G75*
G02*
X75400000Y-97000000I0J200000D01*
G01*
G37*
%TD.AperFunction*%
%TO.P,J2,2*%
%TO.N,Net-(J2-Pad2)*%
%TA.AperFunction,SMDPad,CuDef*%
G36*
G01*
X74150000Y-97000000D02*
X74150000Y-95800000D01*
G75*
G02*
X74350000Y-95600000I200000J0D01*
G01*
X74750000Y-95600000D01*
G75*
G02*
X74950000Y-95800000I0J-200000D01*
G01*
X74950000Y-97000000D01*
G75*
G02*
X74750000Y-97200000I-200000J0D01*
G01*
X74350000Y-97200000D01*
G75*
G02*
X74150000Y-97000000I0J200000D01*
G01*
G37*
%TD.AperFunction*%
%TO.P,J2,1*%
%TO.N,Net-(J2-Pad1)*%
%TA.AperFunction,SMDPad,CuDef*%
G36*
G01*
X72900000Y-97000000D02*
X72900000Y-95800000D01*
G75*
G02*
X73100000Y-95600000I200000J0D01*
G01*
X73500000Y-95600000D01*
G75*
G02*
X73700000Y-95800000I0J-200000D01*
G01*
X73700000Y-97000000D01*
G75*
G02*
X73500000Y-97200000I-200000J0D01*
G01*
X73100000Y-97200000D01*
G75*
G02*
X72900000Y-97000000I0J200000D01*
G01*
G37*
%TD.AperFunction*%
%TD*%
D14*
%TO.P,J1,6*%
%TO.N,GND*%
X51400000Y-86550000D03*
D15*
X51400000Y-83850000D03*
D16*
X51400000Y-88375000D03*
X51400000Y-81625000D03*
D17*
X53975000Y-87487500D03*
X53975000Y-82512500D03*
D18*
%TO.P,J1,5*%
X54060000Y-86300000D03*
%TO.P,J1,4*%
%TO.N,Net-(J1-Pad4)*%
X54060000Y-85650000D03*
%TO.P,J1,3*%
%TO.N,/USB_P*%
X54060000Y-85000000D03*
%TO.P,J1,2*%
%TO.N,/USB_N*%
X54060000Y-84350000D03*
%TO.P,J1,1*%
%TO.N,Net-(C9-Pad1)*%
X54060000Y-83700000D03*
%TD*%
%TO.P,C6,2*%
%TO.N,GND*%
%TA.AperFunction,SMDPad,CuDef*%
G36*
G01*
X61725000Y-56950001D02*
X61725000Y-56049999D01*
G75*
G02*
X61974999Y-55800000I249999J0D01*
G01*
X62625001Y-55800000D01*
G75*
G02*
X62875000Y-56049999I0J-249999D01*
G01*
X62875000Y-56950001D01*
G75*
G02*
X62625001Y-57200000I-249999J0D01*
G01*
X61974999Y-57200000D01*
G75*
G02*
X61725000Y-56950001I0J249999D01*
G01*
G37*
%TD.AperFunction*%
%TO.P,C6,1*%
%TO.N,/NRST*%
%TA.AperFunction,SMDPad,CuDef*%
G36*
G01*
X59675000Y-56950001D02*
X59675000Y-56049999D01*
G75*
G02*
X59924999Y-55800000I249999J0D01*
G01*
X60575001Y-55800000D01*
G75*
G02*
X60825000Y-56049999I0J-249999D01*
G01*
X60825000Y-56950001D01*
G75*
G02*
X60575001Y-57200000I-249999J0D01*
G01*
X59924999Y-57200000D01*
G75*
G02*
X59675000Y-56950001I0J249999D01*
G01*
G37*
%TD.AperFunction*%
%TD*%
%TO.P,C1,2*%
%TO.N,GND*%
%TA.AperFunction,SMDPad,CuDef*%
G36*
G01*
X61125000Y-84712500D02*
X62375000Y-84712500D01*
G75*
G02*
X62625000Y-84962500I0J-250000D01*
G01*
X62625000Y-85887500D01*
G75*
G02*
X62375000Y-86137500I-250000J0D01*
G01*
X61125000Y-86137500D01*
G75*
G02*
X60875000Y-85887500I0J250000D01*
G01*
X60875000Y-84962500D01*
G75*
G02*
X61125000Y-84712500I250000J0D01*
G01*
G37*
%TD.AperFunction*%
%TO.P,C1,1*%
%TO.N,+5V*%
%TA.AperFunction,SMDPad,CuDef*%
G36*
G01*
X61125000Y-81737500D02*
X62375000Y-81737500D01*
G75*
G02*
X62625000Y-81987500I0J-250000D01*
G01*
X62625000Y-82912500D01*
G75*
G02*
X62375000Y-83162500I-250000J0D01*
G01*
X61125000Y-83162500D01*
G75*
G02*
X60875000Y-82912500I0J250000D01*
G01*
X60875000Y-81987500D01*
G75*
G02*
X61125000Y-81737500I250000J0D01*
G01*
G37*
%TD.AperFunction*%
%TD*%
%TO.P,C2,1*%
%TO.N,+3V3*%
%TA.AperFunction,SMDPad,CuDef*%
G36*
G01*
X68375000Y-83037500D02*
X69625000Y-83037500D01*
G75*
G02*
X69875000Y-83287500I0J-250000D01*
G01*
X69875000Y-84212500D01*
G75*
G02*
X69625000Y-84462500I-250000J0D01*
G01*
X68375000Y-84462500D01*
G75*
G02*
X68125000Y-84212500I0J250000D01*
G01*
X68125000Y-83287500D01*
G75*
G02*
X68375000Y-83037500I250000J0D01*
G01*
G37*
%TD.AperFunction*%
%TO.P,C2,2*%
%TO.N,GND*%
%TA.AperFunction,SMDPad,CuDef*%
G36*
G01*
X68375000Y-86012500D02*
X69625000Y-86012500D01*
G75*
G02*
X69875000Y-86262500I0J-250000D01*
G01*
X69875000Y-87187500D01*
G75*
G02*
X69625000Y-87437500I-250000J0D01*
G01*
X68375000Y-87437500D01*
G75*
G02*
X68125000Y-87187500I0J250000D01*
G01*
X68125000Y-86262500D01*
G75*
G02*
X68375000Y-86012500I250000J0D01*
G01*
G37*
%TD.AperFunction*%
%TD*%
%TO.P,C3,1*%
%TO.N,+3V3*%
%TA.AperFunction,SMDPad,CuDef*%
G36*
G01*
X70525000Y-71250001D02*
X70525000Y-70349999D01*
G75*
G02*
X70774999Y-70100000I249999J0D01*
G01*
X71425001Y-70100000D01*
G75*
G02*
X71675000Y-70349999I0J-249999D01*
G01*
X71675000Y-71250001D01*
G75*
G02*
X71425001Y-71500000I-249999J0D01*
G01*
X70774999Y-71500000D01*
G75*
G02*
X70525000Y-71250001I0J249999D01*
G01*
G37*
%TD.AperFunction*%
%TO.P,C3,2*%
%TO.N,GND*%
%TA.AperFunction,SMDPad,CuDef*%
G36*
G01*
X72575000Y-71250001D02*
X72575000Y-70349999D01*
G75*
G02*
X72824999Y-70100000I249999J0D01*
G01*
X73475001Y-70100000D01*
G75*
G02*
X73725000Y-70349999I0J-249999D01*
G01*
X73725000Y-71250001D01*
G75*
G02*
X73475001Y-71500000I-249999J0D01*
G01*
X72824999Y-71500000D01*
G75*
G02*
X72575000Y-71250001I0J249999D01*
G01*
G37*
%TD.AperFunction*%
%TD*%
%TO.P,D1,1*%
%TO.N,Net-(D1-Pad1)*%
%TA.AperFunction,SMDPad,CuDef*%
G36*
G01*
X78799999Y-50875000D02*
X79700001Y-50875000D01*
G75*
G02*
X79950000Y-51124999I0J-249999D01*
G01*
X79950000Y-51775001D01*
G75*
G02*
X79700001Y-52025000I-249999J0D01*
G01*
X78799999Y-52025000D01*
G75*
G02*
X78550000Y-51775001I0J249999D01*
G01*
X78550000Y-51124999D01*
G75*
G02*
X78799999Y-50875000I249999J0D01*
G01*
G37*
%TD.AperFunction*%
%TO.P,D1,2*%
%TO.N,+3V3*%
%TA.AperFunction,SMDPad,CuDef*%
G36*
G01*
X78799999Y-52925000D02*
X79700001Y-52925000D01*
G75*
G02*
X79950000Y-53174999I0J-249999D01*
G01*
X79950000Y-53825001D01*
G75*
G02*
X79700001Y-54075000I-249999J0D01*
G01*
X78799999Y-54075000D01*
G75*
G02*
X78550000Y-53825001I0J249999D01*
G01*
X78550000Y-53174999D01*
G75*
G02*
X78799999Y-52925000I249999J0D01*
G01*
G37*
%TD.AperFunction*%
%TD*%
%TO.P,D2,1*%
%TO.N,Net-(D2-Pad1)*%
%TA.AperFunction,SMDPad,CuDef*%
G36*
G01*
X72950001Y-54075000D02*
X72049999Y-54075000D01*
G75*
G02*
X71800000Y-53825001I0J249999D01*
G01*
X71800000Y-53174999D01*
G75*
G02*
X72049999Y-52925000I249999J0D01*
G01*
X72950001Y-52925000D01*
G75*
G02*
X73200000Y-53174999I0J-249999D01*
G01*
X73200000Y-53825001D01*
G75*
G02*
X72950001Y-54075000I-249999J0D01*
G01*
G37*
%TD.AperFunction*%
%TO.P,D2,2*%
%TO.N,Net-(D2-Pad2)*%
%TA.AperFunction,SMDPad,CuDef*%
G36*
G01*
X72950001Y-52025000D02*
X72049999Y-52025000D01*
G75*
G02*
X71800000Y-51775001I0J249999D01*
G01*
X71800000Y-51124999D01*
G75*
G02*
X72049999Y-50875000I249999J0D01*
G01*
X72950001Y-50875000D01*
G75*
G02*
X73200000Y-51124999I0J-249999D01*
G01*
X73200000Y-51775001D01*
G75*
G02*
X72950001Y-52025000I-249999J0D01*
G01*
G37*
%TD.AperFunction*%
%TD*%
%TO.P,D3,2*%
%TO.N,Net-(D3-Pad2)*%
%TA.AperFunction,SMDPad,CuDef*%
G36*
G01*
X91675000Y-84450001D02*
X91675000Y-83549999D01*
G75*
G02*
X91924999Y-83300000I249999J0D01*
G01*
X92575001Y-83300000D01*
G75*
G02*
X92825000Y-83549999I0J-249999D01*
G01*
X92825000Y-84450001D01*
G75*
G02*
X92575001Y-84700000I-249999J0D01*
G01*
X91924999Y-84700000D01*
G75*
G02*
X91675000Y-84450001I0J249999D01*
G01*
G37*
%TD.AperFunction*%
%TO.P,D3,1*%
%TO.N,Net-(D3-Pad1)*%
%TA.AperFunction,SMDPad,CuDef*%
G36*
G01*
X89625000Y-84450001D02*
X89625000Y-83549999D01*
G75*
G02*
X89874999Y-83300000I249999J0D01*
G01*
X90525001Y-83300000D01*
G75*
G02*
X90775000Y-83549999I0J-249999D01*
G01*
X90775000Y-84450001D01*
G75*
G02*
X90525001Y-84700000I-249999J0D01*
G01*
X89874999Y-84700000D01*
G75*
G02*
X89625000Y-84450001I0J249999D01*
G01*
G37*
%TD.AperFunction*%
%TD*%
D19*
%TO.P,J3,6*%
%TO.N,Net-(J3-Pad6)*%
X57800000Y-61500000D03*
%TO.P,J3,5*%
%TO.N,/NRST*%
X57800000Y-64040000D03*
%TO.P,J3,4*%
%TO.N,/SWDIO*%
X57800000Y-66580000D03*
%TO.P,J3,3*%
%TO.N,GND*%
X57800000Y-69120000D03*
%TO.P,J3,2*%
%TO.N,/SWCLK*%
X57800000Y-71660000D03*
D20*
%TO.P,J3,1*%
%TO.N,+3V3*%
X57800000Y-74200000D03*
%TD*%
%TO.P,L1,1*%
%TO.N,Net-(C9-Pad1)*%
%TA.AperFunction,SMDPad,CuDef*%
G36*
G01*
X59950001Y-85075000D02*
X59049999Y-85075000D01*
G75*
G02*
X58800000Y-84825001I0J249999D01*
G01*
X58800000Y-84174999D01*
G75*
G02*
X59049999Y-83925000I249999J0D01*
G01*
X59950001Y-83925000D01*
G75*
G02*
X60200000Y-84174999I0J-249999D01*
G01*
X60200000Y-84825001D01*
G75*
G02*
X59950001Y-85075000I-249999J0D01*
G01*
G37*
%TD.AperFunction*%
%TO.P,L1,2*%
%TO.N,+5V*%
%TA.AperFunction,SMDPad,CuDef*%
G36*
G01*
X59950001Y-83025000D02*
X59049999Y-83025000D01*
G75*
G02*
X58800000Y-82775001I0J249999D01*
G01*
X58800000Y-82124999D01*
G75*
G02*
X59049999Y-81875000I249999J0D01*
G01*
X59950001Y-81875000D01*
G75*
G02*
X60200000Y-82124999I0J-249999D01*
G01*
X60200000Y-82775001D01*
G75*
G02*
X59950001Y-83025000I-249999J0D01*
G01*
G37*
%TD.AperFunction*%
%TD*%
%TO.P,R1,2*%
%TO.N,Net-(J1-Pad4)*%
%TA.AperFunction,SMDPad,CuDef*%
G36*
G01*
X55475000Y-91850001D02*
X55475000Y-90949999D01*
G75*
G02*
X55724999Y-90700000I249999J0D01*
G01*
X56375001Y-90700000D01*
G75*
G02*
X56625000Y-90949999I0J-249999D01*
G01*
X56625000Y-91850001D01*
G75*
G02*
X56375001Y-92100000I-249999J0D01*
G01*
X55724999Y-92100000D01*
G75*
G02*
X55475000Y-91850001I0J249999D01*
G01*
G37*
%TD.AperFunction*%
%TO.P,R1,1*%
%TO.N,GND*%
%TA.AperFunction,SMDPad,CuDef*%
G36*
G01*
X53425000Y-91850001D02*
X53425000Y-90949999D01*
G75*
G02*
X53674999Y-90700000I249999J0D01*
G01*
X54325001Y-90700000D01*
G75*
G02*
X54575000Y-90949999I0J-249999D01*
G01*
X54575000Y-91850001D01*
G75*
G02*
X54325001Y-92100000I-249999J0D01*
G01*
X53674999Y-92100000D01*
G75*
G02*
X53425000Y-91850001I0J249999D01*
G01*
G37*
%TD.AperFunction*%
%TD*%
%TO.P,R3,2*%
%TO.N,/USB_P*%
%TA.AperFunction,SMDPad,CuDef*%
G36*
G01*
X58050001Y-87525000D02*
X57149999Y-87525000D01*
G75*
G02*
X56900000Y-87275001I0J249999D01*
G01*
X56900000Y-86624999D01*
G75*
G02*
X57149999Y-86375000I249999J0D01*
G01*
X58050001Y-86375000D01*
G75*
G02*
X58300000Y-86624999I0J-249999D01*
G01*
X58300000Y-87275001D01*
G75*
G02*
X58050001Y-87525000I-249999J0D01*
G01*
G37*
%TD.AperFunction*%
%TO.P,R3,1*%
%TO.N,/USBDP*%
%TA.AperFunction,SMDPad,CuDef*%
G36*
G01*
X58050001Y-89575000D02*
X57149999Y-89575000D01*
G75*
G02*
X56900000Y-89325001I0J249999D01*
G01*
X56900000Y-88674999D01*
G75*
G02*
X57149999Y-88425000I249999J0D01*
G01*
X58050001Y-88425000D01*
G75*
G02*
X58300000Y-88674999I0J-249999D01*
G01*
X58300000Y-89325001D01*
G75*
G02*
X58050001Y-89575000I-249999J0D01*
G01*
G37*
%TD.AperFunction*%
%TD*%
%TO.P,R4,1*%
%TO.N,/USBDM*%
%TA.AperFunction,SMDPad,CuDef*%
G36*
G01*
X64250001Y-90625000D02*
X63349999Y-90625000D01*
G75*
G02*
X63100000Y-90375001I0J249999D01*
G01*
X63100000Y-89724999D01*
G75*
G02*
X63349999Y-89475000I249999J0D01*
G01*
X64250001Y-89475000D01*
G75*
G02*
X64500000Y-89724999I0J-249999D01*
G01*
X64500000Y-90375001D01*
G75*
G02*
X64250001Y-90625000I-249999J0D01*
G01*
G37*
%TD.AperFunction*%
%TO.P,R4,2*%
%TO.N,/USB_N*%
%TA.AperFunction,SMDPad,CuDef*%
G36*
G01*
X64250001Y-88575000D02*
X63349999Y-88575000D01*
G75*
G02*
X63100000Y-88325001I0J249999D01*
G01*
X63100000Y-87674999D01*
G75*
G02*
X63349999Y-87425000I249999J0D01*
G01*
X64250001Y-87425000D01*
G75*
G02*
X64500000Y-87674999I0J-249999D01*
G01*
X64500000Y-88325001D01*
G75*
G02*
X64250001Y-88575000I-249999J0D01*
G01*
G37*
%TD.AperFunction*%
%TD*%
%TO.P,R5,2*%
%TO.N,GND*%
%TA.AperFunction,SMDPad,CuDef*%
G36*
G01*
X76549999Y-52925000D02*
X77450001Y-52925000D01*
G75*
G02*
X77700000Y-53174999I0J-249999D01*
G01*
X77700000Y-53825001D01*
G75*
G02*
X77450001Y-54075000I-249999J0D01*
G01*
X76549999Y-54075000D01*
G75*
G02*
X76300000Y-53825001I0J249999D01*
G01*
X76300000Y-53174999D01*
G75*
G02*
X76549999Y-52925000I249999J0D01*
G01*
G37*
%TD.AperFunction*%
%TO.P,R5,1*%
%TO.N,Net-(D1-Pad1)*%
%TA.AperFunction,SMDPad,CuDef*%
G36*
G01*
X76549999Y-50875000D02*
X77450001Y-50875000D01*
G75*
G02*
X77700000Y-51124999I0J-249999D01*
G01*
X77700000Y-51775001D01*
G75*
G02*
X77450001Y-52025000I-249999J0D01*
G01*
X76549999Y-52025000D01*
G75*
G02*
X76300000Y-51775001I0J249999D01*
G01*
X76300000Y-51124999D01*
G75*
G02*
X76549999Y-50875000I249999J0D01*
G01*
G37*
%TD.AperFunction*%
%TD*%
%TO.P,R6,2*%
%TO.N,Net-(D3-Pad2)*%
%TA.AperFunction,SMDPad,CuDef*%
G36*
G01*
X91675000Y-82200001D02*
X91675000Y-81299999D01*
G75*
G02*
X91924999Y-81050000I249999J0D01*
G01*
X92575001Y-81050000D01*
G75*
G02*
X92825000Y-81299999I0J-249999D01*
G01*
X92825000Y-82200001D01*
G75*
G02*
X92575001Y-82450000I-249999J0D01*
G01*
X91924999Y-82450000D01*
G75*
G02*
X91675000Y-82200001I0J249999D01*
G01*
G37*
%TD.AperFunction*%
%TO.P,R6,1*%
%TO.N,+3V3*%
%TA.AperFunction,SMDPad,CuDef*%
G36*
G01*
X89625000Y-82200001D02*
X89625000Y-81299999D01*
G75*
G02*
X89874999Y-81050000I249999J0D01*
G01*
X90525001Y-81050000D01*
G75*
G02*
X90775000Y-81299999I0J-249999D01*
G01*
X90775000Y-82200001D01*
G75*
G02*
X90525001Y-82450000I-249999J0D01*
G01*
X89874999Y-82450000D01*
G75*
G02*
X89625000Y-82200001I0J249999D01*
G01*
G37*
%TD.AperFunction*%
%TD*%
D21*
%TO.P,U1,1*%
%TO.N,GND*%
X65000000Y-85425000D03*
%TO.P,U1,2*%
%TO.N,+3V3*%
X66900000Y-85425000D03*
%TO.P,U1,3*%
%TO.N,+5V*%
X65950000Y-83425000D03*
%TD*%
%TO.P,U2,1*%
%TO.N,Net-(U2-Pad1)*%
%TA.AperFunction,SMDPad,CuDef*%
G36*
G01*
X68825000Y-68925000D02*
X68575000Y-68925000D01*
G75*
G02*
X68450000Y-68800000I0J125000D01*
G01*
X68450000Y-67550000D01*
G75*
G02*
X68575000Y-67425000I125000J0D01*
G01*
X68825000Y-67425000D01*
G75*
G02*
X68950000Y-67550000I0J-125000D01*
G01*
X68950000Y-68800000D01*
G75*
G02*
X68825000Y-68925000I-125000J0D01*
G01*
G37*
%TD.AperFunction*%
%TO.P,U2,2*%
%TO.N,Net-(C8-Pad1)*%
%TA.AperFunction,SMDPad,CuDef*%
G36*
G01*
X69625000Y-68925000D02*
X69375000Y-68925000D01*
G75*
G02*
X69250000Y-68800000I0J125000D01*
G01*
X69250000Y-67550000D01*
G75*
G02*
X69375000Y-67425000I125000J0D01*
G01*
X69625000Y-67425000D01*
G75*
G02*
X69750000Y-67550000I0J-125000D01*
G01*
X69750000Y-68800000D01*
G75*
G02*
X69625000Y-68925000I-125000J0D01*
G01*
G37*
%TD.AperFunction*%
%TO.P,U2,3*%
%TO.N,Net-(C7-Pad1)*%
%TA.AperFunction,SMDPad,CuDef*%
G36*
G01*
X70425000Y-68925000D02*
X70175000Y-68925000D01*
G75*
G02*
X70050000Y-68800000I0J125000D01*
G01*
X70050000Y-67550000D01*
G75*
G02*
X70175000Y-67425000I125000J0D01*
G01*
X70425000Y-67425000D01*
G75*
G02*
X70550000Y-67550000I0J-125000D01*
G01*
X70550000Y-68800000D01*
G75*
G02*
X70425000Y-68925000I-125000J0D01*
G01*
G37*
%TD.AperFunction*%
%TO.P,U2,4*%
%TO.N,+3V3*%
%TA.AperFunction,SMDPad,CuDef*%
G36*
G01*
X71225000Y-68925000D02*
X70975000Y-68925000D01*
G75*
G02*
X70850000Y-68800000I0J125000D01*
G01*
X70850000Y-67550000D01*
G75*
G02*
X70975000Y-67425000I125000J0D01*
G01*
X71225000Y-67425000D01*
G75*
G02*
X71350000Y-67550000I0J-125000D01*
G01*
X71350000Y-68800000D01*
G75*
G02*
X71225000Y-68925000I-125000J0D01*
G01*
G37*
%TD.AperFunction*%
%TO.P,U2,5*%
%TO.N,GND*%
%TA.AperFunction,SMDPad,CuDef*%
G36*
G01*
X72025000Y-68925000D02*
X71775000Y-68925000D01*
G75*
G02*
X71650000Y-68800000I0J125000D01*
G01*
X71650000Y-67550000D01*
G75*
G02*
X71775000Y-67425000I125000J0D01*
G01*
X72025000Y-67425000D01*
G75*
G02*
X72150000Y-67550000I0J-125000D01*
G01*
X72150000Y-68800000D01*
G75*
G02*
X72025000Y-68925000I-125000J0D01*
G01*
G37*
%TD.AperFunction*%
%TO.P,U2,6*%
%TO.N,/NRST*%
%TA.AperFunction,SMDPad,CuDef*%
G36*
G01*
X72825000Y-68925000D02*
X72575000Y-68925000D01*
G75*
G02*
X72450000Y-68800000I0J125000D01*
G01*
X72450000Y-67550000D01*
G75*
G02*
X72575000Y-67425000I125000J0D01*
G01*
X72825000Y-67425000D01*
G75*
G02*
X72950000Y-67550000I0J-125000D01*
G01*
X72950000Y-68800000D01*
G75*
G02*
X72825000Y-68925000I-125000J0D01*
G01*
G37*
%TD.AperFunction*%
%TO.P,U2,7*%
%TO.N,/FTH_CTS#*%
%TA.AperFunction,SMDPad,CuDef*%
G36*
G01*
X73625000Y-68925000D02*
X73375000Y-68925000D01*
G75*
G02*
X73250000Y-68800000I0J125000D01*
G01*
X73250000Y-67550000D01*
G75*
G02*
X73375000Y-67425000I125000J0D01*
G01*
X73625000Y-67425000D01*
G75*
G02*
X73750000Y-67550000I0J-125000D01*
G01*
X73750000Y-68800000D01*
G75*
G02*
X73625000Y-68925000I-125000J0D01*
G01*
G37*
%TD.AperFunction*%
%TO.P,U2,8*%
%TO.N,/FTH_RTS#*%
%TA.AperFunction,SMDPad,CuDef*%
G36*
G01*
X74425000Y-68925000D02*
X74175000Y-68925000D01*
G75*
G02*
X74050000Y-68800000I0J125000D01*
G01*
X74050000Y-67550000D01*
G75*
G02*
X74175000Y-67425000I125000J0D01*
G01*
X74425000Y-67425000D01*
G75*
G02*
X74550000Y-67550000I0J-125000D01*
G01*
X74550000Y-68800000D01*
G75*
G02*
X74425000Y-68925000I-125000J0D01*
G01*
G37*
%TD.AperFunction*%
%TO.P,U2,9*%
%TO.N,/FTH_TXD*%
%TA.AperFunction,SMDPad,CuDef*%
G36*
G01*
X76300000Y-67050000D02*
X75050000Y-67050000D01*
G75*
G02*
X74925000Y-66925000I0J125000D01*
G01*
X74925000Y-66675000D01*
G75*
G02*
X75050000Y-66550000I125000J0D01*
G01*
X76300000Y-66550000D01*
G75*
G02*
X76425000Y-66675000I0J-125000D01*
G01*
X76425000Y-66925000D01*
G75*
G02*
X76300000Y-67050000I-125000J0D01*
G01*
G37*
%TD.AperFunction*%
%TO.P,U2,10*%
%TO.N,/FTH_RXD*%
%TA.AperFunction,SMDPad,CuDef*%
G36*
G01*
X76300000Y-66250000D02*
X75050000Y-66250000D01*
G75*
G02*
X74925000Y-66125000I0J125000D01*
G01*
X74925000Y-65875000D01*
G75*
G02*
X75050000Y-65750000I125000J0D01*
G01*
X76300000Y-65750000D01*
G75*
G02*
X76425000Y-65875000I0J-125000D01*
G01*
X76425000Y-66125000D01*
G75*
G02*
X76300000Y-66250000I-125000J0D01*
G01*
G37*
%TD.AperFunction*%
%TO.P,U2,11*%
%TO.N,/USB_PWREN#*%
%TA.AperFunction,SMDPad,CuDef*%
G36*
G01*
X76300000Y-65450000D02*
X75050000Y-65450000D01*
G75*
G02*
X74925000Y-65325000I0J125000D01*
G01*
X74925000Y-65075000D01*
G75*
G02*
X75050000Y-64950000I125000J0D01*
G01*
X76300000Y-64950000D01*
G75*
G02*
X76425000Y-65075000I0J-125000D01*
G01*
X76425000Y-65325000D01*
G75*
G02*
X76300000Y-65450000I-125000J0D01*
G01*
G37*
%TD.AperFunction*%
%TO.P,U2,12*%
%TO.N,Net-(U2-Pad12)*%
%TA.AperFunction,SMDPad,CuDef*%
G36*
G01*
X76300000Y-64650000D02*
X75050000Y-64650000D01*
G75*
G02*
X74925000Y-64525000I0J125000D01*
G01*
X74925000Y-64275000D01*
G75*
G02*
X75050000Y-64150000I125000J0D01*
G01*
X76300000Y-64150000D01*
G75*
G02*
X76425000Y-64275000I0J-125000D01*
G01*
X76425000Y-64525000D01*
G75*
G02*
X76300000Y-64650000I-125000J0D01*
G01*
G37*
%TD.AperFunction*%
%TO.P,U2,13*%
%TO.N,/SENSOR_RESET*%
%TA.AperFunction,SMDPad,CuDef*%
G36*
G01*
X76300000Y-63850000D02*
X75050000Y-63850000D01*
G75*
G02*
X74925000Y-63725000I0J125000D01*
G01*
X74925000Y-63475000D01*
G75*
G02*
X75050000Y-63350000I125000J0D01*
G01*
X76300000Y-63350000D01*
G75*
G02*
X76425000Y-63475000I0J-125000D01*
G01*
X76425000Y-63725000D01*
G75*
G02*
X76300000Y-63850000I-125000J0D01*
G01*
G37*
%TD.AperFunction*%
%TO.P,U2,14*%
%TO.N,/SENSOR_SET*%
%TA.AperFunction,SMDPad,CuDef*%
G36*
G01*
X76300000Y-63050000D02*
X75050000Y-63050000D01*
G75*
G02*
X74925000Y-62925000I0J125000D01*
G01*
X74925000Y-62675000D01*
G75*
G02*
X75050000Y-62550000I125000J0D01*
G01*
X76300000Y-62550000D01*
G75*
G02*
X76425000Y-62675000I0J-125000D01*
G01*
X76425000Y-62925000D01*
G75*
G02*
X76300000Y-63050000I-125000J0D01*
G01*
G37*
%TD.AperFunction*%
%TO.P,U2,15*%
%TO.N,/SENSOR_TXD*%
%TA.AperFunction,SMDPad,CuDef*%
G36*
G01*
X76300000Y-62250000D02*
X75050000Y-62250000D01*
G75*
G02*
X74925000Y-62125000I0J125000D01*
G01*
X74925000Y-61875000D01*
G75*
G02*
X75050000Y-61750000I125000J0D01*
G01*
X76300000Y-61750000D01*
G75*
G02*
X76425000Y-61875000I0J-125000D01*
G01*
X76425000Y-62125000D01*
G75*
G02*
X76300000Y-62250000I-125000J0D01*
G01*
G37*
%TD.AperFunction*%
%TO.P,U2,16*%
%TO.N,/BLE_MODE*%
%TA.AperFunction,SMDPad,CuDef*%
G36*
G01*
X76300000Y-61450000D02*
X75050000Y-61450000D01*
G75*
G02*
X74925000Y-61325000I0J125000D01*
G01*
X74925000Y-61075000D01*
G75*
G02*
X75050000Y-60950000I125000J0D01*
G01*
X76300000Y-60950000D01*
G75*
G02*
X76425000Y-61075000I0J-125000D01*
G01*
X76425000Y-61325000D01*
G75*
G02*
X76300000Y-61450000I-125000J0D01*
G01*
G37*
%TD.AperFunction*%
%TO.P,U2,17*%
%TO.N,/BLE_RST#*%
%TA.AperFunction,SMDPad,CuDef*%
G36*
G01*
X74425000Y-60575000D02*
X74175000Y-60575000D01*
G75*
G02*
X74050000Y-60450000I0J125000D01*
G01*
X74050000Y-59200000D01*
G75*
G02*
X74175000Y-59075000I125000J0D01*
G01*
X74425000Y-59075000D01*
G75*
G02*
X74550000Y-59200000I0J-125000D01*
G01*
X74550000Y-60450000D01*
G75*
G02*
X74425000Y-60575000I-125000J0D01*
G01*
G37*
%TD.AperFunction*%
%TO.P,U2,18*%
%TO.N,Net-(D6-Pad1)*%
%TA.AperFunction,SMDPad,CuDef*%
G36*
G01*
X73625000Y-60575000D02*
X73375000Y-60575000D01*
G75*
G02*
X73250000Y-60450000I0J125000D01*
G01*
X73250000Y-59200000D01*
G75*
G02*
X73375000Y-59075000I125000J0D01*
G01*
X73625000Y-59075000D01*
G75*
G02*
X73750000Y-59200000I0J-125000D01*
G01*
X73750000Y-60450000D01*
G75*
G02*
X73625000Y-60575000I-125000J0D01*
G01*
G37*
%TD.AperFunction*%
%TO.P,U2,19*%
%TO.N,/BLE_RX*%
%TA.AperFunction,SMDPad,CuDef*%
G36*
G01*
X72825000Y-60575000D02*
X72575000Y-60575000D01*
G75*
G02*
X72450000Y-60450000I0J125000D01*
G01*
X72450000Y-59200000D01*
G75*
G02*
X72575000Y-59075000I125000J0D01*
G01*
X72825000Y-59075000D01*
G75*
G02*
X72950000Y-59200000I0J-125000D01*
G01*
X72950000Y-60450000D01*
G75*
G02*
X72825000Y-60575000I-125000J0D01*
G01*
G37*
%TD.AperFunction*%
%TO.P,U2,20*%
%TO.N,Net-(D2-Pad1)*%
%TA.AperFunction,SMDPad,CuDef*%
G36*
G01*
X72025000Y-60575000D02*
X71775000Y-60575000D01*
G75*
G02*
X71650000Y-60450000I0J125000D01*
G01*
X71650000Y-59200000D01*
G75*
G02*
X71775000Y-59075000I125000J0D01*
G01*
X72025000Y-59075000D01*
G75*
G02*
X72150000Y-59200000I0J-125000D01*
G01*
X72150000Y-60450000D01*
G75*
G02*
X72025000Y-60575000I-125000J0D01*
G01*
G37*
%TD.AperFunction*%
%TO.P,U2,21*%
%TO.N,/BLE_TX*%
%TA.AperFunction,SMDPad,CuDef*%
G36*
G01*
X71225000Y-60575000D02*
X70975000Y-60575000D01*
G75*
G02*
X70850000Y-60450000I0J125000D01*
G01*
X70850000Y-59200000D01*
G75*
G02*
X70975000Y-59075000I125000J0D01*
G01*
X71225000Y-59075000D01*
G75*
G02*
X71350000Y-59200000I0J-125000D01*
G01*
X71350000Y-60450000D01*
G75*
G02*
X71225000Y-60575000I-125000J0D01*
G01*
G37*
%TD.AperFunction*%
%TO.P,U2,22*%
%TO.N,/BLE_RTS#*%
%TA.AperFunction,SMDPad,CuDef*%
G36*
G01*
X70425000Y-60575000D02*
X70175000Y-60575000D01*
G75*
G02*
X70050000Y-60450000I0J125000D01*
G01*
X70050000Y-59200000D01*
G75*
G02*
X70175000Y-59075000I125000J0D01*
G01*
X70425000Y-59075000D01*
G75*
G02*
X70550000Y-59200000I0J-125000D01*
G01*
X70550000Y-60450000D01*
G75*
G02*
X70425000Y-60575000I-125000J0D01*
G01*
G37*
%TD.AperFunction*%
%TO.P,U2,23*%
%TO.N,/BLE_CTS#*%
%TA.AperFunction,SMDPad,CuDef*%
G36*
G01*
X69625000Y-60575000D02*
X69375000Y-60575000D01*
G75*
G02*
X69250000Y-60450000I0J125000D01*
G01*
X69250000Y-59200000D01*
G75*
G02*
X69375000Y-59075000I125000J0D01*
G01*
X69625000Y-59075000D01*
G75*
G02*
X69750000Y-59200000I0J-125000D01*
G01*
X69750000Y-60450000D01*
G75*
G02*
X69625000Y-60575000I-125000J0D01*
G01*
G37*
%TD.AperFunction*%
%TO.P,U2,24*%
%TO.N,/SWDIO*%
%TA.AperFunction,SMDPad,CuDef*%
G36*
G01*
X68825000Y-60575000D02*
X68575000Y-60575000D01*
G75*
G02*
X68450000Y-60450000I0J125000D01*
G01*
X68450000Y-59200000D01*
G75*
G02*
X68575000Y-59075000I125000J0D01*
G01*
X68825000Y-59075000D01*
G75*
G02*
X68950000Y-59200000I0J-125000D01*
G01*
X68950000Y-60450000D01*
G75*
G02*
X68825000Y-60575000I-125000J0D01*
G01*
G37*
%TD.AperFunction*%
%TO.P,U2,25*%
%TO.N,/SWCLK*%
%TA.AperFunction,SMDPad,CuDef*%
G36*
G01*
X67950000Y-61450000D02*
X66700000Y-61450000D01*
G75*
G02*
X66575000Y-61325000I0J125000D01*
G01*
X66575000Y-61075000D01*
G75*
G02*
X66700000Y-60950000I125000J0D01*
G01*
X67950000Y-60950000D01*
G75*
G02*
X68075000Y-61075000I0J-125000D01*
G01*
X68075000Y-61325000D01*
G75*
G02*
X67950000Y-61450000I-125000J0D01*
G01*
G37*
%TD.AperFunction*%
%TO.P,U2,26*%
%TO.N,Net-(U2-Pad26)*%
%TA.AperFunction,SMDPad,CuDef*%
G36*
G01*
X67950000Y-62250000D02*
X66700000Y-62250000D01*
G75*
G02*
X66575000Y-62125000I0J125000D01*
G01*
X66575000Y-61875000D01*
G75*
G02*
X66700000Y-61750000I125000J0D01*
G01*
X67950000Y-61750000D01*
G75*
G02*
X68075000Y-61875000I0J-125000D01*
G01*
X68075000Y-62125000D01*
G75*
G02*
X67950000Y-62250000I-125000J0D01*
G01*
G37*
%TD.AperFunction*%
%TO.P,U2,27*%
%TO.N,Net-(U2-Pad27)*%
%TA.AperFunction,SMDPad,CuDef*%
G36*
G01*
X67950000Y-63050000D02*
X66700000Y-63050000D01*
G75*
G02*
X66575000Y-62925000I0J125000D01*
G01*
X66575000Y-62675000D01*
G75*
G02*
X66700000Y-62550000I125000J0D01*
G01*
X67950000Y-62550000D01*
G75*
G02*
X68075000Y-62675000I0J-125000D01*
G01*
X68075000Y-62925000D01*
G75*
G02*
X67950000Y-63050000I-125000J0D01*
G01*
G37*
%TD.AperFunction*%
%TO.P,U2,28*%
%TO.N,Net-(U2-Pad28)*%
%TA.AperFunction,SMDPad,CuDef*%
G36*
G01*
X67950000Y-63850000D02*
X66700000Y-63850000D01*
G75*
G02*
X66575000Y-63725000I0J125000D01*
G01*
X66575000Y-63475000D01*
G75*
G02*
X66700000Y-63350000I125000J0D01*
G01*
X67950000Y-63350000D01*
G75*
G02*
X68075000Y-63475000I0J-125000D01*
G01*
X68075000Y-63725000D01*
G75*
G02*
X67950000Y-63850000I-125000J0D01*
G01*
G37*
%TD.AperFunction*%
%TO.P,U2,29*%
%TO.N,Net-(U2-Pad29)*%
%TA.AperFunction,SMDPad,CuDef*%
G36*
G01*
X67950000Y-64650000D02*
X66700000Y-64650000D01*
G75*
G02*
X66575000Y-64525000I0J125000D01*
G01*
X66575000Y-64275000D01*
G75*
G02*
X66700000Y-64150000I125000J0D01*
G01*
X67950000Y-64150000D01*
G75*
G02*
X68075000Y-64275000I0J-125000D01*
G01*
X68075000Y-64525000D01*
G75*
G02*
X67950000Y-64650000I-125000J0D01*
G01*
G37*
%TD.AperFunction*%
%TO.P,U2,30*%
%TO.N,Net-(U2-Pad30)*%
%TA.AperFunction,SMDPad,CuDef*%
G36*
G01*
X67950000Y-65450000D02*
X66700000Y-65450000D01*
G75*
G02*
X66575000Y-65325000I0J125000D01*
G01*
X66575000Y-65075000D01*
G75*
G02*
X66700000Y-64950000I125000J0D01*
G01*
X67950000Y-64950000D01*
G75*
G02*
X68075000Y-65075000I0J-125000D01*
G01*
X68075000Y-65325000D01*
G75*
G02*
X67950000Y-65450000I-125000J0D01*
G01*
G37*
%TD.AperFunction*%
%TO.P,U2,31*%
%TO.N,Net-(U2-Pad31)*%
%TA.AperFunction,SMDPad,CuDef*%
G36*
G01*
X67950000Y-66250000D02*
X66700000Y-66250000D01*
G75*
G02*
X66575000Y-66125000I0J125000D01*
G01*
X66575000Y-65875000D01*
G75*
G02*
X66700000Y-65750000I125000J0D01*
G01*
X67950000Y-65750000D01*
G75*
G02*
X68075000Y-65875000I0J-125000D01*
G01*
X68075000Y-66125000D01*
G75*
G02*
X67950000Y-66250000I-125000J0D01*
G01*
G37*
%TD.AperFunction*%
%TO.P,U2,32*%
%TO.N,Net-(U2-Pad32)*%
%TA.AperFunction,SMDPad,CuDef*%
G36*
G01*
X67950000Y-67050000D02*
X66700000Y-67050000D01*
G75*
G02*
X66575000Y-66925000I0J125000D01*
G01*
X66575000Y-66675000D01*
G75*
G02*
X66700000Y-66550000I125000J0D01*
G01*
X67950000Y-66550000D01*
G75*
G02*
X68075000Y-66675000I0J-125000D01*
G01*
X68075000Y-66925000D01*
G75*
G02*
X67950000Y-67050000I-125000J0D01*
G01*
G37*
%TD.AperFunction*%
%TD*%
D22*
%TO.P,U3,6*%
%TO.N,Net-(U3-Pad6)*%
X86700000Y-64100000D03*
%TO.P,U3,7*%
%TO.N,/BLE_RX*%
X86700000Y-65300000D03*
%TO.P,U3,8*%
%TO.N,/BLE_TX*%
X86700000Y-66500000D03*
%TO.P,U3,9*%
%TO.N,/BLE_RTS#*%
X86700000Y-67700000D03*
%TO.P,U3,10*%
%TO.N,/BLE_RST#*%
X86700000Y-68900000D03*
%TO.P,U3,11*%
%TO.N,/BLE_CTS#*%
X86700000Y-70100000D03*
D23*
%TO.P,U3,5*%
%TO.N,Net-(U3-Pad5)*%
X88400000Y-62750000D03*
%TO.P,U3,4*%
%TO.N,Net-(U3-Pad4)*%
X89600000Y-62750000D03*
%TO.P,U3,3*%
%TO.N,Net-(U3-Pad3)*%
X90800000Y-62750000D03*
%TO.P,U3,2*%
%TO.N,GND*%
X92000000Y-62750000D03*
%TO.P,U3,1*%
%TO.N,Net-(U3-Pad1)*%
X93200000Y-62750000D03*
%TO.P,U3,12*%
%TO.N,Net-(D3-Pad1)*%
X88400000Y-71450000D03*
%TO.P,U3,13*%
%TO.N,GND*%
X89600000Y-71450000D03*
%TO.P,U3,14*%
%TO.N,+3V3*%
X90800000Y-71450000D03*
%TO.P,U3,15*%
%TO.N,Net-(U3-Pad15)*%
X92050000Y-71450000D03*
%TO.P,U3,16*%
%TO.N,/BLE_MODE*%
X93200000Y-71450000D03*
%TD*%
D24*
%TO.N,GND*%
X53975000Y-89250000D03*
X53975000Y-80500000D03*
X61700000Y-91750000D03*
X87250000Y-74000000D03*
X77000000Y-55000000D03*
X69430000Y-54500000D03*
X62300000Y-58000000D03*
X66750000Y-72250000D03*
X92000000Y-61250000D03*
X74500000Y-70800000D03*
X63500000Y-85425000D03*
X67250000Y-87250000D03*
D25*
X73618466Y-91215635D03*
X57500000Y-94000000D03*
X52600000Y-93400000D03*
X86500000Y-84500000D03*
X84500000Y-79750000D03*
X83000000Y-70500000D03*
X85000000Y-72750000D03*
X85750000Y-52750000D03*
X83500000Y-56500000D03*
X86800000Y-62500000D03*
X65250000Y-53000000D03*
X68750000Y-56500000D03*
X58500000Y-58750000D03*
X52500000Y-58750000D03*
X52500000Y-62750000D03*
X52500000Y-67750000D03*
X52500000Y-70500000D03*
X52500000Y-76500000D03*
X57500000Y-79000000D03*
X60750000Y-75750000D03*
X63500000Y-69750000D03*
X63250000Y-65000000D03*
X61750000Y-60750000D03*
X65250000Y-58250000D03*
D24*
X80800000Y-94800000D03*
X68000000Y-99400000D03*
X85050000Y-95200000D03*
D25*
X59800000Y-99000000D03*
X75000000Y-100200000D03*
X80600000Y-100200000D03*
X86000000Y-89600000D03*
X88200000Y-80600000D03*
X70000000Y-65800000D03*
X73800000Y-64800000D03*
X68400000Y-93600000D03*
X74600000Y-94600000D03*
D24*
X65200000Y-79200000D03*
%TO.N,+5V*%
X68800000Y-91250000D03*
X67000000Y-82250000D03*
%TO.N,+3V3*%
X89250000Y-76000000D03*
X85200000Y-76000000D03*
X82800000Y-73600000D03*
X72200000Y-73600000D03*
D25*
%TO.N,/NRST*%
X67500000Y-58750000D03*
X69000000Y-62000000D03*
%TO.N,/BLE_TX*%
X78000000Y-57400000D03*
X71100000Y-57900000D03*
%TO.N,/BLE_RTS#*%
X74200000Y-61400000D03*
X75600000Y-60000000D03*
%TO.N,/BLE_RST#*%
X75750000Y-58250000D03*
X78500000Y-59250000D03*
%TO.N,/BLE_CTS#*%
X77000000Y-60200000D03*
X73250000Y-62250000D03*
%TO.N,/BLE_MODE*%
X85400000Y-78000000D03*
X92400000Y-78000000D03*
%TO.N,/SENSOR_SET*%
X85200000Y-87200000D03*
X83400000Y-87200000D03*
%TO.N,Net-(D4-Pad1)*%
X81600000Y-86095000D03*
X85905000Y-86095000D03*
%TO.N,Net-(D5-Pad1)*%
X71800000Y-90200000D03*
X82600000Y-91800000D03*
%TO.N,/FTH_RTS#*%
X75600000Y-78200000D03*
X72400000Y-89200000D03*
X77600000Y-90800000D03*
X79600000Y-78200000D03*
%TO.N,/FTH_RXD*%
X75525000Y-82600000D03*
%TO.N,/FTH_TXD*%
X75600000Y-80400000D03*
X73200000Y-88400000D03*
X78400000Y-89600000D03*
X79600000Y-80400000D03*
%TO.N,/FTH_CTS#*%
X74250000Y-74750000D03*
X78000000Y-74750000D03*
%TO.N,Net-(D6-Pad1)*%
X79600000Y-56600000D03*
X81200000Y-55000000D03*
%TD*%
D26*
%TO.N,GND*%
X51400000Y-88375000D02*
X51400000Y-86550000D01*
X51400000Y-86550000D02*
X51400000Y-83850000D01*
X51400000Y-83850000D02*
X51400000Y-81625000D01*
X53975000Y-87487500D02*
X53975000Y-89250000D01*
X51400000Y-88375000D02*
X51400000Y-88400000D01*
X52250000Y-89250000D02*
X53975000Y-89250000D01*
X51400000Y-88400000D02*
X52250000Y-89250000D01*
X53975000Y-82512500D02*
X53975000Y-80500000D01*
X52525000Y-80500000D02*
X51400000Y-81625000D01*
X53975000Y-80500000D02*
X52525000Y-80500000D01*
X61700000Y-91750000D02*
X61700000Y-90050000D01*
X88700000Y-74000000D02*
X87250000Y-74000000D01*
X87250000Y-76750000D02*
X87500000Y-77000000D01*
X87250000Y-74000000D02*
X87250000Y-76750000D01*
X88700000Y-73500000D02*
X89600000Y-72600000D01*
X88700000Y-74000000D02*
X88700000Y-73500000D01*
X89600000Y-72600000D02*
X89600000Y-71450000D01*
X77000000Y-53500000D02*
X77000000Y-55000000D01*
X69430000Y-52700000D02*
X69430000Y-54500000D01*
X62300000Y-56500000D02*
X62300000Y-58000000D01*
X57412500Y-82512500D02*
X57500000Y-82600000D01*
X53975000Y-82512500D02*
X57412500Y-82512500D01*
X53975000Y-87487500D02*
X53975000Y-86475001D01*
X66750000Y-70800000D02*
X66750000Y-72250000D01*
X92000000Y-62750000D02*
X92000000Y-61250000D01*
X73150000Y-70800000D02*
X74500000Y-70800000D01*
D27*
X71900000Y-69550000D02*
X73150000Y-70800000D01*
X71900000Y-68175000D02*
X71900000Y-69550000D01*
D26*
X61750000Y-85425000D02*
X63500000Y-85425000D01*
X63500000Y-85425000D02*
X65000000Y-85425000D01*
X68475000Y-87250000D02*
X69000000Y-86725000D01*
X67250000Y-87250000D02*
X68475000Y-87250000D01*
D28*
X73620000Y-92300000D02*
X73620000Y-91217169D01*
D29*
X73620000Y-91217169D02*
X73618466Y-91215635D01*
D26*
X70975000Y-84750000D02*
X72200000Y-84750000D01*
X69000000Y-86725000D02*
X70975000Y-84750000D01*
D28*
X72985000Y-85535000D02*
X72200000Y-84750000D01*
X72985000Y-87100000D02*
X72985000Y-85535000D01*
D26*
X53975000Y-91375000D02*
X54000000Y-91400000D01*
X53975000Y-89250000D02*
X53975000Y-91375000D01*
X59600000Y-90050000D02*
X61700000Y-90050000D01*
X80800000Y-96400000D02*
X80800000Y-94800000D01*
X65600000Y-99400000D02*
X68000000Y-99400000D01*
X85050000Y-93750000D02*
X85050000Y-95200000D01*
X65200000Y-79200000D02*
X66750000Y-79200000D01*
%TO.N,+5V*%
X59500000Y-82450000D02*
X61750000Y-82450000D01*
X63450000Y-82450000D02*
X64425000Y-83425000D01*
X61750000Y-82450000D02*
X63450000Y-82450000D01*
X64425000Y-83425000D02*
X65950000Y-83425000D01*
X65950000Y-83425000D02*
X65950000Y-83300000D01*
X65950000Y-83300000D02*
X67000000Y-82250000D01*
X67350000Y-91250000D02*
X65600000Y-93000000D01*
X68800000Y-91250000D02*
X67350000Y-91250000D01*
X82050000Y-97750000D02*
X82050000Y-96400000D01*
X73568614Y-98600000D02*
X81200000Y-98600000D01*
X69400000Y-96800000D02*
X71768614Y-96800000D01*
X65600000Y-93000000D02*
X69400000Y-96800000D01*
X81200000Y-98600000D02*
X82050000Y-97750000D01*
X71768614Y-96800000D02*
X73568614Y-98600000D01*
X82050000Y-94700000D02*
X83000000Y-93750000D01*
X82050000Y-96400000D02*
X82050000Y-94700000D01*
D28*
X72985000Y-92300000D02*
X72985000Y-93815000D01*
D30*
X70800000Y-94800000D02*
X72600000Y-94800000D01*
X72600000Y-94800000D02*
X72985000Y-94415000D01*
X70000000Y-92450000D02*
X70000000Y-94000000D01*
D28*
X72985000Y-94415000D02*
X72985000Y-93815000D01*
D30*
X68800000Y-91250000D02*
X70000000Y-92450000D01*
X70000000Y-94000000D02*
X70800000Y-94800000D01*
D26*
%TO.N,+3V3*%
X90750000Y-77000000D02*
X90750000Y-74000000D01*
X90800000Y-73950000D02*
X90750000Y-74000000D01*
X90800000Y-71450000D02*
X90800000Y-73950000D01*
D27*
X71100000Y-68175000D02*
X71100000Y-70800000D01*
D29*
X91250000Y-82800000D02*
X90200000Y-81750000D01*
X90200000Y-93000000D02*
X91250000Y-91950000D01*
X91250000Y-89550000D02*
X90200000Y-88500000D01*
X91250000Y-91950000D02*
X91250000Y-89550000D01*
X91250000Y-87450000D02*
X91250000Y-82800000D01*
X90200000Y-88500000D02*
X91250000Y-87450000D01*
X74750000Y-53500000D02*
X75750000Y-52500000D01*
X78250000Y-52500000D02*
X79250000Y-53500000D01*
X75750000Y-52500000D02*
X78250000Y-52500000D01*
D26*
X57800000Y-74200000D02*
X56200000Y-74200000D01*
X56200000Y-74200000D02*
X55000000Y-73000000D01*
X55000000Y-73000000D02*
X55000000Y-60250000D01*
X55000000Y-60250000D02*
X55000000Y-59750000D01*
X55000000Y-59750000D02*
X58250000Y-56500000D01*
X58250000Y-51729998D02*
X58979998Y-51000000D01*
X58250000Y-56500000D02*
X58250000Y-51729998D01*
X58979998Y-51000000D02*
X70250000Y-51000000D01*
D29*
X74750000Y-53500000D02*
X73750000Y-52500000D01*
X73750000Y-52500000D02*
X71500000Y-52500000D01*
X71500000Y-52500000D02*
X71250000Y-52250000D01*
X71250000Y-52250000D02*
X71250000Y-51500000D01*
X70750000Y-51000000D02*
X70250000Y-51000000D01*
X71250000Y-51500000D02*
X70750000Y-51000000D01*
D26*
X89750000Y-76000000D02*
X90750000Y-77000000D01*
X89250000Y-76000000D02*
X89750000Y-76000000D01*
X67325000Y-85425000D02*
X69000000Y-83750000D01*
X66900000Y-85425000D02*
X67325000Y-85425000D01*
X69000000Y-82000000D02*
X69000000Y-83750000D01*
X67750000Y-80750000D02*
X69000000Y-82000000D01*
X62000000Y-80750000D02*
X67750000Y-80750000D01*
X57800000Y-74200000D02*
X57800000Y-76550000D01*
X57800000Y-76550000D02*
X62000000Y-80750000D01*
D28*
X74255000Y-84755000D02*
X74250000Y-84750000D01*
X74255000Y-87100000D02*
X74255000Y-84755000D01*
D26*
X90200000Y-81750000D02*
X90200000Y-80300000D01*
X90200000Y-80300000D02*
X90750000Y-79750000D01*
X90750000Y-79750000D02*
X90750000Y-77000000D01*
X70600000Y-80400000D02*
X72200000Y-80400000D01*
X69000000Y-82000000D02*
X70600000Y-80400000D01*
X72200000Y-76000000D02*
X72200000Y-78200000D01*
X72200000Y-78200000D02*
X72200000Y-80400000D01*
X72200000Y-80400000D02*
X72200000Y-82600000D01*
D30*
X72200000Y-82700000D02*
X74250000Y-84750000D01*
X72200000Y-82600000D02*
X72200000Y-82700000D01*
D26*
X82800000Y-73600000D02*
X85200000Y-76000000D01*
X72200000Y-76000000D02*
X72200000Y-73600000D01*
X71100000Y-72500000D02*
X72200000Y-73600000D01*
X71100000Y-70800000D02*
X71100000Y-72500000D01*
D30*
X74255000Y-88345000D02*
X74255000Y-87100000D01*
X72350000Y-92300000D02*
X72350000Y-90900000D01*
X72350000Y-90900000D02*
X74255000Y-88995000D01*
X74255000Y-88995000D02*
X74255000Y-88345000D01*
X72350000Y-93750000D02*
X72300000Y-93800000D01*
X72350000Y-92300000D02*
X72350000Y-93750000D01*
D29*
X79250000Y-53500000D02*
X80350000Y-52400000D01*
X82650000Y-52400000D02*
X83750000Y-53500000D01*
X80350000Y-52400000D02*
X82650000Y-52400000D01*
%TO.N,Net-(D1-Pad1)*%
X77000000Y-51450000D02*
X79250000Y-51450000D01*
%TO.N,Net-(D2-Pad1)*%
X72400000Y-53600000D02*
X72500000Y-53500000D01*
X71900000Y-59825000D02*
X71900000Y-56600000D01*
X72500000Y-56000000D02*
X72500000Y-53500000D01*
X71900000Y-56600000D02*
X72500000Y-56000000D01*
%TO.N,Net-(D2-Pad2)*%
X72500000Y-51450000D02*
X74750000Y-51450000D01*
%TO.N,Net-(D3-Pad2)*%
X92250000Y-81750000D02*
X92250000Y-84000000D01*
%TO.N,Net-(D3-Pad1)*%
X88400000Y-71450000D02*
X87300000Y-71450000D01*
X88750000Y-84000000D02*
X90200000Y-84000000D01*
X87300000Y-71450000D02*
X86250000Y-72500000D01*
X86250000Y-81500000D02*
X88750000Y-84000000D01*
X86250000Y-72500000D02*
X86250000Y-81500000D01*
%TO.N,/NRST*%
X60250000Y-52700000D02*
X60250000Y-56500000D01*
X60250000Y-61590000D02*
X60250000Y-56500000D01*
X57800000Y-64040000D02*
X60250000Y-61590000D01*
X67500000Y-58750000D02*
X67500000Y-58000000D01*
X62200000Y-52700000D02*
X60250000Y-52700000D01*
X67500000Y-58000000D02*
X62200000Y-52700000D01*
X72700000Y-65700000D02*
X72700000Y-68175000D01*
X69000000Y-62000000D02*
X72700000Y-65700000D01*
%TO.N,/SWDIO*%
X59670000Y-66580000D02*
X57800000Y-66580000D01*
X61000000Y-63750000D02*
X61000000Y-65250000D01*
X61000000Y-65250000D02*
X59670000Y-66580000D01*
X64925000Y-59825000D02*
X61000000Y-63750000D01*
X64925000Y-59825000D02*
X68700000Y-59825000D01*
%TO.N,/SWCLK*%
X57800000Y-71660000D02*
X59090000Y-71660000D01*
X59090000Y-71660000D02*
X64500000Y-66250000D01*
X64500000Y-66250000D02*
X64500000Y-62500000D01*
X65800000Y-61200000D02*
X67825000Y-61200000D01*
X64500000Y-62500000D02*
X65800000Y-61200000D01*
%TO.N,Net-(J1-Pad4)*%
X55006000Y-85650000D02*
X56000000Y-86644000D01*
X54060000Y-85650000D02*
X55006000Y-85650000D01*
X56050000Y-86694000D02*
X55006000Y-85650000D01*
X56050000Y-91400000D02*
X56050000Y-86694000D01*
%TO.N,/BLE_RX*%
X78400000Y-55400000D02*
X77800000Y-56000000D01*
X77800000Y-56000000D02*
X74250000Y-56000000D01*
X86700000Y-65300000D02*
X85694000Y-65300000D01*
X72700000Y-57550000D02*
X72700000Y-59825000D01*
X85694000Y-65300000D02*
X85100000Y-64706000D01*
X85100000Y-64706000D02*
X85100000Y-60500000D01*
X74250000Y-56000000D02*
X72700000Y-57550000D01*
X85100000Y-60500000D02*
X80000000Y-55400000D01*
X80000000Y-55400000D02*
X78400000Y-55400000D01*
%TO.N,/BLE_TX*%
X71100000Y-59825000D02*
X71100000Y-57900000D01*
X85250000Y-66500000D02*
X86700000Y-66500000D01*
X84400000Y-62600000D02*
X84400000Y-65650000D01*
X84400000Y-65650000D02*
X85250000Y-66500000D01*
X79200000Y-57400000D02*
X84400000Y-62600000D01*
X78000000Y-57400000D02*
X79200000Y-57400000D01*
%TO.N,/BLE_RTS#*%
X70300000Y-61050000D02*
X70300000Y-59825000D01*
X70650000Y-61400000D02*
X70300000Y-61050000D01*
X74200000Y-61400000D02*
X70650000Y-61400000D01*
X86700000Y-67700000D02*
X85100000Y-67700000D01*
X85100000Y-67700000D02*
X83800000Y-66400000D01*
X77500000Y-58250000D02*
X75600000Y-60000000D01*
X83800000Y-66400000D02*
X83800000Y-63000000D01*
X83800000Y-63000000D02*
X79050000Y-58250000D01*
X79050000Y-58250000D02*
X77500000Y-58250000D01*
%TO.N,/BLE_RST#*%
X83225000Y-63975000D02*
X78500000Y-59250000D01*
X83225000Y-67225000D02*
X83225000Y-63975000D01*
X86700000Y-68900000D02*
X84900000Y-68900000D01*
X84900000Y-68900000D02*
X83225000Y-67225000D01*
X75750000Y-58250000D02*
X74950000Y-58250000D01*
X74300000Y-58900000D02*
X74300000Y-59825000D01*
X74950000Y-58250000D02*
X74300000Y-58900000D01*
%TO.N,/BLE_CTS#*%
X69500000Y-61250000D02*
X69500000Y-59825000D01*
X70500000Y-62250000D02*
X69500000Y-61250000D01*
X73250000Y-62250000D02*
X70500000Y-62250000D01*
X77800000Y-60200000D02*
X77000000Y-60200000D01*
X82600000Y-67850000D02*
X82600000Y-65000000D01*
X82600000Y-65000000D02*
X77800000Y-60200000D01*
X84850000Y-70100000D02*
X82600000Y-67850000D01*
X86700000Y-70100000D02*
X84850000Y-70100000D01*
%TO.N,/BLE_MODE*%
X93200000Y-77200000D02*
X92400000Y-78000000D01*
X93200000Y-71450000D02*
X93200000Y-77200000D01*
X81800000Y-65200000D02*
X81800000Y-74400000D01*
X75675000Y-61200000D02*
X77800000Y-61200000D01*
X77800000Y-61200000D02*
X81800000Y-65200000D01*
X85400000Y-78000000D02*
X81800000Y-74400000D01*
%TO.N,/SENSOR_RESET*%
X82400000Y-88600000D02*
X82400000Y-84150000D01*
X81250000Y-83000000D02*
X81250000Y-78350000D01*
X78700000Y-92300000D02*
X82400000Y-88600000D01*
X79800000Y-76900000D02*
X79800000Y-66200000D01*
X75800000Y-95200000D02*
X75800000Y-96400000D01*
X78700000Y-92300000D02*
X75800000Y-95200000D01*
X82400000Y-84150000D02*
X81250000Y-83000000D01*
X81250000Y-78350000D02*
X79800000Y-76900000D01*
X79800000Y-66200000D02*
X77200000Y-63600000D01*
X77200000Y-63600000D02*
X75675000Y-63600000D01*
%TO.N,/SENSOR_TXD*%
X84200000Y-87800000D02*
X84200000Y-83800000D01*
X84200000Y-83800000D02*
X82600000Y-82200000D01*
X77050000Y-94950000D02*
X84200000Y-87800000D01*
X77050000Y-96400000D02*
X77050000Y-94950000D01*
X77600000Y-62000000D02*
X75675000Y-62000000D01*
X81200000Y-76400000D02*
X81200000Y-65600000D01*
X82600000Y-82200000D02*
X82600000Y-77800000D01*
X82600000Y-77800000D02*
X81200000Y-76400000D01*
X81200000Y-65600000D02*
X77600000Y-62000000D01*
%TO.N,/SENSOR_SET*%
X85200000Y-87200000D02*
X85200000Y-87800000D01*
X79550000Y-93450000D02*
X79550000Y-96400000D01*
X85200000Y-87800000D02*
X79550000Y-93450000D01*
X80400000Y-76600000D02*
X81750000Y-77950000D01*
X81750000Y-77950000D02*
X81750000Y-82500000D01*
X81750000Y-82500000D02*
X83400000Y-84150000D01*
X80400000Y-65800000D02*
X80400000Y-76600000D01*
X83400000Y-84150000D02*
X83400000Y-87200000D01*
X77400000Y-62800000D02*
X80400000Y-65800000D01*
X75675000Y-62800000D02*
X77400000Y-62800000D01*
%TO.N,Net-(C7-Pad1)*%
X68800000Y-79200000D02*
X68800000Y-76600000D01*
X70000000Y-69750000D02*
X70300000Y-69450000D01*
X68800000Y-76200000D02*
X70000000Y-75000000D01*
X70300000Y-69450000D02*
X70300000Y-68175000D01*
X70000000Y-75000000D02*
X70000000Y-69750000D01*
X68800000Y-76600000D02*
X68800000Y-76200000D01*
%TO.N,Net-(C8-Pad1)*%
X68800000Y-73400000D02*
X68800000Y-70800000D01*
X69500000Y-70100000D02*
X68800000Y-70800000D01*
X69500000Y-68175000D02*
X69500000Y-70100000D01*
%TO.N,Net-(C9-Pad1)*%
X57500000Y-84650000D02*
X57500000Y-84600000D01*
D30*
X56700000Y-83700000D02*
X57500000Y-84500000D01*
X54060000Y-83700000D02*
X56700000Y-83700000D01*
D26*
X57500000Y-84500000D02*
X59500000Y-84500000D01*
D29*
%TO.N,Net-(D4-Pad2)*%
X92250000Y-86250000D02*
X92250000Y-88500000D01*
%TO.N,Net-(D4-Pad1)*%
X90045000Y-86095000D02*
X90200000Y-86250000D01*
X85905000Y-86095000D02*
X90045000Y-86095000D01*
X76500000Y-93500000D02*
X81600000Y-88400000D01*
X74500000Y-93500000D02*
X76500000Y-93500000D01*
X74255000Y-92300000D02*
X74255000Y-93255000D01*
X81600000Y-88400000D02*
X81600000Y-86095000D01*
X74255000Y-93255000D02*
X74500000Y-93500000D01*
%TO.N,Net-(D5-Pad2)*%
X92250000Y-90750000D02*
X92250000Y-93000000D01*
%TO.N,Net-(D5-Pad1)*%
X71715000Y-87100000D02*
X71715000Y-88685000D01*
X71715000Y-88685000D02*
X71400000Y-89000000D01*
X71400000Y-89000000D02*
X71400000Y-89800000D01*
X71400000Y-89800000D02*
X71800000Y-90200000D01*
X83650000Y-90750000D02*
X82600000Y-91800000D01*
X90200000Y-90750000D02*
X83650000Y-90750000D01*
%TO.N,/USB_PWREN#*%
X75525000Y-90675000D02*
X75525000Y-92300000D01*
X76600000Y-89600000D02*
X75525000Y-90675000D01*
X77200000Y-89600000D02*
X76600000Y-89600000D01*
X78600000Y-88200000D02*
X77200000Y-89600000D01*
X75675000Y-65200000D02*
X77600000Y-65200000D01*
X79000000Y-66600000D02*
X79000000Y-77400000D01*
X77600000Y-65200000D02*
X79000000Y-66600000D01*
X79000000Y-77400000D02*
X78600000Y-77800000D01*
X78600000Y-77800000D02*
X78600000Y-88200000D01*
%TO.N,/FTH_RTS#*%
X74300000Y-68175000D02*
X75375000Y-68175000D01*
X74250000Y-78200000D02*
X75600000Y-78200000D01*
X75600000Y-78200000D02*
X75600000Y-72400000D01*
X75375000Y-68175000D02*
X76400000Y-69200000D01*
X76400000Y-71600000D02*
X75600000Y-72400000D01*
X76400000Y-69200000D02*
X76400000Y-71600000D01*
X72350000Y-89150000D02*
X72400000Y-89200000D01*
X72350000Y-87100000D02*
X72350000Y-89150000D01*
X80600000Y-79200000D02*
X79600000Y-78200000D01*
X80600000Y-88600000D02*
X80600000Y-79200000D01*
X78400000Y-90800000D02*
X80600000Y-88600000D01*
X77600000Y-90800000D02*
X78400000Y-90800000D01*
%TO.N,/FTH_RXD*%
X77400000Y-66000000D02*
X75675000Y-66000000D01*
X78400000Y-67000000D02*
X77400000Y-66000000D01*
X75525000Y-85675000D02*
X75525000Y-87100000D01*
X74250000Y-82600000D02*
X75600000Y-82600000D01*
X77000000Y-72800000D02*
X78400000Y-71400000D01*
X78400000Y-71400000D02*
X78400000Y-67000000D01*
X75525000Y-87100000D02*
X75525000Y-82600000D01*
X75525000Y-82600000D02*
X77000000Y-81125000D01*
X77000000Y-81125000D02*
X77000000Y-80000000D01*
X77000000Y-80000000D02*
X77000000Y-72800000D01*
%TO.N,/FTH_TXD*%
X75753001Y-66721999D02*
X75675000Y-66800000D01*
X77000000Y-66800000D02*
X77600000Y-67400000D01*
X75675000Y-66800000D02*
X77000000Y-66800000D01*
X74250000Y-80400000D02*
X75600000Y-80400000D01*
X77600000Y-71400000D02*
X77600000Y-67400000D01*
X76400000Y-72600000D02*
X77600000Y-71400000D01*
X73620000Y-87980000D02*
X73200000Y-88400000D01*
X73620000Y-87100000D02*
X73620000Y-87980000D01*
X79600000Y-88400000D02*
X78400000Y-89600000D01*
X79600000Y-80400000D02*
X79600000Y-88400000D01*
X75600000Y-80400000D02*
X75600000Y-79600000D01*
X75600000Y-79600000D02*
X76400000Y-78800000D01*
X76400000Y-78800000D02*
X76400000Y-72600000D01*
%TO.N,/FTH_CTS#*%
X73500000Y-69100000D02*
X73500000Y-68175000D01*
X75000000Y-69600000D02*
X74000000Y-69600000D01*
X75800000Y-70400000D02*
X75000000Y-69600000D01*
X74250000Y-76000000D02*
X74250000Y-74750000D01*
X74250000Y-74750000D02*
X74250000Y-72950000D01*
X74000000Y-69600000D02*
X73500000Y-69100000D01*
X74250000Y-72950000D02*
X75800000Y-71400000D01*
X75800000Y-71400000D02*
X75800000Y-70400000D01*
X74890000Y-88290000D02*
X74890000Y-87100000D01*
X75200000Y-88600000D02*
X74890000Y-88290000D01*
X77200000Y-88600000D02*
X75200000Y-88600000D01*
X78000000Y-74750000D02*
X78000000Y-87800000D01*
X78000000Y-87800000D02*
X77200000Y-88600000D01*
%TO.N,/USBDP*%
X71080000Y-88420000D02*
X71080000Y-87100000D01*
X57600000Y-89000000D02*
X70500000Y-89000000D01*
X70500000Y-89000000D02*
X71080000Y-88420000D01*
%TO.N,/USBDM*%
X63800000Y-90050000D02*
X70450000Y-90050000D01*
X71080000Y-90680000D02*
X71080000Y-92300000D01*
X70450000Y-90050000D02*
X71080000Y-90680000D01*
D30*
%TO.N,Net-(R2-Pad1)*%
X71330000Y-93800000D02*
X71330000Y-93470000D01*
X71330000Y-93470000D02*
X71715000Y-93085000D01*
X71715000Y-93085000D02*
X71715000Y-92300000D01*
D29*
%TO.N,Net-(D6-Pad2)*%
X81500000Y-51450000D02*
X83750000Y-51450000D01*
%TO.N,Net-(D6-Pad1)*%
X73500000Y-59825000D02*
X73500000Y-58100000D01*
X73500000Y-58100000D02*
X75000000Y-56600000D01*
X75000000Y-56600000D02*
X79600000Y-56600000D01*
X81200000Y-53800000D02*
X81500000Y-53500000D01*
X81200000Y-55000000D02*
X81200000Y-53800000D01*
%TO.N,/USB_N*%
X55350000Y-84350000D02*
X54060000Y-84350000D01*
X56600000Y-85600000D02*
X55350000Y-84350000D01*
X61400000Y-88000000D02*
X59000000Y-85600000D01*
X61700000Y-88000000D02*
X61400000Y-88000000D01*
X56600000Y-85600000D02*
X59000000Y-85600000D01*
X61700000Y-88000000D02*
X63800000Y-88000000D01*
%TO.N,/USB_P*%
X54060000Y-85000000D02*
X55250000Y-85000000D01*
X57200000Y-86950000D02*
X57600000Y-86950000D01*
X55250000Y-85000000D02*
X57200000Y-86950000D01*
X58550000Y-86950000D02*
X59600000Y-88000000D01*
X57600000Y-86950000D02*
X58550000Y-86950000D01*
%TD*%
D31*
%TO.N,GND*%
G36*
X82911928Y-100550000D02*
G01*
X82928992Y-100723254D01*
X82974417Y-100873000D01*
X72375583Y-100873000D01*
X72421008Y-100723254D01*
X72438072Y-100550000D01*
X72438072Y-98933169D01*
X72800811Y-99295908D01*
X72833218Y-99335396D01*
X72872706Y-99367803D01*
X72990816Y-99464734D01*
X73086923Y-99516104D01*
X73170621Y-99560841D01*
X73365719Y-99620024D01*
X73517776Y-99635000D01*
X73517785Y-99635000D01*
X73568613Y-99640006D01*
X73619441Y-99635000D01*
X81149172Y-99635000D01*
X81200000Y-99640006D01*
X81250828Y-99635000D01*
X81250838Y-99635000D01*
X81402895Y-99620024D01*
X81597993Y-99560841D01*
X81777797Y-99464734D01*
X81935396Y-99335396D01*
X81967807Y-99295903D01*
X82745908Y-98517803D01*
X82785396Y-98485396D01*
X82817803Y-98445908D01*
X82911928Y-98331217D01*
X82911928Y-100550000D01*
G37*
X82911928Y-100550000D02*
X82928992Y-100723254D01*
X82974417Y-100873000D01*
X72375583Y-100873000D01*
X72421008Y-100723254D01*
X72438072Y-100550000D01*
X72438072Y-98933169D01*
X72800811Y-99295908D01*
X72833218Y-99335396D01*
X72872706Y-99367803D01*
X72990816Y-99464734D01*
X73086923Y-99516104D01*
X73170621Y-99560841D01*
X73365719Y-99620024D01*
X73517776Y-99635000D01*
X73517785Y-99635000D01*
X73568613Y-99640006D01*
X73619441Y-99635000D01*
X81149172Y-99635000D01*
X81200000Y-99640006D01*
X81250828Y-99635000D01*
X81250838Y-99635000D01*
X81402895Y-99620024D01*
X81597993Y-99560841D01*
X81777797Y-99464734D01*
X81935396Y-99335396D01*
X81967807Y-99295903D01*
X82745908Y-98517803D01*
X82785396Y-98485396D01*
X82817803Y-98445908D01*
X82911928Y-98331217D01*
X82911928Y-100550000D01*
G36*
X51555330Y-56978839D02*
G01*
X52183446Y-57398533D01*
X52881372Y-57687623D01*
X53622285Y-57835000D01*
X54377715Y-57835000D01*
X55118628Y-57687623D01*
X55816554Y-57398533D01*
X56031135Y-57255154D01*
X54304092Y-58982198D01*
X54264605Y-59014604D01*
X54232198Y-59054092D01*
X54232197Y-59054093D01*
X54135266Y-59172203D01*
X54114254Y-59211515D01*
X54039159Y-59352007D01*
X53979976Y-59547105D01*
X53965000Y-59699162D01*
X53965000Y-59699172D01*
X53959994Y-59750000D01*
X53965000Y-59800828D01*
X53965000Y-60300837D01*
X53965001Y-60300847D01*
X53965000Y-72949172D01*
X53959994Y-73000000D01*
X53965000Y-73050828D01*
X53965000Y-73050837D01*
X53979976Y-73202894D01*
X54039159Y-73397992D01*
X54135266Y-73577797D01*
X54264604Y-73735396D01*
X54304097Y-73767807D01*
X55432197Y-74895908D01*
X55464604Y-74935396D01*
X55504092Y-74967803D01*
X55622202Y-75064734D01*
X55718309Y-75116104D01*
X55802007Y-75160841D01*
X55997105Y-75220024D01*
X56149162Y-75235000D01*
X56149171Y-75235000D01*
X56199999Y-75240006D01*
X56250827Y-75235000D01*
X56342546Y-75235000D01*
X56360498Y-75294180D01*
X56419463Y-75404494D01*
X56498815Y-75501185D01*
X56595506Y-75580537D01*
X56705820Y-75639502D01*
X56765001Y-75657454D01*
X56765001Y-76499162D01*
X56759994Y-76550000D01*
X56779977Y-76752895D01*
X56839160Y-76947993D01*
X56935266Y-77127797D01*
X56994522Y-77200000D01*
X57064605Y-77285396D01*
X57104092Y-77317803D01*
X60914177Y-81127888D01*
X60785150Y-81167028D01*
X60631614Y-81249095D01*
X60497038Y-81359538D01*
X60462177Y-81402016D01*
X60443387Y-81386595D01*
X60289851Y-81304528D01*
X60123255Y-81253992D01*
X59950001Y-81236928D01*
X59049999Y-81236928D01*
X58876745Y-81253992D01*
X58710149Y-81304528D01*
X58586419Y-81370663D01*
X58554494Y-81344463D01*
X58444180Y-81285498D01*
X58324482Y-81249188D01*
X58200000Y-81236928D01*
X57785750Y-81240000D01*
X57627000Y-81398750D01*
X57627000Y-82323000D01*
X57647000Y-82323000D01*
X57647000Y-82577000D01*
X57627000Y-82577000D01*
X57627000Y-82597000D01*
X57373000Y-82597000D01*
X57373000Y-82577000D01*
X56323750Y-82577000D01*
X56165000Y-82735750D01*
X56163627Y-82865000D01*
X55385481Y-82865000D01*
X55385000Y-82798250D01*
X55226250Y-82639500D01*
X54102000Y-82639500D01*
X54102000Y-82659500D01*
X53848000Y-82659500D01*
X53848000Y-82639500D01*
X53828000Y-82639500D01*
X53828000Y-82385500D01*
X53848000Y-82385500D01*
X53848000Y-81323750D01*
X54102000Y-81323750D01*
X54102000Y-82385500D01*
X55226250Y-82385500D01*
X55385000Y-82226750D01*
X55387532Y-81875000D01*
X56161928Y-81875000D01*
X56165000Y-82164250D01*
X56323750Y-82323000D01*
X57373000Y-82323000D01*
X57373000Y-81398750D01*
X57214250Y-81240000D01*
X56800000Y-81236928D01*
X56675518Y-81249188D01*
X56555820Y-81285498D01*
X56445506Y-81344463D01*
X56348815Y-81423815D01*
X56269463Y-81520506D01*
X56210498Y-81630820D01*
X56174188Y-81750518D01*
X56161928Y-81875000D01*
X55387532Y-81875000D01*
X55388072Y-81800000D01*
X55375812Y-81675518D01*
X55339502Y-81555820D01*
X55280537Y-81445506D01*
X55201185Y-81348815D01*
X55104494Y-81269463D01*
X54994180Y-81210498D01*
X54874482Y-81174188D01*
X54750000Y-81161928D01*
X54260750Y-81165000D01*
X54102000Y-81323750D01*
X53848000Y-81323750D01*
X53689250Y-81165000D01*
X53200000Y-81161928D01*
X53075518Y-81174188D01*
X52955820Y-81210498D01*
X52845506Y-81269463D01*
X52748815Y-81348815D01*
X52669463Y-81445506D01*
X52641405Y-81497998D01*
X52526252Y-81497998D01*
X52685000Y-81339250D01*
X52688072Y-80800000D01*
X52675812Y-80675518D01*
X52639502Y-80555820D01*
X52580537Y-80445506D01*
X52501185Y-80348815D01*
X52404494Y-80269463D01*
X52294180Y-80210498D01*
X52174482Y-80174188D01*
X52050000Y-80161928D01*
X51685750Y-80165000D01*
X51527000Y-80323750D01*
X51527000Y-81498000D01*
X51547000Y-81498000D01*
X51547000Y-81752000D01*
X51527000Y-81752000D01*
X51527000Y-83723000D01*
X51547000Y-83723000D01*
X51547000Y-83977000D01*
X51527000Y-83977000D01*
X51527000Y-85226250D01*
X51685750Y-85385000D01*
X52350000Y-85388072D01*
X52474482Y-85375812D01*
X52594180Y-85339502D01*
X52704494Y-85280537D01*
X52734937Y-85255553D01*
X52741777Y-85325000D01*
X52731928Y-85425000D01*
X52731928Y-85541977D01*
X52704494Y-85519463D01*
X52594180Y-85460498D01*
X52474482Y-85424188D01*
X52350000Y-85411928D01*
X51685750Y-85415000D01*
X51527000Y-85573750D01*
X51527000Y-86423000D01*
X51547000Y-86423000D01*
X51547000Y-86677000D01*
X51527000Y-86677000D01*
X51527000Y-88248000D01*
X51547000Y-88248000D01*
X51547000Y-88502000D01*
X51527000Y-88502000D01*
X51527000Y-89676250D01*
X51685750Y-89835000D01*
X52050000Y-89838072D01*
X52174482Y-89825812D01*
X52294180Y-89789502D01*
X52404494Y-89730537D01*
X52501185Y-89651185D01*
X52580537Y-89554494D01*
X52639502Y-89444180D01*
X52675812Y-89324482D01*
X52688072Y-89200000D01*
X52685000Y-88660750D01*
X52526252Y-88502002D01*
X52641405Y-88502002D01*
X52669463Y-88554494D01*
X52748815Y-88651185D01*
X52845506Y-88730537D01*
X52955820Y-88789502D01*
X53075518Y-88825812D01*
X53200000Y-88838072D01*
X53689250Y-88835000D01*
X53848000Y-88676250D01*
X53848000Y-87614500D01*
X53828000Y-87614500D01*
X53828000Y-87360500D01*
X53848000Y-87360500D01*
X53848000Y-87340500D01*
X54102000Y-87340500D01*
X54102000Y-87360500D01*
X54122000Y-87360500D01*
X54122000Y-87614500D01*
X54102000Y-87614500D01*
X54102000Y-88676250D01*
X54260750Y-88835000D01*
X54750000Y-88838072D01*
X54874482Y-88825812D01*
X54994180Y-88789502D01*
X55104494Y-88730537D01*
X55201185Y-88651185D01*
X55280537Y-88554494D01*
X55287001Y-88542402D01*
X55287000Y-90181990D01*
X55231613Y-90211595D01*
X55097038Y-90322038D01*
X55091658Y-90328594D01*
X55026185Y-90248815D01*
X54929494Y-90169463D01*
X54819180Y-90110498D01*
X54699482Y-90074188D01*
X54575000Y-90061928D01*
X54285750Y-90065000D01*
X54127000Y-90223750D01*
X54127000Y-91273000D01*
X54147000Y-91273000D01*
X54147000Y-91527000D01*
X54127000Y-91527000D01*
X54127000Y-92576250D01*
X54285750Y-92735000D01*
X54575000Y-92738072D01*
X54699482Y-92725812D01*
X54819180Y-92689502D01*
X54929494Y-92630537D01*
X55026185Y-92551185D01*
X55091658Y-92471406D01*
X55097038Y-92477962D01*
X55231613Y-92588405D01*
X55385149Y-92670472D01*
X55551745Y-92721008D01*
X55724999Y-92738072D01*
X56375001Y-92738072D01*
X56548255Y-92721008D01*
X56714851Y-92670472D01*
X56868387Y-92588405D01*
X57002962Y-92477962D01*
X57113405Y-92343387D01*
X57195472Y-92189851D01*
X57246008Y-92023255D01*
X57263072Y-91850001D01*
X57263072Y-90949999D01*
X57246008Y-90776745D01*
X57195472Y-90610149D01*
X57113405Y-90456613D01*
X57002962Y-90322038D01*
X56868387Y-90211595D01*
X56813000Y-90181990D01*
X56813000Y-90146337D01*
X56976745Y-90196008D01*
X57149999Y-90213072D01*
X58050001Y-90213072D01*
X58223255Y-90196008D01*
X58285910Y-90177002D01*
X58423748Y-90177002D01*
X58265000Y-90335750D01*
X58261928Y-90625000D01*
X58274188Y-90749482D01*
X58310498Y-90869180D01*
X58369463Y-90979494D01*
X58448815Y-91076185D01*
X58545506Y-91155537D01*
X58655820Y-91214502D01*
X58775518Y-91250812D01*
X58900000Y-91263072D01*
X59314250Y-91260000D01*
X59473000Y-91101250D01*
X59473000Y-90177000D01*
X59727000Y-90177000D01*
X59727000Y-91101250D01*
X59885750Y-91260000D01*
X60300000Y-91263072D01*
X60424482Y-91250812D01*
X60544180Y-91214502D01*
X60650000Y-91157939D01*
X60755820Y-91214502D01*
X60875518Y-91250812D01*
X61000000Y-91263072D01*
X61414250Y-91260000D01*
X61573000Y-91101250D01*
X61573000Y-90177000D01*
X59727000Y-90177000D01*
X59473000Y-90177000D01*
X59453000Y-90177000D01*
X59453000Y-89923000D01*
X59473000Y-89923000D01*
X59473000Y-89903000D01*
X59727000Y-89903000D01*
X59727000Y-89923000D01*
X61573000Y-89923000D01*
X61573000Y-89903000D01*
X61827000Y-89903000D01*
X61827000Y-89923000D01*
X61847000Y-89923000D01*
X61847000Y-90177000D01*
X61827000Y-90177000D01*
X61827000Y-91101250D01*
X61985750Y-91260000D01*
X62400000Y-91263072D01*
X62524482Y-91250812D01*
X62644180Y-91214502D01*
X62754494Y-91155537D01*
X62831223Y-91092568D01*
X62856613Y-91113405D01*
X63010149Y-91195472D01*
X63176745Y-91246008D01*
X63349999Y-91263072D01*
X64250001Y-91263072D01*
X64423255Y-91246008D01*
X64589851Y-91195472D01*
X64743387Y-91113405D01*
X64877962Y-91002962D01*
X64988405Y-90868387D01*
X65018010Y-90813000D01*
X66323289Y-90813000D01*
X65899361Y-91236928D01*
X64574999Y-91236928D01*
X64401745Y-91253992D01*
X64235149Y-91304528D01*
X64081613Y-91386595D01*
X63947038Y-91497038D01*
X63836595Y-91631613D01*
X63754528Y-91785149D01*
X63703992Y-91951745D01*
X63686928Y-92124999D01*
X63686928Y-93875001D01*
X63703992Y-94048255D01*
X63754528Y-94214851D01*
X63836595Y-94368387D01*
X63947038Y-94502962D01*
X64081613Y-94613405D01*
X64235149Y-94695472D01*
X64401745Y-94746008D01*
X64574999Y-94763072D01*
X65899362Y-94763072D01*
X68632196Y-97495907D01*
X68664604Y-97535396D01*
X68704092Y-97567803D01*
X68822202Y-97664734D01*
X69002006Y-97760841D01*
X69046302Y-97774278D01*
X69104701Y-97791993D01*
X69078992Y-97876746D01*
X69061928Y-98050000D01*
X69061928Y-100550000D01*
X69078992Y-100723254D01*
X69124417Y-100873000D01*
X67409008Y-100873000D01*
X67464502Y-100769180D01*
X67500812Y-100649482D01*
X67513072Y-100525000D01*
X67510000Y-99685750D01*
X67351250Y-99527000D01*
X65727000Y-99527000D01*
X65727000Y-99547000D01*
X65473000Y-99547000D01*
X65473000Y-99527000D01*
X63848750Y-99527000D01*
X63690000Y-99685750D01*
X63686928Y-100525000D01*
X63699188Y-100649482D01*
X63735498Y-100769180D01*
X63790992Y-100873000D01*
X56550509Y-100873000D01*
X56978839Y-100444670D01*
X57398533Y-99816554D01*
X57687623Y-99118628D01*
X57835000Y-98377715D01*
X57835000Y-98275000D01*
X63686928Y-98275000D01*
X63690000Y-99114250D01*
X63848750Y-99273000D01*
X65473000Y-99273000D01*
X65473000Y-97798750D01*
X65727000Y-97798750D01*
X65727000Y-99273000D01*
X67351250Y-99273000D01*
X67510000Y-99114250D01*
X67513072Y-98275000D01*
X67500812Y-98150518D01*
X67464502Y-98030820D01*
X67405537Y-97920506D01*
X67326185Y-97823815D01*
X67229494Y-97744463D01*
X67119180Y-97685498D01*
X66999482Y-97649188D01*
X66875000Y-97636928D01*
X65885750Y-97640000D01*
X65727000Y-97798750D01*
X65473000Y-97798750D01*
X65314250Y-97640000D01*
X64325000Y-97636928D01*
X64200518Y-97649188D01*
X64080820Y-97685498D01*
X63970506Y-97744463D01*
X63873815Y-97823815D01*
X63794463Y-97920506D01*
X63735498Y-98030820D01*
X63699188Y-98150518D01*
X63686928Y-98275000D01*
X57835000Y-98275000D01*
X57835000Y-97622285D01*
X57687623Y-96881372D01*
X57398533Y-96183446D01*
X56978839Y-95555330D01*
X56444670Y-95021161D01*
X55816554Y-94601467D01*
X55118628Y-94312377D01*
X54377715Y-94165000D01*
X53622285Y-94165000D01*
X52881372Y-94312377D01*
X52183446Y-94601467D01*
X51555330Y-95021161D01*
X51127000Y-95449491D01*
X51127000Y-92100000D01*
X52786928Y-92100000D01*
X52799188Y-92224482D01*
X52835498Y-92344180D01*
X52894463Y-92454494D01*
X52973815Y-92551185D01*
X53070506Y-92630537D01*
X53180820Y-92689502D01*
X53300518Y-92725812D01*
X53425000Y-92738072D01*
X53714250Y-92735000D01*
X53873000Y-92576250D01*
X53873000Y-91527000D01*
X52948750Y-91527000D01*
X52790000Y-91685750D01*
X52786928Y-92100000D01*
X51127000Y-92100000D01*
X51127000Y-90700000D01*
X52786928Y-90700000D01*
X52790000Y-91114250D01*
X52948750Y-91273000D01*
X53873000Y-91273000D01*
X53873000Y-90223750D01*
X53714250Y-90065000D01*
X53425000Y-90061928D01*
X53300518Y-90074188D01*
X53180820Y-90110498D01*
X53070506Y-90169463D01*
X52973815Y-90248815D01*
X52894463Y-90345506D01*
X52835498Y-90455820D01*
X52799188Y-90575518D01*
X52786928Y-90700000D01*
X51127000Y-90700000D01*
X51127000Y-89822250D01*
X51273000Y-89676250D01*
X51273000Y-88502000D01*
X51253000Y-88502000D01*
X51253000Y-88248000D01*
X51273000Y-88248000D01*
X51273000Y-86677000D01*
X51253000Y-86677000D01*
X51253000Y-86423000D01*
X51273000Y-86423000D01*
X51273000Y-85573750D01*
X51127000Y-85427750D01*
X51127000Y-85372250D01*
X51273000Y-85226250D01*
X51273000Y-83977000D01*
X51253000Y-83977000D01*
X51253000Y-83723000D01*
X51273000Y-83723000D01*
X51273000Y-81752000D01*
X51253000Y-81752000D01*
X51253000Y-81498000D01*
X51273000Y-81498000D01*
X51273000Y-80323750D01*
X51127000Y-80177750D01*
X51127000Y-56550509D01*
X51555330Y-56978839D01*
G37*
X51555330Y-56978839D02*
X52183446Y-57398533D01*
X52881372Y-57687623D01*
X53622285Y-57835000D01*
X54377715Y-57835000D01*
X55118628Y-57687623D01*
X55816554Y-57398533D01*
X56031135Y-57255154D01*
X54304092Y-58982198D01*
X54264605Y-59014604D01*
X54232198Y-59054092D01*
X54232197Y-59054093D01*
X54135266Y-59172203D01*
X54114254Y-59211515D01*
X54039159Y-59352007D01*
X53979976Y-59547105D01*
X53965000Y-59699162D01*
X53965000Y-59699172D01*
X53959994Y-59750000D01*
X53965000Y-59800828D01*
X53965000Y-60300837D01*
X53965001Y-60300847D01*
X53965000Y-72949172D01*
X53959994Y-73000000D01*
X53965000Y-73050828D01*
X53965000Y-73050837D01*
X53979976Y-73202894D01*
X54039159Y-73397992D01*
X54135266Y-73577797D01*
X54264604Y-73735396D01*
X54304097Y-73767807D01*
X55432197Y-74895908D01*
X55464604Y-74935396D01*
X55504092Y-74967803D01*
X55622202Y-75064734D01*
X55718309Y-75116104D01*
X55802007Y-75160841D01*
X55997105Y-75220024D01*
X56149162Y-75235000D01*
X56149171Y-75235000D01*
X56199999Y-75240006D01*
X56250827Y-75235000D01*
X56342546Y-75235000D01*
X56360498Y-75294180D01*
X56419463Y-75404494D01*
X56498815Y-75501185D01*
X56595506Y-75580537D01*
X56705820Y-75639502D01*
X56765001Y-75657454D01*
X56765001Y-76499162D01*
X56759994Y-76550000D01*
X56779977Y-76752895D01*
X56839160Y-76947993D01*
X56935266Y-77127797D01*
X56994522Y-77200000D01*
X57064605Y-77285396D01*
X57104092Y-77317803D01*
X60914177Y-81127888D01*
X60785150Y-81167028D01*
X60631614Y-81249095D01*
X60497038Y-81359538D01*
X60462177Y-81402016D01*
X60443387Y-81386595D01*
X60289851Y-81304528D01*
X60123255Y-81253992D01*
X59950001Y-81236928D01*
X59049999Y-81236928D01*
X58876745Y-81253992D01*
X58710149Y-81304528D01*
X58586419Y-81370663D01*
X58554494Y-81344463D01*
X58444180Y-81285498D01*
X58324482Y-81249188D01*
X58200000Y-81236928D01*
X57785750Y-81240000D01*
X57627000Y-81398750D01*
X57627000Y-82323000D01*
X57647000Y-82323000D01*
X57647000Y-82577000D01*
X57627000Y-82577000D01*
X57627000Y-82597000D01*
X57373000Y-82597000D01*
X57373000Y-82577000D01*
X56323750Y-82577000D01*
X56165000Y-82735750D01*
X56163627Y-82865000D01*
X55385481Y-82865000D01*
X55385000Y-82798250D01*
X55226250Y-82639500D01*
X54102000Y-82639500D01*
X54102000Y-82659500D01*
X53848000Y-82659500D01*
X53848000Y-82639500D01*
X53828000Y-82639500D01*
X53828000Y-82385500D01*
X53848000Y-82385500D01*
X53848000Y-81323750D01*
X54102000Y-81323750D01*
X54102000Y-82385500D01*
X55226250Y-82385500D01*
X55385000Y-82226750D01*
X55387532Y-81875000D01*
X56161928Y-81875000D01*
X56165000Y-82164250D01*
X56323750Y-82323000D01*
X57373000Y-82323000D01*
X57373000Y-81398750D01*
X57214250Y-81240000D01*
X56800000Y-81236928D01*
X56675518Y-81249188D01*
X56555820Y-81285498D01*
X56445506Y-81344463D01*
X56348815Y-81423815D01*
X56269463Y-81520506D01*
X56210498Y-81630820D01*
X56174188Y-81750518D01*
X56161928Y-81875000D01*
X55387532Y-81875000D01*
X55388072Y-81800000D01*
X55375812Y-81675518D01*
X55339502Y-81555820D01*
X55280537Y-81445506D01*
X55201185Y-81348815D01*
X55104494Y-81269463D01*
X54994180Y-81210498D01*
X54874482Y-81174188D01*
X54750000Y-81161928D01*
X54260750Y-81165000D01*
X54102000Y-81323750D01*
X53848000Y-81323750D01*
X53689250Y-81165000D01*
X53200000Y-81161928D01*
X53075518Y-81174188D01*
X52955820Y-81210498D01*
X52845506Y-81269463D01*
X52748815Y-81348815D01*
X52669463Y-81445506D01*
X52641405Y-81497998D01*
X52526252Y-81497998D01*
X52685000Y-81339250D01*
X52688072Y-80800000D01*
X52675812Y-80675518D01*
X52639502Y-80555820D01*
X52580537Y-80445506D01*
X52501185Y-80348815D01*
X52404494Y-80269463D01*
X52294180Y-80210498D01*
X52174482Y-80174188D01*
X52050000Y-80161928D01*
X51685750Y-80165000D01*
X51527000Y-80323750D01*
X51527000Y-81498000D01*
X51547000Y-81498000D01*
X51547000Y-81752000D01*
X51527000Y-81752000D01*
X51527000Y-83723000D01*
X51547000Y-83723000D01*
X51547000Y-83977000D01*
X51527000Y-83977000D01*
X51527000Y-85226250D01*
X51685750Y-85385000D01*
X52350000Y-85388072D01*
X52474482Y-85375812D01*
X52594180Y-85339502D01*
X52704494Y-85280537D01*
X52734937Y-85255553D01*
X52741777Y-85325000D01*
X52731928Y-85425000D01*
X52731928Y-85541977D01*
X52704494Y-85519463D01*
X52594180Y-85460498D01*
X52474482Y-85424188D01*
X52350000Y-85411928D01*
X51685750Y-85415000D01*
X51527000Y-85573750D01*
X51527000Y-86423000D01*
X51547000Y-86423000D01*
X51547000Y-86677000D01*
X51527000Y-86677000D01*
X51527000Y-88248000D01*
X51547000Y-88248000D01*
X51547000Y-88502000D01*
X51527000Y-88502000D01*
X51527000Y-89676250D01*
X51685750Y-89835000D01*
X52050000Y-89838072D01*
X52174482Y-89825812D01*
X52294180Y-89789502D01*
X52404494Y-89730537D01*
X52501185Y-89651185D01*
X52580537Y-89554494D01*
X52639502Y-89444180D01*
X52675812Y-89324482D01*
X52688072Y-89200000D01*
X52685000Y-88660750D01*
X52526252Y-88502002D01*
X52641405Y-88502002D01*
X52669463Y-88554494D01*
X52748815Y-88651185D01*
X52845506Y-88730537D01*
X52955820Y-88789502D01*
X53075518Y-88825812D01*
X53200000Y-88838072D01*
X53689250Y-88835000D01*
X53848000Y-88676250D01*
X53848000Y-87614500D01*
X53828000Y-87614500D01*
X53828000Y-87360500D01*
X53848000Y-87360500D01*
X53848000Y-87340500D01*
X54102000Y-87340500D01*
X54102000Y-87360500D01*
X54122000Y-87360500D01*
X54122000Y-87614500D01*
X54102000Y-87614500D01*
X54102000Y-88676250D01*
X54260750Y-88835000D01*
X54750000Y-88838072D01*
X54874482Y-88825812D01*
X54994180Y-88789502D01*
X55104494Y-88730537D01*
X55201185Y-88651185D01*
X55280537Y-88554494D01*
X55287001Y-88542402D01*
X55287000Y-90181990D01*
X55231613Y-90211595D01*
X55097038Y-90322038D01*
X55091658Y-90328594D01*
X55026185Y-90248815D01*
X54929494Y-90169463D01*
X54819180Y-90110498D01*
X54699482Y-90074188D01*
X54575000Y-90061928D01*
X54285750Y-90065000D01*
X54127000Y-90223750D01*
X54127000Y-91273000D01*
X54147000Y-91273000D01*
X54147000Y-91527000D01*
X54127000Y-91527000D01*
X54127000Y-92576250D01*
X54285750Y-92735000D01*
X54575000Y-92738072D01*
X54699482Y-92725812D01*
X54819180Y-92689502D01*
X54929494Y-92630537D01*
X55026185Y-92551185D01*
X55091658Y-92471406D01*
X55097038Y-92477962D01*
X55231613Y-92588405D01*
X55385149Y-92670472D01*
X55551745Y-92721008D01*
X55724999Y-92738072D01*
X56375001Y-92738072D01*
X56548255Y-92721008D01*
X56714851Y-92670472D01*
X56868387Y-92588405D01*
X57002962Y-92477962D01*
X57113405Y-92343387D01*
X57195472Y-92189851D01*
X57246008Y-92023255D01*
X57263072Y-91850001D01*
X57263072Y-90949999D01*
X57246008Y-90776745D01*
X57195472Y-90610149D01*
X57113405Y-90456613D01*
X57002962Y-90322038D01*
X56868387Y-90211595D01*
X56813000Y-90181990D01*
X56813000Y-90146337D01*
X56976745Y-90196008D01*
X57149999Y-90213072D01*
X58050001Y-90213072D01*
X58223255Y-90196008D01*
X58285910Y-90177002D01*
X58423748Y-90177002D01*
X58265000Y-90335750D01*
X58261928Y-90625000D01*
X58274188Y-90749482D01*
X58310498Y-90869180D01*
X58369463Y-90979494D01*
X58448815Y-91076185D01*
X58545506Y-91155537D01*
X58655820Y-91214502D01*
X58775518Y-91250812D01*
X58900000Y-91263072D01*
X59314250Y-91260000D01*
X59473000Y-91101250D01*
X59473000Y-90177000D01*
X59727000Y-90177000D01*
X59727000Y-91101250D01*
X59885750Y-91260000D01*
X60300000Y-91263072D01*
X60424482Y-91250812D01*
X60544180Y-91214502D01*
X60650000Y-91157939D01*
X60755820Y-91214502D01*
X60875518Y-91250812D01*
X61000000Y-91263072D01*
X61414250Y-91260000D01*
X61573000Y-91101250D01*
X61573000Y-90177000D01*
X59727000Y-90177000D01*
X59473000Y-90177000D01*
X59453000Y-90177000D01*
X59453000Y-89923000D01*
X59473000Y-89923000D01*
X59473000Y-89903000D01*
X59727000Y-89903000D01*
X59727000Y-89923000D01*
X61573000Y-89923000D01*
X61573000Y-89903000D01*
X61827000Y-89903000D01*
X61827000Y-89923000D01*
X61847000Y-89923000D01*
X61847000Y-90177000D01*
X61827000Y-90177000D01*
X61827000Y-91101250D01*
X61985750Y-91260000D01*
X62400000Y-91263072D01*
X62524482Y-91250812D01*
X62644180Y-91214502D01*
X62754494Y-91155537D01*
X62831223Y-91092568D01*
X62856613Y-91113405D01*
X63010149Y-91195472D01*
X63176745Y-91246008D01*
X63349999Y-91263072D01*
X64250001Y-91263072D01*
X64423255Y-91246008D01*
X64589851Y-91195472D01*
X64743387Y-91113405D01*
X64877962Y-91002962D01*
X64988405Y-90868387D01*
X65018010Y-90813000D01*
X66323289Y-90813000D01*
X65899361Y-91236928D01*
X64574999Y-91236928D01*
X64401745Y-91253992D01*
X64235149Y-91304528D01*
X64081613Y-91386595D01*
X63947038Y-91497038D01*
X63836595Y-91631613D01*
X63754528Y-91785149D01*
X63703992Y-91951745D01*
X63686928Y-92124999D01*
X63686928Y-93875001D01*
X63703992Y-94048255D01*
X63754528Y-94214851D01*
X63836595Y-94368387D01*
X63947038Y-94502962D01*
X64081613Y-94613405D01*
X64235149Y-94695472D01*
X64401745Y-94746008D01*
X64574999Y-94763072D01*
X65899362Y-94763072D01*
X68632196Y-97495907D01*
X68664604Y-97535396D01*
X68704092Y-97567803D01*
X68822202Y-97664734D01*
X69002006Y-97760841D01*
X69046302Y-97774278D01*
X69104701Y-97791993D01*
X69078992Y-97876746D01*
X69061928Y-98050000D01*
X69061928Y-100550000D01*
X69078992Y-100723254D01*
X69124417Y-100873000D01*
X67409008Y-100873000D01*
X67464502Y-100769180D01*
X67500812Y-100649482D01*
X67513072Y-100525000D01*
X67510000Y-99685750D01*
X67351250Y-99527000D01*
X65727000Y-99527000D01*
X65727000Y-99547000D01*
X65473000Y-99547000D01*
X65473000Y-99527000D01*
X63848750Y-99527000D01*
X63690000Y-99685750D01*
X63686928Y-100525000D01*
X63699188Y-100649482D01*
X63735498Y-100769180D01*
X63790992Y-100873000D01*
X56550509Y-100873000D01*
X56978839Y-100444670D01*
X57398533Y-99816554D01*
X57687623Y-99118628D01*
X57835000Y-98377715D01*
X57835000Y-98275000D01*
X63686928Y-98275000D01*
X63690000Y-99114250D01*
X63848750Y-99273000D01*
X65473000Y-99273000D01*
X65473000Y-97798750D01*
X65727000Y-97798750D01*
X65727000Y-99273000D01*
X67351250Y-99273000D01*
X67510000Y-99114250D01*
X67513072Y-98275000D01*
X67500812Y-98150518D01*
X67464502Y-98030820D01*
X67405537Y-97920506D01*
X67326185Y-97823815D01*
X67229494Y-97744463D01*
X67119180Y-97685498D01*
X66999482Y-97649188D01*
X66875000Y-97636928D01*
X65885750Y-97640000D01*
X65727000Y-97798750D01*
X65473000Y-97798750D01*
X65314250Y-97640000D01*
X64325000Y-97636928D01*
X64200518Y-97649188D01*
X64080820Y-97685498D01*
X63970506Y-97744463D01*
X63873815Y-97823815D01*
X63794463Y-97920506D01*
X63735498Y-98030820D01*
X63699188Y-98150518D01*
X63686928Y-98275000D01*
X57835000Y-98275000D01*
X57835000Y-97622285D01*
X57687623Y-96881372D01*
X57398533Y-96183446D01*
X56978839Y-95555330D01*
X56444670Y-95021161D01*
X55816554Y-94601467D01*
X55118628Y-94312377D01*
X54377715Y-94165000D01*
X53622285Y-94165000D01*
X52881372Y-94312377D01*
X52183446Y-94601467D01*
X51555330Y-95021161D01*
X51127000Y-95449491D01*
X51127000Y-92100000D01*
X52786928Y-92100000D01*
X52799188Y-92224482D01*
X52835498Y-92344180D01*
X52894463Y-92454494D01*
X52973815Y-92551185D01*
X53070506Y-92630537D01*
X53180820Y-92689502D01*
X53300518Y-92725812D01*
X53425000Y-92738072D01*
X53714250Y-92735000D01*
X53873000Y-92576250D01*
X53873000Y-91527000D01*
X52948750Y-91527000D01*
X52790000Y-91685750D01*
X52786928Y-92100000D01*
X51127000Y-92100000D01*
X51127000Y-90700000D01*
X52786928Y-90700000D01*
X52790000Y-91114250D01*
X52948750Y-91273000D01*
X53873000Y-91273000D01*
X53873000Y-90223750D01*
X53714250Y-90065000D01*
X53425000Y-90061928D01*
X53300518Y-90074188D01*
X53180820Y-90110498D01*
X53070506Y-90169463D01*
X52973815Y-90248815D01*
X52894463Y-90345506D01*
X52835498Y-90455820D01*
X52799188Y-90575518D01*
X52786928Y-90700000D01*
X51127000Y-90700000D01*
X51127000Y-89822250D01*
X51273000Y-89676250D01*
X51273000Y-88502000D01*
X51253000Y-88502000D01*
X51253000Y-88248000D01*
X51273000Y-88248000D01*
X51273000Y-86677000D01*
X51253000Y-86677000D01*
X51253000Y-86423000D01*
X51273000Y-86423000D01*
X51273000Y-85573750D01*
X51127000Y-85427750D01*
X51127000Y-85372250D01*
X51273000Y-85226250D01*
X51273000Y-83977000D01*
X51253000Y-83977000D01*
X51253000Y-83723000D01*
X51273000Y-83723000D01*
X51273000Y-81752000D01*
X51253000Y-81752000D01*
X51253000Y-81498000D01*
X51273000Y-81498000D01*
X51273000Y-80323750D01*
X51127000Y-80177750D01*
X51127000Y-56550509D01*
X51555330Y-56978839D01*
G36*
X89054528Y-91539851D02*
G01*
X89136595Y-91693387D01*
X89247038Y-91827962D01*
X89304354Y-91875000D01*
X89247038Y-91922038D01*
X89136595Y-92056613D01*
X89054528Y-92210149D01*
X89003992Y-92376745D01*
X88986928Y-92549999D01*
X88986928Y-93450001D01*
X89003992Y-93623255D01*
X89054528Y-93789851D01*
X89136595Y-93943387D01*
X89247038Y-94077962D01*
X89381613Y-94188405D01*
X89414974Y-94206237D01*
X88881372Y-94312377D01*
X88183446Y-94601467D01*
X87555330Y-95021161D01*
X87021161Y-95555330D01*
X86601467Y-96183446D01*
X86312377Y-96881372D01*
X86167307Y-97610686D01*
X86138405Y-97556614D01*
X86027962Y-97422038D01*
X85893386Y-97311595D01*
X85739850Y-97229528D01*
X85573254Y-97178992D01*
X85400000Y-97161928D01*
X83800000Y-97161928D01*
X83626746Y-97178992D01*
X83460150Y-97229528D01*
X83306614Y-97311595D01*
X83172038Y-97422038D01*
X83085000Y-97528095D01*
X83085000Y-97031191D01*
X83088072Y-97000000D01*
X83088072Y-95800000D01*
X83085000Y-95768809D01*
X83085000Y-95128710D01*
X83125638Y-95088072D01*
X83325001Y-95088072D01*
X83498255Y-95071008D01*
X83664851Y-95020472D01*
X83818387Y-94938405D01*
X83952962Y-94827962D01*
X83958342Y-94821406D01*
X84023815Y-94901185D01*
X84120506Y-94980537D01*
X84230820Y-95039502D01*
X84350518Y-95075812D01*
X84475000Y-95088072D01*
X84764250Y-95085000D01*
X84923000Y-94926250D01*
X84923000Y-93877000D01*
X85177000Y-93877000D01*
X85177000Y-94926250D01*
X85335750Y-95085000D01*
X85625000Y-95088072D01*
X85749482Y-95075812D01*
X85869180Y-95039502D01*
X85979494Y-94980537D01*
X86076185Y-94901185D01*
X86155537Y-94804494D01*
X86214502Y-94694180D01*
X86250812Y-94574482D01*
X86263072Y-94450000D01*
X86260000Y-94035750D01*
X86101250Y-93877000D01*
X85177000Y-93877000D01*
X84923000Y-93877000D01*
X84903000Y-93877000D01*
X84903000Y-93623000D01*
X84923000Y-93623000D01*
X84923000Y-92573750D01*
X85177000Y-92573750D01*
X85177000Y-93623000D01*
X86101250Y-93623000D01*
X86260000Y-93464250D01*
X86263072Y-93050000D01*
X86250812Y-92925518D01*
X86214502Y-92805820D01*
X86155537Y-92695506D01*
X86076185Y-92598815D01*
X85979494Y-92519463D01*
X85869180Y-92460498D01*
X85749482Y-92424188D01*
X85625000Y-92411928D01*
X85335750Y-92415000D01*
X85177000Y-92573750D01*
X84923000Y-92573750D01*
X84764250Y-92415000D01*
X84475000Y-92411928D01*
X84350518Y-92424188D01*
X84230820Y-92460498D01*
X84120506Y-92519463D01*
X84023815Y-92598815D01*
X83958342Y-92678594D01*
X83952962Y-92672038D01*
X83818387Y-92561595D01*
X83664851Y-92479528D01*
X83498255Y-92428992D01*
X83485480Y-92427734D01*
X83561515Y-92313940D01*
X83643304Y-92116483D01*
X83685000Y-91906863D01*
X83685000Y-91794045D01*
X83966045Y-91513000D01*
X89046383Y-91513000D01*
X89054528Y-91539851D01*
G37*
X89054528Y-91539851D02*
X89136595Y-91693387D01*
X89247038Y-91827962D01*
X89304354Y-91875000D01*
X89247038Y-91922038D01*
X89136595Y-92056613D01*
X89054528Y-92210149D01*
X89003992Y-92376745D01*
X88986928Y-92549999D01*
X88986928Y-93450001D01*
X89003992Y-93623255D01*
X89054528Y-93789851D01*
X89136595Y-93943387D01*
X89247038Y-94077962D01*
X89381613Y-94188405D01*
X89414974Y-94206237D01*
X88881372Y-94312377D01*
X88183446Y-94601467D01*
X87555330Y-95021161D01*
X87021161Y-95555330D01*
X86601467Y-96183446D01*
X86312377Y-96881372D01*
X86167307Y-97610686D01*
X86138405Y-97556614D01*
X86027962Y-97422038D01*
X85893386Y-97311595D01*
X85739850Y-97229528D01*
X85573254Y-97178992D01*
X85400000Y-97161928D01*
X83800000Y-97161928D01*
X83626746Y-97178992D01*
X83460150Y-97229528D01*
X83306614Y-97311595D01*
X83172038Y-97422038D01*
X83085000Y-97528095D01*
X83085000Y-97031191D01*
X83088072Y-97000000D01*
X83088072Y-95800000D01*
X83085000Y-95768809D01*
X83085000Y-95128710D01*
X83125638Y-95088072D01*
X83325001Y-95088072D01*
X83498255Y-95071008D01*
X83664851Y-95020472D01*
X83818387Y-94938405D01*
X83952962Y-94827962D01*
X83958342Y-94821406D01*
X84023815Y-94901185D01*
X84120506Y-94980537D01*
X84230820Y-95039502D01*
X84350518Y-95075812D01*
X84475000Y-95088072D01*
X84764250Y-95085000D01*
X84923000Y-94926250D01*
X84923000Y-93877000D01*
X85177000Y-93877000D01*
X85177000Y-94926250D01*
X85335750Y-95085000D01*
X85625000Y-95088072D01*
X85749482Y-95075812D01*
X85869180Y-95039502D01*
X85979494Y-94980537D01*
X86076185Y-94901185D01*
X86155537Y-94804494D01*
X86214502Y-94694180D01*
X86250812Y-94574482D01*
X86263072Y-94450000D01*
X86260000Y-94035750D01*
X86101250Y-93877000D01*
X85177000Y-93877000D01*
X84923000Y-93877000D01*
X84903000Y-93877000D01*
X84903000Y-93623000D01*
X84923000Y-93623000D01*
X84923000Y-92573750D01*
X85177000Y-92573750D01*
X85177000Y-93623000D01*
X86101250Y-93623000D01*
X86260000Y-93464250D01*
X86263072Y-93050000D01*
X86250812Y-92925518D01*
X86214502Y-92805820D01*
X86155537Y-92695506D01*
X86076185Y-92598815D01*
X85979494Y-92519463D01*
X85869180Y-92460498D01*
X85749482Y-92424188D01*
X85625000Y-92411928D01*
X85335750Y-92415000D01*
X85177000Y-92573750D01*
X84923000Y-92573750D01*
X84764250Y-92415000D01*
X84475000Y-92411928D01*
X84350518Y-92424188D01*
X84230820Y-92460498D01*
X84120506Y-92519463D01*
X84023815Y-92598815D01*
X83958342Y-92678594D01*
X83952962Y-92672038D01*
X83818387Y-92561595D01*
X83664851Y-92479528D01*
X83498255Y-92428992D01*
X83485480Y-92427734D01*
X83561515Y-92313940D01*
X83643304Y-92116483D01*
X83685000Y-91906863D01*
X83685000Y-91794045D01*
X83966045Y-91513000D01*
X89046383Y-91513000D01*
X89054528Y-91539851D01*
G36*
X81757225Y-92491647D02*
G01*
X81908353Y-92642775D01*
X82013432Y-92712987D01*
X81936595Y-92806613D01*
X81854528Y-92960149D01*
X81803992Y-93126745D01*
X81786928Y-93299999D01*
X81786928Y-93499362D01*
X81354092Y-93932198D01*
X81314605Y-93964604D01*
X81282198Y-94004092D01*
X81282197Y-94004093D01*
X81185266Y-94122203D01*
X81089160Y-94302007D01*
X81029977Y-94497105D01*
X81009994Y-94700000D01*
X81015001Y-94750837D01*
X81015001Y-95035749D01*
X80927000Y-95123750D01*
X80927000Y-96273000D01*
X80947000Y-96273000D01*
X80947000Y-96527000D01*
X80927000Y-96527000D01*
X80927000Y-96547000D01*
X80673000Y-96547000D01*
X80673000Y-96527000D01*
X80653000Y-96527000D01*
X80653000Y-96273000D01*
X80673000Y-96273000D01*
X80673000Y-95123750D01*
X80514250Y-94965000D01*
X80400000Y-94961928D01*
X80313000Y-94970496D01*
X80313000Y-93766044D01*
X81689202Y-92389843D01*
X81757225Y-92491647D01*
G37*
X81757225Y-92491647D02*
X81908353Y-92642775D01*
X82013432Y-92712987D01*
X81936595Y-92806613D01*
X81854528Y-92960149D01*
X81803992Y-93126745D01*
X81786928Y-93299999D01*
X81786928Y-93499362D01*
X81354092Y-93932198D01*
X81314605Y-93964604D01*
X81282198Y-94004092D01*
X81282197Y-94004093D01*
X81185266Y-94122203D01*
X81089160Y-94302007D01*
X81029977Y-94497105D01*
X81009994Y-94700000D01*
X81015001Y-94750837D01*
X81015001Y-95035749D01*
X80927000Y-95123750D01*
X80927000Y-96273000D01*
X80947000Y-96273000D01*
X80947000Y-96527000D01*
X80927000Y-96527000D01*
X80927000Y-96547000D01*
X80673000Y-96547000D01*
X80673000Y-96527000D01*
X80653000Y-96527000D01*
X80653000Y-96273000D01*
X80673000Y-96273000D01*
X80673000Y-95123750D01*
X80514250Y-94965000D01*
X80400000Y-94961928D01*
X80313000Y-94970496D01*
X80313000Y-93766044D01*
X81689202Y-92389843D01*
X81757225Y-92491647D01*
G36*
X68191324Y-92388753D02*
G01*
X68425179Y-92485619D01*
X68673439Y-92535000D01*
X68904132Y-92535000D01*
X69165000Y-92795868D01*
X69165001Y-93958972D01*
X69160960Y-94000000D01*
X69177082Y-94163688D01*
X69224828Y-94321086D01*
X69302364Y-94466145D01*
X69312843Y-94478914D01*
X69406710Y-94593291D01*
X69438574Y-94619441D01*
X70180563Y-95361432D01*
X70206709Y-95393291D01*
X70238568Y-95419437D01*
X70238570Y-95419439D01*
X70333854Y-95497636D01*
X70478913Y-95575172D01*
X70636311Y-95622918D01*
X70800000Y-95639040D01*
X70841018Y-95635000D01*
X72278486Y-95635000D01*
X72278031Y-95636500D01*
X72261928Y-95800000D01*
X72261928Y-95890109D01*
X72166607Y-95839159D01*
X71971509Y-95779976D01*
X71819452Y-95765000D01*
X71819442Y-95765000D01*
X71768614Y-95759994D01*
X71717786Y-95765000D01*
X69828711Y-95765000D01*
X67513072Y-93449362D01*
X67513072Y-92550639D01*
X67778711Y-92285000D01*
X68036047Y-92285000D01*
X68191324Y-92388753D01*
G37*
X68191324Y-92388753D02*
X68425179Y-92485619D01*
X68673439Y-92535000D01*
X68904132Y-92535000D01*
X69165000Y-92795868D01*
X69165001Y-93958972D01*
X69160960Y-94000000D01*
X69177082Y-94163688D01*
X69224828Y-94321086D01*
X69302364Y-94466145D01*
X69312843Y-94478914D01*
X69406710Y-94593291D01*
X69438574Y-94619441D01*
X70180563Y-95361432D01*
X70206709Y-95393291D01*
X70238568Y-95419437D01*
X70238570Y-95419439D01*
X70333854Y-95497636D01*
X70478913Y-95575172D01*
X70636311Y-95622918D01*
X70800000Y-95639040D01*
X70841018Y-95635000D01*
X72278486Y-95635000D01*
X72278031Y-95636500D01*
X72261928Y-95800000D01*
X72261928Y-95890109D01*
X72166607Y-95839159D01*
X71971509Y-95779976D01*
X71819452Y-95765000D01*
X71819442Y-95765000D01*
X71768614Y-95759994D01*
X71717786Y-95765000D01*
X69828711Y-95765000D01*
X67513072Y-93449362D01*
X67513072Y-92550639D01*
X67778711Y-92285000D01*
X68036047Y-92285000D01*
X68191324Y-92388753D01*
G36*
X73933977Y-94013021D02*
G01*
X73957868Y-94042132D01*
X74074049Y-94137480D01*
X74206600Y-94208330D01*
X74350426Y-94251959D01*
X74462525Y-94263000D01*
X74462532Y-94263000D01*
X74499999Y-94266690D01*
X74537466Y-94263000D01*
X75657956Y-94263000D01*
X75286979Y-94633977D01*
X75257868Y-94657868D01*
X75162520Y-94774050D01*
X75091670Y-94906601D01*
X75056814Y-95021505D01*
X74913500Y-94978031D01*
X74750000Y-94961928D01*
X74350000Y-94961928D01*
X74186500Y-94978031D01*
X74029284Y-95025722D01*
X73925000Y-95081463D01*
X73820716Y-95025722D01*
X73663500Y-94978031D01*
X73607638Y-94972529D01*
X73682636Y-94881145D01*
X73760172Y-94736087D01*
X73807917Y-94578689D01*
X73824040Y-94415001D01*
X73807917Y-94251313D01*
X73795000Y-94208730D01*
X73795000Y-93874044D01*
X73933977Y-94013021D01*
G37*
X73933977Y-94013021D02*
X73957868Y-94042132D01*
X74074049Y-94137480D01*
X74206600Y-94208330D01*
X74350426Y-94251959D01*
X74462525Y-94263000D01*
X74462532Y-94263000D01*
X74499999Y-94266690D01*
X74537466Y-94263000D01*
X75657956Y-94263000D01*
X75286979Y-94633977D01*
X75257868Y-94657868D01*
X75162520Y-94774050D01*
X75091670Y-94906601D01*
X75056814Y-95021505D01*
X74913500Y-94978031D01*
X74750000Y-94961928D01*
X74350000Y-94961928D01*
X74186500Y-94978031D01*
X74029284Y-95025722D01*
X73925000Y-95081463D01*
X73820716Y-95025722D01*
X73663500Y-94978031D01*
X73607638Y-94972529D01*
X73682636Y-94881145D01*
X73760172Y-94736087D01*
X73807917Y-94578689D01*
X73824040Y-94415001D01*
X73807917Y-94251313D01*
X73795000Y-94208730D01*
X73795000Y-93874044D01*
X73933977Y-94013021D01*
G36*
X75050426Y-89351959D02*
G01*
X75162525Y-89363000D01*
X75162532Y-89363000D01*
X75199999Y-89366690D01*
X75237466Y-89363000D01*
X75757955Y-89363000D01*
X75011979Y-90108977D01*
X74982868Y-90132868D01*
X74887520Y-90249050D01*
X74816670Y-90381601D01*
X74773041Y-90525427D01*
X74762000Y-90637526D01*
X74762000Y-90637533D01*
X74758310Y-90675000D01*
X74762000Y-90712467D01*
X74762000Y-91061928D01*
X74690000Y-91061928D01*
X74572500Y-91073500D01*
X74455000Y-91061928D01*
X74055000Y-91061928D01*
X73932854Y-91073958D01*
X73851750Y-91065000D01*
X73801006Y-91115744D01*
X73700506Y-91169463D01*
X73620000Y-91235532D01*
X73539494Y-91169463D01*
X73438994Y-91115744D01*
X73388250Y-91065000D01*
X73363088Y-91067779D01*
X74816433Y-89614436D01*
X74848291Y-89588291D01*
X74876028Y-89554494D01*
X74952636Y-89461146D01*
X75016499Y-89341667D01*
X75050426Y-89351959D01*
G37*
X75050426Y-89351959D02*
X75162525Y-89363000D01*
X75162532Y-89363000D01*
X75199999Y-89366690D01*
X75237466Y-89363000D01*
X75757955Y-89363000D01*
X75011979Y-90108977D01*
X74982868Y-90132868D01*
X74887520Y-90249050D01*
X74816670Y-90381601D01*
X74773041Y-90525427D01*
X74762000Y-90637526D01*
X74762000Y-90637533D01*
X74758310Y-90675000D01*
X74762000Y-90712467D01*
X74762000Y-91061928D01*
X74690000Y-91061928D01*
X74572500Y-91073500D01*
X74455000Y-91061928D01*
X74055000Y-91061928D01*
X73932854Y-91073958D01*
X73851750Y-91065000D01*
X73801006Y-91115744D01*
X73700506Y-91169463D01*
X73620000Y-91235532D01*
X73539494Y-91169463D01*
X73438994Y-91115744D01*
X73388250Y-91065000D01*
X73363088Y-91067779D01*
X74816433Y-89614436D01*
X74848291Y-89588291D01*
X74876028Y-89554494D01*
X74952636Y-89461146D01*
X75016499Y-89341667D01*
X75050426Y-89351959D01*
G36*
X89003992Y-86873255D02*
G01*
X89054528Y-87039851D01*
X89136595Y-87193387D01*
X89247038Y-87327962D01*
X89304354Y-87375000D01*
X89247038Y-87422038D01*
X89136595Y-87556613D01*
X89054528Y-87710149D01*
X89003992Y-87876745D01*
X88986928Y-88049999D01*
X88986928Y-88950001D01*
X89003992Y-89123255D01*
X89054528Y-89289851D01*
X89136595Y-89443387D01*
X89247038Y-89577962D01*
X89304354Y-89625000D01*
X89247038Y-89672038D01*
X89136595Y-89806613D01*
X89054528Y-89960149D01*
X89046383Y-89987000D01*
X84092045Y-89987000D01*
X85713027Y-88366018D01*
X85742132Y-88342132D01*
X85766018Y-88313027D01*
X85766021Y-88313024D01*
X85837480Y-88225951D01*
X85908330Y-88093400D01*
X85937638Y-87996784D01*
X86042775Y-87891647D01*
X86161515Y-87713940D01*
X86243304Y-87516483D01*
X86285000Y-87306863D01*
X86285000Y-87111995D01*
X86418940Y-87056515D01*
X86596647Y-86937775D01*
X86676422Y-86858000D01*
X89002490Y-86858000D01*
X89003992Y-86873255D01*
G37*
X89003992Y-86873255D02*
X89054528Y-87039851D01*
X89136595Y-87193387D01*
X89247038Y-87327962D01*
X89304354Y-87375000D01*
X89247038Y-87422038D01*
X89136595Y-87556613D01*
X89054528Y-87710149D01*
X89003992Y-87876745D01*
X88986928Y-88049999D01*
X88986928Y-88950001D01*
X89003992Y-89123255D01*
X89054528Y-89289851D01*
X89136595Y-89443387D01*
X89247038Y-89577962D01*
X89304354Y-89625000D01*
X89247038Y-89672038D01*
X89136595Y-89806613D01*
X89054528Y-89960149D01*
X89046383Y-89987000D01*
X84092045Y-89987000D01*
X85713027Y-88366018D01*
X85742132Y-88342132D01*
X85766018Y-88313027D01*
X85766021Y-88313024D01*
X85837480Y-88225951D01*
X85908330Y-88093400D01*
X85937638Y-87996784D01*
X86042775Y-87891647D01*
X86161515Y-87713940D01*
X86243304Y-87516483D01*
X86285000Y-87306863D01*
X86285000Y-87111995D01*
X86418940Y-87056515D01*
X86596647Y-86937775D01*
X86676422Y-86858000D01*
X89002490Y-86858000D01*
X89003992Y-86873255D01*
G36*
X71165001Y-81622001D02*
G01*
X71136595Y-81656613D01*
X71054528Y-81810149D01*
X71003992Y-81976745D01*
X70986928Y-82149999D01*
X70986928Y-83050001D01*
X71003992Y-83223255D01*
X71054528Y-83389851D01*
X71136595Y-83543387D01*
X71178756Y-83594760D01*
X71173815Y-83598815D01*
X71094463Y-83695506D01*
X71035498Y-83805820D01*
X70999188Y-83925518D01*
X70986928Y-84050000D01*
X70990000Y-84464250D01*
X71148750Y-84623000D01*
X72073000Y-84623000D01*
X72073000Y-84603000D01*
X72327000Y-84603000D01*
X72327000Y-84623000D01*
X72347000Y-84623000D01*
X72347000Y-84877000D01*
X72327000Y-84877000D01*
X72327000Y-84897000D01*
X72073000Y-84897000D01*
X72073000Y-84877000D01*
X71148750Y-84877000D01*
X70990000Y-85035750D01*
X70986928Y-85450000D01*
X70999188Y-85574482D01*
X71035498Y-85694180D01*
X71094463Y-85804494D01*
X71141598Y-85861928D01*
X70880000Y-85861928D01*
X70755518Y-85874188D01*
X70635820Y-85910498D01*
X70525506Y-85969463D01*
X70510080Y-85982123D01*
X70500812Y-85888018D01*
X70464502Y-85768320D01*
X70405537Y-85658006D01*
X70326185Y-85561315D01*
X70229494Y-85481963D01*
X70119180Y-85422998D01*
X69999482Y-85386688D01*
X69875000Y-85374428D01*
X69285750Y-85377500D01*
X69127000Y-85536250D01*
X69127000Y-86598000D01*
X69147000Y-86598000D01*
X69147000Y-86852000D01*
X69127000Y-86852000D01*
X69127000Y-87913750D01*
X69285750Y-88072500D01*
X69875000Y-88075572D01*
X69999482Y-88063312D01*
X70119180Y-88027002D01*
X70229494Y-87968037D01*
X70284133Y-87923196D01*
X70290498Y-87944180D01*
X70317000Y-87993762D01*
X70317000Y-88103955D01*
X70183956Y-88237000D01*
X65138072Y-88237000D01*
X65138072Y-87674999D01*
X65121008Y-87501745D01*
X65101520Y-87437500D01*
X67486928Y-87437500D01*
X67499188Y-87561982D01*
X67535498Y-87681680D01*
X67594463Y-87791994D01*
X67673815Y-87888685D01*
X67770506Y-87968037D01*
X67880820Y-88027002D01*
X68000518Y-88063312D01*
X68125000Y-88075572D01*
X68714250Y-88072500D01*
X68873000Y-87913750D01*
X68873000Y-86852000D01*
X67648750Y-86852000D01*
X67490000Y-87010750D01*
X67486928Y-87437500D01*
X65101520Y-87437500D01*
X65070472Y-87335149D01*
X64988405Y-87181613D01*
X64877962Y-87047038D01*
X64743387Y-86936595D01*
X64589851Y-86854528D01*
X64423255Y-86803992D01*
X64250001Y-86786928D01*
X63349999Y-86786928D01*
X63176745Y-86803992D01*
X63010149Y-86854528D01*
X62856613Y-86936595D01*
X62750000Y-87024090D01*
X62643387Y-86936595D01*
X62489851Y-86854528D01*
X62323255Y-86803992D01*
X62150001Y-86786928D01*
X61265973Y-86786928D01*
X61252648Y-86773603D01*
X61464250Y-86772500D01*
X61623000Y-86613750D01*
X61623000Y-85552000D01*
X61877000Y-85552000D01*
X61877000Y-86613750D01*
X62035750Y-86772500D01*
X62625000Y-86775572D01*
X62749482Y-86763312D01*
X62869180Y-86727002D01*
X62979494Y-86668037D01*
X63076185Y-86588685D01*
X63155537Y-86491994D01*
X63214502Y-86381680D01*
X63250812Y-86261982D01*
X63263072Y-86137500D01*
X63261183Y-85875000D01*
X63961928Y-85875000D01*
X63974188Y-85999482D01*
X64010498Y-86119180D01*
X64069463Y-86229494D01*
X64148815Y-86326185D01*
X64245506Y-86405537D01*
X64355820Y-86464502D01*
X64475518Y-86500812D01*
X64600000Y-86513072D01*
X64714250Y-86510000D01*
X64873000Y-86351250D01*
X64873000Y-85552000D01*
X64123750Y-85552000D01*
X63965000Y-85710750D01*
X63961928Y-85875000D01*
X63261183Y-85875000D01*
X63260000Y-85710750D01*
X63101250Y-85552000D01*
X61877000Y-85552000D01*
X61623000Y-85552000D01*
X61603000Y-85552000D01*
X61603000Y-85298000D01*
X61623000Y-85298000D01*
X61623000Y-84236250D01*
X61877000Y-84236250D01*
X61877000Y-85298000D01*
X63101250Y-85298000D01*
X63260000Y-85139250D01*
X63263072Y-84712500D01*
X63250812Y-84588018D01*
X63214502Y-84468320D01*
X63155537Y-84358006D01*
X63076185Y-84261315D01*
X62979494Y-84181963D01*
X62869180Y-84122998D01*
X62749482Y-84086688D01*
X62625000Y-84074428D01*
X62035750Y-84077500D01*
X61877000Y-84236250D01*
X61623000Y-84236250D01*
X61464250Y-84077500D01*
X60875000Y-84074428D01*
X60828617Y-84078996D01*
X60821008Y-84001745D01*
X60770472Y-83835149D01*
X60688405Y-83681613D01*
X60687890Y-83680985D01*
X60785150Y-83732972D01*
X60951746Y-83783508D01*
X61125000Y-83800572D01*
X62375000Y-83800572D01*
X62548254Y-83783508D01*
X62714850Y-83732972D01*
X62868386Y-83650905D01*
X63002962Y-83540462D01*
X63036223Y-83499933D01*
X63657197Y-84120908D01*
X63689604Y-84160396D01*
X63729092Y-84192803D01*
X63847202Y-84289734D01*
X63910964Y-84323815D01*
X64027007Y-84385841D01*
X64222105Y-84445024D01*
X64242388Y-84447022D01*
X64148815Y-84523815D01*
X64069463Y-84620506D01*
X64010498Y-84730820D01*
X63974188Y-84850518D01*
X63961928Y-84975000D01*
X63965000Y-85139250D01*
X64123750Y-85298000D01*
X64873000Y-85298000D01*
X64873000Y-85278000D01*
X65127000Y-85278000D01*
X65127000Y-85298000D01*
X65147000Y-85298000D01*
X65147000Y-85552000D01*
X65127000Y-85552000D01*
X65127000Y-86351250D01*
X65285750Y-86510000D01*
X65400000Y-86513072D01*
X65524482Y-86500812D01*
X65644180Y-86464502D01*
X65754494Y-86405537D01*
X65851185Y-86326185D01*
X65930537Y-86229494D01*
X65950000Y-86193082D01*
X65969463Y-86229494D01*
X66048815Y-86326185D01*
X66145506Y-86405537D01*
X66255820Y-86464502D01*
X66375518Y-86500812D01*
X66500000Y-86513072D01*
X67300000Y-86513072D01*
X67424482Y-86500812D01*
X67521985Y-86471235D01*
X67648750Y-86598000D01*
X68873000Y-86598000D01*
X68873000Y-85536250D01*
X68775230Y-85438480D01*
X69113139Y-85100572D01*
X69625000Y-85100572D01*
X69798254Y-85083508D01*
X69964850Y-85032972D01*
X70118386Y-84950905D01*
X70252962Y-84840462D01*
X70363405Y-84705886D01*
X70445472Y-84552350D01*
X70496008Y-84385754D01*
X70513072Y-84212500D01*
X70513072Y-83287500D01*
X70496008Y-83114246D01*
X70445472Y-82947650D01*
X70363405Y-82794114D01*
X70252962Y-82659538D01*
X70118386Y-82549095D01*
X70035000Y-82504524D01*
X70035000Y-82428710D01*
X71028711Y-81435000D01*
X71165000Y-81435000D01*
X71165001Y-81622001D01*
G37*
X71165001Y-81622001D02*
X71136595Y-81656613D01*
X71054528Y-81810149D01*
X71003992Y-81976745D01*
X70986928Y-82149999D01*
X70986928Y-83050001D01*
X71003992Y-83223255D01*
X71054528Y-83389851D01*
X71136595Y-83543387D01*
X71178756Y-83594760D01*
X71173815Y-83598815D01*
X71094463Y-83695506D01*
X71035498Y-83805820D01*
X70999188Y-83925518D01*
X70986928Y-84050000D01*
X70990000Y-84464250D01*
X71148750Y-84623000D01*
X72073000Y-84623000D01*
X72073000Y-84603000D01*
X72327000Y-84603000D01*
X72327000Y-84623000D01*
X72347000Y-84623000D01*
X72347000Y-84877000D01*
X72327000Y-84877000D01*
X72327000Y-84897000D01*
X72073000Y-84897000D01*
X72073000Y-84877000D01*
X71148750Y-84877000D01*
X70990000Y-85035750D01*
X70986928Y-85450000D01*
X70999188Y-85574482D01*
X71035498Y-85694180D01*
X71094463Y-85804494D01*
X71141598Y-85861928D01*
X70880000Y-85861928D01*
X70755518Y-85874188D01*
X70635820Y-85910498D01*
X70525506Y-85969463D01*
X70510080Y-85982123D01*
X70500812Y-85888018D01*
X70464502Y-85768320D01*
X70405537Y-85658006D01*
X70326185Y-85561315D01*
X70229494Y-85481963D01*
X70119180Y-85422998D01*
X69999482Y-85386688D01*
X69875000Y-85374428D01*
X69285750Y-85377500D01*
X69127000Y-85536250D01*
X69127000Y-86598000D01*
X69147000Y-86598000D01*
X69147000Y-86852000D01*
X69127000Y-86852000D01*
X69127000Y-87913750D01*
X69285750Y-88072500D01*
X69875000Y-88075572D01*
X69999482Y-88063312D01*
X70119180Y-88027002D01*
X70229494Y-87968037D01*
X70284133Y-87923196D01*
X70290498Y-87944180D01*
X70317000Y-87993762D01*
X70317000Y-88103955D01*
X70183956Y-88237000D01*
X65138072Y-88237000D01*
X65138072Y-87674999D01*
X65121008Y-87501745D01*
X65101520Y-87437500D01*
X67486928Y-87437500D01*
X67499188Y-87561982D01*
X67535498Y-87681680D01*
X67594463Y-87791994D01*
X67673815Y-87888685D01*
X67770506Y-87968037D01*
X67880820Y-88027002D01*
X68000518Y-88063312D01*
X68125000Y-88075572D01*
X68714250Y-88072500D01*
X68873000Y-87913750D01*
X68873000Y-86852000D01*
X67648750Y-86852000D01*
X67490000Y-87010750D01*
X67486928Y-87437500D01*
X65101520Y-87437500D01*
X65070472Y-87335149D01*
X64988405Y-87181613D01*
X64877962Y-87047038D01*
X64743387Y-86936595D01*
X64589851Y-86854528D01*
X64423255Y-86803992D01*
X64250001Y-86786928D01*
X63349999Y-86786928D01*
X63176745Y-86803992D01*
X63010149Y-86854528D01*
X62856613Y-86936595D01*
X62750000Y-87024090D01*
X62643387Y-86936595D01*
X62489851Y-86854528D01*
X62323255Y-86803992D01*
X62150001Y-86786928D01*
X61265973Y-86786928D01*
X61252648Y-86773603D01*
X61464250Y-86772500D01*
X61623000Y-86613750D01*
X61623000Y-85552000D01*
X61877000Y-85552000D01*
X61877000Y-86613750D01*
X62035750Y-86772500D01*
X62625000Y-86775572D01*
X62749482Y-86763312D01*
X62869180Y-86727002D01*
X62979494Y-86668037D01*
X63076185Y-86588685D01*
X63155537Y-86491994D01*
X63214502Y-86381680D01*
X63250812Y-86261982D01*
X63263072Y-86137500D01*
X63261183Y-85875000D01*
X63961928Y-85875000D01*
X63974188Y-85999482D01*
X64010498Y-86119180D01*
X64069463Y-86229494D01*
X64148815Y-86326185D01*
X64245506Y-86405537D01*
X64355820Y-86464502D01*
X64475518Y-86500812D01*
X64600000Y-86513072D01*
X64714250Y-86510000D01*
X64873000Y-86351250D01*
X64873000Y-85552000D01*
X64123750Y-85552000D01*
X63965000Y-85710750D01*
X63961928Y-85875000D01*
X63261183Y-85875000D01*
X63260000Y-85710750D01*
X63101250Y-85552000D01*
X61877000Y-85552000D01*
X61623000Y-85552000D01*
X61603000Y-85552000D01*
X61603000Y-85298000D01*
X61623000Y-85298000D01*
X61623000Y-84236250D01*
X61877000Y-84236250D01*
X61877000Y-85298000D01*
X63101250Y-85298000D01*
X63260000Y-85139250D01*
X63263072Y-84712500D01*
X63250812Y-84588018D01*
X63214502Y-84468320D01*
X63155537Y-84358006D01*
X63076185Y-84261315D01*
X62979494Y-84181963D01*
X62869180Y-84122998D01*
X62749482Y-84086688D01*
X62625000Y-84074428D01*
X62035750Y-84077500D01*
X61877000Y-84236250D01*
X61623000Y-84236250D01*
X61464250Y-84077500D01*
X60875000Y-84074428D01*
X60828617Y-84078996D01*
X60821008Y-84001745D01*
X60770472Y-83835149D01*
X60688405Y-83681613D01*
X60687890Y-83680985D01*
X60785150Y-83732972D01*
X60951746Y-83783508D01*
X61125000Y-83800572D01*
X62375000Y-83800572D01*
X62548254Y-83783508D01*
X62714850Y-83732972D01*
X62868386Y-83650905D01*
X63002962Y-83540462D01*
X63036223Y-83499933D01*
X63657197Y-84120908D01*
X63689604Y-84160396D01*
X63729092Y-84192803D01*
X63847202Y-84289734D01*
X63910964Y-84323815D01*
X64027007Y-84385841D01*
X64222105Y-84445024D01*
X64242388Y-84447022D01*
X64148815Y-84523815D01*
X64069463Y-84620506D01*
X64010498Y-84730820D01*
X63974188Y-84850518D01*
X63961928Y-84975000D01*
X63965000Y-85139250D01*
X64123750Y-85298000D01*
X64873000Y-85298000D01*
X64873000Y-85278000D01*
X65127000Y-85278000D01*
X65127000Y-85298000D01*
X65147000Y-85298000D01*
X65147000Y-85552000D01*
X65127000Y-85552000D01*
X65127000Y-86351250D01*
X65285750Y-86510000D01*
X65400000Y-86513072D01*
X65524482Y-86500812D01*
X65644180Y-86464502D01*
X65754494Y-86405537D01*
X65851185Y-86326185D01*
X65930537Y-86229494D01*
X65950000Y-86193082D01*
X65969463Y-86229494D01*
X66048815Y-86326185D01*
X66145506Y-86405537D01*
X66255820Y-86464502D01*
X66375518Y-86500812D01*
X66500000Y-86513072D01*
X67300000Y-86513072D01*
X67424482Y-86500812D01*
X67521985Y-86471235D01*
X67648750Y-86598000D01*
X68873000Y-86598000D01*
X68873000Y-85536250D01*
X68775230Y-85438480D01*
X69113139Y-85100572D01*
X69625000Y-85100572D01*
X69798254Y-85083508D01*
X69964850Y-85032972D01*
X70118386Y-84950905D01*
X70252962Y-84840462D01*
X70363405Y-84705886D01*
X70445472Y-84552350D01*
X70496008Y-84385754D01*
X70513072Y-84212500D01*
X70513072Y-83287500D01*
X70496008Y-83114246D01*
X70445472Y-82947650D01*
X70363405Y-82794114D01*
X70252962Y-82659538D01*
X70118386Y-82549095D01*
X70035000Y-82504524D01*
X70035000Y-82428710D01*
X71028711Y-81435000D01*
X71165000Y-81435000D01*
X71165001Y-81622001D01*
G36*
X84315000Y-77994045D02*
G01*
X84315000Y-78106863D01*
X84356696Y-78316483D01*
X84438485Y-78513940D01*
X84557225Y-78691647D01*
X84708353Y-78842775D01*
X84886060Y-78961515D01*
X85083517Y-79043304D01*
X85293137Y-79085000D01*
X85487001Y-79085000D01*
X85487001Y-81462523D01*
X85483310Y-81500000D01*
X85498041Y-81649573D01*
X85541670Y-81793399D01*
X85612520Y-81925950D01*
X85683979Y-82013023D01*
X85683983Y-82013027D01*
X85707869Y-82042132D01*
X85736974Y-82066018D01*
X88183982Y-84513027D01*
X88207868Y-84542132D01*
X88236973Y-84566018D01*
X88236976Y-84566021D01*
X88267673Y-84591213D01*
X88324049Y-84637480D01*
X88456600Y-84708330D01*
X88600426Y-84751959D01*
X88712525Y-84763000D01*
X88712533Y-84763000D01*
X88750000Y-84766690D01*
X88787467Y-84763000D01*
X89046383Y-84763000D01*
X89054528Y-84789851D01*
X89136595Y-84943387D01*
X89247038Y-85077962D01*
X89304354Y-85125000D01*
X89247038Y-85172038D01*
X89136595Y-85306613D01*
X89123025Y-85332000D01*
X86676422Y-85332000D01*
X86596647Y-85252225D01*
X86418940Y-85133485D01*
X86221483Y-85051696D01*
X86011863Y-85010000D01*
X85798137Y-85010000D01*
X85588517Y-85051696D01*
X85391060Y-85133485D01*
X85213353Y-85252225D01*
X85062225Y-85403353D01*
X84963000Y-85551854D01*
X84963000Y-83837467D01*
X84966690Y-83800000D01*
X84963000Y-83762533D01*
X84963000Y-83762525D01*
X84951959Y-83650426D01*
X84908330Y-83506600D01*
X84837480Y-83374049D01*
X84828018Y-83362520D01*
X84766021Y-83286976D01*
X84766018Y-83286973D01*
X84742132Y-83257868D01*
X84713027Y-83233982D01*
X83363000Y-81883956D01*
X83363000Y-77837467D01*
X83366690Y-77800000D01*
X83363000Y-77762533D01*
X83363000Y-77762525D01*
X83351959Y-77650426D01*
X83308330Y-77506600D01*
X83237480Y-77374049D01*
X83207954Y-77338072D01*
X83166021Y-77286976D01*
X83166018Y-77286973D01*
X83142132Y-77257868D01*
X83113027Y-77233982D01*
X81963000Y-76083956D01*
X81963000Y-75642044D01*
X84315000Y-77994045D01*
G37*
X84315000Y-77994045D02*
X84315000Y-78106863D01*
X84356696Y-78316483D01*
X84438485Y-78513940D01*
X84557225Y-78691647D01*
X84708353Y-78842775D01*
X84886060Y-78961515D01*
X85083517Y-79043304D01*
X85293137Y-79085000D01*
X85487001Y-79085000D01*
X85487001Y-81462523D01*
X85483310Y-81500000D01*
X85498041Y-81649573D01*
X85541670Y-81793399D01*
X85612520Y-81925950D01*
X85683979Y-82013023D01*
X85683983Y-82013027D01*
X85707869Y-82042132D01*
X85736974Y-82066018D01*
X88183982Y-84513027D01*
X88207868Y-84542132D01*
X88236973Y-84566018D01*
X88236976Y-84566021D01*
X88267673Y-84591213D01*
X88324049Y-84637480D01*
X88456600Y-84708330D01*
X88600426Y-84751959D01*
X88712525Y-84763000D01*
X88712533Y-84763000D01*
X88750000Y-84766690D01*
X88787467Y-84763000D01*
X89046383Y-84763000D01*
X89054528Y-84789851D01*
X89136595Y-84943387D01*
X89247038Y-85077962D01*
X89304354Y-85125000D01*
X89247038Y-85172038D01*
X89136595Y-85306613D01*
X89123025Y-85332000D01*
X86676422Y-85332000D01*
X86596647Y-85252225D01*
X86418940Y-85133485D01*
X86221483Y-85051696D01*
X86011863Y-85010000D01*
X85798137Y-85010000D01*
X85588517Y-85051696D01*
X85391060Y-85133485D01*
X85213353Y-85252225D01*
X85062225Y-85403353D01*
X84963000Y-85551854D01*
X84963000Y-83837467D01*
X84966690Y-83800000D01*
X84963000Y-83762533D01*
X84963000Y-83762525D01*
X84951959Y-83650426D01*
X84908330Y-83506600D01*
X84837480Y-83374049D01*
X84828018Y-83362520D01*
X84766021Y-83286976D01*
X84766018Y-83286973D01*
X84742132Y-83257868D01*
X84713027Y-83233982D01*
X83363000Y-81883956D01*
X83363000Y-77837467D01*
X83366690Y-77800000D01*
X83363000Y-77762533D01*
X83363000Y-77762525D01*
X83351959Y-77650426D01*
X83308330Y-77506600D01*
X83237480Y-77374049D01*
X83207954Y-77338072D01*
X83166021Y-77286976D01*
X83166018Y-77286973D01*
X83142132Y-77257868D01*
X83113027Y-77233982D01*
X81963000Y-76083956D01*
X81963000Y-75642044D01*
X84315000Y-77994045D01*
G36*
X87460498Y-72444180D02*
G01*
X87519463Y-72554494D01*
X87598815Y-72651185D01*
X87695506Y-72730537D01*
X87769648Y-72770167D01*
X87673815Y-72848815D01*
X87594463Y-72945506D01*
X87535498Y-73055820D01*
X87499188Y-73175518D01*
X87486928Y-73300000D01*
X87490000Y-73714250D01*
X87648750Y-73873000D01*
X88573000Y-73873000D01*
X88573000Y-73853000D01*
X88827000Y-73853000D01*
X88827000Y-73873000D01*
X88847000Y-73873000D01*
X88847000Y-74127000D01*
X88827000Y-74127000D01*
X88827000Y-74147000D01*
X88573000Y-74147000D01*
X88573000Y-74127000D01*
X87648750Y-74127000D01*
X87490000Y-74285750D01*
X87486928Y-74700000D01*
X87499188Y-74824482D01*
X87535498Y-74944180D01*
X87594463Y-75054494D01*
X87673815Y-75151185D01*
X87756614Y-75219136D01*
X87627000Y-75348750D01*
X87627000Y-76873000D01*
X87647000Y-76873000D01*
X87647000Y-77127000D01*
X87627000Y-77127000D01*
X87627000Y-78651250D01*
X87785750Y-78810000D01*
X88250000Y-78813072D01*
X88374482Y-78800812D01*
X88494180Y-78764502D01*
X88604494Y-78705537D01*
X88701185Y-78626185D01*
X88780537Y-78529494D01*
X88839502Y-78419180D01*
X88875812Y-78299482D01*
X88888072Y-78175000D01*
X88885000Y-77285750D01*
X88806365Y-77207115D01*
X88875179Y-77235619D01*
X89123439Y-77285000D01*
X89361928Y-77285000D01*
X89361928Y-77925000D01*
X89378992Y-78098254D01*
X89429528Y-78264850D01*
X89511595Y-78418386D01*
X89622038Y-78552962D01*
X89715000Y-78629254D01*
X89715000Y-79321290D01*
X89504093Y-79532197D01*
X89464605Y-79564604D01*
X89432198Y-79604092D01*
X89432197Y-79604093D01*
X89335266Y-79722203D01*
X89239160Y-79902007D01*
X89179977Y-80097105D01*
X89159994Y-80300000D01*
X89165001Y-80350837D01*
X89165001Y-80772001D01*
X89136595Y-80806613D01*
X89054528Y-80960149D01*
X89003992Y-81126745D01*
X88986928Y-81299999D01*
X88986928Y-82200001D01*
X89003992Y-82373255D01*
X89054528Y-82539851D01*
X89136595Y-82693387D01*
X89247038Y-82827962D01*
X89304354Y-82875000D01*
X89247038Y-82922038D01*
X89136595Y-83056613D01*
X89054528Y-83210149D01*
X89050959Y-83221914D01*
X87013000Y-81183956D01*
X87013000Y-78811332D01*
X87214250Y-78810000D01*
X87373000Y-78651250D01*
X87373000Y-77127000D01*
X87353000Y-77127000D01*
X87353000Y-76873000D01*
X87373000Y-76873000D01*
X87373000Y-75348750D01*
X87214250Y-75190000D01*
X87013000Y-75188668D01*
X87013000Y-72816044D01*
X87442895Y-72386150D01*
X87460498Y-72444180D01*
G37*
X87460498Y-72444180D02*
X87519463Y-72554494D01*
X87598815Y-72651185D01*
X87695506Y-72730537D01*
X87769648Y-72770167D01*
X87673815Y-72848815D01*
X87594463Y-72945506D01*
X87535498Y-73055820D01*
X87499188Y-73175518D01*
X87486928Y-73300000D01*
X87490000Y-73714250D01*
X87648750Y-73873000D01*
X88573000Y-73873000D01*
X88573000Y-73853000D01*
X88827000Y-73853000D01*
X88827000Y-73873000D01*
X88847000Y-73873000D01*
X88847000Y-74127000D01*
X88827000Y-74127000D01*
X88827000Y-74147000D01*
X88573000Y-74147000D01*
X88573000Y-74127000D01*
X87648750Y-74127000D01*
X87490000Y-74285750D01*
X87486928Y-74700000D01*
X87499188Y-74824482D01*
X87535498Y-74944180D01*
X87594463Y-75054494D01*
X87673815Y-75151185D01*
X87756614Y-75219136D01*
X87627000Y-75348750D01*
X87627000Y-76873000D01*
X87647000Y-76873000D01*
X87647000Y-77127000D01*
X87627000Y-77127000D01*
X87627000Y-78651250D01*
X87785750Y-78810000D01*
X88250000Y-78813072D01*
X88374482Y-78800812D01*
X88494180Y-78764502D01*
X88604494Y-78705537D01*
X88701185Y-78626185D01*
X88780537Y-78529494D01*
X88839502Y-78419180D01*
X88875812Y-78299482D01*
X88888072Y-78175000D01*
X88885000Y-77285750D01*
X88806365Y-77207115D01*
X88875179Y-77235619D01*
X89123439Y-77285000D01*
X89361928Y-77285000D01*
X89361928Y-77925000D01*
X89378992Y-78098254D01*
X89429528Y-78264850D01*
X89511595Y-78418386D01*
X89622038Y-78552962D01*
X89715000Y-78629254D01*
X89715000Y-79321290D01*
X89504093Y-79532197D01*
X89464605Y-79564604D01*
X89432198Y-79604092D01*
X89432197Y-79604093D01*
X89335266Y-79722203D01*
X89239160Y-79902007D01*
X89179977Y-80097105D01*
X89159994Y-80300000D01*
X89165001Y-80350837D01*
X89165001Y-80772001D01*
X89136595Y-80806613D01*
X89054528Y-80960149D01*
X89003992Y-81126745D01*
X88986928Y-81299999D01*
X88986928Y-82200001D01*
X89003992Y-82373255D01*
X89054528Y-82539851D01*
X89136595Y-82693387D01*
X89247038Y-82827962D01*
X89304354Y-82875000D01*
X89247038Y-82922038D01*
X89136595Y-83056613D01*
X89054528Y-83210149D01*
X89050959Y-83221914D01*
X87013000Y-81183956D01*
X87013000Y-78811332D01*
X87214250Y-78810000D01*
X87373000Y-78651250D01*
X87373000Y-77127000D01*
X87353000Y-77127000D01*
X87353000Y-76873000D01*
X87373000Y-76873000D01*
X87373000Y-75348750D01*
X87214250Y-75190000D01*
X87013000Y-75188668D01*
X87013000Y-72816044D01*
X87442895Y-72386150D01*
X87460498Y-72444180D01*
G36*
X65951590Y-62273868D02*
G01*
X65989852Y-62400000D01*
X65951590Y-62526132D01*
X65936928Y-62675000D01*
X65936928Y-62925000D01*
X65951590Y-63073868D01*
X65989852Y-63200000D01*
X65951590Y-63326132D01*
X65936928Y-63475000D01*
X65936928Y-63725000D01*
X65951590Y-63873868D01*
X65989852Y-64000000D01*
X65951590Y-64126132D01*
X65936928Y-64275000D01*
X65936928Y-64525000D01*
X65951590Y-64673868D01*
X65989852Y-64800000D01*
X65951590Y-64926132D01*
X65936928Y-65075000D01*
X65936928Y-65325000D01*
X65951590Y-65473868D01*
X65989852Y-65600000D01*
X65951590Y-65726132D01*
X65936928Y-65875000D01*
X65936928Y-66125000D01*
X65951590Y-66273868D01*
X65989852Y-66400000D01*
X65951590Y-66526132D01*
X65936928Y-66675000D01*
X65936928Y-66925000D01*
X65951590Y-67073868D01*
X65995013Y-67217015D01*
X66065529Y-67348940D01*
X66160427Y-67464573D01*
X66276060Y-67559471D01*
X66407985Y-67629987D01*
X66551132Y-67673410D01*
X66700000Y-67688072D01*
X67811928Y-67688072D01*
X67811928Y-68800000D01*
X67826590Y-68948868D01*
X67870013Y-69092015D01*
X67940529Y-69223940D01*
X68035427Y-69339573D01*
X68151060Y-69434471D01*
X68258752Y-69492034D01*
X68135149Y-69529528D01*
X67981613Y-69611595D01*
X67847038Y-69722038D01*
X67841658Y-69728594D01*
X67776185Y-69648815D01*
X67679494Y-69569463D01*
X67569180Y-69510498D01*
X67449482Y-69474188D01*
X67325000Y-69461928D01*
X67035750Y-69465000D01*
X66877000Y-69623750D01*
X66877000Y-70673000D01*
X66897000Y-70673000D01*
X66897000Y-70927000D01*
X66877000Y-70927000D01*
X66877000Y-71976250D01*
X67035750Y-72135000D01*
X67325000Y-72138072D01*
X67449482Y-72125812D01*
X67569180Y-72089502D01*
X67667536Y-72036929D01*
X67619463Y-72095506D01*
X67560498Y-72205820D01*
X67524188Y-72325518D01*
X67511928Y-72450000D01*
X67511928Y-74350000D01*
X67524188Y-74474482D01*
X67560498Y-74594180D01*
X67619463Y-74704494D01*
X67698815Y-74801185D01*
X67795506Y-74880537D01*
X67905820Y-74939502D01*
X68025518Y-74975812D01*
X68150000Y-74988072D01*
X68932883Y-74988072D01*
X68909027Y-75011928D01*
X68150000Y-75011928D01*
X68025518Y-75024188D01*
X67905820Y-75060498D01*
X67795506Y-75119463D01*
X67698815Y-75198815D01*
X67619463Y-75295506D01*
X67560498Y-75405820D01*
X67524188Y-75525518D01*
X67511928Y-75650000D01*
X67511928Y-77550000D01*
X67524188Y-77674482D01*
X67560498Y-77794180D01*
X67619463Y-77904494D01*
X67667536Y-77963071D01*
X67569180Y-77910498D01*
X67449482Y-77874188D01*
X67325000Y-77861928D01*
X67035750Y-77865000D01*
X66877000Y-78023750D01*
X66877000Y-79073000D01*
X66897000Y-79073000D01*
X66897000Y-79327000D01*
X66877000Y-79327000D01*
X66877000Y-79347000D01*
X66623000Y-79347000D01*
X66623000Y-79327000D01*
X65698750Y-79327000D01*
X65540000Y-79485750D01*
X65538300Y-79715000D01*
X62428711Y-79715000D01*
X61213711Y-78500000D01*
X65536928Y-78500000D01*
X65540000Y-78914250D01*
X65698750Y-79073000D01*
X66623000Y-79073000D01*
X66623000Y-78023750D01*
X66464250Y-77865000D01*
X66175000Y-77861928D01*
X66050518Y-77874188D01*
X65930820Y-77910498D01*
X65820506Y-77969463D01*
X65723815Y-78048815D01*
X65644463Y-78145506D01*
X65585498Y-78255820D01*
X65549188Y-78375518D01*
X65536928Y-78500000D01*
X61213711Y-78500000D01*
X58835000Y-76121290D01*
X58835000Y-75657454D01*
X58859572Y-75650000D01*
X62011928Y-75650000D01*
X62011928Y-77550000D01*
X62024188Y-77674482D01*
X62060498Y-77794180D01*
X62119463Y-77904494D01*
X62198815Y-78001185D01*
X62295506Y-78080537D01*
X62405820Y-78139502D01*
X62525518Y-78175812D01*
X62650000Y-78188072D01*
X63950000Y-78188072D01*
X64074482Y-78175812D01*
X64194180Y-78139502D01*
X64304494Y-78080537D01*
X64401185Y-78001185D01*
X64480537Y-77904494D01*
X64539502Y-77794180D01*
X64575812Y-77674482D01*
X64588072Y-77550000D01*
X64588072Y-75650000D01*
X64575812Y-75525518D01*
X64539502Y-75405820D01*
X64480537Y-75295506D01*
X64401185Y-75198815D01*
X64304494Y-75119463D01*
X64194180Y-75060498D01*
X64074482Y-75024188D01*
X63950000Y-75011928D01*
X62650000Y-75011928D01*
X62525518Y-75024188D01*
X62405820Y-75060498D01*
X62295506Y-75119463D01*
X62198815Y-75198815D01*
X62119463Y-75295506D01*
X62060498Y-75405820D01*
X62024188Y-75525518D01*
X62011928Y-75650000D01*
X58859572Y-75650000D01*
X58894180Y-75639502D01*
X59004494Y-75580537D01*
X59101185Y-75501185D01*
X59180537Y-75404494D01*
X59239502Y-75294180D01*
X59275812Y-75174482D01*
X59288072Y-75050000D01*
X59288072Y-73350000D01*
X59275812Y-73225518D01*
X59239502Y-73105820D01*
X59180537Y-72995506D01*
X59101185Y-72898815D01*
X59004494Y-72819463D01*
X58894180Y-72760498D01*
X58821620Y-72738487D01*
X58953475Y-72606632D01*
X59058133Y-72450000D01*
X62011928Y-72450000D01*
X62011928Y-74350000D01*
X62024188Y-74474482D01*
X62060498Y-74594180D01*
X62119463Y-74704494D01*
X62198815Y-74801185D01*
X62295506Y-74880537D01*
X62405820Y-74939502D01*
X62525518Y-74975812D01*
X62650000Y-74988072D01*
X63950000Y-74988072D01*
X64074482Y-74975812D01*
X64194180Y-74939502D01*
X64304494Y-74880537D01*
X64401185Y-74801185D01*
X64480537Y-74704494D01*
X64539502Y-74594180D01*
X64575812Y-74474482D01*
X64588072Y-74350000D01*
X64588072Y-72450000D01*
X64575812Y-72325518D01*
X64539502Y-72205820D01*
X64480537Y-72095506D01*
X64401185Y-71998815D01*
X64304494Y-71919463D01*
X64194180Y-71860498D01*
X64074482Y-71824188D01*
X63950000Y-71811928D01*
X62650000Y-71811928D01*
X62525518Y-71824188D01*
X62405820Y-71860498D01*
X62295506Y-71919463D01*
X62198815Y-71998815D01*
X62119463Y-72095506D01*
X62060498Y-72205820D01*
X62024188Y-72325518D01*
X62011928Y-72450000D01*
X59058133Y-72450000D01*
X59074714Y-72425185D01*
X59090000Y-72426690D01*
X59127467Y-72423000D01*
X59127475Y-72423000D01*
X59239574Y-72411959D01*
X59383400Y-72368330D01*
X59515951Y-72297480D01*
X59632132Y-72202132D01*
X59656023Y-72173021D01*
X60329044Y-71500000D01*
X65536928Y-71500000D01*
X65549188Y-71624482D01*
X65585498Y-71744180D01*
X65644463Y-71854494D01*
X65723815Y-71951185D01*
X65820506Y-72030537D01*
X65930820Y-72089502D01*
X66050518Y-72125812D01*
X66175000Y-72138072D01*
X66464250Y-72135000D01*
X66623000Y-71976250D01*
X66623000Y-70927000D01*
X65698750Y-70927000D01*
X65540000Y-71085750D01*
X65536928Y-71500000D01*
X60329044Y-71500000D01*
X61729044Y-70100000D01*
X65536928Y-70100000D01*
X65540000Y-70514250D01*
X65698750Y-70673000D01*
X66623000Y-70673000D01*
X66623000Y-69623750D01*
X66464250Y-69465000D01*
X66175000Y-69461928D01*
X66050518Y-69474188D01*
X65930820Y-69510498D01*
X65820506Y-69569463D01*
X65723815Y-69648815D01*
X65644463Y-69745506D01*
X65585498Y-69855820D01*
X65549188Y-69975518D01*
X65536928Y-70100000D01*
X61729044Y-70100000D01*
X65013028Y-66816017D01*
X65042132Y-66792132D01*
X65066018Y-66763027D01*
X65066021Y-66763024D01*
X65097042Y-66725224D01*
X65137480Y-66675951D01*
X65208330Y-66543400D01*
X65251959Y-66399574D01*
X65263000Y-66287475D01*
X65263000Y-66287468D01*
X65266690Y-66250001D01*
X65263000Y-66212534D01*
X65263000Y-62816044D01*
X65938463Y-62140582D01*
X65951590Y-62273868D01*
G37*
X65951590Y-62273868D02*
X65989852Y-62400000D01*
X65951590Y-62526132D01*
X65936928Y-62675000D01*
X65936928Y-62925000D01*
X65951590Y-63073868D01*
X65989852Y-63200000D01*
X65951590Y-63326132D01*
X65936928Y-63475000D01*
X65936928Y-63725000D01*
X65951590Y-63873868D01*
X65989852Y-64000000D01*
X65951590Y-64126132D01*
X65936928Y-64275000D01*
X65936928Y-64525000D01*
X65951590Y-64673868D01*
X65989852Y-64800000D01*
X65951590Y-64926132D01*
X65936928Y-65075000D01*
X65936928Y-65325000D01*
X65951590Y-65473868D01*
X65989852Y-65600000D01*
X65951590Y-65726132D01*
X65936928Y-65875000D01*
X65936928Y-66125000D01*
X65951590Y-66273868D01*
X65989852Y-66400000D01*
X65951590Y-66526132D01*
X65936928Y-66675000D01*
X65936928Y-66925000D01*
X65951590Y-67073868D01*
X65995013Y-67217015D01*
X66065529Y-67348940D01*
X66160427Y-67464573D01*
X66276060Y-67559471D01*
X66407985Y-67629987D01*
X66551132Y-67673410D01*
X66700000Y-67688072D01*
X67811928Y-67688072D01*
X67811928Y-68800000D01*
X67826590Y-68948868D01*
X67870013Y-69092015D01*
X67940529Y-69223940D01*
X68035427Y-69339573D01*
X68151060Y-69434471D01*
X68258752Y-69492034D01*
X68135149Y-69529528D01*
X67981613Y-69611595D01*
X67847038Y-69722038D01*
X67841658Y-69728594D01*
X67776185Y-69648815D01*
X67679494Y-69569463D01*
X67569180Y-69510498D01*
X67449482Y-69474188D01*
X67325000Y-69461928D01*
X67035750Y-69465000D01*
X66877000Y-69623750D01*
X66877000Y-70673000D01*
X66897000Y-70673000D01*
X66897000Y-70927000D01*
X66877000Y-70927000D01*
X66877000Y-71976250D01*
X67035750Y-72135000D01*
X67325000Y-72138072D01*
X67449482Y-72125812D01*
X67569180Y-72089502D01*
X67667536Y-72036929D01*
X67619463Y-72095506D01*
X67560498Y-72205820D01*
X67524188Y-72325518D01*
X67511928Y-72450000D01*
X67511928Y-74350000D01*
X67524188Y-74474482D01*
X67560498Y-74594180D01*
X67619463Y-74704494D01*
X67698815Y-74801185D01*
X67795506Y-74880537D01*
X67905820Y-74939502D01*
X68025518Y-74975812D01*
X68150000Y-74988072D01*
X68932883Y-74988072D01*
X68909027Y-75011928D01*
X68150000Y-75011928D01*
X68025518Y-75024188D01*
X67905820Y-75060498D01*
X67795506Y-75119463D01*
X67698815Y-75198815D01*
X67619463Y-75295506D01*
X67560498Y-75405820D01*
X67524188Y-75525518D01*
X67511928Y-75650000D01*
X67511928Y-77550000D01*
X67524188Y-77674482D01*
X67560498Y-77794180D01*
X67619463Y-77904494D01*
X67667536Y-77963071D01*
X67569180Y-77910498D01*
X67449482Y-77874188D01*
X67325000Y-77861928D01*
X67035750Y-77865000D01*
X66877000Y-78023750D01*
X66877000Y-79073000D01*
X66897000Y-79073000D01*
X66897000Y-79327000D01*
X66877000Y-79327000D01*
X66877000Y-79347000D01*
X66623000Y-79347000D01*
X66623000Y-79327000D01*
X65698750Y-79327000D01*
X65540000Y-79485750D01*
X65538300Y-79715000D01*
X62428711Y-79715000D01*
X61213711Y-78500000D01*
X65536928Y-78500000D01*
X65540000Y-78914250D01*
X65698750Y-79073000D01*
X66623000Y-79073000D01*
X66623000Y-78023750D01*
X66464250Y-77865000D01*
X66175000Y-77861928D01*
X66050518Y-77874188D01*
X65930820Y-77910498D01*
X65820506Y-77969463D01*
X65723815Y-78048815D01*
X65644463Y-78145506D01*
X65585498Y-78255820D01*
X65549188Y-78375518D01*
X65536928Y-78500000D01*
X61213711Y-78500000D01*
X58835000Y-76121290D01*
X58835000Y-75657454D01*
X58859572Y-75650000D01*
X62011928Y-75650000D01*
X62011928Y-77550000D01*
X62024188Y-77674482D01*
X62060498Y-77794180D01*
X62119463Y-77904494D01*
X62198815Y-78001185D01*
X62295506Y-78080537D01*
X62405820Y-78139502D01*
X62525518Y-78175812D01*
X62650000Y-78188072D01*
X63950000Y-78188072D01*
X64074482Y-78175812D01*
X64194180Y-78139502D01*
X64304494Y-78080537D01*
X64401185Y-78001185D01*
X64480537Y-77904494D01*
X64539502Y-77794180D01*
X64575812Y-77674482D01*
X64588072Y-77550000D01*
X64588072Y-75650000D01*
X64575812Y-75525518D01*
X64539502Y-75405820D01*
X64480537Y-75295506D01*
X64401185Y-75198815D01*
X64304494Y-75119463D01*
X64194180Y-75060498D01*
X64074482Y-75024188D01*
X63950000Y-75011928D01*
X62650000Y-75011928D01*
X62525518Y-75024188D01*
X62405820Y-75060498D01*
X62295506Y-75119463D01*
X62198815Y-75198815D01*
X62119463Y-75295506D01*
X62060498Y-75405820D01*
X62024188Y-75525518D01*
X62011928Y-75650000D01*
X58859572Y-75650000D01*
X58894180Y-75639502D01*
X59004494Y-75580537D01*
X59101185Y-75501185D01*
X59180537Y-75404494D01*
X59239502Y-75294180D01*
X59275812Y-75174482D01*
X59288072Y-75050000D01*
X59288072Y-73350000D01*
X59275812Y-73225518D01*
X59239502Y-73105820D01*
X59180537Y-72995506D01*
X59101185Y-72898815D01*
X59004494Y-72819463D01*
X58894180Y-72760498D01*
X58821620Y-72738487D01*
X58953475Y-72606632D01*
X59058133Y-72450000D01*
X62011928Y-72450000D01*
X62011928Y-74350000D01*
X62024188Y-74474482D01*
X62060498Y-74594180D01*
X62119463Y-74704494D01*
X62198815Y-74801185D01*
X62295506Y-74880537D01*
X62405820Y-74939502D01*
X62525518Y-74975812D01*
X62650000Y-74988072D01*
X63950000Y-74988072D01*
X64074482Y-74975812D01*
X64194180Y-74939502D01*
X64304494Y-74880537D01*
X64401185Y-74801185D01*
X64480537Y-74704494D01*
X64539502Y-74594180D01*
X64575812Y-74474482D01*
X64588072Y-74350000D01*
X64588072Y-72450000D01*
X64575812Y-72325518D01*
X64539502Y-72205820D01*
X64480537Y-72095506D01*
X64401185Y-71998815D01*
X64304494Y-71919463D01*
X64194180Y-71860498D01*
X64074482Y-71824188D01*
X63950000Y-71811928D01*
X62650000Y-71811928D01*
X62525518Y-71824188D01*
X62405820Y-71860498D01*
X62295506Y-71919463D01*
X62198815Y-71998815D01*
X62119463Y-72095506D01*
X62060498Y-72205820D01*
X62024188Y-72325518D01*
X62011928Y-72450000D01*
X59058133Y-72450000D01*
X59074714Y-72425185D01*
X59090000Y-72426690D01*
X59127467Y-72423000D01*
X59127475Y-72423000D01*
X59239574Y-72411959D01*
X59383400Y-72368330D01*
X59515951Y-72297480D01*
X59632132Y-72202132D01*
X59656023Y-72173021D01*
X60329044Y-71500000D01*
X65536928Y-71500000D01*
X65549188Y-71624482D01*
X65585498Y-71744180D01*
X65644463Y-71854494D01*
X65723815Y-71951185D01*
X65820506Y-72030537D01*
X65930820Y-72089502D01*
X66050518Y-72125812D01*
X66175000Y-72138072D01*
X66464250Y-72135000D01*
X66623000Y-71976250D01*
X66623000Y-70927000D01*
X65698750Y-70927000D01*
X65540000Y-71085750D01*
X65536928Y-71500000D01*
X60329044Y-71500000D01*
X61729044Y-70100000D01*
X65536928Y-70100000D01*
X65540000Y-70514250D01*
X65698750Y-70673000D01*
X66623000Y-70673000D01*
X66623000Y-69623750D01*
X66464250Y-69465000D01*
X66175000Y-69461928D01*
X66050518Y-69474188D01*
X65930820Y-69510498D01*
X65820506Y-69569463D01*
X65723815Y-69648815D01*
X65644463Y-69745506D01*
X65585498Y-69855820D01*
X65549188Y-69975518D01*
X65536928Y-70100000D01*
X61729044Y-70100000D01*
X65013028Y-66816017D01*
X65042132Y-66792132D01*
X65066018Y-66763027D01*
X65066021Y-66763024D01*
X65097042Y-66725224D01*
X65137480Y-66675951D01*
X65208330Y-66543400D01*
X65251959Y-66399574D01*
X65263000Y-66287475D01*
X65263000Y-66287468D01*
X65266690Y-66250001D01*
X65263000Y-66212534D01*
X65263000Y-62816044D01*
X65938463Y-62140582D01*
X65951590Y-62273868D01*
G36*
X84283982Y-70613027D02*
G01*
X84307868Y-70642132D01*
X84336973Y-70666018D01*
X84336976Y-70666021D01*
X84396175Y-70714604D01*
X84424049Y-70737480D01*
X84556600Y-70808330D01*
X84700426Y-70851959D01*
X84812525Y-70863000D01*
X84812533Y-70863000D01*
X84850000Y-70866690D01*
X84887467Y-70863000D01*
X85467477Y-70863000D01*
X85498815Y-70901185D01*
X85595506Y-70980537D01*
X85705820Y-71039502D01*
X85825518Y-71075812D01*
X85950000Y-71088072D01*
X86582883Y-71088072D01*
X85736979Y-71933977D01*
X85707868Y-71957868D01*
X85612520Y-72074050D01*
X85541670Y-72206601D01*
X85498041Y-72350427D01*
X85487000Y-72462526D01*
X85487000Y-72462533D01*
X85483310Y-72500000D01*
X85487000Y-72537467D01*
X85487000Y-74746913D01*
X85391659Y-74727949D01*
X84072052Y-73408341D01*
X84035619Y-73225179D01*
X83938753Y-72991324D01*
X83798125Y-72780860D01*
X83619140Y-72601875D01*
X83408676Y-72461247D01*
X83174821Y-72364381D01*
X82926561Y-72315000D01*
X82673439Y-72315000D01*
X82563000Y-72336967D01*
X82563000Y-68892044D01*
X84283982Y-70613027D01*
G37*
X84283982Y-70613027D02*
X84307868Y-70642132D01*
X84336973Y-70666018D01*
X84336976Y-70666021D01*
X84396175Y-70714604D01*
X84424049Y-70737480D01*
X84556600Y-70808330D01*
X84700426Y-70851959D01*
X84812525Y-70863000D01*
X84812533Y-70863000D01*
X84850000Y-70866690D01*
X84887467Y-70863000D01*
X85467477Y-70863000D01*
X85498815Y-70901185D01*
X85595506Y-70980537D01*
X85705820Y-71039502D01*
X85825518Y-71075812D01*
X85950000Y-71088072D01*
X86582883Y-71088072D01*
X85736979Y-71933977D01*
X85707868Y-71957868D01*
X85612520Y-72074050D01*
X85541670Y-72206601D01*
X85498041Y-72350427D01*
X85487000Y-72462526D01*
X85487000Y-72462533D01*
X85483310Y-72500000D01*
X85487000Y-72537467D01*
X85487000Y-74746913D01*
X85391659Y-74727949D01*
X84072052Y-73408341D01*
X84035619Y-73225179D01*
X83938753Y-72991324D01*
X83798125Y-72780860D01*
X83619140Y-72601875D01*
X83408676Y-72461247D01*
X83174821Y-72364381D01*
X82926561Y-72315000D01*
X82673439Y-72315000D01*
X82563000Y-72336967D01*
X82563000Y-68892044D01*
X84283982Y-70613027D01*
G36*
X75037001Y-70716045D02*
G01*
X75037000Y-71083955D01*
X74205540Y-71915415D01*
X74255537Y-71854494D01*
X74314502Y-71744180D01*
X74350812Y-71624482D01*
X74363072Y-71500000D01*
X74360000Y-71085750D01*
X74201250Y-70927000D01*
X73277000Y-70927000D01*
X73277000Y-71976250D01*
X73435750Y-72135000D01*
X73725000Y-72138072D01*
X73849482Y-72125812D01*
X73969180Y-72089502D01*
X74079494Y-72030537D01*
X74140416Y-71980540D01*
X73736974Y-72383982D01*
X73707869Y-72407868D01*
X73683983Y-72436973D01*
X73683979Y-72436977D01*
X73612520Y-72524050D01*
X73541670Y-72656601D01*
X73498041Y-72800427D01*
X73483310Y-72950000D01*
X73487001Y-72987477D01*
X73487000Y-73978578D01*
X73407225Y-74058353D01*
X73390897Y-74082790D01*
X73435619Y-73974821D01*
X73485000Y-73726561D01*
X73485000Y-73473439D01*
X73435619Y-73225179D01*
X73338753Y-72991324D01*
X73198125Y-72780860D01*
X73019140Y-72601875D01*
X72808676Y-72461247D01*
X72574821Y-72364381D01*
X72391659Y-72327949D01*
X72135000Y-72071290D01*
X72135000Y-71960364D01*
X72220506Y-72030537D01*
X72330820Y-72089502D01*
X72450518Y-72125812D01*
X72575000Y-72138072D01*
X72864250Y-72135000D01*
X73023000Y-71976250D01*
X73023000Y-70927000D01*
X73003000Y-70927000D01*
X73003000Y-70673000D01*
X73023000Y-70673000D01*
X73023000Y-70653000D01*
X73277000Y-70653000D01*
X73277000Y-70673000D01*
X74201250Y-70673000D01*
X74360000Y-70514250D01*
X74361122Y-70363000D01*
X74683956Y-70363000D01*
X75037001Y-70716045D01*
G37*
X75037001Y-70716045D02*
X75037000Y-71083955D01*
X74205540Y-71915415D01*
X74255537Y-71854494D01*
X74314502Y-71744180D01*
X74350812Y-71624482D01*
X74363072Y-71500000D01*
X74360000Y-71085750D01*
X74201250Y-70927000D01*
X73277000Y-70927000D01*
X73277000Y-71976250D01*
X73435750Y-72135000D01*
X73725000Y-72138072D01*
X73849482Y-72125812D01*
X73969180Y-72089502D01*
X74079494Y-72030537D01*
X74140416Y-71980540D01*
X73736974Y-72383982D01*
X73707869Y-72407868D01*
X73683983Y-72436973D01*
X73683979Y-72436977D01*
X73612520Y-72524050D01*
X73541670Y-72656601D01*
X73498041Y-72800427D01*
X73483310Y-72950000D01*
X73487001Y-72987477D01*
X73487000Y-73978578D01*
X73407225Y-74058353D01*
X73390897Y-74082790D01*
X73435619Y-73974821D01*
X73485000Y-73726561D01*
X73485000Y-73473439D01*
X73435619Y-73225179D01*
X73338753Y-72991324D01*
X73198125Y-72780860D01*
X73019140Y-72601875D01*
X72808676Y-72461247D01*
X72574821Y-72364381D01*
X72391659Y-72327949D01*
X72135000Y-72071290D01*
X72135000Y-71960364D01*
X72220506Y-72030537D01*
X72330820Y-72089502D01*
X72450518Y-72125812D01*
X72575000Y-72138072D01*
X72864250Y-72135000D01*
X73023000Y-71976250D01*
X73023000Y-70927000D01*
X73003000Y-70927000D01*
X73003000Y-70673000D01*
X73023000Y-70673000D01*
X73023000Y-70653000D01*
X73277000Y-70653000D01*
X73277000Y-70673000D01*
X74201250Y-70673000D01*
X74360000Y-70514250D01*
X74361122Y-70363000D01*
X74683956Y-70363000D01*
X75037001Y-70716045D01*
G36*
X59104528Y-57289851D02*
G01*
X59186595Y-57443387D01*
X59297038Y-57577962D01*
X59431613Y-57688405D01*
X59487001Y-57718010D01*
X59487000Y-61273955D01*
X59285000Y-61475955D01*
X59285000Y-61353740D01*
X59227932Y-61066842D01*
X59115990Y-60796589D01*
X58953475Y-60553368D01*
X58746632Y-60346525D01*
X58503411Y-60184010D01*
X58233158Y-60072068D01*
X57946260Y-60015000D01*
X57653740Y-60015000D01*
X57366842Y-60072068D01*
X57096589Y-60184010D01*
X56853368Y-60346525D01*
X56646525Y-60553368D01*
X56484010Y-60796589D01*
X56372068Y-61066842D01*
X56315000Y-61353740D01*
X56315000Y-61646260D01*
X56372068Y-61933158D01*
X56484010Y-62203411D01*
X56646525Y-62446632D01*
X56853368Y-62653475D01*
X57027760Y-62770000D01*
X56853368Y-62886525D01*
X56646525Y-63093368D01*
X56484010Y-63336589D01*
X56372068Y-63606842D01*
X56315000Y-63893740D01*
X56315000Y-64186260D01*
X56372068Y-64473158D01*
X56484010Y-64743411D01*
X56646525Y-64986632D01*
X56853368Y-65193475D01*
X57027760Y-65310000D01*
X56853368Y-65426525D01*
X56646525Y-65633368D01*
X56484010Y-65876589D01*
X56372068Y-66146842D01*
X56315000Y-66433740D01*
X56315000Y-66726260D01*
X56372068Y-67013158D01*
X56484010Y-67283411D01*
X56646525Y-67526632D01*
X56853368Y-67733475D01*
X57035534Y-67855195D01*
X56918645Y-67924822D01*
X56702412Y-68119731D01*
X56528359Y-68353080D01*
X56403175Y-68615901D01*
X56358524Y-68763110D01*
X56479845Y-68993000D01*
X57673000Y-68993000D01*
X57673000Y-68973000D01*
X57927000Y-68973000D01*
X57927000Y-68993000D01*
X59120155Y-68993000D01*
X59241476Y-68763110D01*
X59196825Y-68615901D01*
X59071641Y-68353080D01*
X58897588Y-68119731D01*
X58681355Y-67924822D01*
X58564466Y-67855195D01*
X58746632Y-67733475D01*
X58953475Y-67526632D01*
X59076174Y-67343000D01*
X59632533Y-67343000D01*
X59670000Y-67346690D01*
X59707467Y-67343000D01*
X59707475Y-67343000D01*
X59819574Y-67331959D01*
X59963400Y-67288330D01*
X60095951Y-67217480D01*
X60212132Y-67122132D01*
X60236023Y-67093021D01*
X61513027Y-65816018D01*
X61542132Y-65792132D01*
X61566018Y-65763027D01*
X61566021Y-65763024D01*
X61637480Y-65675951D01*
X61708330Y-65543400D01*
X61751959Y-65399574D01*
X61754473Y-65374049D01*
X61763000Y-65287475D01*
X61763000Y-65287468D01*
X61766690Y-65250001D01*
X61763000Y-65212534D01*
X61763000Y-64066044D01*
X65241045Y-60588000D01*
X65343002Y-60588000D01*
X65286976Y-60633979D01*
X65286973Y-60633982D01*
X65257868Y-60657868D01*
X65233982Y-60686973D01*
X63986974Y-61933982D01*
X63957869Y-61957868D01*
X63933983Y-61986973D01*
X63933979Y-61986977D01*
X63862520Y-62074050D01*
X63791670Y-62206601D01*
X63748041Y-62350427D01*
X63733310Y-62500000D01*
X63737001Y-62537477D01*
X63737000Y-65933955D01*
X58955122Y-70715834D01*
X58953475Y-70713368D01*
X58746632Y-70506525D01*
X58564466Y-70384805D01*
X58681355Y-70315178D01*
X58897588Y-70120269D01*
X59071641Y-69886920D01*
X59196825Y-69624099D01*
X59241476Y-69476890D01*
X59120155Y-69247000D01*
X57927000Y-69247000D01*
X57927000Y-69267000D01*
X57673000Y-69267000D01*
X57673000Y-69247000D01*
X56479845Y-69247000D01*
X56358524Y-69476890D01*
X56403175Y-69624099D01*
X56528359Y-69886920D01*
X56702412Y-70120269D01*
X56918645Y-70315178D01*
X57035534Y-70384805D01*
X56853368Y-70506525D01*
X56646525Y-70713368D01*
X56484010Y-70956589D01*
X56372068Y-71226842D01*
X56315000Y-71513740D01*
X56315000Y-71806260D01*
X56372068Y-72093158D01*
X56484010Y-72363411D01*
X56646525Y-72606632D01*
X56778380Y-72738487D01*
X56705820Y-72760498D01*
X56595506Y-72819463D01*
X56498815Y-72898815D01*
X56437382Y-72973671D01*
X56035000Y-72571290D01*
X56035000Y-60178710D01*
X58945908Y-57267803D01*
X58985396Y-57235396D01*
X59042331Y-57166021D01*
X59060317Y-57144105D01*
X59104528Y-57289851D01*
G37*
X59104528Y-57289851D02*
X59186595Y-57443387D01*
X59297038Y-57577962D01*
X59431613Y-57688405D01*
X59487001Y-57718010D01*
X59487000Y-61273955D01*
X59285000Y-61475955D01*
X59285000Y-61353740D01*
X59227932Y-61066842D01*
X59115990Y-60796589D01*
X58953475Y-60553368D01*
X58746632Y-60346525D01*
X58503411Y-60184010D01*
X58233158Y-60072068D01*
X57946260Y-60015000D01*
X57653740Y-60015000D01*
X57366842Y-60072068D01*
X57096589Y-60184010D01*
X56853368Y-60346525D01*
X56646525Y-60553368D01*
X56484010Y-60796589D01*
X56372068Y-61066842D01*
X56315000Y-61353740D01*
X56315000Y-61646260D01*
X56372068Y-61933158D01*
X56484010Y-62203411D01*
X56646525Y-62446632D01*
X56853368Y-62653475D01*
X57027760Y-62770000D01*
X56853368Y-62886525D01*
X56646525Y-63093368D01*
X56484010Y-63336589D01*
X56372068Y-63606842D01*
X56315000Y-63893740D01*
X56315000Y-64186260D01*
X56372068Y-64473158D01*
X56484010Y-64743411D01*
X56646525Y-64986632D01*
X56853368Y-65193475D01*
X57027760Y-65310000D01*
X56853368Y-65426525D01*
X56646525Y-65633368D01*
X56484010Y-65876589D01*
X56372068Y-66146842D01*
X56315000Y-66433740D01*
X56315000Y-66726260D01*
X56372068Y-67013158D01*
X56484010Y-67283411D01*
X56646525Y-67526632D01*
X56853368Y-67733475D01*
X57035534Y-67855195D01*
X56918645Y-67924822D01*
X56702412Y-68119731D01*
X56528359Y-68353080D01*
X56403175Y-68615901D01*
X56358524Y-68763110D01*
X56479845Y-68993000D01*
X57673000Y-68993000D01*
X57673000Y-68973000D01*
X57927000Y-68973000D01*
X57927000Y-68993000D01*
X59120155Y-68993000D01*
X59241476Y-68763110D01*
X59196825Y-68615901D01*
X59071641Y-68353080D01*
X58897588Y-68119731D01*
X58681355Y-67924822D01*
X58564466Y-67855195D01*
X58746632Y-67733475D01*
X58953475Y-67526632D01*
X59076174Y-67343000D01*
X59632533Y-67343000D01*
X59670000Y-67346690D01*
X59707467Y-67343000D01*
X59707475Y-67343000D01*
X59819574Y-67331959D01*
X59963400Y-67288330D01*
X60095951Y-67217480D01*
X60212132Y-67122132D01*
X60236023Y-67093021D01*
X61513027Y-65816018D01*
X61542132Y-65792132D01*
X61566018Y-65763027D01*
X61566021Y-65763024D01*
X61637480Y-65675951D01*
X61708330Y-65543400D01*
X61751959Y-65399574D01*
X61754473Y-65374049D01*
X61763000Y-65287475D01*
X61763000Y-65287468D01*
X61766690Y-65250001D01*
X61763000Y-65212534D01*
X61763000Y-64066044D01*
X65241045Y-60588000D01*
X65343002Y-60588000D01*
X65286976Y-60633979D01*
X65286973Y-60633982D01*
X65257868Y-60657868D01*
X65233982Y-60686973D01*
X63986974Y-61933982D01*
X63957869Y-61957868D01*
X63933983Y-61986973D01*
X63933979Y-61986977D01*
X63862520Y-62074050D01*
X63791670Y-62206601D01*
X63748041Y-62350427D01*
X63733310Y-62500000D01*
X63737001Y-62537477D01*
X63737000Y-65933955D01*
X58955122Y-70715834D01*
X58953475Y-70713368D01*
X58746632Y-70506525D01*
X58564466Y-70384805D01*
X58681355Y-70315178D01*
X58897588Y-70120269D01*
X59071641Y-69886920D01*
X59196825Y-69624099D01*
X59241476Y-69476890D01*
X59120155Y-69247000D01*
X57927000Y-69247000D01*
X57927000Y-69267000D01*
X57673000Y-69267000D01*
X57673000Y-69247000D01*
X56479845Y-69247000D01*
X56358524Y-69476890D01*
X56403175Y-69624099D01*
X56528359Y-69886920D01*
X56702412Y-70120269D01*
X56918645Y-70315178D01*
X57035534Y-70384805D01*
X56853368Y-70506525D01*
X56646525Y-70713368D01*
X56484010Y-70956589D01*
X56372068Y-71226842D01*
X56315000Y-71513740D01*
X56315000Y-71806260D01*
X56372068Y-72093158D01*
X56484010Y-72363411D01*
X56646525Y-72606632D01*
X56778380Y-72738487D01*
X56705820Y-72760498D01*
X56595506Y-72819463D01*
X56498815Y-72898815D01*
X56437382Y-72973671D01*
X56035000Y-72571290D01*
X56035000Y-60178710D01*
X58945908Y-57267803D01*
X58985396Y-57235396D01*
X59042331Y-57166021D01*
X59060317Y-57144105D01*
X59104528Y-57289851D01*
G36*
X89727000Y-71323000D02*
G01*
X89747000Y-71323000D01*
X89747000Y-71577000D01*
X89727000Y-71577000D01*
X89727000Y-71597000D01*
X89473000Y-71597000D01*
X89473000Y-71577000D01*
X89453000Y-71577000D01*
X89453000Y-71323000D01*
X89473000Y-71323000D01*
X89473000Y-71303000D01*
X89727000Y-71303000D01*
X89727000Y-71323000D01*
G37*
X89727000Y-71323000D02*
X89747000Y-71323000D01*
X89747000Y-71577000D01*
X89727000Y-71577000D01*
X89727000Y-71597000D01*
X89473000Y-71597000D01*
X89473000Y-71577000D01*
X89453000Y-71577000D01*
X89453000Y-71323000D01*
X89473000Y-71323000D01*
X89473000Y-71303000D01*
X89727000Y-71303000D01*
X89727000Y-71323000D01*
G36*
X72181750Y-69560000D02*
G01*
X72252654Y-69552280D01*
X72220506Y-69569463D01*
X72123815Y-69648815D01*
X72058342Y-69728594D01*
X72052962Y-69722038D01*
X71985000Y-69666263D01*
X71985000Y-69560000D01*
X72027002Y-69560000D01*
X72027002Y-69405252D01*
X72181750Y-69560000D01*
G37*
X72181750Y-69560000D02*
X72252654Y-69552280D01*
X72220506Y-69569463D01*
X72123815Y-69648815D01*
X72058342Y-69728594D01*
X72052962Y-69722038D01*
X71985000Y-69666263D01*
X71985000Y-69560000D01*
X72027002Y-69560000D01*
X72027002Y-69405252D01*
X72181750Y-69560000D01*
G36*
X68893137Y-63085000D02*
G01*
X69005956Y-63085000D01*
X71937000Y-66016045D01*
X71937001Y-67132661D01*
X71900000Y-67201884D01*
X71859471Y-67126060D01*
X71777000Y-67025569D01*
X71777000Y-66948750D01*
X71618250Y-66790000D01*
X71516227Y-66801109D01*
X71446139Y-66823513D01*
X71373868Y-66801590D01*
X71225000Y-66786928D01*
X70975000Y-66786928D01*
X70826132Y-66801590D01*
X70700000Y-66839852D01*
X70573868Y-66801590D01*
X70425000Y-66786928D01*
X70175000Y-66786928D01*
X70026132Y-66801590D01*
X69900000Y-66839852D01*
X69773868Y-66801590D01*
X69625000Y-66786928D01*
X69375000Y-66786928D01*
X69226132Y-66801590D01*
X69100000Y-66839852D01*
X68973868Y-66801590D01*
X68825000Y-66786928D01*
X68713072Y-66786928D01*
X68713072Y-66675000D01*
X68698410Y-66526132D01*
X68660148Y-66400000D01*
X68698410Y-66273868D01*
X68713072Y-66125000D01*
X68713072Y-65875000D01*
X68698410Y-65726132D01*
X68660148Y-65600000D01*
X68698410Y-65473868D01*
X68713072Y-65325000D01*
X68713072Y-65075000D01*
X68698410Y-64926132D01*
X68660148Y-64800000D01*
X68698410Y-64673868D01*
X68713072Y-64525000D01*
X68713072Y-64275000D01*
X68698410Y-64126132D01*
X68660148Y-64000000D01*
X68698410Y-63873868D01*
X68713072Y-63725000D01*
X68713072Y-63475000D01*
X68698410Y-63326132D01*
X68660148Y-63200000D01*
X68698410Y-63073868D01*
X68701076Y-63046797D01*
X68893137Y-63085000D01*
G37*
X68893137Y-63085000D02*
X69005956Y-63085000D01*
X71937000Y-66016045D01*
X71937001Y-67132661D01*
X71900000Y-67201884D01*
X71859471Y-67126060D01*
X71777000Y-67025569D01*
X71777000Y-66948750D01*
X71618250Y-66790000D01*
X71516227Y-66801109D01*
X71446139Y-66823513D01*
X71373868Y-66801590D01*
X71225000Y-66786928D01*
X70975000Y-66786928D01*
X70826132Y-66801590D01*
X70700000Y-66839852D01*
X70573868Y-66801590D01*
X70425000Y-66786928D01*
X70175000Y-66786928D01*
X70026132Y-66801590D01*
X69900000Y-66839852D01*
X69773868Y-66801590D01*
X69625000Y-66786928D01*
X69375000Y-66786928D01*
X69226132Y-66801590D01*
X69100000Y-66839852D01*
X68973868Y-66801590D01*
X68825000Y-66786928D01*
X68713072Y-66786928D01*
X68713072Y-66675000D01*
X68698410Y-66526132D01*
X68660148Y-66400000D01*
X68698410Y-66273868D01*
X68713072Y-66125000D01*
X68713072Y-65875000D01*
X68698410Y-65726132D01*
X68660148Y-65600000D01*
X68698410Y-65473868D01*
X68713072Y-65325000D01*
X68713072Y-65075000D01*
X68698410Y-64926132D01*
X68660148Y-64800000D01*
X68698410Y-64673868D01*
X68713072Y-64525000D01*
X68713072Y-64275000D01*
X68698410Y-64126132D01*
X68660148Y-64000000D01*
X68698410Y-63873868D01*
X68713072Y-63725000D01*
X68713072Y-63475000D01*
X68698410Y-63326132D01*
X68660148Y-63200000D01*
X68698410Y-63073868D01*
X68701076Y-63046797D01*
X68893137Y-63085000D01*
G36*
X74301590Y-62526132D02*
G01*
X74286928Y-62675000D01*
X74286928Y-62925000D01*
X74301590Y-63073868D01*
X74339852Y-63200000D01*
X74301590Y-63326132D01*
X74286928Y-63475000D01*
X74286928Y-63725000D01*
X74301590Y-63873868D01*
X74339852Y-64000000D01*
X74301590Y-64126132D01*
X74286928Y-64275000D01*
X74286928Y-64525000D01*
X74301590Y-64673868D01*
X74339852Y-64800000D01*
X74301590Y-64926132D01*
X74286928Y-65075000D01*
X74286928Y-65325000D01*
X74301590Y-65473868D01*
X74339852Y-65600000D01*
X74301590Y-65726132D01*
X74286928Y-65875000D01*
X74286928Y-66125000D01*
X74301590Y-66273868D01*
X74339852Y-66400000D01*
X74301590Y-66526132D01*
X74286928Y-66675000D01*
X74286928Y-66786928D01*
X74175000Y-66786928D01*
X74026132Y-66801590D01*
X73900000Y-66839852D01*
X73773868Y-66801590D01*
X73625000Y-66786928D01*
X73463000Y-66786928D01*
X73463000Y-65737466D01*
X73466690Y-65699999D01*
X73463000Y-65662532D01*
X73463000Y-65662525D01*
X73451959Y-65550426D01*
X73408330Y-65406600D01*
X73337480Y-65274049D01*
X73276709Y-65200000D01*
X73266021Y-65186976D01*
X73266018Y-65186973D01*
X73242132Y-65157868D01*
X73213028Y-65133983D01*
X71092044Y-63013000D01*
X72478578Y-63013000D01*
X72558353Y-63092775D01*
X72736060Y-63211515D01*
X72933517Y-63293304D01*
X73143137Y-63335000D01*
X73356863Y-63335000D01*
X73566483Y-63293304D01*
X73763940Y-63211515D01*
X73941647Y-63092775D01*
X74092775Y-62941647D01*
X74211515Y-62763940D01*
X74293304Y-62566483D01*
X74309621Y-62484451D01*
X74314530Y-62483475D01*
X74301590Y-62526132D01*
G37*
X74301590Y-62526132D02*
X74286928Y-62675000D01*
X74286928Y-62925000D01*
X74301590Y-63073868D01*
X74339852Y-63200000D01*
X74301590Y-63326132D01*
X74286928Y-63475000D01*
X74286928Y-63725000D01*
X74301590Y-63873868D01*
X74339852Y-64000000D01*
X74301590Y-64126132D01*
X74286928Y-64275000D01*
X74286928Y-64525000D01*
X74301590Y-64673868D01*
X74339852Y-64800000D01*
X74301590Y-64926132D01*
X74286928Y-65075000D01*
X74286928Y-65325000D01*
X74301590Y-65473868D01*
X74339852Y-65600000D01*
X74301590Y-65726132D01*
X74286928Y-65875000D01*
X74286928Y-66125000D01*
X74301590Y-66273868D01*
X74339852Y-66400000D01*
X74301590Y-66526132D01*
X74286928Y-66675000D01*
X74286928Y-66786928D01*
X74175000Y-66786928D01*
X74026132Y-66801590D01*
X73900000Y-66839852D01*
X73773868Y-66801590D01*
X73625000Y-66786928D01*
X73463000Y-66786928D01*
X73463000Y-65737466D01*
X73466690Y-65699999D01*
X73463000Y-65662532D01*
X73463000Y-65662525D01*
X73451959Y-65550426D01*
X73408330Y-65406600D01*
X73337480Y-65274049D01*
X73276709Y-65200000D01*
X73266021Y-65186976D01*
X73266018Y-65186973D01*
X73242132Y-65157868D01*
X73213028Y-65133983D01*
X71092044Y-63013000D01*
X72478578Y-63013000D01*
X72558353Y-63092775D01*
X72736060Y-63211515D01*
X72933517Y-63293304D01*
X73143137Y-63335000D01*
X73356863Y-63335000D01*
X73566483Y-63293304D01*
X73763940Y-63211515D01*
X73941647Y-63092775D01*
X74092775Y-62941647D01*
X74211515Y-62763940D01*
X74293304Y-62566483D01*
X74309621Y-62484451D01*
X74314530Y-62483475D01*
X74301590Y-62526132D01*
G36*
X66585961Y-58165006D02*
G01*
X66538485Y-58236060D01*
X66456696Y-58433517D01*
X66415000Y-58643137D01*
X66415000Y-58856863D01*
X66455804Y-59062000D01*
X64962466Y-59062000D01*
X64924999Y-59058310D01*
X64887532Y-59062000D01*
X64887525Y-59062000D01*
X64775426Y-59073041D01*
X64631600Y-59116670D01*
X64499049Y-59187520D01*
X64447317Y-59229976D01*
X64411976Y-59258979D01*
X64411973Y-59258982D01*
X64382868Y-59282868D01*
X64358982Y-59311973D01*
X60486979Y-63183977D01*
X60457868Y-63207868D01*
X60362520Y-63324050D01*
X60291670Y-63456601D01*
X60248041Y-63600427D01*
X60237000Y-63712526D01*
X60237000Y-63712533D01*
X60233310Y-63750000D01*
X60237000Y-63787467D01*
X60237001Y-64933954D01*
X59353956Y-65817000D01*
X59076174Y-65817000D01*
X58953475Y-65633368D01*
X58746632Y-65426525D01*
X58572240Y-65310000D01*
X58746632Y-65193475D01*
X58953475Y-64986632D01*
X59115990Y-64743411D01*
X59227932Y-64473158D01*
X59285000Y-64186260D01*
X59285000Y-63893740D01*
X59241913Y-63677131D01*
X60763028Y-62156017D01*
X60792132Y-62132132D01*
X60816018Y-62103027D01*
X60816021Y-62103024D01*
X60870205Y-62037000D01*
X60887480Y-62015951D01*
X60958330Y-61883400D01*
X61001959Y-61739574D01*
X61013000Y-61627475D01*
X61013000Y-61627468D01*
X61016690Y-61590001D01*
X61013000Y-61552534D01*
X61013000Y-57718010D01*
X61068387Y-57688405D01*
X61202962Y-57577962D01*
X61208342Y-57571406D01*
X61273815Y-57651185D01*
X61370506Y-57730537D01*
X61480820Y-57789502D01*
X61600518Y-57825812D01*
X61725000Y-57838072D01*
X62014250Y-57835000D01*
X62173000Y-57676250D01*
X62173000Y-56627000D01*
X62427000Y-56627000D01*
X62427000Y-57676250D01*
X62585750Y-57835000D01*
X62875000Y-57838072D01*
X62999482Y-57825812D01*
X63119180Y-57789502D01*
X63229494Y-57730537D01*
X63326185Y-57651185D01*
X63405537Y-57554494D01*
X63464502Y-57444180D01*
X63500812Y-57324482D01*
X63513072Y-57200000D01*
X63510000Y-56785750D01*
X63351250Y-56627000D01*
X62427000Y-56627000D01*
X62173000Y-56627000D01*
X62153000Y-56627000D01*
X62153000Y-56373000D01*
X62173000Y-56373000D01*
X62173000Y-55323750D01*
X62427000Y-55323750D01*
X62427000Y-56373000D01*
X63351250Y-56373000D01*
X63510000Y-56214250D01*
X63513072Y-55800000D01*
X63500812Y-55675518D01*
X63464502Y-55555820D01*
X63405537Y-55445506D01*
X63326185Y-55348815D01*
X63229494Y-55269463D01*
X63119180Y-55210498D01*
X62999482Y-55174188D01*
X62875000Y-55161928D01*
X62585750Y-55165000D01*
X62427000Y-55323750D01*
X62173000Y-55323750D01*
X62014250Y-55165000D01*
X61725000Y-55161928D01*
X61600518Y-55174188D01*
X61480820Y-55210498D01*
X61370506Y-55269463D01*
X61273815Y-55348815D01*
X61208342Y-55428594D01*
X61202962Y-55422038D01*
X61068387Y-55311595D01*
X61013000Y-55281990D01*
X61013000Y-54138072D01*
X61340000Y-54138072D01*
X61464482Y-54125812D01*
X61584180Y-54089502D01*
X61694494Y-54030537D01*
X61791185Y-53951185D01*
X61870537Y-53854494D01*
X61929502Y-53744180D01*
X61965812Y-53624482D01*
X61972951Y-53551995D01*
X66585961Y-58165006D01*
G37*
X66585961Y-58165006D02*
X66538485Y-58236060D01*
X66456696Y-58433517D01*
X66415000Y-58643137D01*
X66415000Y-58856863D01*
X66455804Y-59062000D01*
X64962466Y-59062000D01*
X64924999Y-59058310D01*
X64887532Y-59062000D01*
X64887525Y-59062000D01*
X64775426Y-59073041D01*
X64631600Y-59116670D01*
X64499049Y-59187520D01*
X64447317Y-59229976D01*
X64411976Y-59258979D01*
X64411973Y-59258982D01*
X64382868Y-59282868D01*
X64358982Y-59311973D01*
X60486979Y-63183977D01*
X60457868Y-63207868D01*
X60362520Y-63324050D01*
X60291670Y-63456601D01*
X60248041Y-63600427D01*
X60237000Y-63712526D01*
X60237000Y-63712533D01*
X60233310Y-63750000D01*
X60237000Y-63787467D01*
X60237001Y-64933954D01*
X59353956Y-65817000D01*
X59076174Y-65817000D01*
X58953475Y-65633368D01*
X58746632Y-65426525D01*
X58572240Y-65310000D01*
X58746632Y-65193475D01*
X58953475Y-64986632D01*
X59115990Y-64743411D01*
X59227932Y-64473158D01*
X59285000Y-64186260D01*
X59285000Y-63893740D01*
X59241913Y-63677131D01*
X60763028Y-62156017D01*
X60792132Y-62132132D01*
X60816018Y-62103027D01*
X60816021Y-62103024D01*
X60870205Y-62037000D01*
X60887480Y-62015951D01*
X60958330Y-61883400D01*
X61001959Y-61739574D01*
X61013000Y-61627475D01*
X61013000Y-61627468D01*
X61016690Y-61590001D01*
X61013000Y-61552534D01*
X61013000Y-57718010D01*
X61068387Y-57688405D01*
X61202962Y-57577962D01*
X61208342Y-57571406D01*
X61273815Y-57651185D01*
X61370506Y-57730537D01*
X61480820Y-57789502D01*
X61600518Y-57825812D01*
X61725000Y-57838072D01*
X62014250Y-57835000D01*
X62173000Y-57676250D01*
X62173000Y-56627000D01*
X62427000Y-56627000D01*
X62427000Y-57676250D01*
X62585750Y-57835000D01*
X62875000Y-57838072D01*
X62999482Y-57825812D01*
X63119180Y-57789502D01*
X63229494Y-57730537D01*
X63326185Y-57651185D01*
X63405537Y-57554494D01*
X63464502Y-57444180D01*
X63500812Y-57324482D01*
X63513072Y-57200000D01*
X63510000Y-56785750D01*
X63351250Y-56627000D01*
X62427000Y-56627000D01*
X62173000Y-56627000D01*
X62153000Y-56627000D01*
X62153000Y-56373000D01*
X62173000Y-56373000D01*
X62173000Y-55323750D01*
X62427000Y-55323750D01*
X62427000Y-56373000D01*
X63351250Y-56373000D01*
X63510000Y-56214250D01*
X63513072Y-55800000D01*
X63500812Y-55675518D01*
X63464502Y-55555820D01*
X63405537Y-55445506D01*
X63326185Y-55348815D01*
X63229494Y-55269463D01*
X63119180Y-55210498D01*
X62999482Y-55174188D01*
X62875000Y-55161928D01*
X62585750Y-55165000D01*
X62427000Y-55323750D01*
X62173000Y-55323750D01*
X62014250Y-55165000D01*
X61725000Y-55161928D01*
X61600518Y-55174188D01*
X61480820Y-55210498D01*
X61370506Y-55269463D01*
X61273815Y-55348815D01*
X61208342Y-55428594D01*
X61202962Y-55422038D01*
X61068387Y-55311595D01*
X61013000Y-55281990D01*
X61013000Y-54138072D01*
X61340000Y-54138072D01*
X61464482Y-54125812D01*
X61584180Y-54089502D01*
X61694494Y-54030537D01*
X61791185Y-53951185D01*
X61870537Y-53854494D01*
X61929502Y-53744180D01*
X61965812Y-53624482D01*
X61972951Y-53551995D01*
X66585961Y-58165006D01*
G36*
X87021161Y-51555330D02*
G01*
X86601467Y-52183446D01*
X86312377Y-52881372D01*
X86165000Y-53622285D01*
X86165000Y-54377715D01*
X86312377Y-55118628D01*
X86601467Y-55816554D01*
X87021161Y-56444670D01*
X87555330Y-56978839D01*
X88183446Y-57398533D01*
X88881372Y-57687623D01*
X89622285Y-57835000D01*
X90377715Y-57835000D01*
X91118628Y-57687623D01*
X91816554Y-57398533D01*
X92444670Y-56978839D01*
X92873000Y-56550509D01*
X92873000Y-61361928D01*
X92850000Y-61361928D01*
X92725518Y-61374188D01*
X92605820Y-61410498D01*
X92600000Y-61413609D01*
X92594180Y-61410498D01*
X92474482Y-61374188D01*
X92350000Y-61361928D01*
X92285750Y-61365000D01*
X92127000Y-61523750D01*
X92127000Y-62623000D01*
X92147000Y-62623000D01*
X92147000Y-62877000D01*
X92127000Y-62877000D01*
X92127000Y-62897000D01*
X91873000Y-62897000D01*
X91873000Y-62877000D01*
X91853000Y-62877000D01*
X91853000Y-62623000D01*
X91873000Y-62623000D01*
X91873000Y-61523750D01*
X91714250Y-61365000D01*
X91650000Y-61361928D01*
X91525518Y-61374188D01*
X91405820Y-61410498D01*
X91400000Y-61413609D01*
X91394180Y-61410498D01*
X91274482Y-61374188D01*
X91150000Y-61361928D01*
X90450000Y-61361928D01*
X90325518Y-61374188D01*
X90205820Y-61410498D01*
X90200000Y-61413609D01*
X90194180Y-61410498D01*
X90074482Y-61374188D01*
X89950000Y-61361928D01*
X89250000Y-61361928D01*
X89125518Y-61374188D01*
X89005820Y-61410498D01*
X89000000Y-61413609D01*
X88994180Y-61410498D01*
X88874482Y-61374188D01*
X88750000Y-61361928D01*
X88050000Y-61361928D01*
X87925518Y-61374188D01*
X87805820Y-61410498D01*
X87695506Y-61469463D01*
X87598815Y-61548815D01*
X87519463Y-61645506D01*
X87460498Y-61755820D01*
X87424188Y-61875518D01*
X87411928Y-62000000D01*
X87411928Y-63111928D01*
X85950000Y-63111928D01*
X85863000Y-63120496D01*
X85863000Y-60537466D01*
X85866690Y-60499999D01*
X85863000Y-60462532D01*
X85863000Y-60462525D01*
X85851959Y-60350426D01*
X85808330Y-60206600D01*
X85737480Y-60074049D01*
X85689019Y-60015000D01*
X85666021Y-59986976D01*
X85666018Y-59986973D01*
X85642132Y-59957868D01*
X85613027Y-59933982D01*
X81662052Y-55983008D01*
X81713940Y-55961515D01*
X81891647Y-55842775D01*
X82042775Y-55691647D01*
X82161515Y-55513940D01*
X82243304Y-55316483D01*
X82285000Y-55106863D01*
X82285000Y-54893137D01*
X82243304Y-54683517D01*
X82234500Y-54662262D01*
X82289851Y-54645472D01*
X82443387Y-54563405D01*
X82577962Y-54452962D01*
X82625000Y-54395646D01*
X82672038Y-54452962D01*
X82806613Y-54563405D01*
X82960149Y-54645472D01*
X83126745Y-54696008D01*
X83299999Y-54713072D01*
X84200001Y-54713072D01*
X84373255Y-54696008D01*
X84539851Y-54645472D01*
X84693387Y-54563405D01*
X84827962Y-54452962D01*
X84938405Y-54318387D01*
X85020472Y-54164851D01*
X85071008Y-53998255D01*
X85088072Y-53825001D01*
X85088072Y-53174999D01*
X85071008Y-53001745D01*
X85020472Y-52835149D01*
X84938405Y-52681613D01*
X84827962Y-52547038D01*
X84740184Y-52475000D01*
X84827962Y-52402962D01*
X84938405Y-52268387D01*
X85020472Y-52114851D01*
X85071008Y-51948255D01*
X85088072Y-51775001D01*
X85088072Y-51127000D01*
X87449491Y-51127000D01*
X87021161Y-51555330D01*
G37*
X87021161Y-51555330D02*
X86601467Y-52183446D01*
X86312377Y-52881372D01*
X86165000Y-53622285D01*
X86165000Y-54377715D01*
X86312377Y-55118628D01*
X86601467Y-55816554D01*
X87021161Y-56444670D01*
X87555330Y-56978839D01*
X88183446Y-57398533D01*
X88881372Y-57687623D01*
X89622285Y-57835000D01*
X90377715Y-57835000D01*
X91118628Y-57687623D01*
X91816554Y-57398533D01*
X92444670Y-56978839D01*
X92873000Y-56550509D01*
X92873000Y-61361928D01*
X92850000Y-61361928D01*
X92725518Y-61374188D01*
X92605820Y-61410498D01*
X92600000Y-61413609D01*
X92594180Y-61410498D01*
X92474482Y-61374188D01*
X92350000Y-61361928D01*
X92285750Y-61365000D01*
X92127000Y-61523750D01*
X92127000Y-62623000D01*
X92147000Y-62623000D01*
X92147000Y-62877000D01*
X92127000Y-62877000D01*
X92127000Y-62897000D01*
X91873000Y-62897000D01*
X91873000Y-62877000D01*
X91853000Y-62877000D01*
X91853000Y-62623000D01*
X91873000Y-62623000D01*
X91873000Y-61523750D01*
X91714250Y-61365000D01*
X91650000Y-61361928D01*
X91525518Y-61374188D01*
X91405820Y-61410498D01*
X91400000Y-61413609D01*
X91394180Y-61410498D01*
X91274482Y-61374188D01*
X91150000Y-61361928D01*
X90450000Y-61361928D01*
X90325518Y-61374188D01*
X90205820Y-61410498D01*
X90200000Y-61413609D01*
X90194180Y-61410498D01*
X90074482Y-61374188D01*
X89950000Y-61361928D01*
X89250000Y-61361928D01*
X89125518Y-61374188D01*
X89005820Y-61410498D01*
X89000000Y-61413609D01*
X88994180Y-61410498D01*
X88874482Y-61374188D01*
X88750000Y-61361928D01*
X88050000Y-61361928D01*
X87925518Y-61374188D01*
X87805820Y-61410498D01*
X87695506Y-61469463D01*
X87598815Y-61548815D01*
X87519463Y-61645506D01*
X87460498Y-61755820D01*
X87424188Y-61875518D01*
X87411928Y-62000000D01*
X87411928Y-63111928D01*
X85950000Y-63111928D01*
X85863000Y-63120496D01*
X85863000Y-60537466D01*
X85866690Y-60499999D01*
X85863000Y-60462532D01*
X85863000Y-60462525D01*
X85851959Y-60350426D01*
X85808330Y-60206600D01*
X85737480Y-60074049D01*
X85689019Y-60015000D01*
X85666021Y-59986976D01*
X85666018Y-59986973D01*
X85642132Y-59957868D01*
X85613027Y-59933982D01*
X81662052Y-55983008D01*
X81713940Y-55961515D01*
X81891647Y-55842775D01*
X82042775Y-55691647D01*
X82161515Y-55513940D01*
X82243304Y-55316483D01*
X82285000Y-55106863D01*
X82285000Y-54893137D01*
X82243304Y-54683517D01*
X82234500Y-54662262D01*
X82289851Y-54645472D01*
X82443387Y-54563405D01*
X82577962Y-54452962D01*
X82625000Y-54395646D01*
X82672038Y-54452962D01*
X82806613Y-54563405D01*
X82960149Y-54645472D01*
X83126745Y-54696008D01*
X83299999Y-54713072D01*
X84200001Y-54713072D01*
X84373255Y-54696008D01*
X84539851Y-54645472D01*
X84693387Y-54563405D01*
X84827962Y-54452962D01*
X84938405Y-54318387D01*
X85020472Y-54164851D01*
X85071008Y-53998255D01*
X85088072Y-53825001D01*
X85088072Y-53174999D01*
X85071008Y-53001745D01*
X85020472Y-52835149D01*
X84938405Y-52681613D01*
X84827962Y-52547038D01*
X84740184Y-52475000D01*
X84827962Y-52402962D01*
X84938405Y-52268387D01*
X85020472Y-52114851D01*
X85071008Y-51948255D01*
X85088072Y-51775001D01*
X85088072Y-51127000D01*
X87449491Y-51127000D01*
X87021161Y-51555330D01*
G36*
X67705000Y-52414250D02*
G01*
X67863750Y-52573000D01*
X69303000Y-52573000D01*
X69303000Y-52553000D01*
X69557000Y-52553000D01*
X69557000Y-52573000D01*
X69577000Y-52573000D01*
X69577000Y-52827000D01*
X69557000Y-52827000D01*
X69557000Y-53976250D01*
X69715750Y-54135000D01*
X70520000Y-54138072D01*
X70644482Y-54125812D01*
X70764180Y-54089502D01*
X70874494Y-54030537D01*
X70971185Y-53951185D01*
X71050537Y-53854494D01*
X71109502Y-53744180D01*
X71145812Y-53624482D01*
X71158072Y-53500000D01*
X71156169Y-53181374D01*
X71161928Y-53184452D01*
X71161928Y-53825001D01*
X71178992Y-53998255D01*
X71229528Y-54164851D01*
X71311595Y-54318387D01*
X71422038Y-54452962D01*
X71556613Y-54563405D01*
X71710149Y-54645472D01*
X71737001Y-54653617D01*
X71737000Y-55683955D01*
X71386974Y-56033982D01*
X71357869Y-56057868D01*
X71333983Y-56086973D01*
X71333979Y-56086977D01*
X71262520Y-56174050D01*
X71191670Y-56306601D01*
X71148041Y-56450427D01*
X71133310Y-56600000D01*
X71137001Y-56637477D01*
X71137001Y-56815000D01*
X70993137Y-56815000D01*
X70783517Y-56856696D01*
X70586060Y-56938485D01*
X70408353Y-57057225D01*
X70257225Y-57208353D01*
X70138485Y-57386060D01*
X70056696Y-57583517D01*
X70015000Y-57793137D01*
X70015000Y-58006863D01*
X70056696Y-58216483D01*
X70138485Y-58413940D01*
X70155151Y-58438883D01*
X70026132Y-58451590D01*
X69900000Y-58489852D01*
X69773868Y-58451590D01*
X69625000Y-58436928D01*
X69375000Y-58436928D01*
X69226132Y-58451590D01*
X69100000Y-58489852D01*
X68973868Y-58451590D01*
X68825000Y-58436928D01*
X68575000Y-58436928D01*
X68544578Y-58439924D01*
X68543304Y-58433517D01*
X68461515Y-58236060D01*
X68342775Y-58058353D01*
X68264753Y-57980331D01*
X68263000Y-57962533D01*
X68263000Y-57962525D01*
X68251959Y-57850426D01*
X68208330Y-57706600D01*
X68137480Y-57574049D01*
X68124599Y-57558353D01*
X68066021Y-57486976D01*
X68066018Y-57486973D01*
X68042132Y-57457868D01*
X68013027Y-57433982D01*
X64079045Y-53500000D01*
X67701928Y-53500000D01*
X67714188Y-53624482D01*
X67750498Y-53744180D01*
X67809463Y-53854494D01*
X67888815Y-53951185D01*
X67985506Y-54030537D01*
X68095820Y-54089502D01*
X68215518Y-54125812D01*
X68340000Y-54138072D01*
X69144250Y-54135000D01*
X69303000Y-53976250D01*
X69303000Y-52827000D01*
X67863750Y-52827000D01*
X67705000Y-52985750D01*
X67701928Y-53500000D01*
X64079045Y-53500000D01*
X62766023Y-52186979D01*
X62742132Y-52157868D01*
X62625951Y-52062520D01*
X62574465Y-52035000D01*
X67702734Y-52035000D01*
X67705000Y-52414250D01*
G37*
X67705000Y-52414250D02*
X67863750Y-52573000D01*
X69303000Y-52573000D01*
X69303000Y-52553000D01*
X69557000Y-52553000D01*
X69557000Y-52573000D01*
X69577000Y-52573000D01*
X69577000Y-52827000D01*
X69557000Y-52827000D01*
X69557000Y-53976250D01*
X69715750Y-54135000D01*
X70520000Y-54138072D01*
X70644482Y-54125812D01*
X70764180Y-54089502D01*
X70874494Y-54030537D01*
X70971185Y-53951185D01*
X71050537Y-53854494D01*
X71109502Y-53744180D01*
X71145812Y-53624482D01*
X71158072Y-53500000D01*
X71156169Y-53181374D01*
X71161928Y-53184452D01*
X71161928Y-53825001D01*
X71178992Y-53998255D01*
X71229528Y-54164851D01*
X71311595Y-54318387D01*
X71422038Y-54452962D01*
X71556613Y-54563405D01*
X71710149Y-54645472D01*
X71737001Y-54653617D01*
X71737000Y-55683955D01*
X71386974Y-56033982D01*
X71357869Y-56057868D01*
X71333983Y-56086973D01*
X71333979Y-56086977D01*
X71262520Y-56174050D01*
X71191670Y-56306601D01*
X71148041Y-56450427D01*
X71133310Y-56600000D01*
X71137001Y-56637477D01*
X71137001Y-56815000D01*
X70993137Y-56815000D01*
X70783517Y-56856696D01*
X70586060Y-56938485D01*
X70408353Y-57057225D01*
X70257225Y-57208353D01*
X70138485Y-57386060D01*
X70056696Y-57583517D01*
X70015000Y-57793137D01*
X70015000Y-58006863D01*
X70056696Y-58216483D01*
X70138485Y-58413940D01*
X70155151Y-58438883D01*
X70026132Y-58451590D01*
X69900000Y-58489852D01*
X69773868Y-58451590D01*
X69625000Y-58436928D01*
X69375000Y-58436928D01*
X69226132Y-58451590D01*
X69100000Y-58489852D01*
X68973868Y-58451590D01*
X68825000Y-58436928D01*
X68575000Y-58436928D01*
X68544578Y-58439924D01*
X68543304Y-58433517D01*
X68461515Y-58236060D01*
X68342775Y-58058353D01*
X68264753Y-57980331D01*
X68263000Y-57962533D01*
X68263000Y-57962525D01*
X68251959Y-57850426D01*
X68208330Y-57706600D01*
X68137480Y-57574049D01*
X68124599Y-57558353D01*
X68066021Y-57486976D01*
X68066018Y-57486973D01*
X68042132Y-57457868D01*
X68013027Y-57433982D01*
X64079045Y-53500000D01*
X67701928Y-53500000D01*
X67714188Y-53624482D01*
X67750498Y-53744180D01*
X67809463Y-53854494D01*
X67888815Y-53951185D01*
X67985506Y-54030537D01*
X68095820Y-54089502D01*
X68215518Y-54125812D01*
X68340000Y-54138072D01*
X69144250Y-54135000D01*
X69303000Y-53976250D01*
X69303000Y-52827000D01*
X67863750Y-52827000D01*
X67705000Y-52985750D01*
X67701928Y-53500000D01*
X64079045Y-53500000D01*
X62766023Y-52186979D01*
X62742132Y-52157868D01*
X62625951Y-52062520D01*
X62574465Y-52035000D01*
X67702734Y-52035000D01*
X67705000Y-52414250D01*
G36*
X77127000Y-53373000D02*
G01*
X77147000Y-53373000D01*
X77147000Y-53627000D01*
X77127000Y-53627000D01*
X77127000Y-54551250D01*
X77285750Y-54710000D01*
X77700000Y-54713072D01*
X77824482Y-54700812D01*
X77944180Y-54664502D01*
X78054494Y-54605537D01*
X78151185Y-54526185D01*
X78195485Y-54472205D01*
X78306613Y-54563405D01*
X78444299Y-54637000D01*
X78437466Y-54637000D01*
X78399999Y-54633310D01*
X78362532Y-54637000D01*
X78362525Y-54637000D01*
X78250426Y-54648041D01*
X78106600Y-54691670D01*
X77974049Y-54762520D01*
X77886976Y-54833979D01*
X77886973Y-54833982D01*
X77857868Y-54857868D01*
X77833981Y-54886974D01*
X77483956Y-55237000D01*
X74287466Y-55237000D01*
X74249999Y-55233310D01*
X74212532Y-55237000D01*
X74212525Y-55237000D01*
X74100426Y-55248041D01*
X73956600Y-55291670D01*
X73824049Y-55362520D01*
X73736976Y-55433979D01*
X73736973Y-55433982D01*
X73707868Y-55457868D01*
X73683982Y-55486973D01*
X73263000Y-55907955D01*
X73263000Y-54653617D01*
X73289851Y-54645472D01*
X73443387Y-54563405D01*
X73577962Y-54452962D01*
X73625000Y-54395646D01*
X73672038Y-54452962D01*
X73806613Y-54563405D01*
X73960149Y-54645472D01*
X74126745Y-54696008D01*
X74299999Y-54713072D01*
X75200001Y-54713072D01*
X75373255Y-54696008D01*
X75539851Y-54645472D01*
X75693387Y-54563405D01*
X75804515Y-54472205D01*
X75848815Y-54526185D01*
X75945506Y-54605537D01*
X76055820Y-54664502D01*
X76175518Y-54700812D01*
X76300000Y-54713072D01*
X76714250Y-54710000D01*
X76873000Y-54551250D01*
X76873000Y-53627000D01*
X76853000Y-53627000D01*
X76853000Y-53373000D01*
X76873000Y-53373000D01*
X76873000Y-53353000D01*
X77127000Y-53353000D01*
X77127000Y-53373000D01*
G37*
X77127000Y-53373000D02*
X77147000Y-53373000D01*
X77147000Y-53627000D01*
X77127000Y-53627000D01*
X77127000Y-54551250D01*
X77285750Y-54710000D01*
X77700000Y-54713072D01*
X77824482Y-54700812D01*
X77944180Y-54664502D01*
X78054494Y-54605537D01*
X78151185Y-54526185D01*
X78195485Y-54472205D01*
X78306613Y-54563405D01*
X78444299Y-54637000D01*
X78437466Y-54637000D01*
X78399999Y-54633310D01*
X78362532Y-54637000D01*
X78362525Y-54637000D01*
X78250426Y-54648041D01*
X78106600Y-54691670D01*
X77974049Y-54762520D01*
X77886976Y-54833979D01*
X77886973Y-54833982D01*
X77857868Y-54857868D01*
X77833981Y-54886974D01*
X77483956Y-55237000D01*
X74287466Y-55237000D01*
X74249999Y-55233310D01*
X74212532Y-55237000D01*
X74212525Y-55237000D01*
X74100426Y-55248041D01*
X73956600Y-55291670D01*
X73824049Y-55362520D01*
X73736976Y-55433979D01*
X73736973Y-55433982D01*
X73707868Y-55457868D01*
X73683982Y-55486973D01*
X73263000Y-55907955D01*
X73263000Y-54653617D01*
X73289851Y-54645472D01*
X73443387Y-54563405D01*
X73577962Y-54452962D01*
X73625000Y-54395646D01*
X73672038Y-54452962D01*
X73806613Y-54563405D01*
X73960149Y-54645472D01*
X74126745Y-54696008D01*
X74299999Y-54713072D01*
X75200001Y-54713072D01*
X75373255Y-54696008D01*
X75539851Y-54645472D01*
X75693387Y-54563405D01*
X75804515Y-54472205D01*
X75848815Y-54526185D01*
X75945506Y-54605537D01*
X76055820Y-54664502D01*
X76175518Y-54700812D01*
X76300000Y-54713072D01*
X76714250Y-54710000D01*
X76873000Y-54551250D01*
X76873000Y-53627000D01*
X76853000Y-53627000D01*
X76853000Y-53373000D01*
X76873000Y-53373000D01*
X76873000Y-53353000D01*
X77127000Y-53353000D01*
X77127000Y-53373000D01*
%TD*%
M02*
